<svg version="1.1" viewBox="0.0 0.0 952.7769028871392 791.6666666666666" fill="none" stroke="none" stroke-linecap="square" stroke-miterlimit="10" xmlns:xlink="http://www.w3.org/1999/xlink" xmlns="http://www.w3.org/2000/svg"><clipPath id="p.0"><path d="m0 0l952.7769 0l0 791.6667l-952.7769 0l0 -791.6667z" clip-rule="nonzero"/></clipPath><g clip-path="url(#p.0)"><path fill="#000000" fill-opacity="0.0" d="m0 0l952.7769 0l0 791.6667l-952.7769 0z" fill-rule="evenodd"/><path fill="#8d3aed" d="m70.56693 57.769466l0 0c0 -12.109917 9.817024 -21.924683 21.92694 -21.921886l775.0122 0.1788559c5.8154297 0.0013427734 11.392639 2.3127823 15.5047 6.425831c4.1121216 4.1130524 6.422241 9.690788 6.422241 15.506176l0 87.70516c0 12.109924 -9.817017 21.924683 -21.92694 21.92189l-775.0122 -0.17886353c-12.109917 -0.0027923584 -21.92694 -9.8220825 -21.92694 -21.932007z" fill-rule="evenodd"/><path fill="#ffffff" d="m309.10516 101.56022q2.84375 0.43815613 5.1875 2.3136978q2.359375 1.8599167 3.734375 4.625862q1.390625 2.7659454 1.390625 5.9065704q0 3.953125 -2.015625 7.1245346q-2.015625 3.1714096 -5.859375 4.9986496q-3.84375 1.8272324 -9.078125 1.8260269l-19.40625 -0.004470825l0 -52.031258l18.65625 0.0043029785q5.3125 0.0012283325 9.03125 1.7520828q3.734375 1.7508621 5.59375 4.751297q1.875 2.9848022 1.875 6.7035522q0 4.640625 -2.5 7.671303q-2.5 3.0150452 -6.609375 4.357849zm-19.25 -2.7700653l11.421875 0.002632141q4.78125 0.0011062622 7.390625 -2.232666q2.609375 -2.2493973 2.609375 -6.2025223q0 -3.9531326 -2.609375 -6.1881027q-2.609375 -2.2506027 -7.546875 -2.2517471l-11.265625 -0.0026016235l0 16.875008zm12.015625 23.97152q5.078125 0.0011749268 7.90625 -2.3888016q2.84375 -2.3899689 2.84375 -6.639969q0 -4.34375 -2.984375 -6.8444366q-2.984375 -2.5006866 -7.984375 -2.5018463l-11.796875 -0.0027160645l0 18.375l12.015625 0.0027694702zm33.748627 -49.64846l0 55.249992l-6.7968445 -0.0015563965l0 -55.250008l6.7968445 0.0015716553zm29.412323 55.928658q-5.75 -0.0013275146 -10.421875 -2.6117783q-4.65625 -2.610443 -7.3125 -7.423561q-2.65625 -4.8287354 -2.65625 -11.172485q0 -6.265625 2.71875 -11.077499q2.734375 -4.8274918 7.4375 -7.3889084q4.703125 -2.5770416 10.53125 -2.5756989q5.828125 0.0013504028 10.53125 2.5805588q4.703125 2.5635834 7.421875 7.3454666q2.71875 4.7818756 2.71875 11.125626q0 6.34375 -2.796875 11.1712265q-2.796875 4.811859 -7.578125 7.420128q-4.765625 2.6082687 -10.59375 2.606926zm0 -5.9687424q3.65625 8.392334E-4 6.859375 -1.7171707q3.21875 -1.71801 5.1875 -5.155052q1.984375 -3.4370422 1.984375 -8.358917q0 -4.921875 -1.9375 -8.359825q-1.9375 -3.4379425 -5.078125 -5.1105423q-3.140625 -1.6882248 -6.796875 -1.6890717q-3.734375 -8.621216E-4 -6.828125 1.6859283q-3.09375 1.6711578 -4.96875 5.108223q-1.859375 3.4370728 -1.859375 8.358948q0 5.0 1.828125 8.43792q1.828125 3.4379272 4.890625 5.126129q3.0625 1.6725845 6.71875 1.6734314zm27.389374 -15.228058q0 -6.34375 2.53125 -11.077538q2.546875 -4.7494125 7.0625 -7.35775q4.515625 -2.6083298 10.34375 -2.606987q7.546875 0.001739502 12.4375 3.6591187q4.890625 3.6573792 6.453125 10.157745l-7.3125 -0.0016937256q-1.046875 -3.7346115 -4.078125 -5.8915634q-3.015625 -2.1725693 -7.5 -2.1736069q-5.828125 -0.0013427734 -9.40625 3.9978333q-3.578125 3.9835434 -3.578125 11.296043q0 7.390625 3.578125 11.422707q3.578125 4.032074 9.40625 4.0334167q4.484375 0.0010375977 7.46875 -2.0764008q2.984375 -2.0930634 4.109375 -5.983429l7.3125 0.0016937256q-1.640625 6.2652435 -6.578125 10.045357q-4.921875 3.7644882 -12.3125 3.7627792q-5.828125 -0.0013427734 -10.34375 -2.611763q-4.515625 -2.6104126 -7.0625 -7.39225q-2.53125 -4.7818375 -2.53125 -11.203712zm70.70697 20.54757l-16.046875 -18.066208l0 18.0625l-6.796875 -0.0015716553l0 -55.249992l6.796875 0.0015640259l0 32.484375l15.75 -18.136986l9.484375 0.0021896362l-19.265625 20.370552l19.328125 20.535713l-9.25 -0.0021362305zm13.057343 -20.528236q0 -6.34375 2.53125 -11.077545q2.546875 -4.7494125 7.0625 -7.3577423q4.515625 -2.6083298 10.34375 -2.606987q7.546875 0.001739502 12.4375 3.6591187q4.890625 3.6573792 6.453125 10.157738l-7.3125 -0.0016860962q-1.046875 -3.7346191 -4.078125 -5.8915634q-3.015625 -2.172577 -7.5 -2.1736069q-5.828125 -0.0013427734 -9.40625 3.9978256q-3.578125 3.983551 -3.578125 11.296051q0 7.390625 3.578125 11.422699q3.578125 4.0320816 9.40625 4.0334244q4.484375 0.0010375977 7.46875 -2.0764008q2.984375 -2.0930634 4.109375 -5.983429l7.3125 0.0016860962q-1.640625 6.265251 -6.578125 10.045357q-4.921875 3.7644958 -12.3125 3.7627869q-5.828125 -0.0013427734 -10.34375 -2.611763q-4.515625 -2.6104202 -7.0625 -7.3922577q-2.53125 -4.78183 -2.53125 -11.203705zm68.17572 -21.109268q4.625 0.0010681152 8.359375 1.9863052q3.734375 1.9696121 5.859375 5.9388504q2.125 3.9536133 2.125 9.625488l0 24.109383l-6.71875 -0.0015563965l0 -23.140625q0 -6.125 -3.0625 -9.37571q-3.0625 -3.250702 -8.359375 -3.2519226q-5.375 -0.0012435913 -8.546875 3.357399q-3.171875 3.3586426 -3.171875 9.780518l0 22.625l-6.796875 -0.0015716553l0 -55.25l6.796875 0.0015716553l0 20.15625q2.015625 -3.1245346 5.5625 -4.8424683q3.546875 -1.717926 7.953125 -1.7169113zm24.920593 21.052628q0 -6.265625 2.53125 -10.99942q2.546875 -4.7494125 6.984375 -7.3577576q4.453125 -2.6083527 9.90625 -2.6070938q5.375 0.0012435913 9.328125 2.3146515q3.953125 2.3134155 5.890625 5.8138657l0 -7.453125l6.875 0.0015869141l0 40.906242l-6.875 -0.0015869141l0 -7.6093674q-2.015625 3.5776596 -6.015625 5.9361115q-3.984375 2.3428268 -9.28125 2.3416061q-5.453125 -0.0012512207 -9.859375 -2.6897736q-4.40625 -2.6885223 -6.953125 -7.53286q-2.53125 -4.859955 -2.53125 -11.06308zm34.640625 0.086120605q0 -4.625 -1.859375 -8.062935q-1.859375 -3.4379272 -5.046875 -5.2667847q-3.171875 -1.8288574 -6.96875 -1.8297348q-3.8125 -8.773804E-4 -6.953125 1.7952728q-3.125 1.7805252 -5.0 5.2175903q-1.859375 3.4370728 -1.859375 8.062073q0 4.703125 1.859375 8.187927q1.875 3.4691849 5.0 5.2980347q3.140625 1.8288498 6.953125 1.8297272q3.796875 8.773804E-4 6.96875 -1.8265152q3.1875 -1.8273926 5.046875 -5.2957153q1.859375 -3.4839401 1.859375 -8.10894zm21.873901 -27.026207q-1.9375 -4.4250488E-4 -3.28125 -1.3445053q-1.34375 -1.3440628 -1.34375 -3.2815628q0 -1.9375 1.34375 -3.2809372q1.34375 -1.3434372 3.28125 -1.3429947q1.875 4.348755E-4 3.171875 1.3444824q1.3125 1.3440552 1.3125 3.2815552q0 1.9375 -1.3125 3.2809448q-1.296875 1.3434525 -3.171875 1.3430176zm3.296875 6.657013l0 40.90625l-6.796875 -0.0015716553l0 -40.90625l6.796875 0.0015716553zm31.506042 -0.7427292q7.453125 0.0017166138 12.078125 4.5184097q4.640625 4.5167007 4.640625 13.032326l0 24.109367l-6.71875 -0.0015411377l0 -23.140625q0 -6.125 -3.0625 -9.37571q-3.0625 -3.2507095 -8.359375 -3.2519302q-5.375 -0.0012435913 -8.546875 3.357399q-3.171875 3.3586502 -3.171875 9.780525l0 22.625l-6.796875 -0.0015716553l0 -40.90625l6.796875 0.0015640259l0 5.8125076q2.015625 -3.1245422 5.484375 -4.842491q3.46875 -1.7179489 7.65625 -1.71698z" fill-rule="nonzero"/><path fill="#25cc85" d="m408.9134 309.73273l0 0c0 -12.12442 9.828766 -21.95102 21.953186 -21.948334l98.266846 0.021759033c5.8223267 0.0013122559 11.40625 2.3154602 15.523254 6.43338c4.1170044 4.1179504 6.4299316 9.702332 6.4299316 15.524689l0 87.81015c0 12.12442 -9.828796 21.95102 -21.953186 21.948334l-98.266846 -0.02178955c-12.12442 -0.0026855469 -21.953186 -9.833618 -21.953186 -21.958038z" fill-rule="evenodd"/><path fill="#ffffff" d="m445.80975 353.89096q1.46875 0.2347107 2.6875 1.2037354q1.21875 0.95339966 1.921875 2.3910522q0.71875 1.4220276 0.71875 3.0470276q0 2.046875 -1.046875 3.7028809q-1.03125 1.6404114 -3.03125 2.5930786q-1.984375 0.93707275 -4.6875 0.9364624l-10.0625 -0.0022277832l0 -26.9375l9.671875 0.0021362305q2.75 6.1035156E-4 4.671875 0.9072876q1.9375 0.90667725 2.90625 2.4537659q0.96875 1.5470886 0.96875 3.4845886q0 2.390625 -1.296875 3.9528503q-1.296875 1.5622253 -3.421875 2.264862zm-9.96875 -1.4396973l5.90625 0.0013122559q2.46875 5.493164E-4 3.828125 -1.1553955q1.359375 -1.1559753 1.359375 -3.2028503q0 -2.046875 -1.359375 -3.2033997q-1.359375 -1.1721802 -3.90625 -1.17276l-5.828125 -0.0012817383l0 8.734375zm6.21875 12.407623q2.625 5.79834E-4 4.09375 -1.2334595q1.46875 -1.2340698 1.46875 -3.4371948q0 -2.234375 -1.546875 -3.5315857q-1.546875 -1.2972107 -4.125 -1.2977905l-6.109375 -0.0013427734l0 9.5l6.21875 0.001373291zm17.47754 -25.69925l0 28.609375l-3.53125 -7.9345703E-4l0 -28.609375l3.53125 7.9345703E-4zm15.22818 28.956482q-2.984375 -6.4086914E-4 -5.40625 -1.3449402q-2.40625 -1.3598938 -3.78125 -3.844574q-1.375 -2.5003052 -1.375 -5.781555q0 -3.25 1.40625 -5.73407q1.421875 -2.4996948 3.859375 -3.8272705q2.4375 -1.3432007 5.453125 -1.3425293q3.015625 6.4086914E-4 5.4375 1.3449402q2.4375 1.3286743 3.84375 3.7977295q1.421875 2.4690552 1.421875 5.76593q0 3.28125 -1.453125 5.780945q-1.453125 2.4840393 -3.921875 3.842865q-2.46875 1.3432007 -5.484375 1.3425293zm0 -3.09375q1.890625 4.272461E-4 3.546875 -0.87420654q1.671875 -0.8902588 2.6875 -2.6712646q1.03125 -1.7810364 1.03125 -4.3279114q0 -2.5625 -1.015625 -4.3283386q-1.0 -1.7814636 -2.625 -2.6568298q-1.625 -0.8753662 -3.515625 -0.87579346q-1.921875 -4.272461E-4 -3.53125 0.87423706q-1.609375 0.8746338 -2.578125 2.6556702q-0.96875 1.7654114 -0.96875 4.3279114q0 2.578125 0.953125 4.3595886q0.953125 1.7814636 2.53125 2.6567993q1.59375 0.8597412 3.484375 0.86013794zm14.17749 -7.8718567q0 -3.296875 1.3125 -5.749695q1.328125 -2.4528503 3.65625 -3.7960815q2.34375 -1.3588562 5.359375 -1.3581848q3.90625 8.8500977E-4 6.4375 1.8920593q2.53125 1.8911743 3.34375 5.2663574l-3.796875 -8.239746E-4q-0.53125 -1.9376221 -2.109375 -3.0629883q-1.5625 -1.1253357 -3.875 -1.1258545q-3.015625 -6.713867E-4 -4.875 2.077057q-1.859375 2.0620728 -1.859375 5.8589478q0 3.828125 1.859375 5.9223022q1.859375 2.0785217 4.875 2.079193q2.3125 5.187988E-4 3.859375 -1.0772705q1.546875 -1.0933838 2.125 -3.0932617l3.796875 8.239746E-4q-0.859375 3.234192 -3.40625 5.1867676q-2.546875 1.9525452 -6.375 1.9516907q-3.015625 -6.713867E-4 -5.359375 -1.3449402q-2.328125 -1.3598633 -3.65625 -3.8289185q-1.3125 -2.4846802 -1.3125 -5.79718zm36.620575 10.633118l-8.3125 -9.361206l0 9.359375l-3.53125 -7.9345703E-4l0 -28.609375l3.53125 7.9345703E-4l0 16.8125l8.15625 -9.388824l4.90625 0.0010986328l-9.96875 10.560272l10.0 10.627228l-4.78125 -0.0010681152z" fill-rule="nonzero"/><path fill="#25cc85" d="m408.9134 469.63824l0 0c0 -12.12442 9.828766 -21.95102 21.953186 -21.948334l98.266846 0.021759033c5.8223267 0.0012817383 11.40625 2.3154602 15.523254 6.43338c4.1170044 4.1179504 6.4299316 9.702332 6.4299316 15.524689l0 87.81012c0 12.124451 -9.828796 21.95105 -21.953186 21.948364l-98.266846 -0.02178955c-12.12442 -0.0026855469 -21.953186 -9.833618 -21.953186 -21.958069z" fill-rule="evenodd"/><path fill="#ffffff" d="m445.80975 513.7965q1.46875 0.23468018 2.6875 1.2036743q1.21875 0.9534302 1.921875 2.3910522q0.71875 1.4220581 0.71875 3.047058q0 2.046875 -1.046875 3.7028809q-1.03125 1.6403809 -3.03125 2.5930786q-1.984375 0.93707275 -4.6875 0.9364624l-10.0625 -0.0021972656l0 -26.93753l9.671875 0.0021362305q2.75 6.1035156E-4 4.671875 0.9072876q1.9375 0.90667725 2.90625 2.4537659q0.96875 1.5470886 0.96875 3.4845886q0 2.390625 -1.296875 3.9528503q-1.296875 1.5621948 -3.421875 2.2648926zm-9.96875 -1.4397583l5.90625 0.0013427734q2.46875 5.493164E-4 3.828125 -1.155426q1.359375 -1.1559448 1.359375 -3.2028198q0 -2.046875 -1.359375 -3.2034302q-1.359375 -1.1721802 -3.90625 -1.1727295l-5.828125 -0.0012817383l0 8.7343445zm6.21875 12.407654q2.625 5.493164E-4 4.09375 -1.2334595q1.46875 -1.2340698 1.46875 -3.4371948q0 -2.234375 -1.546875 -3.5316162q-1.546875 -1.2971802 -4.125 -1.2977295l-6.109375 -0.0014038086l0 9.5l6.21875 0.0014038086zm17.47754 -25.69925l0 28.609344l-3.53125 -7.324219E-4l0 -28.609406l3.53125 7.9345703E-4zm15.22818 28.956512q-2.984375 -6.713867E-4 -5.40625 -1.3449707q-2.40625 -1.3599243 -3.78125 -3.8446045q-1.375 -2.5003052 -1.375 -5.781555q0 -3.25 1.40625 -5.7340393q1.421875 -2.4996948 3.859375 -3.8272705q2.4375 -1.3432312 5.453125 -1.3425598q3.015625 6.713867E-4 5.4375 1.3449707q2.4375 1.3286743 3.84375 3.7977295q1.421875 2.4690552 1.421875 5.76593q0 3.28125 -1.453125 5.780945q-1.453125 2.4840088 -3.921875 3.8428955q-2.46875 1.3432007 -5.484375 1.3425293zm0 -3.09375q1.890625 3.6621094E-4 3.546875 -0.8742676q1.671875 -0.89019775 2.6875 -2.6712646q1.03125 -1.7810059 1.03125 -4.327881q0 -2.5625 -1.015625 -4.328369q-1.0 -1.7814636 -2.625 -2.6567993q-1.625 -0.8753662 -3.515625 -0.87579346q-1.921875 -4.272461E-4 -3.53125 0.87420654q-1.609375 0.8746643 -2.578125 2.6557007q-0.96875 1.7653809 -0.96875 4.327881q0 2.578125 0.953125 4.359619q0.953125 1.7814331 2.53125 2.6567993q1.59375 0.8597412 3.484375 0.86016846zm14.17749 -7.871887q0 -3.296875 1.3125 -5.749695q1.328125 -2.4528503 3.65625 -3.7960815q2.34375 -1.3588562 5.359375 -1.3581848q3.90625 8.544922E-4 6.4375 1.8920593q2.53125 1.8911743 3.34375 5.2663574l-3.796875 -8.544922E-4q-0.53125 -1.9375916 -2.109375 -3.0629578q-1.5625 -1.1253357 -3.875 -1.1258545q-3.015625 -6.713867E-4 -4.875 2.077057q-1.859375 2.0620728 -1.859375 5.8589478q0 3.828125 1.859375 5.9223022q1.859375 2.0785522 4.875 2.0792236q2.3125 4.8828125E-4 3.859375 -1.0772705q1.546875 -1.0934448 2.125 -3.0933228l3.796875 8.544922E-4q-0.859375 3.234192 -3.40625 5.1867676q-2.546875 1.9525146 -6.375 1.9517212q-3.015625 -6.713867E-4 -5.359375 -1.3449707q-2.328125 -1.3598633 -3.65625 -3.8289185q-1.3125 -2.4846802 -1.3125 -5.79718zm36.620575 10.633118l-8.3125 -9.361206l0 9.359375l-3.53125 -7.9345703E-4l0 -28.609375l3.53125 7.9345703E-4l0 16.8125l8.15625 -9.388824l4.90625 0.0010681152l-9.96875 10.560303l10.0 10.627197l-4.78125 -0.0010375977z" fill-rule="nonzero"/><path fill="#25cc85" d="m408.9134 629.54376l0 0c0 -12.124451 9.828766 -21.95105 21.953186 -21.948364l98.266846 0.02178955c5.8223267 0.0012817383 11.40625 2.3154297 15.523254 6.4333496c4.1170044 4.117981 6.4299316 9.702332 6.4299316 15.524719l0 87.81012c0 12.124451 -9.828796 21.95105 -21.953186 21.948364l-98.266846 -0.02178955c-12.12442 -0.0026855469 -21.953186 -9.833618 -21.953186 -21.958069z" fill-rule="evenodd"/><path fill="#ffffff" d="m445.80975 673.70197q1.46875 0.23474121 2.6875 1.2037354q1.21875 0.9534302 1.921875 2.3910522q0.71875 1.4220581 0.71875 3.047058q0 2.046875 -1.046875 3.7028809q-1.03125 1.6403809 -3.03125 2.5930786q-1.984375 0.93707275 -4.6875 0.9364624l-10.0625 -0.0022583008l0 -26.9375l9.671875 0.0021972656q2.75 6.1035156E-4 4.671875 0.90722656q1.9375 0.9067383 2.90625 2.4537964q0.96875 1.5471191 0.96875 3.4846191q0 2.390625 -1.296875 3.9528198q-1.296875 1.5621948 -3.421875 2.2648315zm-9.96875 -1.4396973l5.90625 0.0013427734q2.46875 5.493164E-4 3.828125 -1.1553955q1.359375 -1.1559448 1.359375 -3.2028198q0 -2.046936 -1.359375 -3.2034302q-1.359375 -1.1721802 -3.90625 -1.1727905l-5.828125 -0.0012817383l0 8.734375zm6.21875 12.407654q2.625 5.493164E-4 4.09375 -1.2334595q1.46875 -1.2340698 1.46875 -3.4371948q0 -2.234375 -1.546875 -3.5316162q-1.546875 -1.2971802 -4.125 -1.2977905l-6.109375 -0.0013427734l0 9.5l6.21875 0.0014038086zm17.47754 -25.69928l0 28.609375l-3.53125 -7.9345703E-4l0 -28.609375l3.53125 7.9345703E-4zm15.22818 28.956543q-2.984375 -6.713867E-4 -5.40625 -1.3449707q-2.40625 -1.3599243 -3.78125 -3.8446045q-1.375 -2.5003052 -1.375 -5.781555q0 -3.25 1.40625 -5.73407q1.421875 -2.4996948 3.859375 -3.8272705q2.4375 -1.3432007 5.453125 -1.3425293q3.015625 6.713867E-4 5.4375 1.3449707q2.4375 1.3286743 3.84375 3.7977295q1.421875 2.4690552 1.421875 5.76593q0 3.28125 -1.453125 5.780945q-1.453125 2.4840088 -3.921875 3.8428345q-2.46875 1.3432007 -5.484375 1.3425903zm0 -3.09375q1.890625 3.6621094E-4 3.546875 -0.8742676q1.671875 -0.8902588 2.6875 -2.6712646q1.03125 -1.7810059 1.03125 -4.327881q0 -2.5625 -1.015625 -4.328369q-1.0 -1.7814331 -2.625 -2.6567993q-1.625 -0.8753662 -3.515625 -0.87579346q-1.921875 -4.272461E-4 -3.53125 0.87420654q-1.609375 0.8746338 -2.578125 2.6557007q-0.96875 1.7653809 -0.96875 4.327881q0 2.578125 0.953125 4.359619q0.953125 1.7814331 2.53125 2.6567993q1.59375 0.8597412 3.484375 0.86016846zm14.17749 -7.871887q0 -3.296875 1.3125 -5.749695q1.328125 -2.4528198 3.65625 -3.7960815q2.34375 -1.3588257 5.359375 -1.3582153q3.90625 9.1552734E-4 6.4375 1.8920898q2.53125 1.8911743 3.34375 5.2663574l-3.796875 -8.544922E-4q-0.53125 -1.9376221 -2.109375 -3.0629272q-1.5625 -1.1253662 -3.875 -1.1259155q-3.015625 -6.1035156E-4 -4.875 2.0770874q-1.859375 2.0620728 -1.859375 5.8589478q0 3.828125 1.859375 5.9223022q1.859375 2.0785522 4.875 2.0791626q2.3125 5.493164E-4 3.859375 -1.0772705q1.546875 -1.0933838 2.125 -3.0932617l3.796875 8.544922E-4q-0.859375 3.234192 -3.40625 5.1867676q-2.546875 1.9525146 -6.375 1.9516602q-3.015625 -6.1035156E-4 -5.359375 -1.3449097q-2.328125 -1.3598633 -3.65625 -3.8289185q-1.3125 -2.4846802 -1.3125 -5.79718zm36.620575 10.633118l-8.3125 -9.361206l0 9.359375l-3.53125 -7.9345703E-4l0 -28.609375l3.53125 7.9345703E-4l0 16.8125l8.15625 -9.388855l4.90625 0.0010986328l-9.96875 10.560303l10.0 10.627197l-4.78125 -0.0010375977z" fill-rule="nonzero"/><path fill="#000000" fill-opacity="0.0" d="m480.0 287.7953l0 -30.425201" fill-rule="evenodd"/><path stroke="#ffffff" stroke-width="1.0" stroke-linejoin="round" stroke-linecap="butt" d="m480.0 287.7953l0 -24.425201" fill-rule="evenodd"/><path fill="#ffffff" stroke="#ffffff" stroke-width="1.0" stroke-linecap="butt" d="m481.65173 263.3701l-1.6517334 -4.5381165l-1.6517334 4.5381165z" fill-rule="evenodd"/><path fill="#000000" fill-opacity="0.0" d="m480.0 447.70078l0 -28.188965" fill-rule="evenodd"/><path stroke="#ffffff" stroke-width="1.0" stroke-linejoin="round" stroke-linecap="butt" d="m480.0 447.70078l0 -22.188965" fill-rule="evenodd"/><path fill="#ffffff" stroke="#ffffff" stroke-width="1.0" stroke-linecap="butt" d="m481.65173 425.5118l-1.6517334 -4.538086l-1.6517334 4.538086z" fill-rule="evenodd"/><path fill="#000000" fill-opacity="0.0" d="m480.0 607.6063l0 -28.189026" fill-rule="evenodd"/><path stroke="#ffffff" stroke-width="1.0" stroke-linejoin="round" stroke-linecap="butt" d="m480.0 607.6063l0 -22.189026" fill-rule="evenodd"/><path fill="#ffffff" stroke="#ffffff" stroke-width="1.0" stroke-linecap="butt" d="m481.65173 585.4173l-1.6517334 -4.538086l-1.6517334 4.538086z" fill-rule="evenodd"/><path fill="#8d3aed" d="m70.56693 205.44377l0 0c0 -5.725891 4.641754 -10.366577 10.3676605 -10.365265l798.13086 0.18418884c2.7496338 6.4086914E-4 5.3867188 1.0935516 7.3309937 3.0383148c1.9443359 1.9447632 3.036621 4.582062 3.036621 7.3317413l0 41.469406c0 5.725891 -4.6417236 10.366592 -10.367615 10.36528l-798.13086 -0.1842041c-5.7259064 -0.0013122559 -10.3676605 -4.64415 -10.3676605 -10.370056z" fill-rule="evenodd"/><path fill="#ffffff" d="m361.62958 235.09627l-12.96875 -0.0029907227l-2.390625 6.6088257l-4.09375 -9.460449E-4l10.75 -29.560013l4.484375 0.0010223389l10.703125 29.564972l-4.09375 -9.460449E-4l-2.390625 -6.6099243zm-1.109375 -3.1564941l-5.375 -15.016876l-5.375 15.014389l10.75 0.0024871826zm16.17215 -21.793152l0 31.5625l-3.890625 -9.0026855E-4l0 -31.5625l3.890625 9.0026855E-4zm10.493439 0.0024261475l0 31.5625l-3.890625 -9.0026855E-4l0 -31.5625l3.890625 9.0026855E-4zm42.57013 1.8379517l-11.21875 29.731781l-4.484375 -0.0010375977l-11.21875 -29.736969l4.140625 9.613037E-4l9.34375 25.642776l9.34375 -25.638458l4.09375 9.460449E-4zm2.8043213 17.96939q0 -3.59375 1.453125 -6.2965393q1.453125 -2.7184143 3.984375 -4.2022095q2.546875 -1.4994049 5.65625 -1.4986877q3.078125 7.019043E-4 5.328125 1.3293457q2.265625 1.328659 3.375 3.3289032l0 -4.265625l3.921875 9.1552734E-4l0 23.375l-3.921875 -9.0026855E-4l0 -4.34375q-1.15625 2.0466003 -3.4375 3.3898315q-2.28125 1.343216 -5.3125 1.342514q-3.109375 -7.171631E-4 -5.625 -1.532547q-2.515625 -1.5474548 -3.96875 -4.3134155q-1.453125 -2.7815857 -1.453125 -6.3128357zm19.796875 0.035827637q0 -2.6406403 -1.0625 -4.5940094q-1.0625 -1.9689941 -2.875 -3.0162811q-1.8125 -1.047287 -4.0 -1.0478058q-2.171875 -4.8828125E-4 -3.96875 1.0303345q-1.78125 1.015213 -2.859375 2.9837189q-1.0625 1.9528809 -1.0625 4.609131q0 2.6875 1.0625 4.672119q1.078125 1.9689941 2.859375 3.0162811q1.796875 1.0473022 3.96875 1.0477905q2.1875 5.187988E-4 4.0 -1.0459442q1.8125 -1.046463 2.875 -3.0149689q1.0625 -1.9841156 1.0625 -4.6403656zm14.382446 -19.824814l0 31.5625l-3.890625 -9.0026855E-4l0 -31.5625l3.890625 9.0026855E-4zm8.618439 4.3926086q-1.109375 -2.4414062E-4 -1.890625 -0.76605225q-0.765625 -0.7658081 -0.765625 -1.8751831q0 -1.109375 0.765625 -1.8748169q0.78125 -0.7810669 1.890625 -0.78082275q1.0625 2.4414062E-4 1.796875 0.78167725q0.75 0.76579285 0.75 1.8751678q0 1.109375 -0.75 1.8748322q-0.734375 0.7654419 -1.796875 0.76519775zm1.875 3.7973175l0 23.375l-3.890625 -9.0026855E-4l0 -23.375l3.890625 9.0026855E-4zm5.1496887 11.610565q0 -3.59375 1.453125 -6.2965393q1.453125 -2.7184143 3.984375 -4.2022095q2.546875 -1.4994202 5.703125 -1.4986877q2.734375 6.2561035E-4 5.078125 1.2667999q2.34375 1.250534 3.578125 3.313324l0 -12.375l3.921875 9.0026855E-4l0 31.5625l-3.921875 -9.0026855E-4l0 -4.390625q-1.15625 2.0934906 -3.421875 3.4367065q-2.25 1.3432312 -5.28125 1.3425293q-3.109375 -7.171631E-4 -5.65625 -1.532547q-2.53125 -1.5474548 -3.984375 -4.3134155q-1.453125 -2.7815857 -1.453125 -6.3128357zm19.796875 0.035812378q0 -2.640625 -1.0625 -4.593994q-1.0625 -1.9689941 -2.875 -3.0162964q-1.8125 -1.047287 -4.0 -1.0477905q-2.171875 -5.0354004E-4 -3.96875 1.0303345q-1.78125 1.015213 -2.859375 2.9837189q-1.0625 1.9528809 -1.0625 4.609131q0 2.6875 1.0625 4.672119q1.078125 1.9689941 2.859375 3.0162811q1.796875 1.047287 3.96875 1.0477905q2.1875 5.0354004E-4 4.0 -1.0459595q1.8125 -1.0464478 2.875 -3.0149536q1.0625 -1.9841309 1.0625 -4.640381zm9.038696 -0.029159546q0 -3.59375 1.453125 -6.2965393q1.453125 -2.7184143 3.984375 -4.2022095q2.546875 -1.4994202 5.65625 -1.498703q3.078125 7.171631E-4 5.328125 1.329361q2.265625 1.3286438 3.375 3.3289032l0 -4.265625l3.921875 9.0026855E-4l0 23.375l-3.921875 -9.0026855E-4l0 -4.34375q-1.15625 2.0466156 -3.4375 3.3898315q-2.28125 1.3432312 -5.3125 1.3425293q-3.109375 -7.171631E-4 -5.625 -1.532547q-2.515625 -1.5474548 -3.96875 -4.3134155q-1.453125 -2.7815857 -1.453125 -6.3128357zm19.796875 0.035812378q0 -2.640625 -1.0625 -4.593994q-1.0625 -1.9689941 -2.875 -3.0162811q-1.8125 -1.0473022 -4.0 -1.0478058q-2.171875 -5.0354004E-4 -3.96875 1.0303345q-1.78125 1.015213 -2.859375 2.9837189q-1.0625 1.9528809 -1.0625 4.609131q0 2.6875 1.0625 4.672119q1.078125 1.9689941 2.859375 3.0162811q1.796875 1.047287 3.96875 1.0477905q2.1875 5.0354004E-4 4.0 -1.0459442q1.8125 -1.046463 2.875 -3.0149689q1.0625 -1.9841309 1.0625 -4.640381zm15.226196 -8.4339905l0 13.78125q0 1.703125 0.71875 2.4064178q0.734375 0.70329285 2.53125 0.7037201l2.859375 6.5612793E-4l0 3.28125l-3.5 -8.087158E-4q-3.25 -7.4768066E-4 -4.875 -1.4855042q-1.609375 -1.5003662 -1.609375 -4.906616l0 -13.78125l-3.03125 -7.019043E-4l0 -3.203125l3.03125 7.019043E-4l0 -5.890625l3.875 8.8500977E-4l0 5.890625l6.109375 0.0014190674l0 3.203125l-6.109375 -0.0014190674zm20.995605 20.567352q-3.296875 -7.6293945E-4 -5.96875 -1.5013733q-2.65625 -1.5006104 -4.171875 -4.2509613q-1.515625 -2.750351 -1.515625 -6.375351q0 -3.578125 1.5625 -6.327774q1.5625 -2.7496338 4.25 -4.217758q2.6875 -1.4837646 6.015625 -1.4829865q3.328125 7.6293945E-4 6.015625 1.4857635q2.6875 1.4693604 4.234375 4.2041016q1.5625 2.719101 1.5625 6.344101q0 3.625 -1.609375 6.374634q-1.59375 2.7496338 -4.328125 4.248993q-2.71875 1.4993744 -6.046875 1.4986115zm0 -3.421875q2.078125 4.7302246E-4 3.90625 -0.96784973q1.84375 -0.98394775 2.96875 -2.9524384q1.140625 -1.9684906 1.140625 -4.7809906q0 -2.8125 -1.109375 -4.7658844q-1.109375 -1.9689941 -2.90625 -2.9225464q-1.78125 -0.9691467 -3.875 -0.969635q-2.140625 -5.0354004E-4 -3.90625 0.96784973q-1.765625 0.952713 -2.84375 2.9212189q-1.0625 1.9528809 -1.0625 4.765381q0 2.859375 1.046875 4.828369q1.046875 1.9533539 2.796875 2.9225159q1.75 0.9535217 3.84375 0.95401zm20.987488 -16.542038q1.015625 -1.9997559 2.90625 -3.1087036q1.90625 -1.1089325 4.640625 -1.1082916l0 4.0l-1.03125 -2.4414062E-4q-6.515625 -0.0015106201 -6.515625 7.0766144l0 12.71875l-3.890625 -8.8500977E-4l0 -23.375l3.890625 8.8500977E-4l0 3.796875zm20.30133 19.973434q-2.6875 -6.1035156E-4 -4.828125 -0.9229889q-2.125 -0.9223633 -3.375 -2.5632782q-1.234375 -1.6408997 -1.359375 -3.7815552l4.015625 9.3078613E-4q0.171875 1.7500305 1.640625 2.8597412q1.46875 1.109726 3.859375 1.1102753q2.21875 5.0354004E-4 3.5 -0.9679413q1.28125 -0.9840851 1.28125 -2.484085q0 -1.53125 -1.375 -2.2815704q-1.359375 -0.7503052 -4.21875 -1.4697266q-2.59375 -0.6880951 -4.25 -1.3916016q-1.640625 -0.70350647 -2.8125 -2.0787659q-1.171875 -1.3908997 -1.171875 -3.6565247q0 -1.796875 1.0625 -3.2810059q1.078125 -1.4997559 3.03125 -2.374298q1.96875 -0.87454224 4.484375 -0.8739624q3.875 8.8500977E-4 6.265625 1.9701843q2.390625 1.9693146 2.5625 5.375595l-3.875 -8.8500977E-4q-0.125 -1.8281555 -1.46875 -2.937851q-1.34375 -1.1096802 -3.609375 -1.110199q-2.09375 -4.8828125E-4 -3.328125 0.8898468q-1.234375 0.89035034 -1.234375 2.3434753q0 1.15625 0.734375 1.9064178q0.75 0.73454285 1.875 1.1879272q1.140625 0.4533844 3.140625 1.0007324q2.515625 0.68807983 4.09375 1.344696q1.578125 0.65660095 2.703125 1.9850006q1.140625 1.3283844 1.1875 3.4533844q0 1.921875 -1.078125 3.4685059q-1.0625 1.5310059 -3.0 2.4055634q-1.9375 0.8745575 -4.453125 0.8739624z" fill-rule="nonzero"/><path fill="#000000" fill-opacity="0.0" d="m480.0 195.17061l0 -27.685043" fill-rule="evenodd"/><path stroke="#ffffff" stroke-width="1.0" stroke-linejoin="round" stroke-linecap="butt" d="m480.0 195.17061l0 -21.685043" fill-rule="evenodd"/><path fill="#ffffff" stroke="#ffffff" stroke-width="1.0" stroke-linecap="butt" d="m481.65173 173.48557l-1.6517334 -4.538101l-1.6517334 4.538101z" fill-rule="evenodd"/></g></svg>
