<svg version="1.1" viewBox="0.0 0.0 952.7769028871392 791.6666666666666" fill="none" stroke="none" stroke-linecap="square" stroke-miterlimit="10" xmlns:xlink="http://www.w3.org/1999/xlink" xmlns="http://www.w3.org/2000/svg"><clipPath id="p.0"><path d="m0 0l952.7769 0l0 791.6667l-952.7769 0l0 -791.6667z" clip-rule="nonzero"/></clipPath><g clip-path="url(#p.0)"><path fill="#000000" fill-opacity="0.0" d="m0 0l952.7769 0l0 791.6667l-952.7769 0z" fill-rule="evenodd"/><path fill="#8d3aed" d="m70.56693 34.81671l0 0c0 -12.109919 9.817024 -21.924683 21.92694 -21.921886l775.0122 0.1788559c5.8154297 0.0013418198 11.392639 2.3127832 15.5047 6.425832c4.1121216 4.1130505 6.422241 9.690788 6.422241 15.506176l0 87.705154c0 12.109924 -9.817017 21.924683 -21.92694 21.92189l-775.0122 -0.17886353c-12.109917 -0.0027923584 -21.92694 -9.8220825 -21.92694 -21.932z" fill-rule="evenodd"/><path fill="#ffffff" d="m358.6765 68.60328q0 6.5 -4.4375 10.795845q-4.4375 4.2958527 -13.546875 4.2937546l-10.0 -0.0023117065l0 21.71875l-6.796875 -0.0015640259l0 -52.031254l16.796875 0.0038757324q8.8125 0.0020332336 13.390625 4.25309q4.59375 4.2510605 4.59375 10.969814zm-17.984375 9.480225q5.671875 0.0013046265 8.359375 -2.4511948q2.6875 -2.468132 2.6875 -7.030632q0 -9.625 -11.046875 -9.627552l-10.0 -0.0023078918l0 19.109375l10.0 0.0023117065zm44.272858 28.010216q-5.75 -0.0013275146 -10.421875 -2.6117783q-4.65625 -2.6104507 -7.3125 -7.4235687q-2.65625 -4.8287354 -2.65625 -11.172485q0 -6.265625 2.71875 -11.077499q2.734375 -4.8274918 7.4375 -7.3889084q4.703125 -2.5770378 10.53125 -2.5756912q5.828125 0.0013427734 10.53125 2.5805511q4.703125 2.563591 7.421875 7.3454666q2.71875 4.7818756 2.71875 11.125626q0 6.34375 -2.796875 11.171234q-2.796875 4.8118515 -7.578125 7.4201202q-4.765625 2.6082764 -10.59375 2.6069336zm0 -5.96875q3.65625 8.468628E-4 6.859375 -1.7171707q3.21875 -1.7180023 5.1875 -5.155052q1.984375 -3.4370422 1.984375 -8.358917q0 -4.921875 -1.9375 -8.3598175q-1.9375 -3.4379501 -5.078125 -5.11055q-3.140625 -1.6882248 -6.796875 -1.6890717q-3.734375 -8.544922E-4 -6.828125 1.6859283q-3.09375 1.6711578 -4.96875 5.1082306q-1.859375 3.4370651 -1.859375 8.35894q0 5.0 1.828125 8.437927q1.828125 3.4379196 4.890625 5.126129q3.0625 1.6725769 6.71875 1.6734238zm36.733093 -49.94465l0 55.25l-6.796875 -0.0015716553l0 -55.249996l6.796875 0.0015678406zm34.412323 55.257942l-16.046875 -18.0662l0 18.0625l-6.796875 -0.0015716553l0 -55.25l6.796875 0.0015678406l0 32.48438l15.75 -18.136993l9.484375 0.0021896362l-19.265625 20.370552l19.328125 20.535713l-9.25 -0.0021362305zm13.057343 -20.606361q0 -6.265625 2.53125 -10.99942q2.546875 -4.7494125 6.984375 -7.3577576q4.453125 -2.6083488 9.90625 -2.60709q5.375 0.0012397766 9.328125 2.3146477q3.953125 2.3134155 5.890625 5.8138657l0 -7.453125l6.875 0.0015869141l0 40.90625l-6.875 -0.0015869141l0 -7.609375q-2.015625 3.5776596 -6.015625 5.9361115q-3.984375 2.3428268 -9.28125 2.3416061q-5.453125 -0.0012588501 -9.859375 -2.6897736q-4.40625 -2.6885147 -6.953125 -7.532852q-2.53125 -4.8599625 -2.53125 -11.063087zm34.640625 0.086120605q0 -4.625 -1.859375 -8.062935q-1.859375 -3.4379272 -5.046875 -5.2667847q-3.171875 -1.8288574 -6.96875 -1.8297348q-3.8125 -8.773804E-4 -6.953125 1.7952728q-3.125 1.7805252 -5.0 5.2175903q-1.859375 3.4370728 -1.859375 8.062073q0 4.703125 1.859375 8.187935q1.875 3.4691772 5.0 5.298027q3.140625 1.8288498 6.953125 1.8297272q3.796875 8.773804E-4 6.96875 -1.8265152q3.1875 -1.8273926 5.046875 -5.2957077q1.859375 -3.4839478 1.859375 -8.108948zm15.826996 -0.07447815q0 -6.265625 2.53125 -10.999413q2.546875 -4.7494125 6.984375 -7.357765q4.453125 -2.608345 9.984375 -2.607067q4.765625 0.0010986328 8.875 2.2051735q4.109375 2.204071 6.265625 5.782692l0 -21.65625l6.875 0.0015869141l0 55.25l-6.875 -0.0015869141l0 -7.6875q-2.015625 3.6557846 -5.96875 6.0142517q-3.953125 2.3428345 -9.25 2.3416138q-5.453125 -0.0012588501 -9.90625 -2.6897888q-4.4375 -2.6885223 -6.984375 -7.53286q-2.53125 -4.859955 -2.53125 -11.063087zm34.640625 0.086120605q0 -4.625 -1.859375 -8.062927q-1.859375 -3.4379272 -5.046875 -5.2667923q-3.171875 -1.8288574 -6.96875 -1.8297272q-3.8125 -8.8500977E-4 -6.953125 1.7952652q-3.125 1.7805328 -5.0 5.217598q-1.859375 3.4370728 -1.859375 8.062073q0 4.703125 1.859375 8.187927q1.875 3.4691849 5.0 5.298027q3.140625 1.8288498 6.953125 1.8297348q3.796875 8.773804E-4 6.96875 -1.8265228q3.1875 -1.827385 5.046875 -5.2957077q1.859375 -3.4839478 1.859375 -8.108948zm36.21759 21.211487q-5.75 -0.0013275146 -10.421875 -2.6117783q-4.65625 -2.6104507 -7.3125 -7.4235687q-2.65625 -4.8287354 -2.65625 -11.172485q0 -6.265625 2.71875 -11.077499q2.734375 -4.8274918 7.4375 -7.3889084q4.703125 -2.5770378 10.53125 -2.575695q5.828125 0.0013465881 10.53125 2.580555q4.703125 2.563591 7.421875 7.3454666q2.71875 4.7818756 2.71875 11.125626q0 6.34375 -2.796875 11.171234q-2.796875 4.8118515 -7.578125 7.4201202q-4.765625 2.6082764 -10.59375 2.6069336zm0 -5.96875q3.65625 8.392334E-4 6.859375 -1.7171707q3.21875 -1.7180023 5.1875 -5.155052q1.984375 -3.4370422 1.984375 -8.358917q0 -4.921875 -1.9375 -8.3598175q-1.9375 -3.4379501 -5.078125 -5.11055q-3.140625 -1.6882248 -6.796875 -1.6890717q-3.734375 -8.621216E-4 -6.828125 1.6859283q-3.09375 1.6711578 -4.96875 5.1082306q-1.859375 3.4370651 -1.859375 8.35894q0 5.0 1.828125 8.437927q1.828125 3.4379196 4.890625 5.126129q3.0625 1.6725769 6.71875 1.6734238zm38.21753 -30.006805l0 24.109375q0 2.984375 1.265625 4.21904q1.28125 1.2346725 4.40625 1.2353897l5.015625 0.001159668l0 5.75l-6.125 -0.001411438q-5.671875 -0.0013122559 -8.515625 -2.6113434q-2.84375 -2.6100311 -2.84375 -8.594406l0 -24.109375l-5.296875 -0.0012207031l0 -5.59375l5.296875 0.0012207031l0 -10.3125l6.796875 0.0015716553l0 10.3125l10.6875 0.0024642944l0 5.59375l-10.6875 -0.0024642944z" fill-rule="nonzero"/><path fill="#25cc85" d="m184.29659 339.87183l0 0c0 -12.12442 9.828781 -21.95102 21.953201 -21.948334l98.266846 0.02178955c5.8223267 0.0012817383 11.4062195 2.3154297 15.523254 6.43338c4.1170044 4.11792 6.4299316 9.702301 6.4299316 15.524658l0 87.81015c0 12.12442 -9.828796 21.95102 -21.953186 21.948334l-98.266846 -0.021759033c-12.12442 -0.0026855469 -21.953201 -9.833649 -21.953201 -21.958069z" fill-rule="evenodd"/><path fill="#ffffff" d="m215.11263 369.12436q0 1.734375 -1.1875 2.8903503q-1.1875 1.1560059 -3.625 1.1554565l-2.6875 -6.1035156E-4l0 5.8125l-1.8125 -3.9672852E-4l0 -13.9375l4.5 0.0010070801q2.359375 5.187988E-4 3.578125 1.1414185q1.234375 1.1408997 1.234375 2.9377747zm-4.8125 2.545807q1.515625 3.3569336E-4 2.234375 -0.6557617q0.71875 -0.6717224 0.71875 -1.8904724q0 -2.578125 -2.953125 -2.5787659l-2.6875 -6.1035156E-4l0 5.125l2.6875 6.1035156E-4zm6.3924866 1.7982788q0 -1.6875 0.671875 -2.9529724q0.6875 -1.2654724 1.875 -1.9683228q1.1875 -0.70288086 2.65625 -0.70254517q1.4375 3.3569336E-4 2.5 0.6255493q1.0625 0.60961914 1.578125 1.5628662l0 -2.0l1.84375 3.9672852E-4l0 10.953125l-1.84375 -3.9672852E-4l0 -2.046875q-0.546875 0.9686279 -1.625 1.6090088q-1.0625 0.62475586 -2.46875 0.6244507q-1.46875 -3.3569336E-4 -2.65625 -0.71932983q-1.171875 -0.73464966 -1.859375 -2.0316772q-0.671875 -1.2970276 -0.671875 -2.9532776zm9.28125 0.017700195q0 -1.234375 -0.5 -2.156372q-0.5 -0.9219971 -1.359375 -1.4065552q-0.84375 -0.5001831 -1.859375 -0.5003967q-1.015625 -2.4414062E-4 -1.859375 0.48394775q-0.84375 0.4841919 -1.34375 1.4059448q-0.5 0.90615845 -0.5 2.1561584q0 1.25 0.5 2.1875916q0.5 0.9219971 1.34375 1.4221802q0.84375 0.4845581 1.859375 0.48480225q1.015625 2.1362305E-4 1.859375 -0.48397827q0.859375 -0.4998169 1.359375 -1.4215698q0.5 -0.9373779 0.5 -2.171753zm6.738739 -3.6860046q0.484375 -0.93740845 1.375 -1.4528198q0.890625 -0.5154419 2.171875 -0.51516724l0 1.875l-0.484375 -9.1552734E-5q-3.0625 -6.713867E-4 -3.0625 3.3274536l0 5.953125l-1.8125 -4.272461E-4l0 -10.953125l1.8125 4.272461E-4l0 1.765625zm4.9599915 3.6729736q0 -1.6875 0.671875 -2.953003q0.6875 -1.2654724 1.875 -1.9683228q1.1875 -0.70285034 2.65625 -0.70254517q1.4375 3.3569336E-4 2.5 0.62557983q1.0625 0.6095886 1.578125 1.5628357l0 -2.0l1.84375 3.9672852E-4l0 10.953125l-1.84375 -3.9672852E-4l0 -2.046875q-0.546875 0.9686279 -1.625 1.6090088q-1.0625 0.62475586 -2.46875 0.6244507q-1.46875 -3.0517578E-4 -2.65625 -0.71932983q-1.171875 -0.73464966 -1.859375 -2.0316772q-0.671875 -1.2969971 -0.671875 -2.953247zm9.28125 0.017669678q0 -1.234375 -0.5 -2.156372q-0.5 -0.92196655 -1.359375 -1.4065552q-0.84375 -0.5001831 -1.859375 -0.5003967q-1.015625 -2.1362305E-4 -1.859375 0.48394775q-0.84375 0.4841919 -1.34375 1.4059753q-0.5 0.9061279 -0.5 2.156128q0 1.25 0.5 2.187622q0.5 0.92196655 1.34375 1.4221497q0.84375 0.48458862 1.859375 0.48480225q1.015625 2.1362305E-4 1.859375 -0.48397827q0.859375 -0.49978638 1.359375 -1.4215698q0.5 -0.9373779 0.5 -2.171753zm4.238739 9.460449E-4q0 -1.703125 0.671875 -2.9685974q0.6875 -1.2654724 1.890625 -1.9683533q1.21875 -0.70285034 2.7812653 -0.70248413q2.015625 4.272461E-4 3.328125 0.9851074q1.3125 0.96902466 1.734375 2.7191162l-1.96875 -4.272461E-4q-0.28125 -1.000061 -1.09375 -1.5783691q-0.796875 -0.5783081 -2.0 -0.57855225q-1.5625153 -3.6621094E-4 -2.5312653 1.0775452q-0.953125 1.0622864 -0.953125 3.0154114q0 1.984375 0.953125 3.0627136q0.96875 1.0783386 2.5312653 1.0787048q1.203125 2.4414062E-4 2.0 -0.56207275q0.796875 -0.5623169 1.09375 -1.5935059l1.96875 4.272461E-4q-0.453125 1.6717834 -1.765625 2.6871033q-1.3125 1.0153503 -3.296875 1.0149231q-1.5625153 -3.6621094E-4 -2.7812653 -0.70376587q-1.203125 -0.70336914 -1.890625 -1.9847717q-0.671875 -1.2814026 -0.671875 -3.0001526zm18.265 -5.6522217q1.234375 2.746582E-4 2.234375 0.5317688q1.0 0.5314636 1.5625 1.5940857q0.578125 1.0469971 0.578125 2.578247l0 6.453125l-1.796875 -3.9672852E-4l0 -6.203125q0 -1.640625 -0.828125 -2.500183q-0.8125 -0.8751831 -2.234375 -0.8754883q-1.4375 -3.3569336E-4 -2.296875 0.9057312q-0.84375 0.8904419 -0.84375 2.609192l0 6.0625l-1.8125 -3.9672852E-4l0 -14.796875l1.8125 3.9672852E-4l0 5.390625q0.546875 -0.8280029 1.484375 -1.2809143q0.953125 -0.46853638 2.140625 -0.46829224zm6.674988 5.6421204q0 -1.6875 0.671875 -2.9529724q0.6875 -1.2654724 1.875 -1.9683533q1.1875 -0.70285034 2.65625 -0.70251465q1.4375 3.0517578E-4 2.5 0.6255493q1.0625 0.6095886 1.578125 1.5628357l0 -2.0l1.84375 4.272461E-4l0 10.953125l-1.84375 -4.272461E-4l0 -2.046875q-0.546875 0.9686279 -1.625 1.6090088q-1.0625 0.6247864 -2.46875 0.6244507q-1.46875 -3.0517578E-4 -2.65625 -0.71932983q-1.171875 -0.73461914 -1.859375 -2.0316467q-0.671875 -1.2970276 -0.671875 -2.9532776zm9.28125 0.017669678q0 -1.234375 -0.5 -2.1563416q-0.5 -0.9219971 -1.359375 -1.4065552q-0.84375 -0.5001831 -1.859375 -0.50042725q-1.015625 -2.1362305E-4 -1.859375 0.48397827q-0.84375 0.4841919 -1.34375 1.4059448q-0.5 0.9061279 -0.5 2.156128q0 1.25 0.5 2.187622q0.5 0.9219971 1.34375 1.4221802q0.84375 0.4845581 1.859375 0.48477173q1.015625 2.4414062E-4 1.859375 -0.48394775q0.859375 -0.4998169 1.359375 -1.4215698q0.5 -0.93740845 0.5 -2.1717834zm5.863739 -7.2330627q-0.53125 -1.2207031E-4 -0.890625 -0.35958862q-0.359375 -0.35943604 -0.359375 -0.89068604q0 -0.515625 0.359375 -0.87493896q0.359375 -0.35928345 0.890625 -0.35916138q0.5 9.1552734E-5 0.84375 0.3595581q0.359375 0.35943604 0.359375 0.87506104q0 0.53125 -0.359375 0.89056396q-0.34375 0.35928345 -0.84375 0.3591919zm0.875 1.7814331l0 10.953125l-1.8125 -3.9672852E-4l0 -10.953125l1.8125 3.9672852E-4zm8.435608 -0.20126343q2.0 4.5776367E-4 3.234375 1.2194824q1.25 1.2033997 1.25 3.4846497l0 6.453125l-1.796875 -3.9672852E-4l0 -6.203125q0 -1.640625 -0.828125 -2.500183q-0.8125 -0.8751831 -2.234375 -0.8754883q-1.4375 -3.3569336E-4 -2.296875 0.9057312q-0.84375 0.8904419 -0.84375 2.609192l0 6.0625l-1.8125 -3.9672852E-4l0 -10.953125l1.8125 3.9672852E-4l0 1.546875q0.546875 -0.8280029 1.46875 -1.2809448q0.9375 -0.46853638 2.046875 -0.46829224z" fill-rule="nonzero"/><path fill="#ffffff" d="m237.68886 395.80124q0.765625 0.12515259 1.390625 0.6253052q0.640625 0.5001221 1.0 1.2502136q0.375 0.73446655 0.375 1.5782166q0 1.046875 -0.546875 1.9061279q-0.53125 0.8436279 -1.5625 1.3434143q-1.03125 0.48413086 -2.4375 0.48382568l-5.1875 -0.001159668l0 -13.9375l5.0 0.0010986328q1.40625 3.3569336E-4 2.40625 0.46929932q1.0 0.46896362 1.5 1.2659607q0.5 0.79696655 0.5 1.7969666q0 1.25 -0.671875 2.062378q-0.65625 0.7967224 -1.765625 1.1558533zm-5.15625 -0.73553467l3.0625 7.019043E-4q1.28125 2.746582E-4 1.96875 -0.59332275q0.703125 -0.6092224 0.703125 -1.6717224q0 -1.046875 -0.703125 -1.6407776q-0.6875 -0.6095276 -2.015625 -0.60983276l-3.015625 -6.713867E-4l0 4.515625zm3.21875 6.4226074q1.359375 3.0517578E-4 2.109375 -0.64016724q0.765625 -0.6404419 0.765625 -1.7810669q0 -1.15625 -0.796875 -1.8283081q-0.796875 -0.6720581 -2.140625 -0.6723633l-3.15625 -7.019043E-4l0 4.921875l3.21875 7.324219E-4zm9.0412445 -13.294891l0 14.796875l-1.8125 -3.9672852E-4l0 -14.796875l1.8125 3.9672852E-4zm7.873123 14.9861145q-1.53125 -3.3569336E-4 -2.78125 -0.70373535q-1.25 -0.70339966 -1.96875 -1.9848022q-0.703125 -1.2970276 -0.703125 -3.0001526q0 -1.6875 0.71875 -2.9685974q0.734375 -1.2967224 2.0 -1.9839172q1.265625 -0.68722534 2.828125 -0.68688965q1.546875 3.3569336E-4 2.8125 0.68814087q1.2656097 0.68777466 1.9843597 1.9691772q0.734375 1.2814026 0.734375 2.9845276q0 1.703125 -0.75 2.9998474q-0.75 1.2810669 -2.0312347 1.9839172q-1.28125 0.70285034 -2.84375 0.70248413zm0 -1.609375q0.984375 2.4414062E-4 1.84375 -0.45269775q0.859375 -0.4685669 1.390625 -1.3903198q0.53123474 -0.9217529 0.53123474 -2.234253q0 -1.3125 -0.51560974 -2.234497q-0.515625 -0.9219971 -1.359375 -1.3753052q-0.84375 -0.4533081 -1.828125 -0.45352173q-1.0 -2.1362305E-4 -1.828125 0.45272827q-0.828125 0.4529419 -1.328125 1.3746948q-0.5 0.9217529 -0.5 2.234253q0 1.34375 0.484375 2.265747q0.5 0.9219971 1.3125 1.3752747q0.828125 0.4376831 1.796875 0.43789673zm7.3468475 -4.076477q0 -1.703125 0.671875 -2.9685974q0.6875 -1.2654724 1.890625 -1.9683533q1.21875 -0.70285034 2.78125 -0.70248413q2.015625 4.272461E-4 3.328125 0.9851074q1.3125 0.96902466 1.734375 2.7191162l-1.96875 -4.272461E-4q-0.28125 -1.000061 -1.09375 -1.5783691q-0.796875 -0.5783081 -2.0 -0.57855225q-1.5625 -3.6621094E-4 -2.53125 1.0775452q-0.953125 1.0622864 -0.953125 3.0154114q0 1.984375 0.953125 3.0627136q0.96875 1.0783386 2.53125 1.0787048q1.203125 2.4414062E-4 2.0 -0.56207275q0.796875 -0.5623169 1.09375 -1.5935059l1.96875 4.272461E-4q-0.453125 1.6717834 -1.765625 2.6871338q-1.3125 1.0153198 -3.296875 1.0148926q-1.5625 -3.6621094E-4 -2.78125 -0.70376587q-1.203125 -0.70336914 -1.890625 -1.9847717q-0.671875 -1.2814026 -0.671875 -3.0001526zm18.93686 5.504181l-4.296875 -4.844696l0 4.84375l-1.8125 -3.9672852E-4l0 -14.796875l1.8125 3.9672852E-4l0 8.703125l4.21875 -4.858429l2.546875 5.493164E-4l-5.171875 5.451996l5.1875 5.501129l-2.484375 -5.493164E-4z" fill-rule="nonzero"/><path fill="#25cc85" d="m184.29659 499.77734l0 0c0 -12.12442 9.828781 -21.95102 21.953201 -21.948334l98.266846 0.021759033c5.8223267 0.0013122559 11.4062195 2.3154602 15.523254 6.43338c4.1170044 4.1179504 6.4299316 9.702332 6.4299316 15.524689l0 87.81012c0 12.124451 -9.828796 21.95105 -21.953186 21.948364l-98.266846 -0.02178955c-12.12442 -0.0026855469 -21.953201 -9.833618 -21.953201 -21.958069z" fill-rule="evenodd"/><path fill="#25cc85" d="m184.29659 659.68286l0 0c0 -12.124451 9.828781 -21.95105 21.953201 -21.948364l98.266846 0.02178955c5.8223267 0.0012817383 11.4062195 2.3154297 15.523254 6.4334106c4.1170044 4.11792 6.4299316 9.702332 6.4299316 15.524658l0 87.81012c0 12.124451 -9.828796 21.95105 -21.953186 21.948364l-98.266846 -0.02178955c-12.12442 -0.0026855469 -21.953201 -9.833618 -21.953201 -21.958069z" fill-rule="evenodd"/><path fill="#000000" fill-opacity="0.0" d="m255.38321 477.8399l0 -28.188995" fill-rule="evenodd"/><path stroke="#ffffff" stroke-width="1.0" stroke-linejoin="round" stroke-linecap="butt" d="m255.38321 477.8399l0 -22.188995" fill-rule="evenodd"/><path fill="#ffffff" stroke="#ffffff" stroke-width="1.0" stroke-linecap="butt" d="m257.03494 455.6509l-1.6517334 -4.538086l-1.6517334 4.538086z" fill-rule="evenodd"/><path fill="#000000" fill-opacity="0.0" d="m255.38321 637.7454l0 -28.188965" fill-rule="evenodd"/><path stroke="#ffffff" stroke-width="1.0" stroke-linejoin="round" stroke-linecap="butt" d="m255.38321 637.7454l0 -22.188965" fill-rule="evenodd"/><path fill="#ffffff" stroke="#ffffff" stroke-width="1.0" stroke-linecap="butt" d="m257.03494 615.55646l-1.6517334 -4.538147l-1.6517334 4.538147z" fill-rule="evenodd"/><path fill="#25cc85" d="m405.30185 339.87183l0 0c0 -12.12442 9.828766 -21.95102 21.953186 -21.948334l98.266815 0.02178955c5.8223877 0.0012817383 11.40625 2.3154297 15.523254 6.43338c4.1170654 4.11792 6.4299316 9.702301 6.4299316 15.524658l0 87.81015c0 12.12442 -9.828735 21.95102 -21.953186 21.948334l-98.266815 -0.021759033c-12.12442 -0.0026855469 -21.953186 -9.833649 -21.953186 -21.958069z" fill-rule="evenodd"/><path fill="#ffffff" d="m436.1179 369.12436q0 1.734375 -1.1875 2.8903503q-1.1875 1.1560059 -3.625 1.1554565l-2.6875 -6.1035156E-4l0 5.8125l-1.8125 -3.9672852E-4l0 -13.9375l4.5 0.0010070801q2.359375 5.187988E-4 3.578125 1.1414185q1.234375 1.1408997 1.234375 2.9377747zm-4.8125 2.545807q1.515625 3.3569336E-4 2.234375 -0.6557617q0.71875 -0.6717224 0.71875 -1.8904724q0 -2.578125 -2.953125 -2.5787659l-2.6875 -6.1035156E-4l0 5.125l2.6875 6.1035156E-4zm6.3924866 1.7982788q0 -1.6875 0.671875 -2.9529724q0.6875 -1.2654724 1.875 -1.9683228q1.1875 -0.70288086 2.65625 -0.70254517q1.4375 3.3569336E-4 2.5 0.6255493q1.0625 0.60961914 1.578125 1.5628662l0 -2.0l1.84375 3.9672852E-4l0 10.953125l-1.84375 -3.9672852E-4l0 -2.046875q-0.546875 0.9686279 -1.625 1.6090088q-1.0625 0.62475586 -2.46875 0.6244507q-1.46875 -3.3569336E-4 -2.65625 -0.71932983q-1.171875 -0.73464966 -1.859375 -2.0316772q-0.671875 -1.2970276 -0.671875 -2.9532776zm9.28125 0.017700195q0 -1.234375 -0.5 -2.156372q-0.5 -0.9219971 -1.359375 -1.4065552q-0.84375 -0.5001831 -1.859375 -0.5003967q-1.015625 -2.4414062E-4 -1.859375 0.48394775q-0.84375 0.4841919 -1.34375 1.4059448q-0.5 0.90615845 -0.5 2.1561584q0 1.25 0.5 2.1875916q0.5 0.9219971 1.34375 1.4221802q0.84375 0.4845581 1.859375 0.48480225q1.015625 2.1362305E-4 1.859375 -0.48397827q0.859375 -0.4998169 1.359375 -1.4215698q0.5 -0.9373779 0.5 -2.171753zm6.738739 -3.6860046q0.484375 -0.93740845 1.375 -1.4528198q0.890625 -0.5154419 2.171875 -0.51516724l0 1.875l-0.484375 -9.1552734E-5q-3.0625 -6.713867E-4 -3.0625 3.3274536l0 5.953125l-1.8125 -4.272461E-4l0 -10.953125l1.8125 4.272461E-4l0 1.765625zm4.9599915 3.6729736q0 -1.6875 0.671875 -2.953003q0.6875 -1.2654724 1.875 -1.9683228q1.1875 -0.70285034 2.65625 -0.70254517q1.4375 3.3569336E-4 2.5 0.62557983q1.0625 0.6095886 1.578125 1.5628357l0 -2.0l1.84375 3.9672852E-4l0 10.953125l-1.84375 -3.9672852E-4l0 -2.046875q-0.546875 0.9686279 -1.625 1.6090088q-1.0625 0.62475586 -2.46875 0.6244507q-1.46875 -3.0517578E-4 -2.65625 -0.71932983q-1.171875 -0.73464966 -1.859375 -2.0316772q-0.671875 -1.2969971 -0.671875 -2.953247zm9.28125 0.017669678q0 -1.234375 -0.5 -2.156372q-0.5 -0.92196655 -1.359375 -1.4065552q-0.84375 -0.5001831 -1.859375 -0.5003967q-1.015625 -2.1362305E-4 -1.859375 0.48394775q-0.84375 0.4841919 -1.34375 1.4059753q-0.5 0.9061279 -0.5 2.156128q0 1.25 0.5 2.187622q0.5 0.92196655 1.34375 1.4221497q0.84375 0.48458862 1.859375 0.48480225q1.015625 2.1362305E-4 1.859375 -0.48397827q0.859375 -0.49978638 1.359375 -1.4215698q0.5 -0.9373779 0.5 -2.171753zm4.238739 9.460449E-4q0 -1.703125 0.671875 -2.9685974q0.6875 -1.2654724 1.890625 -1.9683533q1.21875 -0.70285034 2.78125 -0.70248413q2.015625 4.272461E-4 3.328125 0.9851074q1.3125 0.96902466 1.734375 2.7191162l-1.96875 -4.272461E-4q-0.28125 -1.000061 -1.09375 -1.5783691q-0.796875 -0.5783081 -2.0 -0.57855225q-1.5625 -3.6621094E-4 -2.53125 1.0775452q-0.953125 1.0622864 -0.953125 3.0154114q0 1.984375 0.953125 3.0627136q0.96875 1.0783386 2.53125 1.0787048q1.203125 2.4414062E-4 2.0 -0.56207275q0.796875 -0.5623169 1.09375 -1.5935059l1.96875 4.272461E-4q-0.453125 1.6717834 -1.765625 2.6871033q-1.3125 1.0153503 -3.296875 1.0149231q-1.5625 -3.6621094E-4 -2.78125 -0.70376587q-1.203125 -0.70336914 -1.890625 -1.9847717q-0.671875 -1.2814026 -0.671875 -3.0001526zm18.264984 -5.6522217q1.234375 2.746582E-4 2.234375 0.5317688q1.0 0.5314636 1.5625 1.5940857q0.578125 1.0469971 0.578125 2.578247l0 6.453125l-1.796875 -3.9672852E-4l0 -6.203125q0 -1.640625 -0.828125 -2.500183q-0.8125 -0.8751831 -2.234375 -0.8754883q-1.4375 -3.3569336E-4 -2.296875 0.9057312q-0.84375 0.8904419 -0.84375 2.609192l0 6.0625l-1.8125 -3.9672852E-4l0 -14.796875l1.8125 3.9672852E-4l0 5.390625q0.546875 -0.8280029 1.484375 -1.2809143q0.953125 -0.46853638 2.140625 -0.46829224zm6.674988 5.6421204q0 -1.6875 0.671875 -2.9529724q0.6875 -1.2654724 1.875 -1.9683533q1.1875 -0.70285034 2.65625 -0.70251465q1.4375 3.0517578E-4 2.5 0.6255493q1.0625 0.6095886 1.578125 1.5628357l0 -2.0l1.84375 4.272461E-4l0 10.953125l-1.84375 -4.272461E-4l0 -2.046875q-0.546875 0.9686279 -1.625 1.6090088q-1.0625 0.6247864 -2.46875 0.6244507q-1.46875 -3.0517578E-4 -2.65625 -0.71932983q-1.171875 -0.73461914 -1.859375 -2.0316467q-0.671875 -1.2970276 -0.671875 -2.9532776zm9.28125 0.017669678q0 -1.234375 -0.5 -2.1563416q-0.5 -0.9219971 -1.359375 -1.4065552q-0.84375 -0.5001831 -1.859375 -0.50042725q-1.015625 -2.1362305E-4 -1.859375 0.48397827q-0.84375 0.4841919 -1.34375 1.4059448q-0.5 0.9061279 -0.5 2.156128q0 1.25 0.5 2.187622q0.5 0.9219971 1.34375 1.4221802q0.84375 0.4845581 1.859375 0.48477173q1.015625 2.4414062E-4 1.859375 -0.48394775q0.859375 -0.4998169 1.359375 -1.4215698q0.5 -0.93740845 0.5 -2.1717834zm5.8637085 -7.2330627q-0.5312195 -1.2207031E-4 -0.8905945 -0.35958862q-0.359375 -0.35943604 -0.359375 -0.89068604q0 -0.515625 0.359375 -0.87493896q0.359375 -0.35928345 0.8905945 -0.35916138q0.5 9.1552734E-5 0.84375 0.3595581q0.359375 0.35943604 0.359375 0.87506104q0 0.53125 -0.359375 0.89056396q-0.34375 0.35928345 -0.84375 0.3591919zm0.875 1.7814331l0 10.953125l-1.8124695 -3.9672852E-4l0 -10.953125l1.8124695 3.9672852E-4zm8.435669 -0.20126343q2.0 4.5776367E-4 3.234375 1.2194824q1.25 1.2033997 1.25 3.4846497l0 6.453125l-1.796875 -3.9672852E-4l0 -6.203125q0 -1.640625 -0.828125 -2.500183q-0.8125 -0.8751831 -2.234375 -0.8754883q-1.4375 -3.3569336E-4 -2.296875 0.9057312q-0.84375 0.8904419 -0.84375 2.609192l0 6.0625l-1.8125 -3.9672852E-4l0 -10.953125l1.8125 3.9672852E-4l0 1.546875q0.546875 -0.8280029 1.46875 -1.2809448q0.9375 -0.46853638 2.046875 -0.46829224z" fill-rule="nonzero"/><path fill="#ffffff" d="m458.6941 395.80124q0.765625 0.12515259 1.390625 0.6253052q0.640625 0.5001221 1.0 1.2502136q0.375 0.73446655 0.375 1.5782166q0 1.046875 -0.546875 1.9061279q-0.53125 0.8436279 -1.5625 1.3434143q-1.03125 0.48413086 -2.4375 0.48382568l-5.1875 -0.001159668l0 -13.9375l5.0 0.0010986328q1.40625 3.3569336E-4 2.40625 0.46929932q1.0 0.46896362 1.5 1.2659607q0.5 0.79696655 0.5 1.7969666q0 1.25 -0.671875 2.062378q-0.65625 0.7967224 -1.765625 1.1558533zm-5.15625 -0.73553467l3.0625 7.019043E-4q1.28125 2.746582E-4 1.96875 -0.59332275q0.703125 -0.6092224 0.703125 -1.6717224q0 -1.046875 -0.703125 -1.6407776q-0.6875 -0.6095276 -2.015625 -0.60983276l-3.015625 -6.713867E-4l0 4.515625zm3.21875 6.4226074q1.359375 3.0517578E-4 2.109375 -0.64016724q0.765625 -0.6404419 0.765625 -1.7810669q0 -1.15625 -0.796875 -1.8283081q-0.796875 -0.6720581 -2.140625 -0.6723633l-3.15625 -7.019043E-4l0 4.921875l3.21875 7.324219E-4zm9.04126 -13.294891l0 14.796875l-1.8125 -3.9672852E-4l0 -14.796875l1.8125 3.9672852E-4zm7.873108 14.9861145q-1.53125 -3.3569336E-4 -2.78125 -0.70373535q-1.25 -0.70339966 -1.96875 -1.9848022q-0.703125 -1.2970276 -0.703125 -3.0001526q0 -1.6875 0.71875 -2.9685974q0.734375 -1.2967224 2.0 -1.9839172q1.265625 -0.68722534 2.828125 -0.68688965q1.546875 3.3569336E-4 2.8125 0.68814087q1.265625 0.68777466 1.984375 1.9691772q0.734375 1.2814026 0.734375 2.9845276q0 1.703125 -0.75 2.9998474q-0.75 1.2810669 -2.03125 1.9839172q-1.28125 0.70285034 -2.84375 0.70248413zm0 -1.609375q0.984375 2.4414062E-4 1.84375 -0.45269775q0.859375 -0.4685669 1.390625 -1.3903198q0.53125 -0.9217529 0.53125 -2.234253q0 -1.3125 -0.515625 -2.234497q-0.515625 -0.9219971 -1.359375 -1.3753052q-0.84375 -0.4533081 -1.828125 -0.45352173q-1.0 -2.1362305E-4 -1.828125 0.45272827q-0.828125 0.4529419 -1.328125 1.3746948q-0.5 0.9217529 -0.5 2.234253q0 1.34375 0.484375 2.265747q0.5 0.9219971 1.3125 1.3752747q0.828125 0.4376831 1.796875 0.43789673zm7.346863 -4.076477q0 -1.703125 0.671875 -2.9685974q0.6875 -1.2654724 1.890625 -1.9683533q1.21875 -0.70285034 2.78125 -0.70248413q2.015625 4.272461E-4 3.328125 0.9851074q1.3125 0.96902466 1.734375 2.7191162l-1.96875 -4.272461E-4q-0.28125 -1.000061 -1.09375 -1.5783691q-0.796875 -0.5783081 -2.0 -0.57855225q-1.5625 -3.6621094E-4 -2.53125 1.0775452q-0.953125 1.0622864 -0.953125 3.0154114q0 1.984375 0.953125 3.0627136q0.96875 1.0783386 2.53125 1.0787048q1.203125 2.4414062E-4 2.0 -0.56207275q0.796875 -0.5623169 1.09375 -1.5935059l1.96875 4.272461E-4q-0.453125 1.6717834 -1.765625 2.6871338q-1.3125 1.0153198 -3.296875 1.0148926q-1.5625 -3.6621094E-4 -2.78125 -0.70376587q-1.203125 -0.70336914 -1.890625 -1.9847717q-0.671875 -1.2814026 -0.671875 -3.0001526zm18.93686 5.504181l-4.296875 -4.844696l0 4.84375l-1.8125 -3.9672852E-4l0 -14.796875l1.8125 3.9672852E-4l0 8.703125l4.21875 -4.858429l2.546875 5.493164E-4l-5.171875 5.451996l5.1875 5.501129l-2.484375 -5.493164E-4z" fill-rule="nonzero"/><path fill="#25cc85" d="m405.30185 499.77734l0 0c0 -12.12442 9.828766 -21.95102 21.953186 -21.948334l98.266815 0.021759033c5.8223877 0.0013122559 11.40625 2.3154602 15.523254 6.43338c4.1170654 4.1179504 6.4299316 9.702332 6.4299316 15.524689l0 87.81012c0 12.124451 -9.828735 21.95105 -21.953186 21.948364l-98.266815 -0.02178955c-12.12442 -0.0026855469 -21.953186 -9.833618 -21.953186 -21.958069z" fill-rule="evenodd"/><path fill="#25cc85" d="m405.30185 659.68286l0 0c0 -12.124451 9.828766 -21.95105 21.953186 -21.948364l98.266815 0.02178955c5.8223877 0.0012817383 11.40625 2.3154297 15.523254 6.4334106c4.1170654 4.11792 6.4299316 9.702332 6.4299316 15.524658l0 87.81012c0 12.124451 -9.828735 21.95105 -21.953186 21.948364l-98.266815 -0.02178955c-12.12442 -0.0026855469 -21.953186 -9.833618 -21.953186 -21.958069z" fill-rule="evenodd"/><path fill="#000000" fill-opacity="0.0" d="m476.38846 477.8399l0 -28.188995" fill-rule="evenodd"/><path stroke="#ffffff" stroke-width="1.0" stroke-linejoin="round" stroke-linecap="butt" d="m476.38846 477.8399l0 -22.188995" fill-rule="evenodd"/><path fill="#ffffff" stroke="#ffffff" stroke-width="1.0" stroke-linecap="butt" d="m478.0402 455.6509l-1.6517334 -4.538086l-1.6517334 4.538086z" fill-rule="evenodd"/><path fill="#000000" fill-opacity="0.0" d="m476.38846 637.7454l0 -28.188965" fill-rule="evenodd"/><path stroke="#ffffff" stroke-width="1.0" stroke-linejoin="round" stroke-linecap="butt" d="m476.38846 637.7454l0 -22.188965" fill-rule="evenodd"/><path fill="#ffffff" stroke="#ffffff" stroke-width="1.0" stroke-linecap="butt" d="m478.0402 615.55646l-1.6517334 -4.538147l-1.6517334 4.538147z" fill-rule="evenodd"/><path fill="#25cc85" d="m626.30707 339.87183l0 0c0 -12.12442 9.828796 -21.95102 21.953186 -21.948334l98.266846 0.02178955c5.8223877 0.0012817383 11.40625 2.3154297 15.523254 6.43338c4.1170654 4.11792 6.4299316 9.702301 6.4299316 15.524658l0 87.81015c0 12.12442 -9.828735 21.95102 -21.953186 21.948334l-98.266846 -0.021759033c-12.12439 -0.0026855469 -21.953186 -9.833649 -21.953186 -21.958069z" fill-rule="evenodd"/><path fill="#ffffff" d="m657.1231 369.12436q0 1.734375 -1.1875 2.8903503q-1.1875 1.1560059 -3.625 1.1554565l-2.6875 -6.1035156E-4l0 5.8125l-1.8125 -3.9672852E-4l0 -13.9375l4.5 0.0010070801q2.359375 5.187988E-4 3.578125 1.1414185q1.234375 1.1408997 1.234375 2.9377747zm-4.8125 2.545807q1.515625 3.3569336E-4 2.234375 -0.6557617q0.71875 -0.6717224 0.71875 -1.8904724q0 -2.578125 -2.953125 -2.5787659l-2.6875 -6.1035156E-4l0 5.125l2.6875 6.1035156E-4zm6.392517 1.7982788q0 -1.6875 0.671875 -2.9529724q0.6875 -1.2654724 1.875 -1.9683228q1.1875 -0.70288086 2.65625 -0.70254517q1.4375 3.3569336E-4 2.5 0.6255493q1.0625 0.60961914 1.578125 1.5628662l0 -2.0l1.84375 3.9672852E-4l0 10.953125l-1.84375 -3.9672852E-4l0 -2.046875q-0.546875 0.9686279 -1.625 1.6090088q-1.0625 0.62475586 -2.46875 0.6244507q-1.46875 -3.3569336E-4 -2.65625 -0.71932983q-1.171875 -0.73464966 -1.859375 -2.0316772q-0.671875 -1.2970276 -0.671875 -2.9532776zm9.28125 0.017700195q0 -1.234375 -0.5 -2.156372q-0.5 -0.9219971 -1.359375 -1.4065552q-0.84375 -0.5001831 -1.859375 -0.5003967q-1.015625 -2.4414062E-4 -1.859375 0.48394775q-0.84375 0.4841919 -1.34375 1.4059448q-0.5 0.90615845 -0.5 2.1561584q0 1.25 0.5 2.1875916q0.5 0.9219971 1.34375 1.4221802q0.84375 0.4845581 1.859375 0.48480225q1.015625 2.1362305E-4 1.859375 -0.48397827q0.859375 -0.4998169 1.359375 -1.4215698q0.5 -0.9373779 0.5 -2.171753zm6.7387085 -3.6860046q0.484375 -0.93740845 1.375 -1.4528198q0.890625 -0.5154419 2.171875 -0.51516724l0 1.875l-0.484375 -9.1552734E-5q-3.0625 -6.713867E-4 -3.0625 3.3274536l0 5.953125l-1.8125 -4.272461E-4l0 -10.953125l1.8125 4.272461E-4l0 1.765625zm4.960022 3.6729736q0 -1.6875 0.671875 -2.953003q0.6875 -1.2654724 1.875 -1.9683228q1.1875 -0.70285034 2.65625 -0.70254517q1.4375 3.3569336E-4 2.5 0.62557983q1.0625 0.6095886 1.578125 1.5628357l0 -2.0l1.84375 3.9672852E-4l0 10.953125l-1.84375 -3.9672852E-4l0 -2.046875q-0.546875 0.9686279 -1.625 1.6090088q-1.0625 0.62475586 -2.46875 0.6244507q-1.46875 -3.0517578E-4 -2.65625 -0.71932983q-1.171875 -0.73464966 -1.859375 -2.0316772q-0.671875 -1.2969971 -0.671875 -2.953247zm9.28125 0.017669678q0 -1.234375 -0.5 -2.156372q-0.5 -0.92196655 -1.359375 -1.4065552q-0.84375 -0.5001831 -1.859375 -0.5003967q-1.015625 -2.1362305E-4 -1.859375 0.48394775q-0.84375 0.4841919 -1.34375 1.4059753q-0.5 0.9061279 -0.5 2.156128q0 1.25 0.5 2.187622q0.5 0.92196655 1.34375 1.4221497q0.84375 0.48458862 1.859375 0.48480225q1.015625 2.1362305E-4 1.859375 -0.48397827q0.859375 -0.49978638 1.359375 -1.4215698q0.5 -0.9373779 0.5 -2.171753zm4.2387085 9.460449E-4q0 -1.703125 0.671875 -2.9685974q0.6875 -1.2654724 1.890625 -1.9683533q1.21875 -0.70285034 2.78125 -0.70248413q2.015625 4.272461E-4 3.328125 0.9851074q1.3125 0.96902466 1.734375 2.7191162l-1.96875 -4.272461E-4q-0.28125 -1.000061 -1.09375 -1.5783691q-0.796875 -0.5783081 -2.0 -0.57855225q-1.5625 -3.6621094E-4 -2.53125 1.0775452q-0.953125 1.0622864 -0.953125 3.0154114q0 1.984375 0.953125 3.0627136q0.96875 1.0783386 2.53125 1.0787048q1.203125 2.4414062E-4 2.0 -0.56207275q0.796875 -0.5623169 1.09375 -1.5935059l1.96875 4.272461E-4q-0.453125 1.6717834 -1.765625 2.6871033q-1.3125 1.0153503 -3.296875 1.0149231q-1.5625 -3.6621094E-4 -2.78125 -0.70376587q-1.203125 -0.70336914 -1.890625 -1.9847717q-0.671875 -1.2814026 -0.671875 -3.0001526zm18.265015 -5.6522217q1.234375 2.746582E-4 2.234375 0.5317688q1.0 0.5314636 1.5625 1.5940857q0.578125 1.0469971 0.578125 2.578247l0 6.453125l-1.796875 -3.9672852E-4l0 -6.203125q0 -1.640625 -0.828125 -2.500183q-0.8125 -0.8751831 -2.234375 -0.8754883q-1.4375 -3.3569336E-4 -2.296875 0.9057312q-0.84375 0.8904419 -0.84375 2.609192l0 6.0625l-1.8125 -3.9672852E-4l0 -14.796875l1.8125 3.9672852E-4l0 5.390625q0.546875 -0.8280029 1.484375 -1.2809143q0.953125 -0.46853638 2.140625 -0.46829224zm6.674988 5.6421204q0 -1.6875 0.671875 -2.9529724q0.6875 -1.2654724 1.875 -1.9683533q1.1875 -0.70285034 2.65625 -0.70251465q1.4375 3.0517578E-4 2.5 0.6255493q1.0625 0.6095886 1.578125 1.5628357l0 -2.0l1.84375 4.272461E-4l0 10.953125l-1.84375 -4.272461E-4l0 -2.046875q-0.546875 0.9686279 -1.625 1.6090088q-1.0625 0.6247864 -2.46875 0.6244507q-1.46875 -3.0517578E-4 -2.65625 -0.71932983q-1.171875 -0.73461914 -1.859375 -2.0316467q-0.671875 -1.2970276 -0.671875 -2.9532776zm9.28125 0.017669678q0 -1.234375 -0.5 -2.1563416q-0.5 -0.9219971 -1.359375 -1.4065552q-0.84375 -0.5001831 -1.859375 -0.50042725q-1.015625 -2.1362305E-4 -1.859375 0.48397827q-0.84375 0.4841919 -1.34375 1.4059448q-0.5 0.9061279 -0.5 2.156128q0 1.25 0.5 2.187622q0.5 0.9219971 1.34375 1.4221802q0.84375 0.4845581 1.859375 0.48477173q1.015625 2.4414062E-4 1.859375 -0.48394775q0.859375 -0.4998169 1.359375 -1.4215698q0.5 -0.93740845 0.5 -2.1717834zm5.8637085 -7.2330627q-0.53125 -1.2207031E-4 -0.890625 -0.35958862q-0.359375 -0.35943604 -0.359375 -0.89068604q0 -0.515625 0.359375 -0.87493896q0.359375 -0.35928345 0.890625 -0.35916138q0.5 9.1552734E-5 0.84375 0.3595581q0.359375 0.35943604 0.359375 0.87506104q0 0.53125 -0.359375 0.89056396q-0.34375 0.35928345 -0.84375 0.3591919zm0.875 1.7814331l0 10.953125l-1.8125 -3.9672852E-4l0 -10.953125l1.8125 3.9672852E-4zm8.435669 -0.20126343q2.0 4.5776367E-4 3.234375 1.2194824q1.25 1.2033997 1.25 3.4846497l0 6.453125l-1.796875 -3.9672852E-4l0 -6.203125q0 -1.640625 -0.828125 -2.500183q-0.8125 -0.8751831 -2.234375 -0.8754883q-1.4375 -3.3569336E-4 -2.296875 0.9057312q-0.84375 0.8904419 -0.84375 2.609192l0 6.0625l-1.8125 -3.9672852E-4l0 -10.953125l1.8125 3.9672852E-4l0 1.546875q0.546875 -0.8280029 1.46875 -1.2809448q0.9375 -0.46853638 2.046875 -0.46829224z" fill-rule="nonzero"/><path fill="#ffffff" d="m679.69934 395.80124q0.765625 0.12515259 1.390625 0.6253052q0.640625 0.5001221 1.0 1.2502136q0.375 0.73446655 0.375 1.5782166q0 1.046875 -0.546875 1.9061279q-0.53125 0.8436279 -1.5625 1.3434143q-1.03125 0.48413086 -2.4375 0.48382568l-5.1875 -0.001159668l0 -13.9375l5.0 0.0010986328q1.40625 3.3569336E-4 2.40625 0.46929932q1.0 0.46896362 1.5 1.2659607q0.5 0.79696655 0.5 1.7969666q0 1.25 -0.671875 2.062378q-0.65625 0.7967224 -1.765625 1.1558533zm-5.15625 -0.73553467l3.0625 7.019043E-4q1.28125 2.746582E-4 1.96875 -0.59332275q0.703125 -0.6092224 0.703125 -1.6717224q0 -1.046875 -0.703125 -1.6407776q-0.6875 -0.6095276 -2.015625 -0.60983276l-3.015625 -6.713867E-4l0 4.515625zm3.21875 6.4226074q1.359375 3.0517578E-4 2.109375 -0.64016724q0.765625 -0.6404419 0.765625 -1.7810669q0 -1.15625 -0.796875 -1.8283081q-0.796875 -0.6720581 -2.140625 -0.6723633l-3.15625 -7.019043E-4l0 4.921875l3.21875 7.324219E-4zm9.04126 -13.294891l0 14.796875l-1.8125 -3.9672852E-4l0 -14.796875l1.8125 3.9672852E-4zm7.873108 14.9861145q-1.53125 -3.3569336E-4 -2.78125 -0.70373535q-1.25 -0.70339966 -1.96875 -1.9848022q-0.703125 -1.2970276 -0.703125 -3.0001526q0 -1.6875 0.71875 -2.9685974q0.734375 -1.2967224 2.0 -1.9839172q1.265625 -0.68722534 2.828125 -0.68688965q1.546875 3.3569336E-4 2.8125 0.68814087q1.265625 0.68777466 1.984375 1.9691772q0.734375 1.2814026 0.734375 2.9845276q0 1.703125 -0.75 2.9998474q-0.75 1.2810669 -2.03125 1.9839172q-1.28125 0.70285034 -2.84375 0.70248413zm0 -1.609375q0.984375 2.4414062E-4 1.84375 -0.45269775q0.859375 -0.4685669 1.390625 -1.3903198q0.53125 -0.9217529 0.53125 -2.234253q0 -1.3125 -0.515625 -2.234497q-0.515625 -0.9219971 -1.359375 -1.3753052q-0.84375 -0.4533081 -1.828125 -0.45352173q-1.0 -2.1362305E-4 -1.828125 0.45272827q-0.828125 0.4529419 -1.328125 1.3746948q-0.5 0.9217529 -0.5 2.234253q0 1.34375 0.484375 2.265747q0.5 0.9219971 1.3125 1.3752747q0.828125 0.4376831 1.796875 0.43789673zm7.346863 -4.076477q0 -1.703125 0.671875 -2.9685974q0.6875 -1.2654724 1.890625 -1.9683533q1.21875 -0.70285034 2.78125 -0.70248413q2.015625 4.272461E-4 3.328125 0.9851074q1.3125 0.96902466 1.734375 2.7191162l-1.96875 -4.272461E-4q-0.28125 -1.000061 -1.09375 -1.5783691q-0.796875 -0.5783081 -2.0 -0.57855225q-1.5625 -3.6621094E-4 -2.53125 1.0775452q-0.953125 1.0622864 -0.953125 3.0154114q0 1.984375 0.953125 3.0627136q0.96875 1.0783386 2.53125 1.0787048q1.203125 2.4414062E-4 2.0 -0.56207275q0.796875 -0.5623169 1.09375 -1.5935059l1.96875 4.272461E-4q-0.453125 1.6717834 -1.765625 2.6871338q-1.3125 1.0153198 -3.296875 1.0148926q-1.5625 -3.6621094E-4 -2.78125 -0.70376587q-1.203125 -0.70336914 -1.890625 -1.9847717q-0.671875 -1.2814026 -0.671875 -3.0001526zm18.93689 5.504181l-4.296875 -4.844696l0 4.84375l-1.8125 -3.9672852E-4l0 -14.796875l1.8125 3.9672852E-4l0 8.703125l4.21875 -4.858429l2.546875 5.493164E-4l-5.171875 5.451996l5.1875 5.501129l-2.484375 -5.493164E-4z" fill-rule="nonzero"/><path fill="#25cc85" d="m626.30707 499.77734l0 0c0 -12.12442 9.828796 -21.95102 21.953186 -21.948334l98.266846 0.021759033c5.8223877 0.0013122559 11.40625 2.3154602 15.523254 6.43338c4.1170654 4.1179504 6.4299316 9.702332 6.4299316 15.524689l0 87.81012c0 12.124451 -9.828735 21.95105 -21.953186 21.948364l-98.266846 -0.02178955c-12.12439 -0.0026855469 -21.953186 -9.833618 -21.953186 -21.958069z" fill-rule="evenodd"/><path fill="#25cc85" d="m626.30707 659.68286l0 0c0 -12.124451 9.828796 -21.95105 21.953186 -21.948364l98.266846 0.02178955c5.8223877 0.0012817383 11.40625 2.3154297 15.523254 6.4334106c4.1170654 4.11792 6.4299316 9.702332 6.4299316 15.524658l0 87.81012c0 12.124451 -9.828735 21.95105 -21.953186 21.948364l-98.266846 -0.02178955c-12.12439 -0.0026855469 -21.953186 -9.833618 -21.953186 -21.958069z" fill-rule="evenodd"/><path fill="#8d3aed" d="m70.56693 168.98972l0 0c0 -5.7259064 4.641754 -10.366592 10.3676605 -10.36528l798.13086 0.18418884c2.7496338 6.4086914E-4 5.3867188 1.0935516 7.3309937 3.0383148c1.9443359 1.9447632 3.036621 4.582077 3.036621 7.3317413l0 41.469406c0 5.7259064 -4.6417236 10.366592 -10.367615 10.365265l-798.13086 -0.18418884c-5.7259064 -0.0013122559 -10.3676605 -4.64415 -10.3676605 -10.370056z" fill-rule="evenodd"/><path fill="#ffffff" d="m361.62958 198.64221l-12.96875 -0.0030059814l-2.390625 6.6088257l-4.09375 -9.460449E-4l10.75 -29.560013l4.484375 0.0010375977l10.703125 29.564972l-4.09375 -9.460449E-4l-2.390625 -6.6099243zm-1.109375 -3.1565094l-5.375 -15.016876l-5.375 15.014389l10.75 0.0024871826zm16.17215 -21.793152l0 31.5625l-3.890625 -9.0026855E-4l0 -31.5625l3.890625 9.0026855E-4zm10.493439 0.0024261475l0 31.5625l-3.890625 -9.0026855E-4l0 -31.5625l3.890625 9.0026855E-4zm42.57013 1.8379517l-11.21875 29.731781l-4.484375 -0.0010375977l-11.21875 -29.736954l4.140625 9.460449E-4l9.34375 25.642792l9.34375 -25.638474l4.09375 9.460449E-4zm2.8043213 17.96939q0 -3.59375 1.453125 -6.2965393q1.453125 -2.7184143 3.984375 -4.2022095q2.546875 -1.4994049 5.65625 -1.4986877q3.078125 7.171631E-4 5.328125 1.329361q2.265625 1.3286438 3.375 3.3289032l0 -4.265625l3.921875 9.0026855E-4l0 23.375l-3.921875 -9.0026855E-4l0 -4.34375q-1.15625 2.0466003 -3.4375 3.3898315q-2.28125 1.343216 -5.3125 1.342514q-3.109375 -7.171631E-4 -5.625 -1.532547q-2.515625 -1.5474548 -3.96875 -4.3134155q-1.453125 -2.7815857 -1.453125 -6.3128357zm19.796875 0.035827637q0 -2.640625 -1.0625 -4.593994q-1.0625 -1.9689941 -2.875 -3.0162964q-1.8125 -1.047287 -4.0 -1.0477905q-2.171875 -5.0354004E-4 -3.96875 1.0303345q-1.78125 1.015213 -2.859375 2.9837036q-1.0625 1.9528809 -1.0625 4.609131q0 2.6875 1.0625 4.672119q1.078125 1.9690094 2.859375 3.0162964q1.796875 1.047287 3.96875 1.0477905q2.1875 5.0354004E-4 4.0 -1.0459595q1.8125 -1.0464478 2.875 -3.0149536q1.0625 -1.9841309 1.0625 -4.640381zm14.382446 -19.824814l0 31.5625l-3.890625 -9.0026855E-4l0 -31.5625l3.890625 9.0026855E-4zm8.618439 4.392624q-1.109375 -2.593994E-4 -1.890625 -0.7660675q-0.765625 -0.7658081 -0.765625 -1.8751831q0 -1.109375 0.765625 -1.8748169q0.78125 -0.7810669 1.890625 -0.7808075q1.0625 2.4414062E-4 1.796875 0.781662q0.75 0.76579285 0.75 1.8751678q0 1.109375 -0.75 1.8748322q-0.734375 0.76545715 -1.796875 0.765213zm1.875 3.7973022l0 23.375l-3.890625 -9.0026855E-4l0 -23.375l3.890625 9.0026855E-4zm5.1496887 11.610565q0 -3.59375 1.453125 -6.2965393q1.453125 -2.7184143 3.984375 -4.2022095q2.546875 -1.4994049 5.703125 -1.4986877q2.734375 6.4086914E-4 5.078125 1.2667999q2.34375 1.2505493 3.578125 3.313324l0 -12.375l3.921875 9.0026855E-4l0 31.562515l-3.921875 -9.1552734E-4l0 -4.390625q-1.15625 2.0934906 -3.421875 3.4367065q-2.25 1.3432312 -5.28125 1.3425446q-3.109375 -7.171631E-4 -5.65625 -1.5325623q-2.53125 -1.5474548 -3.984375 -4.3134155q-1.453125 -2.7815857 -1.453125 -6.3128357zm19.796875 0.035812378q0 -2.640625 -1.0625 -4.593994q-1.0625 -1.9689941 -2.875 -3.0162811q-1.8125 -1.0473022 -4.0 -1.0478058q-2.171875 -5.0354004E-4 -3.96875 1.0303345q-1.78125 1.015213 -2.859375 2.9837189q-1.0625 1.9528809 -1.0625 4.609131q0 2.6875 1.0625 4.672119q1.078125 1.9689941 2.859375 3.0162811q1.796875 1.047287 3.96875 1.0477905q2.1875 5.0354004E-4 4.0 -1.0459442q1.8125 -1.046463 2.875 -3.0149689q1.0625 -1.9841309 1.0625 -4.640381zm9.038696 -0.029159546q0 -3.59375 1.453125 -6.2965393q1.453125 -2.7184143 3.984375 -4.2022095q2.546875 -1.4994049 5.65625 -1.4986877q3.078125 7.019043E-4 5.328125 1.3293457q2.265625 1.328659 3.375 3.3289032l0 -4.265625l3.921875 9.1552734E-4l0 23.375l-3.921875 -9.1552734E-4l0 -4.34375q-1.15625 2.0466156 -3.4375 3.3898315q-2.28125 1.3432312 -5.3125 1.3425293q-3.109375 -7.171631E-4 -5.625 -1.532547q-2.515625 -1.5474548 -3.96875 -4.3134155q-1.453125 -2.7815857 -1.453125 -6.3128357zm19.796875 0.035812378q0 -2.640625 -1.0625 -4.593994q-1.0625 -1.9689941 -2.875 -3.0162811q-1.8125 -1.0473022 -4.0 -1.0478058q-2.171875 -5.0354004E-4 -3.96875 1.0303345q-1.78125 1.015213 -2.859375 2.9837189q-1.0625 1.9528809 -1.0625 4.609131q0 2.6875 1.0625 4.672119q1.078125 1.9689941 2.859375 3.0162811q1.796875 1.047287 3.96875 1.0477905q2.1875 5.0354004E-4 4.0 -1.0459442q1.8125 -1.046463 2.875 -3.0149689q1.0625 -1.9841309 1.0625 -4.640381zm15.226196 -8.433975l0 13.78125q0 1.703125 0.71875 2.4064026q0.734375 0.7033081 2.53125 0.7037201l2.859375 6.5612793E-4l0 3.28125l-3.5 -8.087158E-4q-3.25 -7.4768066E-4 -4.875 -1.4855042q-1.609375 -1.5003662 -1.609375 -4.906616l0 -13.78125l-3.03125 -7.019043E-4l0 -3.203125l3.03125 7.019043E-4l0 -5.890625l3.875 9.0026855E-4l0 5.890625l6.109375 0.0014038086l0 3.203125l-6.109375 -0.0014038086zm20.995605 20.567337q-3.296875 -7.6293945E-4 -5.96875 -1.5013733q-2.65625 -1.5006104 -4.171875 -4.2509613q-1.515625 -2.750351 -1.515625 -6.375351q0 -3.578125 1.5625 -6.327774q1.5625 -2.7496338 4.25 -4.217758q2.6875 -1.4837646 6.015625 -1.4829865q3.328125 7.6293945E-4 6.015625 1.4857635q2.6875 1.4693604 4.234375 4.2041016q1.5625 2.719101 1.5625 6.344101q0 3.625 -1.609375 6.374634q-1.59375 2.7496338 -4.328125 4.249008q-2.71875 1.4993744 -6.046875 1.4985962zm0 -3.421875q2.078125 4.8828125E-4 3.90625 -0.96784973q1.84375 -0.98394775 2.96875 -2.9524384q1.140625 -1.9684906 1.140625 -4.7809906q0 -2.8125 -1.109375 -4.765869q-1.109375 -1.9690094 -2.90625 -2.9225464q-1.78125 -0.969162 -3.875 -0.96965027q-2.140625 -4.8828125E-4 -3.90625 0.96784973q-1.765625 0.952713 -2.84375 2.9212189q-1.0625 1.9528809 -1.0625 4.765381q0 2.859375 1.046875 4.828369q1.046875 1.9533691 2.796875 2.9225159q1.75 0.953537 3.84375 0.95401zm20.987488 -16.542023q1.015625 -1.9997711 2.90625 -3.1087036q1.90625 -1.1089478 4.640625 -1.1083069l0 4.0l-1.03125 -2.4414062E-4q-6.515625 -0.0014953613 -6.515625 7.0766296l0 12.71875l-3.890625 -9.0026855E-4l0 -23.375l3.890625 9.0026855E-4l0 3.796875zm20.30133 19.973434q-2.6875 -6.2561035E-4 -4.828125 -0.9229889q-2.125 -0.92237854 -3.375 -2.5632782q-1.234375 -1.6409149 -1.359375 -3.7815704l4.015625 9.3078613E-4q0.171875 1.7500305 1.640625 2.8597565q1.46875 1.1097107 3.859375 1.11026q2.21875 5.0354004E-4 3.5 -0.9679413q1.28125 -0.9840851 1.28125 -2.484085q0 -1.53125 -1.375 -2.2815704q-1.359375 -0.7503052 -4.21875 -1.4697113q-2.59375 -0.68811035 -4.25 -1.3916168q-1.640625 -0.7034912 -2.8125 -2.0787659q-1.171875 -1.3908997 -1.171875 -3.6565247q0 -1.796875 1.0625 -3.2810059q1.078125 -1.4997559 3.03125 -2.374298q1.96875 -0.87454224 4.484375 -0.8739624q3.875 8.8500977E-4 6.265625 1.9701996q2.390625 1.9692993 2.5625 5.37558l-3.875 -8.8500977E-4q-0.125 -1.8281555 -1.46875 -2.9378357q-1.34375 -1.1096954 -3.609375 -1.1102142q-2.09375 -4.8828125E-4 -3.328125 0.88986206q-1.234375 0.8903351 -1.234375 2.34346q0 1.15625 0.734375 1.9064178q0.75 0.73454285 1.875 1.1879272q1.140625 0.45339966 3.140625 1.0007324q2.515625 0.68807983 4.09375 1.344696q1.578125 0.6566162 2.703125 1.9850006q1.140625 1.3283844 1.1875 3.4533997q0 1.921875 -1.078125 3.4684906q-1.0625 1.5310059 -3.0 2.4055634q-1.9375 0.8745575 -4.453125 0.87397766z" fill-rule="nonzero"/><path fill="#8d3aed" d="m170.97375 248.71674l0 0c0 -5.725891 4.641754 -10.366791 10.3676605 -10.365723l148.08357 0.027633667c2.7496643 5.0354004E-4 5.3867188 1.0933075 7.3310547 3.0379791c1.9443054 1.9446716 3.036621 4.5819397 3.036621 7.3316193l0 41.469406c0 5.725891 -4.6417847 10.366791 -10.367676 10.365723l-148.08357 -0.027648926c-5.7259064 -0.0010681152 -10.3676605 -4.6436768 -10.3676605 -10.369568z" fill-rule="evenodd"/><path fill="#ffffff" d="m210.55531 270.09445q0 -3.953125 1.78125 -7.0934143q1.78125 -3.1559143 4.84375 -4.936615q3.078125 -1.7806702 6.828125 -1.7799683q4.40625 8.239746E-4 7.6875 2.1264343q3.296875 2.1256104 4.796875 6.0321655l-4.203125 -7.9345703E-4q-1.125 -2.4220886 -3.234375 -3.7349854q-2.109375 -1.3285217 -5.046875 -1.329071q-2.8125 -5.187988E-4 -5.0625 1.327179q-2.234375 1.3121033 -3.515625 3.7337341q-1.28125 2.4060059 -1.28125 5.656006q0 3.203125 1.28125 5.625244q1.28125 2.4064941 3.515625 3.7193909q2.25 1.3129272 5.0625 1.313446q2.9375 5.493164E-4 5.046875 -1.280304q2.109375 -1.2964783 3.234375 -3.7337646l4.203125 7.9345703E-4q-1.5 3.8590698 -4.796875 5.9678345q-3.28125 2.1087646 -7.6875 2.1079407q-3.75 -7.019043E-4 -6.828125 -1.7512817q-3.0625 -1.7661743 -4.84375 -4.89151q-1.78125 -3.1409607 -1.78125 -7.0784607zm40.40512 13.835663q-2.984375 -5.493164E-4 -5.40625 -1.3447571q-2.40625 -1.3598328 -3.78125 -3.844452q-1.375 -2.5002747 -1.375 -5.7815247q0 -3.25 1.40625 -5.7341003q1.421875 -2.4997253 3.859375 -3.8273926q2.4375 -1.3432922 5.453125 -1.3427429q3.015625 5.493164E-4 5.4375153 1.3447571q2.4375 1.3285828 3.84375 3.7976074q1.421875 2.4689941 1.421875 5.765869q0 3.28125 -1.453125 5.781006q-1.453125 2.4841003 -3.921875 3.8430176q-2.4687653 1.3432617 -5.4843903 1.3427124zm0 -3.09375q1.890625 3.6621094E-4 3.546875 -0.8743286q1.6718903 -0.8903198 2.6875153 -2.6713867q1.03125 -1.7810669 1.03125 -4.327942q0 -2.5625 -1.015625 -4.328308q-1.0 -1.7814331 -2.6250153 -2.6567383q-1.625 -0.8753052 -3.515625 -0.87564087q-1.921875 -3.6621094E-4 -3.53125 0.8743286q-1.609375 0.8746948 -2.578125 2.6557617q-0.96875 1.7654419 -0.96875 4.327942q0 2.578125 0.953125 4.359558q0.953125 1.7814331 2.53125 2.6567383q1.59375 0.85964966 3.484375 0.86001587zm19.021255 -14.99646q0.921875 -1.8123169 2.640625 -2.8120117q1.71875 -0.9996643 4.203125 -0.99920654l0 3.625l-0.9375 -1.8310547E-4q-5.90625 -0.0010986328 -5.90625 6.4207764l0 11.515625l-3.53125 -6.4086914E-4l0 -21.1875l3.53125 6.4086914E-4l0 3.4375zm30.215637 6.3493958q0 1.0 -0.109375 2.1249695l-16.9375 -0.0031433105q0.203125 3.1406555 2.15625 4.9066467q1.953125 1.7503662 4.734375 1.750885q2.28125 4.272461E-4 3.796875 -1.0617981q1.53125 -1.0622253 2.15625 -2.8433533l3.78125 7.019043E-4q-0.84375 3.0467224 -3.40625 4.9681396q-2.546875 1.9057617 -6.328125 1.9050598q-3.015625 -5.79834E-4 -5.390625 -1.3447571q-2.375 -1.3598328 -3.734375 -3.844452q-1.359375 -2.5002441 -1.359375 -5.781494q0 -3.296875 1.3125 -5.765381q1.328125 -2.4685059 3.703125 -3.7962036q2.375 -1.3432922 5.46875 -1.3427124q3.015625 5.493164E-4 5.328125 1.3134766q2.328125 1.3129578 3.578125 3.6256714q1.25 2.2971191 1.25 5.187744zm-3.625 -0.7350464q0 -2.0 -0.890625 -3.453308q-0.890625 -1.4532776 -2.421875 -2.2035522q-1.515625 -0.7659302 -3.375 -0.76626587q-2.671875 -4.8828125E-4 -4.546875 1.7022705q-1.875 1.7027893 -2.140625 4.7183533l13.375 0.0025024414z" fill-rule="nonzero"/><path fill="#8d3aed" d="m391.979 248.71674l0 0c0 -5.725891 4.641754 -10.366791 10.367645 -10.365723l148.08359 0.027633667c2.7496948 5.0354004E-4 5.3867188 1.0933075 7.3310547 3.0379791c1.9442749 1.9446716 3.036621 4.5819397 3.036621 7.3316193l0 41.469406c0 5.725891 -4.6417847 10.366791 -10.367676 10.365723l-148.08359 -0.027648926c-5.725891 -0.0010681152 -10.367645 -4.6436768 -10.367645 -10.369568z" fill-rule="evenodd"/><path fill="#ffffff" d="m431.56058 270.09445q0 -3.953125 1.78125 -7.0934143q1.78125 -3.1559143 4.84375 -4.936615q3.078125 -1.7806702 6.828125 -1.7799683q4.40625 8.239746E-4 7.6875 2.1264343q3.296875 2.1256104 4.796875 6.0321655l-4.203125 -7.9345703E-4q-1.125 -2.4220886 -3.234375 -3.7349854q-2.109375 -1.3285217 -5.046875 -1.329071q-2.8125 -5.187988E-4 -5.0625 1.327179q-2.234375 1.3121033 -3.515625 3.7337341q-1.28125 2.4060059 -1.28125 5.656006q0 3.203125 1.28125 5.625244q1.28125 2.4064941 3.515625 3.7193909q2.25 1.3129272 5.0625 1.313446q2.9375 5.493164E-4 5.046875 -1.280304q2.109375 -1.2964783 3.234375 -3.7337646l4.203125 7.9345703E-4q-1.5 3.8590698 -4.796875 5.9678345q-3.28125 2.1087646 -7.6875 2.1079407q-3.75 -7.019043E-4 -6.828125 -1.7512817q-3.0625 -1.7661743 -4.84375 -4.89151q-1.78125 -3.1409607 -1.78125 -7.0784607zm40.40512 13.835663q-2.984375 -5.493164E-4 -5.40625 -1.3447571q-2.40625 -1.3598328 -3.78125 -3.844452q-1.375 -2.5002747 -1.375 -5.7815247q0 -3.25 1.40625 -5.7341003q1.421875 -2.4997253 3.859375 -3.8273926q2.4375 -1.3432922 5.453125 -1.3427429q3.015625 5.493164E-4 5.4375 1.3447571q2.4375 1.3285828 3.84375 3.7976074q1.421875 2.4689941 1.421875 5.765869q0 3.28125 -1.453125 5.781006q-1.453125 2.4841003 -3.921875 3.8430176q-2.46875 1.3432617 -5.484375 1.3427124zm0 -3.09375q1.890625 3.6621094E-4 3.546875 -0.8743286q1.671875 -0.8903198 2.6875 -2.6713867q1.03125 -1.7810669 1.03125 -4.327942q0 -2.5625 -1.015625 -4.328308q-1.0 -1.7814331 -2.625 -2.6567383q-1.625 -0.8753052 -3.515625 -0.87564087q-1.921875 -3.6621094E-4 -3.53125 0.8743286q-1.609375 0.8746948 -2.578125 2.6557617q-0.96875 1.7654419 -0.96875 4.327942q0 2.578125 0.953125 4.359558q0.953125 1.7814331 2.53125 2.6567383q1.59375 0.85964966 3.484375 0.86001587zm19.02124 -14.99646q0.921875 -1.8123169 2.640625 -2.8120117q1.71875 -0.9996643 4.203125 -0.99920654l0 3.625l-0.9375 -1.8310547E-4q-5.90625 -0.0010986328 -5.90625 6.4207764l0 11.515625l-3.53125 -6.4086914E-4l0 -21.1875l3.53125 6.4086914E-4l0 3.4375zm30.215637 6.3493958q0 1.0 -0.109375 2.1249695l-16.9375 -0.0031433105q0.203125 3.1406555 2.15625 4.9066467q1.953125 1.7503662 4.734375 1.750885q2.28125 4.272461E-4 3.796875 -1.0617981q1.53125 -1.0622253 2.15625 -2.8433533l3.78125 7.019043E-4q-0.84375 3.0467224 -3.40625 4.9681396q-2.546875 1.9057617 -6.328125 1.9050598q-3.015625 -5.79834E-4 -5.390625 -1.3447571q-2.375 -1.3598328 -3.734375 -3.844452q-1.359375 -2.5002441 -1.359375 -5.781494q0 -3.296875 1.3125 -5.765381q1.328125 -2.4685059 3.703125 -3.7962036q2.375 -1.3432922 5.46875 -1.3427124q3.015625 5.493164E-4 5.328125 1.3134766q2.328125 1.3129578 3.578125 3.6256714q1.25 2.2971191 1.25 5.187744zm-3.625 -0.7350464q0 -2.0 -0.890625 -3.453308q-0.890625 -1.4532776 -2.421875 -2.2035522q-1.515625 -0.7659302 -3.375 -0.76626587q-2.671875 -4.8828125E-4 -4.546875 1.7022705q-1.875 1.7027893 -2.140625 4.7183533l13.375 0.0025024414z" fill-rule="nonzero"/><path fill="#8d3aed" d="m612.98425 248.71674l0 0c0 -5.725891 4.6417847 -10.366791 10.367676 -10.365723l148.08356 0.027633667c2.7496948 5.0354004E-4 5.3867188 1.0933075 7.3310547 3.0379791c1.9442749 1.9446716 3.036621 4.5819397 3.036621 7.3316193l0 41.469406c0 5.725891 -4.6417847 10.366791 -10.367676 10.365723l-148.08356 -0.027648926c-5.725891 -0.0010681152 -10.367676 -4.6436768 -10.367676 -10.369568z" fill-rule="evenodd"/><path fill="#ffffff" d="m652.5658 270.09445q0 -3.953125 1.78125 -7.0934143q1.78125 -3.1559143 4.84375 -4.936615q3.078125 -1.7806702 6.828125 -1.7799683q4.40625 8.239746E-4 7.6875 2.1264343q3.296875 2.1256104 4.796875 6.0321655l-4.203125 -7.9345703E-4q-1.125 -2.4220886 -3.234375 -3.7349854q-2.109375 -1.3285217 -5.046875 -1.329071q-2.8125 -5.187988E-4 -5.0625 1.327179q-2.234375 1.3121033 -3.515625 3.7337341q-1.28125 2.4060059 -1.28125 5.656006q0 3.203125 1.28125 5.625244q1.28125 2.4064941 3.515625 3.7193909q2.25 1.3129272 5.0625 1.313446q2.9375 5.493164E-4 5.046875 -1.280304q2.109375 -1.2964783 3.234375 -3.7337646l4.203125 7.9345703E-4q-1.5 3.8590698 -4.796875 5.9678345q-3.28125 2.1087646 -7.6875 2.1079407q-3.75 -7.019043E-4 -6.828125 -1.7512817q-3.0625 -1.7661743 -4.84375 -4.89151q-1.78125 -3.1409607 -1.78125 -7.0784607zm40.40515 13.835663q-2.984375 -5.493164E-4 -5.40625 -1.3447571q-2.40625 -1.3598328 -3.78125 -3.844452q-1.375 -2.5002747 -1.375 -5.7815247q0 -3.25 1.40625 -5.7341003q1.421875 -2.4997253 3.859375 -3.8273926q2.4375 -1.3432922 5.453125 -1.3427429q3.015625 5.493164E-4 5.4375 1.3447571q2.4375 1.3285828 3.84375 3.7976074q1.421875 2.4689941 1.421875 5.765869q0 3.28125 -1.453125 5.781006q-1.453125 2.4841003 -3.921875 3.8430176q-2.46875 1.3432617 -5.484375 1.3427124zm0 -3.09375q1.890625 3.6621094E-4 3.546875 -0.8743286q1.671875 -0.8903198 2.6875 -2.6713867q1.03125 -1.7810669 1.03125 -4.327942q0 -2.5625 -1.015625 -4.328308q-1.0 -1.7814331 -2.625 -2.6567383q-1.625 -0.8753052 -3.515625 -0.87564087q-1.921875 -3.6621094E-4 -3.53125 0.8743286q-1.609375 0.8746948 -2.578125 2.6557617q-0.96875 1.7654419 -0.96875 4.327942q0 2.578125 0.953125 4.359558q0.953125 1.7814331 2.53125 2.6567383q1.59375 0.85964966 3.484375 0.86001587zm19.02124 -14.99646q0.921875 -1.8123169 2.640625 -2.8120117q1.71875 -0.9996643 4.203125 -0.99920654l0 3.625l-0.9375 -1.8310547E-4q-5.90625 -0.0010986328 -5.90625 6.4207764l0 11.515625l-3.53125 -6.4086914E-4l0 -21.1875l3.53125 6.4086914E-4l0 3.4375zm30.215637 6.3493958q0 1.0 -0.109375 2.1249695l-16.9375 -0.0031433105q0.203125 3.1406555 2.15625 4.9066467q1.953125 1.7503662 4.734375 1.750885q2.28125 4.272461E-4 3.796875 -1.0617981q1.53125 -1.0622253 2.15625 -2.8433533l3.78125 7.019043E-4q-0.84375 3.0467224 -3.40625 4.9681396q-2.546875 1.9057617 -6.328125 1.9050598q-3.015625 -5.79834E-4 -5.390625 -1.3447571q-2.375 -1.3598328 -3.734375 -3.844452q-1.359375 -2.5002441 -1.359375 -5.781494q0 -3.296875 1.3125 -5.765381q1.328125 -2.4685059 3.703125 -3.7962036q2.375 -1.3432922 5.46875 -1.3427124q3.015625 5.493164E-4 5.328125 1.3134766q2.328125 1.3129578 3.578125 3.6256714q1.25 2.2971191 1.25 5.187744zm-3.625 -0.7350464q0 -2.0 -0.890625 -3.453308q-0.890625 -1.4532776 -2.421875 -2.2035522q-1.515625 -0.7659302 -3.375 -0.76626587q-2.671875 -4.8828125E-4 -4.546875 1.7022705q-1.875 1.7027893 -2.140625 4.7183533l13.375 0.0025024414z" fill-rule="nonzero"/><path fill="#000000" fill-opacity="0.0" d="m697.3937 477.8399l0 -28.188995" fill-rule="evenodd"/><path stroke="#ffffff" stroke-width="1.0" stroke-linejoin="round" stroke-linecap="butt" d="m697.3937 477.8399l0 -24.761902" fill-rule="evenodd"/><path fill="#ffffff" stroke="#ffffff" stroke-width="1.0" stroke-linecap="butt" d="m697.3937 453.078l1.1246338 1.1245728l-1.1246338 -3.0897522l-1.1245728 3.0897522z" fill-rule="evenodd"/><path fill="#000000" fill-opacity="0.0" d="m697.3937 637.7454l0 -28.188965" fill-rule="evenodd"/><path stroke="#ffffff" stroke-width="1.0" stroke-linejoin="round" stroke-linecap="butt" d="m697.3937 637.7454l0 -24.761902" fill-rule="evenodd"/><path fill="#ffffff" stroke="#ffffff" stroke-width="1.0" stroke-linecap="butt" d="m697.3937 612.9835l1.1246338 1.1245728l-1.1246338 -3.0897827l-1.1245728 3.0897827z" fill-rule="evenodd"/><path fill="#000000" fill-opacity="0.0" d="m255.38321 317.9344l0 -17.35434" fill-rule="evenodd"/><path stroke="#ffffff" stroke-width="1.0" stroke-linejoin="round" stroke-linecap="butt" d="m255.38321 317.9344l0 -11.35434" fill-rule="evenodd"/><path fill="#ffffff" stroke="#ffffff" stroke-width="1.0" stroke-linecap="butt" d="m257.03494 306.58005l-1.6517334 -4.538086l-1.6517334 4.538086z" fill-rule="evenodd"/><path fill="#000000" fill-opacity="0.0" d="m476.38846 317.9344l0 -17.35434" fill-rule="evenodd"/><path stroke="#ffffff" stroke-width="1.0" stroke-linejoin="round" stroke-linecap="butt" d="m476.38846 317.9344l0 -11.35434" fill-rule="evenodd"/><path fill="#ffffff" stroke="#ffffff" stroke-width="1.0" stroke-linecap="butt" d="m478.0402 306.58005l-1.6517334 -4.538086l-1.6517334 4.538086z" fill-rule="evenodd"/><path fill="#000000" fill-opacity="0.0" d="m697.3937 317.9344l0 -17.35434" fill-rule="evenodd"/><path stroke="#ffffff" stroke-width="1.0" stroke-linejoin="round" stroke-linecap="butt" d="m697.3937 317.9344l0 -11.35434" fill-rule="evenodd"/><path fill="#ffffff" stroke="#ffffff" stroke-width="1.0" stroke-linecap="butt" d="m699.0454 306.58005l-1.6517334 -4.538086l-1.6517334 4.538086z" fill-rule="evenodd"/></g></svg>
