<svg version="1.1" viewBox="0.0 0.0 765.0551181102362 792.7742782152231" fill="none" stroke="none" stroke-linecap="square" stroke-miterlimit="10" xmlns:xlink="http://www.w3.org/1999/xlink" xmlns="http://www.w3.org/2000/svg"><clipPath id="p.0"><path d="m0 0l765.0551 0l0 792.7743l-765.0551 0l0 -792.7743z" clip-rule="nonzero"/></clipPath><g clip-path="url(#p.0)"><path fill="#000000" fill-opacity="0.0" d="m0 0l765.0551 0l0 792.7743l-765.0551 0z" fill-rule="evenodd"/><path fill="#000000" fill-opacity="0.0" d="m25.498688 239.79144l0 0c0 -39.742096 32.21734 -71.95152 71.95944 -71.94177l497.5614 0.12214661c19.084839 0.0046844482 37.388 7.5906067 50.883057 21.088928c13.494995 13.498322 21.076416 31.80336 21.076416 50.888184l0 287.82916c0 39.742126 -32.217346 71.95154 -71.95947 71.94177l-497.5614 -0.12213135c-39.742104 -0.009765625 -71.95944 -32.235046 -71.95944 -71.97711z" fill-rule="evenodd"/><path stroke="#8d3aed" stroke-width="3.0" stroke-linejoin="round" stroke-linecap="butt" d="m25.498688 239.79144l0 0c0 -39.742096 32.21734 -71.95152 71.95944 -71.94177l497.5614 0.12214661c19.084839 0.0046844482 37.388 7.5906067 50.883057 21.088928c13.494995 13.498322 21.076416 31.80336 21.076416 50.888184l0 287.82916c0 39.742126 -32.217346 71.95154 -71.95947 71.94177l-497.5614 -0.12213135c-39.742104 -0.009765625 -71.95944 -32.235046 -71.95944 -71.97711z" fill-rule="evenodd"/><path fill="#000000" fill-opacity="0.0" d="m25.498688 57.814884l0 0c0 -10.237041 8.298763 -18.533764 18.535805 -18.53125l604.4087 0.14837646c4.9160156 0.001209259 9.630676 1.9552383 13.106812 5.432232c3.4761353 3.4769897 5.429016 8.192123 5.429016 13.108124l0 74.14099c0 10.237045 -8.298767 18.533768 -18.535828 18.53125l-604.4087 -0.14837646c-10.237041 -0.0025177002 -18.535805 -8.303314 -18.535805 -18.54036z" fill-rule="evenodd"/><path stroke="#25cc85" stroke-width="3.0" stroke-linejoin="round" stroke-linecap="butt" d="m25.498688 57.814884l0 0c0 -10.237041 8.298763 -18.533764 18.535805 -18.53125l604.4087 0.14837646c4.9160156 0.001209259 9.630676 1.9552383 13.106812 5.432232c3.4761353 3.4769897 5.429016 8.192123 5.429016 13.108124l0 74.14099c0 10.237045 -8.298767 18.533768 -18.535828 18.53125l-604.4087 -0.14837646c-10.237041 -0.0025177002 -18.535805 -8.303314 -18.535805 -18.54036z" fill-rule="evenodd"/><path fill="#8d3aed" d="m56.155506 471.4706l0 0c0 -10.83136 8.780567 -19.610046 19.611942 -19.607666l540.9336 0.11746216c5.201416 0.0011291504 10.189758 2.068451 13.867737 5.7471924c3.6779175 3.678772 5.7442017 8.667603 5.7442017 13.868988l0 78.445404c0 10.831421 -8.780579 19.610046 -19.611938 19.607727l-540.9336 -0.117492676l0 0c-10.831375 -0.002380371 -19.611942 -8.784851 -19.611942 -19.61621z" fill-rule="evenodd"/><path fill="#ffffff" d="m114.70238 503.9854q0 4.53125 -3.09375 7.5305786q-3.09375 2.9837036 -9.4375 2.9822998l-6.96875 -0.0015258789l0 15.125l-4.734375 -9.765625E-4l0 -36.25003l11.703125 0.002532959q6.140625 0.0013427734 9.328125 2.9707947q3.203125 2.969452 3.203125 7.641327zm-12.53125 6.6066284q3.953125 8.8500977E-4 5.828125 -1.7174683q1.875 -1.7183533 1.875 -4.8902283q0 -6.703125 -7.703125 -6.7048035l-6.96875 -0.0014953613l0 13.3125l6.96875 0.0014953613zm16.639282 4.675476q0 -4.3593445 1.765625 -7.6558533q1.765625 -3.3121033 4.859375 -5.123932q3.09375 -1.8274536 6.890625 -1.8266296q3.75 8.239746E-4 6.5 1.6264038q2.765625 1.6099854 4.109375 4.0477905l0 -5.203125l4.78125 0.0010375977l0 28.49997l-4.78125 -0.0010375977l0 -5.296875q-1.40625 2.4840698 -4.1875 4.1240845q-2.78125 1.6400146 -6.46875 1.6392212q-3.796875 -7.9345703E-4 -6.875 -1.8764648q-3.0625 -1.8756714 -4.828125 -5.2510376q-1.765625 -3.3754272 -1.765625 -7.7035522zm24.125 0.06774902q0 -3.234375 -1.296875 -5.6252747q-1.296875 -2.3908997 -3.515625 -3.657013q-2.203125 -1.2817078 -4.859375 -1.2822876q-2.640625 -5.79834E-4 -4.828125 1.2489319q-2.1875 1.2495422 -3.484375 3.6398926q-1.296875 2.3903503 -1.296875 5.6091003q0 3.28125 1.296875 5.703369q1.296875 2.4221802 3.484375 3.7039185q2.1875 1.2660522 4.828125 1.2666626q2.65625 5.493164E-4 4.859375 -1.2645874q2.21875 -1.2807617 3.515625 -3.7023315q1.296875 -2.4216309 1.296875 -5.640381zm17.527039 -9.57431q1.25 -2.4372253 3.5625 -3.7804565q2.3125 -1.3588867 5.640625 -1.3581543l0 4.890625l-1.25 -2.746582E-4q-7.953125 -0.001739502 -7.953125 8.623291l0 15.5l-4.734375 -0.0010375977l0 -28.5l4.734375 0.0010070801l0 4.625zm12.896011 9.518463q0 -4.3594055 1.765625 -7.655884q1.765625 -3.3121338 4.859375 -5.1239624q3.09375 -1.8274536 6.890625 -1.8266296q3.75 8.239746E-4 6.5 1.6264038q2.765625 1.6099854 4.109375 4.0477905l0 -5.203125l4.78125 0.0010375977l0 28.49997l-4.78125 -0.0010375977l0 -5.296875q-1.40625 2.4840698 -4.1875 4.1240845q-2.78125 1.6400757 -6.46875 1.6392212q-3.796875 -7.9345703E-4 -6.875 -1.8764648q-3.0625 -1.8756714 -4.828125 -5.2510376q-1.765625 -3.3753662 -1.765625 -7.703491zm24.125 0.06768799q0 -3.234375 -1.296875 -5.6252747q-1.296875 -2.3908997 -3.515625 -3.657013q-2.203125 -1.2817078 -4.859375 -1.2822876q-2.640625 -5.79834E-4 -4.828125 1.2489624q-2.1875 1.2495117 -3.484375 3.639862q-1.296875 2.3903503 -1.296875 5.6091003q0 3.28125 1.296875 5.703369q1.296875 2.4221802 3.484375 3.7039185q2.1875 1.2661133 4.828125 1.2666626q2.65625 5.493164E-4 4.859375 -1.2645874q2.21875 -1.2807617 3.515625 -3.7023315q1.296875 -2.4216309 1.296875 -5.640381zm11.027039 0.0024414062q0 -4.4219055 1.765625 -7.718384q1.765625 -3.3121338 4.90625 -5.123932q3.15625 -1.8274536 7.21875 -1.8265686q5.25 0.0011291504 8.65625 2.548767q3.40625 2.5476074 4.5 7.0791016l-5.09375 -0.0011291504q-0.734375 -2.5939026 -2.84375 -4.0943604q-2.109375 -1.5160828 -5.21875 -1.5167542q-4.0625 -8.8500977E-4 -6.5625 2.7798157q-2.484375 2.7807312 -2.484375 7.874481q0 5.140625 2.484375 7.9536743q2.5 2.8130493 6.5625 2.8139038q3.109375 6.713867E-4 5.1875 -1.4520264q2.09375 -1.4682617 2.875 -4.1712036l5.09375 0.0010986328q-1.15625 4.374756 -4.59375 6.9989624q-3.421875 2.6242676 -8.5625 2.623169q-4.0625 -8.544922E-4 -7.21875 -1.8140869q-3.140625 -1.8287964 -4.90625 -5.1572876q-1.765625 -3.3284912 -1.765625 -7.797241zm47.470276 -14.708466q3.234375 7.019043E-4 5.828125 1.3762512q2.609375 1.3755798 4.078125 4.14151q1.484375 2.7503357 1.484375 6.7034607l0 16.796875l-4.671875 -0.0010375977l0 -16.125q0 -4.2655945 -2.140625 -6.5160522q-2.125 -2.2661133 -5.8125 -2.2669067q-3.75 -8.239746E-4 -5.96875 2.3424683q-2.203125 2.3276367 -2.203125 6.8120117l0 15.75l-4.734375 -0.0010375977l0 -38.484375l4.734375 0.0010375977l0 14.046875q1.40625 -2.1871948 3.875 -3.3741455q2.46875 -1.2026062 5.53125 -1.2019348zm17.37378 14.660004q0 -4.3593445 1.765625 -7.6558533q1.765625 -3.3121033 4.859375 -5.123932q3.09375 -1.8274536 6.890625 -1.8266296q3.75 7.9345703E-4 6.5 1.6264038q2.765625 1.6099854 4.109375 4.04776l0 -5.203125l4.78125 0.0010375977l0 28.5l-4.78125 -0.0010375977l0 -5.296875q-1.40625 2.4840698 -4.1875 4.1240845q-2.78125 1.6400146 -6.46875 1.6392212q-3.796875 -7.9345703E-4 -6.875 -1.8764648q-3.0625 -1.8756714 -4.828125 -5.2510376q-1.765625 -3.3754272 -1.765625 -7.7035522zm24.125 0.06774902q0 -3.234375 -1.296875 -5.6252747q-1.296875 -2.3908997 -3.515625 -3.657013q-2.203125 -1.2817383 -4.859375 -1.2823181q-2.640625 -5.493164E-4 -4.828125 1.2489624q-2.1875 1.2495117 -3.484375 3.639862q-1.296875 2.3903809 -1.296875 5.609131q0 3.28125 1.296875 5.703369q1.296875 2.4221802 3.484375 3.7039185q2.1875 1.2660522 4.828125 1.2666626q2.65625 5.493164E-4 4.859375 -1.2645874q2.21875 -1.2807617 3.515625 -3.7023315q1.296875 -2.4216309 1.296875 -5.640381zm15.245789 -18.824799q-1.359375 -3.0517578E-4 -2.296875 -0.9380188q-0.9375 -0.9376831 -0.9375 -2.281433q0 -1.359375 0.9375 -2.296692q0.9375 -0.9372864 2.296875 -0.9369812q1.296875 2.746582E-4 2.203125 0.93795776q0.90625 0.9377136 0.90625 2.2970886q0 1.34375 -0.90625 2.2810364q-0.90625 0.9373169 -2.203125 0.93704224zm2.28125 4.6254883l0 28.49997l-4.734375 -9.765625E-4l0 -28.50003l4.734375 0.0010375977zm21.948242 -0.51086426q5.203125 0.0011291504 8.421875 3.158081q3.21875 3.141327 3.21875 9.063202l0 16.796875l-4.671875 -0.0010375977l0 -16.125q0 -4.2655945 -2.140625 -6.516083q-2.125 -2.2660828 -5.8125 -2.2668762q-3.75 -8.239746E-4 -5.96875 2.3424683q-2.203125 2.3276367 -2.203125 6.8120117l0 15.75l-4.734375 -0.0010375977l0 -28.5l4.734375 0.0010375977l0 4.0625q1.40625 -2.1871948 3.8125 -3.374176q2.421875 -1.2026062 5.34375 -1.2019653zm29.483154 29.490753q-3.28125 -6.713867E-4 -5.890625 -1.1105957q-2.59375 -1.1256104 -4.109375 -3.1259155q-1.5 -2.0003052 -1.65625 -4.609741l4.890625 0.0010375977q0.21875 2.140686 2.0 3.5004883q1.796875 1.3441162 4.71875 1.3447266q2.703125 6.1035156E-4 4.25 -1.1865845q1.5625 -1.2027588 1.5625 -3.0308838q0 -1.875 -1.671875 -2.7816162q-1.65625 -0.9066162 -5.140625 -1.7979736q-3.171875 -0.8288574 -5.171875 -1.6886597q-2.0 -0.85980225 -3.4375 -2.5476074q-1.421875 -1.6878052 -1.421875 -4.45343q0 -2.171875 1.296875 -3.9841003q1.296875 -1.8278198 3.6875 -2.889801q2.40625 -1.0776062 5.46875 -1.0769653q4.734375 0.0010375977 7.640625 2.3923035q2.921875 2.3912659 3.125 6.5631714l-4.734375 -0.0010375977q-0.15625 -2.2344055 -1.796875 -3.5784912q-1.640625 -1.3597412 -4.390625 -1.3603516q-2.546875 -5.493164E-4 -4.0625 1.092865q-1.5 1.0778198 -1.5 2.8434448q0 1.40625 0.90625 2.328308q0.90625 0.9064636 2.28125 1.4536133q1.390625 0.5471802 3.828125 1.2196045q3.078125 0.8287964 5.0 1.6417236q1.921875 0.7972412 3.296875 2.4225464q1.375 1.6096802 1.421875 4.20343q0 2.34375 -1.296875 4.218506q-1.296875 1.8746948 -3.671875 2.9367065q-2.359375 1.0619507 -5.421875 1.0612793zm55.16867 -26.097382q0 4.53125 -3.09375 7.5305786q-3.09375 2.9837341 -9.4375 2.9823303l-6.96875 -0.0015258789l0 15.125l-4.734375 -9.765625E-4l0 -36.25003l11.703125 0.002532959q6.140625 0.0013427734 9.328125 2.9707947q3.203125 2.9694214 3.203125 7.6412964zm-12.53125 6.606659q3.953125 8.544922E-4 5.828125 -1.7174683q1.875 -1.7183533 1.875 -4.8902283q0 -6.703125 -7.703125 -6.7048035l-6.96875 -0.0014953613l0 13.3125l6.96875 0.0014953613zm23.139282 -4.8387146q1.25 -2.4372253 3.5625 -3.780487q2.3125 -1.3588562 5.640625 -1.3581543l0 4.890625l-1.25 -2.4414062E-4q-7.953125 -0.001739502 -7.953125 8.62323l0 15.5l-4.734375 -9.765625E-4l0 -28.50003l4.734375 0.0010375977l0 4.625zm27.099121 24.34964q-4.015625 -8.544922E-4 -7.265625 -1.8140869q-3.25 -1.8288574 -5.09375 -5.1729736q-1.84375 -3.3598022 -1.84375 -7.7816772q0 -4.3749695 1.890625 -7.7183228q1.90625 -3.3589478 5.171875 -5.155121q3.28125 -1.7961731 7.34375 -1.7952881q4.0625 8.8500977E-4 7.328125 1.7984619q3.28125 1.7976074 5.171875 5.126129q1.90625 3.3285522 1.90625 7.7504272q0 4.421875 -1.953125 7.7808228q-1.953125 3.3433228 -5.28125 5.1707153q-3.328125 1.8117676 -7.375 1.8109131zm0 -4.15625q2.546875 5.493164E-4 4.78125 -1.1864624q2.234375 -1.2026367 3.609375 -3.5929565q1.375 -2.4059448 1.375 -5.82782q0 -3.4375305 -1.359375 -5.82843q-1.34375 -2.3909302 -3.53125 -3.5632935q-2.171875 -1.1723328 -4.71875 -1.1728821q-2.609375 -5.79834E-4 -4.765625 1.1708374q-2.15625 1.1714172 -3.453125 3.561737q-1.296875 2.3903503 -1.296875 5.827881q0 3.484375 1.265625 5.875244q1.28125 2.3909302 3.40625 3.5632324q2.140625 1.1723633 4.6875 1.1729126zm26.62378 -20.900482l0 16.796906q0 2.078125 0.875 2.937683q0.890625 0.8595581 3.078125 0.8600464l3.484375 7.324219E-4l0 4.0l-4.265625 -9.1552734E-4q-3.953125 -8.544922E-4 -5.9375 -1.8137817q-1.96875 -1.8285522 -1.96875 -5.9848022l0 -16.796875l-3.6875 -8.239746E-4l0 -3.90625l3.6875 8.239746E-4l0 -7.171875l4.734375 0.0010070801l0 7.171875l7.4375 0.0016174316l0 3.90625l-7.4375 -0.0016174316zm25.58429 25.068085q-4.015625 -9.1552734E-4 -7.265625 -1.8140869q-3.25 -1.8288574 -5.09375 -5.1729736q-1.84375 -3.3598022 -1.84375 -7.7816772q0 -4.375 1.890625 -7.7183228q1.90625 -3.3589783 5.171875 -5.1551514q3.28125 -1.7961426 7.34375 -1.7952576q4.0625305 8.8500977E-4 7.3281555 1.7984619q3.28125 1.7975769 5.171875 5.126129q1.90625 3.3285217 1.90625 7.7504272q0 4.421875 -1.953125 7.7808228q-1.953125 3.3433228 -5.28125 5.1707153q-3.328125 1.8117676 -7.3750305 1.8109131zm0 -4.15625q2.5469055 5.493164E-4 4.7812805 -1.1864624q2.234375 -1.2026367 3.609375 -3.5929565q1.375 -2.4060059 1.375 -5.827881q0 -3.4374695 -1.359375 -5.8283997q-1.34375 -2.3908997 -3.53125 -3.563263q-2.171875 -1.1723328 -4.7187805 -1.1729126q-2.609375 -5.493164E-4 -4.765625 1.1708679q-2.15625 1.1713867 -3.453125 3.561737q-1.296875 2.3903503 -1.296875 5.82782q0 3.484375 1.265625 5.875305q1.28125 2.3908691 3.40625 3.5632324q2.140625 1.1723633 4.6875 1.1729126zm19.076935 -10.605225q0 -4.4219055 1.765625 -7.718384q1.765625 -3.3121338 4.90625 -5.123932q3.15625 -1.8274536 7.21875 -1.8265686q5.25 0.0011291504 8.65625 2.5487366q3.40625 2.547638 4.5 7.079132l-5.09375 -0.0011291504q-0.734375 -2.5939026 -2.84375 -4.0943604q-2.109375 -1.5160828 -5.21875 -1.5167542q-4.0625 -8.8500977E-4 -6.5625 2.7798157q-2.484375 2.7807312 -2.484375 7.874481q0 5.140625 2.484375 7.9536743q2.5 2.8130493 6.5625 2.8139038q3.109375 6.713867E-4 5.1875 -1.4520264q2.09375 -1.4682617 2.875 -4.1712036l5.09375 0.0010986328q-1.15625 4.374756 -4.59375 6.9989624q-3.421875 2.6242676 -8.5625 2.623169q-4.0625 -8.544922E-4 -7.21875 -1.8140869q-3.140625 -1.8287964 -4.90625 -5.1572876q-1.765625 -3.3284912 -1.765625 -7.797241zm45.76715 14.775513q-4.015625 -8.544922E-4 -7.265625 -1.8140259q-3.25 -1.8288574 -5.09375 -5.1730347q-1.84375 -3.3597412 -1.84375 -7.781616q0 -4.375 1.890625 -7.7183533q1.90625 -3.3589478 5.171875 -5.155121q3.28125 -1.7961731 7.34375 -1.7952881q4.0625 8.8500977E-4 7.328125 1.7984619q3.28125 1.7976074 5.171875 5.126129q1.90625 3.3285522 1.90625 7.7503967q0 4.421875 -1.953125 7.7808228q-1.953125 3.3433228 -5.28125 5.1707764q-3.328125 1.8117676 -7.375 1.810852zm0 -4.15625q2.546875 5.493164E-4 4.78125 -1.1864624q2.234375 -1.2026367 3.609375 -3.5929565q1.375 -2.4059448 1.375 -5.82782q0 -3.4375 -1.359375 -5.8283997q-1.34375 -2.3909302 -3.53125 -3.5632935q-2.171875 -1.1723328 -4.71875 -1.1728821q-2.609375 -5.79834E-4 -4.765625 1.1708374q-2.15625 1.1714172 -3.453125 3.561737q-1.296875 2.3903503 -1.296875 5.8278503q0 3.484375 1.265625 5.875305q1.28125 2.3908691 3.40625 3.5632324q2.140625 1.1723022 4.6875 1.1728516zm25.576904 -34.79129l0 38.484344l-4.734375 -9.765625E-4l0 -38.484406l4.734375 0.0010375977z" fill-rule="nonzero"/><path fill="#8d3aed" d="m56.155506 341.85416l0 0c0 -8.796143 7.130684 -15.924988 15.926823 -15.9227295l90.31957 0.023284912c4.22406 0.0010986328 8.275116 1.6801453 11.261978 4.6677856c2.986847 2.9876099 4.664856 7.039093 4.664856 11.263153l0 63.705414c0 8.796143 -7.1306915 15.924988 -15.926834 15.922699l-90.31957 -0.023284912l0 0c-8.796139 -0.0022583008 -15.926823 -7.1347656 -15.926823 -15.930908z" fill-rule="evenodd"/><path fill="#ffffff" d="m84.47153 358.6404q5.171875 0.0013122559 8.953125 1.9397888q3.78125 1.9228516 5.796875 5.5014954q2.015625 3.5786438 2.015625 8.422394q0 4.859375 -2.015625 8.421356q-2.015625 3.5463562 -5.796875 5.4360046q-3.78125 1.8740234 -8.953125 1.8727112l-9.84375 -0.002532959l0 -31.59375l9.84375 0.002532959zm0 28.1875q6.125 0.0015563965 9.328125 -3.231964q3.21875 -3.233551 3.21875 -9.092926q0 -5.890625 -3.234375 -9.1883545q-3.234375 -3.313324 -9.3125 -3.3148804l-5.71875 -0.0014953613l0 24.828125l5.71875 0.0014953613zm36.531372 3.7281494q-4.390625 -0.0011291504 -8.015625 -2.0645447q-3.625 -2.063446 -5.734375 -5.7514954q-2.109375 -3.7036743 -2.109375 -8.313049q0 -4.625 2.109375 -8.311951q2.109375 -3.7025757 5.734375 -5.7641296q3.625 -2.0615845 8.015625 -2.0604553q4.4375 0.001159668 8.0625 2.0645752q3.640625 2.063446 5.71875 5.7358704q2.078125 3.6723938 2.078125 8.344269q0 4.65625 -2.078125 8.327606q-2.078125 3.6713257 -5.71875 5.7328796q-3.625 2.0615845 -8.0625 2.0604248zm0 -3.578125q3.3125 8.544922E-4 5.953125 -1.5296936q2.65625 -1.5462036 4.171875 -4.405182q1.53125 -2.8589783 1.53125 -6.6089783q0 -3.8125 -1.53125 -6.6410217q-1.515625 -2.8441467 -4.140625 -4.376068q-2.625 -1.5475464 -5.984375 -1.5484314q-3.359375 -8.544922E-4 -5.984375 1.5453491q-2.625 1.5305786 -4.140625 4.373932q-1.515625 2.8277283 -1.515625 6.6402283q0 3.75 1.515625 6.6097717q1.515625 2.8597717 4.15625 4.407318q2.65625 1.5319214 5.96875 1.5327759zm40.752914 -28.317596l0 3.359375l-8.609375 -0.0022277832l0 28.234375l-4.125 -0.0010681152l0 -28.234375l-8.65625 -0.0022277832l0 -3.359375l21.390625 0.0055236816z" fill-rule="nonzero"/><path fill="#8d3aed" d="m209.9824 341.85413l0 0c0 -8.796143 7.1306915 -15.92569 15.926834 -15.924286l165.50067 0.026428223c4.22406 6.713867E-4 8.275116 1.6793213 11.261963 4.6666565c2.9868774 2.9873352 4.664856 7.0386353 4.664856 11.262695l0 63.705414c0 8.796143 -7.1306763 15.92569 -15.926819 15.924286l-165.50067 -0.026428223l0 0c-8.796143 -0.0014038086 -15.926834 -7.133209 -15.926834 -15.929352z" fill-rule="evenodd"/><path fill="#ffffff" d="m240.28111 389.76416q-3.03125 -4.8828125E-4 -5.4375 -1.0789795q-2.390625 -1.0785217 -3.765625 -2.9849854q-1.359375 -1.9220886 -1.390625 -4.4377136l4.265625 6.713867E-4q0.21875 2.1562805 1.78125 3.6408997q1.5625 1.4690247 4.546875 1.4694824q2.859375 4.5776367E-4 4.5 -1.4211426q1.65625 -1.4372559 1.65625 -3.6872559q0 -1.75 -0.96875 -2.8439026q-0.953125 -1.1095276 -2.40625 -1.6722412q-1.453125 -0.57836914 -3.921875 -1.2506409q-3.03125 -0.7817383 -4.859375 -1.5788879q-1.828125 -0.7971802 -3.125 -2.4848633q-1.296875 -1.7033386 -1.296875 -4.5627136q0 -2.5 1.265625 -4.437317q1.28125 -1.9372864 3.59375 -2.9837952q2.3125 -1.0621338 5.296875 -1.0616455q4.3125 6.713867E-4 7.0625 2.1573792q2.75 2.1566772 3.109375 5.7192383l-4.40625 -7.019043E-4q-0.21875 -1.7656555 -1.84375 -3.0940552q-1.625 -1.3439941 -4.3125 -1.3444214q-2.515625 -3.9672852E-4 -4.09375 1.2962036q-1.578125 1.2966309 -1.578125 3.6247559q0 1.671875 0.9375 2.7345276q0.953125 1.0470276 2.328125 1.6097412q1.390625 0.5470886 3.90625 1.2506409q3.03125 0.82858276 4.875 1.6413879q1.859375 0.8128052 3.171875 2.5161438q1.3125 1.6877136 1.3125 4.5939636q0 2.25 -1.1875 4.2341614q-1.1875 1.9685669 -3.515625 3.2025757q-2.328125 1.2340088 -5.5 1.23349zm20.984207 -21.121643l0 14.21875q0 1.75 0.75 2.484497q0.75 0.7188721 2.59375 0.7191467l2.953125 4.8828125E-4l0 3.390625l-3.609375 -5.79834E-4q-3.34375 -5.187988E-4 -5.015625 -1.5320435q-1.671875 -1.5471497 -1.671875 -5.0627747l0 -14.21875l-3.1250153 -4.8828125E-4l0 -3.296875l3.1250153 4.8828125E-4l0 -6.078125l4.0 6.4086914E-4l0 6.078125l6.296875 0.0010070801l0 3.296875l-6.296875 -0.0010070801zm9.640961 8.673401q0 -3.703125 1.5 -6.484131q1.5 -2.7966309 4.109375 -4.3430786q2.625 -1.5464783 5.828125 -1.5459595q3.171875 5.187988E-4 5.5 1.375885q2.328125 1.3597412 3.484375 3.4224243l0 -4.390625l4.046875 6.4086914E-4l0 24.109375l-4.046875 -6.4086914E-4l0 -4.484375q-1.1875 2.109192 -3.546875 3.4994507q-2.359375 1.3746033 -5.484375 1.374115q-3.203125 -5.187988E-4 -5.796875 -1.5790405q-2.59375 -1.5785522 -4.09375 -4.4381714q-1.5 -2.8596191 -1.5 -6.515869zm20.421875 0.05014038q0 -2.734375 -1.109375 -4.750183q-1.09375 -2.0314026 -2.96875 -3.1098328q-1.859375 -1.0784302 -4.109375 -1.0787964q-2.25 -3.3569336E-4 -4.09375 1.0618591q-1.84375 1.0465698 -2.953125 3.0776672q-1.09375 2.015442 -1.09375 4.749817q0 2.765625 1.09375 4.812683q1.109375 2.0470276 2.953125 3.1254578q1.84375 1.0784302 4.09375 1.0787659q2.25 3.6621094E-4 4.109375 -1.0774536q1.875 -1.0778198 2.96875 -3.1245422q1.109375 -2.046692 1.109375 -4.765442zm24.290802 12.097626l-9.46875 -10.64212l0 10.640625l-4.0 -6.4086914E-4l0 -32.5625l4.0 6.4086914E-4l0 19.140625l9.28125 -10.686035l5.59375 8.8500977E-4l-11.359375 12.013824l11.40625 12.095581l-5.453125 -8.8500977E-4zm11.253723 -28.02945q-1.140625 -1.8310547E-4 -1.9375 -0.7815552q-0.78125 -0.7969971 -0.78125 -1.9376221q0 -1.15625 0.78125 -1.9373779q0.796875 -0.7967529 1.9375 -0.7965698q1.109375 1.8310547E-4 1.875 0.7971802q0.765625 0.7813721 0.765625 1.9376221q0 1.140625 -0.765625 1.9373779q-0.765625 0.7811279 -1.875 0.7809448zm1.9375 3.9221802l0 24.109375l-4.0 -6.4086914E-4l0 -24.109375l4.0 6.4086914E-4zm18.573975 -0.4345398q4.390625 7.019043E-4 7.109375 2.6574097q2.734375 2.6566772 2.734375 7.6723022l0 14.21875l-3.953125 -6.4086914E-4l0 -13.640625q0 -3.609375 -1.8125 -5.5158997q-1.796875 -1.9221802 -4.921875 -1.9226685q-3.171875 -5.187988E-4 -5.046875 1.9835815q-1.859375 1.9840698 -1.859375 5.76532l0 13.328125l-4.0 -6.4086914E-4l0 -24.109375l4.0 6.4086914E-4l0 3.421875q1.1875 -1.8435669 3.234375 -2.8432312q2.046875 -1.0153198 4.515625 -1.0149231zm26.347443 0.035461426q3.125 4.8828125E-4 5.46875 1.375885q2.359375 1.3597412 3.515625 3.4224243l0 -4.390625l4.046875 6.4086914E-4l0 24.640625q0 3.296875 -1.40625 5.8591614q-1.40625 2.5779114 -4.03125 4.030609q-2.625 1.4526978 -6.09375 1.4521484q-4.75 -7.6293945E-4 -7.921875 -2.2512512q-3.171875 -2.2348938 -3.734375 -6.1099854l3.953125 6.4086914E-4q0.65625 2.2032166 2.71875 3.5473022q2.078125 1.3440857 4.984375 1.3445435q3.296875 5.187988E-4 5.390625 -2.0772705q2.09375 -2.0621643 2.09375 -5.7965393l0 -5.0625q-1.1875 2.109192 -3.53125 3.5150757q-2.328125 1.4058533 -5.453125 1.405365q-3.203125 -5.187988E-4 -5.828125 -1.5790405q-2.609375 -1.5785522 -4.109375 -4.4381714q-1.5 -2.8596191 -1.5 -6.515869q0 -3.703125 1.5 -6.484131q1.5 -2.7966309 4.109375 -4.3430786q2.625 -1.5464783 5.828125 -1.5459595zm8.984375 12.423309q0 -2.734375 -1.109375 -4.750183q-1.09375 -2.0314026 -2.96875 -3.1098328q-1.859375 -1.0784302 -4.109375 -1.0787964q-2.25 -3.3569336E-4 -4.09375 1.0618591q-1.84375 1.0465698 -2.953125 3.0776367q-1.09375 2.0154724 -1.09375 4.7498474q0 2.765625 1.09375 4.8126526q1.109375 2.047058 2.953125 3.1254883q1.84375 1.0784302 4.09375 1.0787659q2.25 3.6621094E-4 4.109375 -1.0774536q1.875 -1.0778198 2.96875 -3.1245422q1.109375 -2.046692 1.109375 -4.765442z" fill-rule="nonzero"/><path fill="#8d3aed" d="m438.98944 341.85413l0 0c0 -8.796143 7.1306763 -15.92569 15.926819 -15.924286l165.50067 0.026428223c4.22406 6.713867E-4 8.2751465 1.6793213 11.261963 4.6666565c2.9868774 2.9873352 4.664856 7.0386353 4.664856 11.262695l0 63.705414c0 8.796143 -7.1306763 15.92569 -15.926819 15.924286l-165.50067 -0.026428223l0 0c-8.796143 -0.0014038086 -15.926819 -7.133209 -15.926819 -15.929352z" fill-rule="evenodd"/><path fill="#ffffff" d="m471.75732 370.12457q-0.765625 -1.6407471 -2.234375 -2.5316162q-1.46875 -0.89086914 -3.421875 -0.8911743q-1.9375 -3.0517578E-4 -3.5 0.8900757q-1.5625 0.89038086 -2.453125 2.5621033q-0.890625 1.6717224 -0.890625 3.8592224q0 2.171875 0.890625 3.8282776q0.890625 1.6564026 2.453125 2.5472717q1.5625 0.89086914 3.5 0.8911743q2.71875 4.272461E-4 4.484375 -1.6242676q1.765625 -1.6247253 2.046875 -4.39032l-7.40625 -0.0011901855l0 -1.96875l10.0 0.0016174316l0 1.859375q-0.21875 2.2968445 -1.453125 4.202881q-1.21875 1.9060669 -3.21875 3.0151062q-2.0 1.0934448 -4.453125 1.0930481q-2.578125 -3.9672852E-4 -4.71875 -1.2038879q-2.125 -1.2190857 -3.375 -3.3755188q-1.234375 -2.1564636 -1.234375 -4.8752136q0 -2.71875 1.234375 -4.8904114q1.25 -2.171692 3.375 -3.3901062q2.140625 -1.2183838 4.71875 -1.2179871q2.96875 4.8828125E-4 5.25 1.4696045q2.28125 1.4690857 3.3125 4.141144l-2.90625 -4.5776367E-4zm13.035339 13.42395q-2.046875 -3.3569336E-4 -3.71875 -0.92248535q-1.671875 -0.93774414 -2.625 -2.6566467q-0.9375 -1.7189026 -0.9375 -3.9845276q0 -2.234375 0.96875 -3.9529724q0.984375 -1.7342224 2.65625 -2.6401978q1.6875 -0.92160034 3.765625 -0.92129517q2.078125 3.3569336E-4 3.75 0.92248535q1.6875 0.90652466 2.65625 2.6254272q0.96875 1.7032776 0.96875 3.9689026q0 2.265625 -1.0 3.9842224q-0.984375 1.7185974 -2.703125 2.6558228q-1.703125 0.92160034 -3.78125 0.92126465zm0 -2.125q1.3125 2.1362305E-4 2.453125 -0.6089783q1.140625 -0.6248169 1.84375 -1.8434753q0.71875 -1.2342529 0.71875 -2.984253q0 -1.765625 -0.703125 -2.984497q-0.6875 -1.2344666 -1.8125 -1.8283997q-1.109375 -0.5939331 -2.421875 -0.5941467q-1.328125 -2.1362305E-4 -2.4375 0.5933533q-1.109375 0.5935974 -1.78125 1.8278503q-0.65625 1.2186584 -0.65625 2.9842834q0 1.78125 0.65625 3.0157166q0.65625 1.2188721 1.75 1.8283997q1.09375 0.5939331 2.390625 0.5941467zm16.122437 -0.34118652l4.53125 -12.374268l2.59375 3.9672852E-4l-5.734375 14.608459l-2.828125 -4.272461E-4l-5.734375 -14.610291l2.625 3.9672852E-4l4.546875 12.375732zm22.844727 -5.621338q0 0.6875 -0.078125 1.4687195l-11.671875 -0.0018615723q0.140625 2.1562805 1.484375 3.3752441q1.34375 1.2033386 3.265625 1.2036438q1.5625 2.4414062E-4 2.609375 -0.73394775q1.0625 -0.7342224 1.484375 -1.9529114l2.625 4.272461E-4q-0.59375 2.0936584 -2.359375 3.4215088q-1.75 1.3122253 -4.359375 1.3117981q-2.078125 -3.3569336E-4 -3.71875 -0.92245483q-1.640625 -0.93777466 -2.578125 -2.6566772q-0.9375 -1.7189026 -0.9375 -3.9845276q0 -2.265625 0.90625 -3.9685974q0.90625 -1.7185974 2.546875 -2.6246033q1.640625 -0.92160034 3.78125 -0.92126465q2.078125 3.3569336E-4 3.671875 0.90682983q1.59375 0.90652466 2.453125 2.5003967q0.875 1.5782776 0.875 3.5782776zm-2.5 -0.5160217q0 -1.375 -0.609375 -2.375122q-0.609375 -1.0000916 -1.671875 -1.5158691q-1.046875 -0.5314331 -2.328125 -0.5316467q-1.84375 -2.746582E-4 -3.140625 1.1713867q-1.28125 1.1716614 -1.46875 3.2497559l9.21875 0.0014953613zm8.136169 -3.8580933q0.640625 -1.2499084 1.8125 -1.9371948q1.1875 -0.7029419 2.90625 -0.70266724l0 2.5l-0.640625 -1.2207031E-4q-4.078125 -6.4086914E-4 -4.078125 4.436859l0 7.9375l-2.4375 -3.9672852E-4l0 -14.609375l2.4375 3.9672852E-4l0 2.375zm14.630249 -2.6382751q2.65625 3.9672852E-4 4.3125 1.6100464q1.65625 1.6096497 1.65625 4.6565247l0 8.609375l-2.40625 -3.9672852E-4l0 -8.265625q0 -2.1875 -1.09375 -3.343933q-1.078125 -1.1564026 -2.984375 -1.1567078q-1.90625 -3.0517578E-4 -3.046875 1.2026367q-1.125 1.1873169 -1.125 3.484192l0 8.078125l-2.4375 -3.9672852E-4l0 -14.609375l2.4375 3.9672852E-4l0 2.078125q0.71875 -1.1092529 1.953125 -1.7184448q1.234375 -0.6247864 2.734375 -0.62454224zm9.028687 7.5170593q0 -2.234375 0.90625 -3.9217224q0.90625 -1.7030029 2.484375 -2.6246033q1.59375 -0.93725586 3.546875 -0.9369507q1.921875 3.0517578E-4 3.328125 0.8286438q1.421875 0.82836914 2.109375 2.0784912l0 -2.671875l2.453125 3.6621094E-4l0 14.609375l-2.453125 -3.6621094E-4l0 -2.71875q-0.71875 1.2811279 -2.15625 2.1246338q-1.421875 0.8279114 -3.3125 0.8276062q-1.9375 -3.0517578E-4 -3.515625 -0.9536743q-1.578125 -0.95339966 -2.484375 -2.6878967q-0.90625 -1.7345276 -0.90625 -3.9532776zm12.375 0.033233643q0 -1.65625 -0.671875 -2.875122q-0.65625 -1.2344666 -1.796875 -1.8752747q-1.125 -0.6564331 -2.484375 -0.6566467q-1.359375 -2.4414062E-4 -2.484375 0.6402283q-1.125 0.6248169 -1.796875 1.8590698q-0.65625 1.2186584 -0.65625 2.8749084q0 1.6875 0.65625 2.9219666q0.671875 1.2344971 1.796875 1.8909302q1.125 0.6564026 2.484375 0.6566467q1.359375 2.1362305E-4 2.484375 -0.6558533q1.140625 -0.6560669 1.796875 -1.8903503q0.671875 -1.2342529 0.671875 -2.890503zm13.675842 -7.5447083q2.65625 4.272461E-4 4.3125 1.6100769q1.65625 1.6096191 1.65625 4.656494l0 8.609375l-2.40625 -3.6621094E-4l0 -8.265625q0 -2.1875 -1.09375 -3.343933q-1.078125 -1.1564331 -2.984375 -1.1567383q-1.90625 -3.0517578E-4 -3.046875 1.2026367q-1.125 1.1873474 -1.125 3.4842224l0 8.078125l-2.4375 -3.9672852E-4l0 -14.609375l2.4375 3.9672852E-4l0 2.078125q0.71875 -1.1092834 1.953125 -1.7184448q1.234375 -0.6248169 2.734375 -0.62457275zm9.028687 7.5483093q0 -2.265625 0.90625 -3.9529724q0.90625 -1.7029724 2.515625 -2.6246033q1.625 -0.93722534 3.703125 -0.93692017q2.6875 4.5776367E-4 4.4375 1.3132324q1.75 1.2971497 2.296875 3.6097412l-2.609375 -4.272461E-4q-0.375 -1.328186 -1.453125 -2.0939941q-1.078125 -0.7814026 -2.671875 -0.78167725q-2.078125 -3.0517578E-4 -3.359375 1.4369812q-1.28125 1.4216614 -1.28125 4.0310364q0 2.640625 1.28125 4.0783386q1.28125 1.4377136 3.359375 1.4380493q1.59375 2.4414062E-4 2.65625 -0.7496033q1.078125 -0.7498169 1.46875 -2.1247559l2.609375 4.272461E-4q-0.578125 2.2342834 -2.34375 3.5777283q-1.75 1.3434753 -4.390625 1.3430786q-2.078125 -3.3569336E-4 -3.703125 -0.92248535q-1.609375 -0.93774414 -2.515625 -2.6410217q-0.90625 -1.7032776 -0.90625 -4.0001526zm30.414673 -0.5263977q0 0.6875 -0.078125 1.46875l-11.671875 -0.0018615723q0.140625 2.1562805 1.484375 3.3752441q1.34375 1.2033386 3.265625 1.2036438q1.5625 2.4414062E-4 2.609375 -0.7339783q1.0625 -0.7341919 1.484375 -1.9528809l2.625 4.272461E-4q-0.59375 2.0936584 -2.359375 3.4214783q-1.75 1.3122253 -4.359375 1.3118286q-2.078125 -3.3569336E-4 -3.71875 -0.92248535q-1.640625 -0.93774414 -2.578125 -2.6566467q-0.9375 -1.7189026 -0.9375 -3.9845276q0 -2.265625 0.90625 -3.9685974q0.90625 -1.7186279 2.546875 -2.6246033q1.640625 -0.92163086 3.78125 -0.92126465q2.078125 3.3569336E-4 3.671875 0.90682983q1.59375 0.90649414 2.453125 2.5003967q0.875 1.5782471 0.875 3.578247zm-2.5 -0.5160217q0 -1.375 -0.609375 -2.3750916q-0.609375 -1.0000916 -1.671875 -1.5158997q-1.046875 -0.5314026 -2.328125 -0.5316162q-1.84375 -3.0517578E-4 -3.140625 1.1713867q-1.28125 1.1716614 -1.46875 3.2497559l9.21875 0.0014648438z" fill-rule="nonzero"/><path fill="#8d3aed" d="m56.155506 262.9243l0 0c0 -4.032776 3.269207 -7.3006287 7.301983 -7.29895l61.01808 0.025405884c1.9366074 8.087158E-4 3.7938995 0.7708893 5.1632843 2.140854c1.3693848 1.3699646 2.1387024 3.2275696 2.1387024 5.1641846l0 29.207062c0 4.0327454 -3.2692108 7.300598 -7.3019867 7.2989197l-61.01808 -0.025390625c-4.032776 -0.0017089844 -7.301983 -3.2722778 -7.301983 -7.3050537z" fill-rule="evenodd"/><path fill="#ffffff" d="m91.50581 286.22314q-0.625 -2.4414062E-4 -1.0625 -0.42230225q-0.421875 -0.4376831 -0.421875 -1.0626831q0 -0.625 0.421875 -1.0466919q0.4375 -0.4373169 1.0625 -0.43707275q0.59375 2.4414062E-4 1.015625 0.43792725q0.421875 0.4220581 0.421875 1.0470581q0 0.625 -0.421875 1.0623169q-0.421875 0.4216919 -1.015625 0.42144775zm4.515625 0.0018920898q-0.625 -2.746582E-4 -1.0625 -0.42233276q-0.421875 -0.4376526 -0.421875 -1.0626526q0 -0.625 0.421875 -1.0467224q0.4375 -0.4373169 1.0625 -0.43704224q0.59375 2.4414062E-4 1.015625 0.43792725q0.421875 0.4220276 0.421875 1.0470276q0 0.625 -0.421875 1.0623474q-0.421875 0.4216919 -1.015625 0.42144775zm-9.0 -0.003753662q-0.625 -2.746582E-4 -1.0625 -0.42233276q-0.421875 -0.4376526 -0.421875 -1.0626526q0 -0.625 0.421875 -1.0467224q0.4375 -0.4373169 1.0625 -0.43704224q0.59375 2.4414062E-4 1.015625 0.43792725q0.421875 0.4220581 0.421875 1.0470581q0 0.625 -0.421875 1.0623169q-0.421875 0.4216919 -1.015625 0.42144775zm13.943954 0.00579834q-0.625 -2.4414062E-4 -1.0625 -0.42230225q-0.421875 -0.4376831 -0.421875 -1.0626831q0 -0.625 0.421875 -1.0466919q0.4375 -0.4373169 1.0625 -0.43707275q0.59375 2.4414062E-4 1.015625 0.43792725q0.421875 0.4220581 0.421875 1.0470581q0 0.625 -0.421875 1.0623169q-0.421875 0.4216919 -1.015625 0.42144775z" fill-rule="nonzero"/><path fill="#8d3aed" d="m178.31398 237.93724l0 0c0 -4.032776 3.2692108 -7.3006287 7.3019867 -7.29895l61.01808 0.025421143c1.9365997 8.087158E-4 3.7938843 0.7708893 5.163269 2.140854c1.3694 1.3699493 2.1387024 3.2275696 2.1387024 5.1641693l0 29.207047c0 4.032776 -3.2692108 7.3006287 -7.3019714 7.29895l-61.01808 -0.025421143c-4.032776 -0.0016784668 -7.3019867 -3.2722473 -7.3019867 -7.305023z" fill-rule="evenodd"/><path fill="#ffffff" d="m213.66428 261.2361q-0.625 -2.4414062E-4 -1.0625 -0.42230225q-0.42185974 -0.4376831 -0.42185974 -1.0626831q0 -0.625 0.42185974 -1.0466919q0.4375 -0.4373474 1.0625 -0.43707275q0.59375 2.4414062E-4 1.015625 0.43792725q0.421875 0.4220581 0.421875 1.0470581q0 0.625 -0.421875 1.0623169q-0.421875 0.4216919 -1.015625 0.42144775zm4.515625 0.0018920898q-0.625 -2.746582E-4 -1.0625 -0.42233276q-0.421875 -0.4376831 -0.421875 -1.0626831q0 -0.625 0.421875 -1.0466919q0.4375 -0.4373169 1.0625 -0.43704224q0.59375 2.4414062E-4 1.015625 0.43792725q0.421875 0.4220276 0.421875 1.0470276q0 0.625 -0.421875 1.0623474q-0.421875 0.4216919 -1.015625 0.42144775zm-8.999985 -0.003753662q-0.625 -2.746582E-4 -1.0625 -0.42233276q-0.421875 -0.4376526 -0.421875 -1.0626526q0 -0.625 0.421875 -1.0467224q0.4375 -0.4373169 1.0625 -0.43704224q0.59375 2.4414062E-4 1.015625 0.43792725q0.421875 0.4220276 0.421875 1.0470276q0 0.625 -0.421875 1.0623474q-0.421875 0.4216919 -1.015625 0.42144775zm13.943939 0.00579834q-0.625 -2.4414062E-4 -1.0625 -0.42230225q-0.421875 -0.4376831 -0.421875 -1.0626831q0 -0.625 0.421875 -1.0466919q0.4375 -0.4373169 1.0625 -0.43707275q0.59375 2.4414062E-4 1.015625 0.43792725q0.421875 0.4220581 0.421875 1.0470581q0 0.625 -0.421875 1.0623169q-0.421875 0.4216919 -1.015625 0.42144775z" fill-rule="nonzero"/><path fill="#8d3aed" d="m375.67932 271.13745l0 0c0 -4.032776 3.2691956 -7.3006287 7.3019714 -7.29895l61.018097 0.025421143c1.9365845 8.239746E-4 3.7938843 0.77090454 5.163269 2.1408691c1.3693848 1.3699341 2.1387024 3.2275696 2.1387024 5.164154l0 29.207062c0 4.032776 -3.2691956 7.3006287 -7.3019714 7.29895l-61.018097 -0.025421143c-4.032776 -0.0016784668 -7.3019714 -3.2722473 -7.3019714 -7.305023z" fill-rule="evenodd"/><path fill="#ffffff" d="m411.02963 294.43634q-0.625 -2.746582E-4 -1.0625 -0.42233276q-0.421875 -0.4376526 -0.421875 -1.0626526q0 -0.625 0.421875 -1.0467224q0.4375 -0.4373169 1.0625 -0.43704224q0.59375 2.4414062E-4 1.015625 0.43792725q0.421875 0.4220276 0.421875 1.0470276q0 0.625 -0.421875 1.0623474q-0.421875 0.4216919 -1.015625 0.42144775zm4.515625 0.0018615723q-0.625 -2.4414062E-4 -1.0625 -0.42230225q-0.421875 -0.4376831 -0.421875 -1.0626831q0 -0.625 0.421875 -1.0466919q0.4375 -0.4373169 1.0625 -0.43707275q0.59375 2.746582E-4 1.015625 0.43792725q0.421875 0.4220581 0.421875 1.0470581q0 0.625 -0.421875 1.0623169q-0.421875 0.4217224 -1.015625 0.42144775zm-9.0 -0.0037231445q-0.625 -2.746582E-4 -1.0625 -0.42233276q-0.421875 -0.4376831 -0.421875 -1.0626831q0 -0.625 0.421875 -1.0466919q0.4375 -0.4373169 1.0625 -0.43704224q0.59375 2.4414062E-4 1.015625 0.43789673q0.421875 0.4220581 0.421875 1.0470581q0 0.625 -0.421875 1.0623169q-0.421875 0.4217224 -1.015625 0.42147827zm13.943939 0.00579834q-0.625 -2.746582E-4 -1.0625 -0.42233276q-0.421875 -0.4376526 -0.421875 -1.0626526q0 -0.625 0.421875 -1.0467224q0.4375 -0.4373169 1.0625 -0.43704224q0.59375 2.4414062E-4 1.015625 0.43792725q0.421875 0.4220581 0.421875 1.0470581q0 0.625 -0.421875 1.0623169q-0.421875 0.4216919 -1.015625 0.42144775z" fill-rule="nonzero"/><path fill="#8d3aed" d="m300.05505 194.09247l0 0c0 -4.032776 3.2691956 -7.3006134 7.3019714 -7.298935l61.018097 0.025405884c1.936615 8.087158E-4 3.7938843 0.77090454 5.163269 2.140854c1.3693848 1.3699646 2.1387024 3.2275696 2.1387024 5.1641693l0 29.207062c0 4.032776 -3.2691956 7.3006287 -7.3019714 7.298935l-61.018097 -0.025405884c-4.032776 -0.0016784668 -7.3019714 -3.2722473 -7.3019714 -7.305023z" fill-rule="evenodd"/><path fill="#ffffff" d="m334.99515 218.76242q-0.734375 -3.0517578E-4 -1.234375 -0.50050354q-0.5 -0.5158386 -0.5 -1.2345886q0 -0.734375 0.5 -1.2341614q0.5 -0.49980164 1.234375 -0.49949646q0.703125 3.0517578E-4 1.1875 0.50050354q0.484375 0.50019836 0.484375 1.2345734q0 0.71875 -0.484375 1.2341766q-0.484375 0.49980164 -1.1875 0.49949646zm5.265625 0.0021972656q-0.734375 -3.0517578E-4 -1.234375 -0.5005188q-0.5 -0.51582336 -0.5 -1.2345734q0 -0.734375 0.5 -1.2341766q0.5 -0.49978638 1.234375 -0.4994812q0.703125 2.89917E-4 1.1875 0.50050354q0.484375 0.50019836 0.484375 1.2345734q0 0.71875 -0.484375 1.2341766q-0.484375 0.49978638 -1.1875 0.49949646zm-10.5 -0.0043640137q-0.734375 -3.0517578E-4 -1.234375 -0.5005188q-0.5 -0.5158386 -0.5 -1.2345886q0 -0.734375 0.5 -1.2341614q0.5 -0.49978638 1.234375 -0.4994812q0.703125 2.89917E-4 1.1875 0.5004883q0.484375 0.50019836 0.484375 1.2345734q0 0.71875 -0.484375 1.2341766q-0.484375 0.49980164 -1.1875 0.49951172zm16.268066 0.0067749023q-0.734375 -3.0517578E-4 -1.234375 -0.5005188q-0.5 -0.5158386 -0.5 -1.2345886q0 -0.734375 0.5 -1.2341614q0.5 -0.49978638 1.234375 -0.4994812q0.703125 2.89917E-4 1.1875 0.5004883q0.484375 0.50019836 0.484375 1.2345734q0 0.71875 -0.484375 1.2341766q-0.484375 0.49980164 -1.1875 0.49951172z" fill-rule="nonzero"/><path fill="#8d3aed" d="m471.34204 206.22707l0 0c0 -4.0327606 3.2691956 -7.3006134 7.3019714 -7.298935l61.018097 0.025421143c1.9365845 7.9345703E-4 3.7938843 0.7708893 5.163269 2.1408386c1.3693848 1.3699646 2.1386719 3.2275696 2.1386719 5.1641846l0 29.207047c0 4.032776 -3.269165 7.3006287 -7.301941 7.29895l-61.018097 -0.025421143c-4.032776 -0.0016784668 -7.3019714 -3.2722473 -7.3019714 -7.305023z" fill-rule="evenodd"/><path fill="#ffffff" d="m506.69232 229.52596q-0.625 -2.593994E-4 -1.0625 -0.4223175q-0.421875 -0.4376831 -0.421875 -1.0626831q0 -0.625 0.421875 -1.0466919q0.4375 -0.4373169 1.0625 -0.4370575q0.59375 2.4414062E-4 1.015625 0.437912q0.421875 0.4220581 0.421875 1.0470581q0 0.625 -0.421875 1.0623169q-0.421875 0.42170715 -1.015625 0.421463zm4.515625 0.001876831q-0.625 -2.593994E-4 -1.0625 -0.4223175q-0.421875 -0.4376831 -0.421875 -1.0626831q0 -0.625 0.421875 -1.0466919q0.4375 -0.4373169 1.0625 -0.4370575q0.59375 2.4414062E-4 1.015625 0.43792725q0.421875 0.42204285 0.421875 1.0470428q0 0.625 -0.421875 1.0623322q-0.421875 0.4216919 -1.015625 0.42144775zm-9.0 -0.003753662q-0.625 -2.593994E-4 -1.0625 -0.4223175q-0.421875 -0.43766785 -0.421875 -1.0626678q0 -0.625 0.421875 -1.0467072q0.4375 -0.4373169 1.0625 -0.4370575q0.59375 2.4414062E-4 1.015625 0.43792725q0.421875 0.42204285 0.421875 1.0470428q0 0.625 -0.421875 1.0623322q-0.421875 0.4216919 -1.015625 0.42144775zm13.94397 0.0058135986q-0.625 -2.593994E-4 -1.0625 -0.4223175q-0.421875 -0.4376831 -0.421875 -1.0626831q0 -0.625 0.421875 -1.0466919q0.4375 -0.4373169 1.0625 -0.4370575q0.59375 2.4414062E-4 1.015625 0.43792725q0.421875 0.42204285 0.421875 1.0470428q0 0.625 -0.421875 1.0623322q-0.421875 0.4216919 -1.015625 0.42144775z" fill-rule="nonzero"/><path fill="#25cc85" d="m56.155506 72.786476l0 0c0 -6.958061 5.6406174 -12.597137 12.598675 -12.595238l90.07823 0.024612427c3.341385 9.1171265E-4 6.5458984 1.3291435 8.908615 3.692501c2.3627167 2.3633537 3.6900635 5.568241 3.6900635 8.909618l0 50.393196c0 6.9580536 -5.6406097 12.597137 -12.598679 12.59523l-90.07823 -0.024612427c-6.9580574 -0.0018920898 -12.598675 -5.644058 -12.598675 -12.602112z" fill-rule="evenodd"/><path fill="#ffffff" d="m78.90045 95.58241q0 1.515625 -1.03125 2.5153427q-1.03125 0.9840927 -3.140625 0.9835129l-2.328125 -6.3323975E-4l0 5.046875l-1.578125 -4.272461E-4l0 -12.078133l3.90625 0.0010681152q2.046875 5.645752E-4 3.109375 0.9852295q1.0625 0.9846649 1.0625 2.547165zm-4.171875 2.2019806q1.3125 3.5858154E-4 1.9375 -0.56196594q0.625 -0.57795715 0.625 -1.6404572q0 -2.234375 -2.5625 -2.235077l-2.328125 -6.3323975E-4l0 4.4375l2.328125 6.3323975E-4zm5.5485535 1.5640182q0 -1.453125 0.578125 -2.5467148q0.59375 -1.1092148 1.625 -1.7183075q1.03125 -0.6090927 2.296875 -0.6087494q1.25 3.4332275E-4 2.15625 0.54746246q0.921875 0.53150177 1.375 1.3441315l0 -1.734375l1.59375 4.348755E-4l0 9.5l-1.59375 -4.348755E-4l0 -1.765625q-0.46875 0.8279953 -1.390625 1.3746185q-0.921875 0.54662323 -2.15625 0.54628754q-1.265625 -3.5095215E-4 -2.296875 -0.62563324q-1.015625 -0.62527466 -1.609375 -1.7504349q-0.578125 -1.1251602 -0.578125 -2.5626602zm8.03125 0.017822266q0 -1.078125 -0.4375 -1.8751221q-0.421875 -0.79698944 -1.15625 -1.2190628q-0.734375 -0.422081 -1.625 -0.42232513q-0.890625 -2.3651123E-4 -1.625 0.4214325q-0.71875 0.40605927 -1.15625 1.2028122q-0.421875 0.79676056 -0.421875 1.8748856q0 1.09375 0.421875 1.9063644q0.4375 0.7969971 1.15625 1.2190628q0.734375 0.422081 1.625 0.4223175q0.890625 2.4414062E-4 1.625 -0.42142487q0.734375 -0.42167664 1.15625 -1.2184372q0.4375 -0.8123779 0.4375 -1.8905029zm5.838745 -3.1859055q0.421875 -0.81238556 1.1875 -1.2653046q0.78125 -0.45291138 1.890625 -0.4526062l0 1.625l-0.421875 -1.1444092E-4q-2.65625 -7.247925E-4 -2.65625 2.8899002l0 5.15625l-1.578125 -4.348755E-4l0 -9.5l1.578125 4.348755E-4l0 1.546875zm4.3070984 3.17305q0 -1.453125 0.578125 -2.5467148q0.59375 -1.1092148 1.625 -1.7183075q1.03125 -0.6090927 2.296875 -0.6087494q1.25 3.4332275E-4 2.15625 0.54746246q0.921875 0.53150177 1.375 1.3441315l0 -1.734375l1.59375 4.348755E-4l0 9.5l-1.59375 -4.348755E-4l0 -1.765625q-0.46875 0.8279953 -1.390625 1.3746185q-0.921875 0.54662323 -2.15625 0.54628754q-1.265625 -3.5095215E-4 -2.296875 -0.62563324q-1.015625 -0.62527466 -1.609375 -1.7504349q-0.578125 -1.1251602 -0.578125 -2.5626602zm8.03125 0.017822266q0 -1.078125 -0.4375 -1.8751221q-0.421875 -0.79698944 -1.15625 -1.2190628q-0.734375 -0.422081 -1.625 -0.42232513q-0.890625 -2.3651123E-4 -1.625 0.4214325q-0.71875 0.40605164 -1.15625 1.2028122q-0.421875 0.79676056 -0.421875 1.8748856q0 1.09375 0.421875 1.9063644q0.4375 0.7969971 1.15625 1.2190628q0.734375 0.422081 1.625 0.4223175q0.890625 2.4414062E-4 1.625 -0.42142487q0.734375 -0.42167664 1.15625 -1.2184372q0.4375 -0.8123779 0.4375 -1.8905029zm3.682495 0.0010070801q0 -1.46875 0.578125 -2.5623474q0.59375 -1.1092072 1.640625 -1.7182999q1.046875 -0.6090927 2.40625 -0.6087189q1.75 4.8065186E-4 2.875 0.8601608q1.140625 0.8440628 1.5 2.344162l-1.6875 -4.6539307E-4q-0.25 -0.85944366 -0.953125 -1.3596344q-0.703125 -0.50019073 -1.734375 -0.500473q-1.359375 -3.6621094E-4 -2.1875 0.9212799q-0.828125 0.9216461 -0.828125 2.624771q0 1.71875 0.828125 2.656479q0.828125 0.9377289 2.1875 0.9380951q1.03125 2.822876E-4 1.71875 -0.48390198q0.703125 -0.49980927 0.96875 -1.3903656l1.6875 4.6539307E-4q-0.375 1.4530182 -1.515625 2.327713q-1.140625 0.8746872 -2.859375 0.8742142q-1.359375 -3.6621094E-4 -2.40625 -0.6100311q-1.046875 -0.6096573 -1.640625 -1.7192001q-0.578125 -1.1095276 -0.578125 -2.5939026zm15.814987 -4.901932q1.078125 2.975464E-4 1.9375 0.46927643q0.875 0.45336914 1.359375 1.3753738q0.5 0.9220123 0.5 2.2345123l0 5.59375l-1.5625 -4.272461E-4l0 -5.375q0 -1.421875 -0.71875 -2.1720734q-0.703125 -0.75019073 -1.9375 -0.7505264q-1.234375 -3.3569336E-4 -1.984375 0.7807083q-0.734375 0.781044 -0.734375 2.265419l0 5.25l-1.578125 -4.272461E-4l0 -12.828125l1.578125 4.272461E-4l0 4.6875q0.46875 -0.7342453 1.296875 -1.1246414q0.828125 -0.40602112 1.84375 -0.40574646zm5.7930603 4.8922043q0 -1.453125 0.578125 -2.5467148q0.59375 -1.1092148 1.625 -1.7183075q1.03125 -0.6090927 2.296875 -0.60874176q1.25 3.3569336E-4 2.15625 0.54746246q0.921875 0.53150177 1.375 1.3441238l0 -1.734375l1.59375 4.348755E-4l0 9.5l-1.59375 -4.348755E-4l0 -1.765625q-0.46875 0.8279953 -1.390625 1.3746185q-0.921875 0.54662323 -2.15625 0.54628754q-1.265625 -3.4332275E-4 -2.296875 -0.6256256q-1.015625 -0.6252823 -1.609375 -1.7504425q-0.578125 -1.1251602 -0.578125 -2.5626602zm8.03125 0.017822266q0 -1.078125 -0.4375 -1.8751221q-0.421875 -0.79698944 -1.15625 -1.2190628q-0.734375 -0.42207336 -1.625 -0.4223175q-0.890625 -2.4414062E-4 -1.625 0.4214325q-0.71875 0.40605164 -1.15625 1.2028046q-0.421875 0.79676056 -0.421875 1.8748856q0 1.09375 0.421875 1.9063644q0.4375 0.7969971 1.15625 1.2190704q0.734375 0.42207336 1.625 0.4223175q0.890625 2.4414062E-4 1.625 -0.4214325q0.734375 -0.42167664 1.15625 -1.2184372q0.4375 -0.8123779 0.4375 -1.8905029zm5.088745 -6.2642365q-0.453125 -1.2207031E-4 -0.765625 -0.312706q-0.3125 -0.31258392 -0.3125 -0.7657089q0 -0.453125 0.3125 -0.7655411q0.3125 -0.31241608 0.765625 -0.312294q0.421875 1.1444092E-4 0.71875 0.31269836q0.3125 0.31258392 0.3125 0.7657089q0 0.453125 -0.3125 0.7655411q-0.296875 0.31241608 -0.71875 0.31230164zm0.75 1.531456l0 9.5l-1.578125 -4.272461E-4l0 -9.5l1.578125 4.272461E-4zm7.3095703 -0.1698761q1.734375 4.7302246E-4 2.8125 1.0476456q1.078125 1.0471649 1.078125 3.03154l0 5.59375l-1.5625 -4.272461E-4l0 -5.375q0 -1.421875 -0.71875 -2.1720657q-0.703125 -0.75019836 -1.9375 -0.75053406q-1.234375 -3.3569336E-4 -1.984375 0.7807083q-0.734375 0.78105164 -0.734375 2.2654266l0 5.25l-1.578125 -4.348755E-4l0 -9.5l1.578125 4.348755E-4l0 1.359375q0.46875 -0.7342453 1.265625 -1.1246567q0.8125 -0.40602875 1.78125 -0.40576172z" fill-rule="nonzero"/><path fill="#25cc85" d="m280.2299 72.786476l0 0c0 -6.958061 5.640625 -12.597137 12.598694 -12.595238l90.07825 0.024612427c3.3413696 9.1171265E-4 6.5458984 1.3291435 8.9086 3.692501c2.3627014 2.3633537 3.6900635 5.568241 3.6900635 8.909618l0 50.393196c0 6.9580536 -5.640625 12.597137 -12.598663 12.59523l-90.07825 -0.024612427c-6.958069 -0.0018920898 -12.598694 -5.644058 -12.598694 -12.602112z" fill-rule="evenodd"/><path fill="#ffffff" d="m302.97485 95.58241q0 1.515625 -1.03125 2.5153427q-1.03125 0.9840927 -3.140625 0.9835129l-2.328125 -6.3323975E-4l0 5.046875l-1.578125 -4.272461E-4l0 -12.078133l3.90625 0.0010681152q2.046875 5.645752E-4 3.109375 0.9852295q1.0625 0.9846649 1.0625 2.547165zm-4.171875 2.2019806q1.3125 3.5858154E-4 1.9375 -0.56196594q0.625 -0.57795715 0.625 -1.6404572q0 -2.234375 -2.5625 -2.235077l-2.328125 -6.3323975E-4l0 4.4375l2.328125 6.3323975E-4zm5.5485535 1.5640182q0 -1.453125 0.578125 -2.5467148q0.59375 -1.1092148 1.625 -1.7183075q1.03125 -0.6090927 2.296875 -0.6087494q1.25 3.4332275E-4 2.15625 0.54746246q0.921875 0.53150177 1.375 1.3441315l0 -1.734375l1.59375 4.348755E-4l0 9.5l-1.59375 -4.348755E-4l0 -1.765625q-0.46875 0.8279953 -1.390625 1.3746185q-0.921875 0.54662323 -2.15625 0.54628754q-1.265625 -3.5095215E-4 -2.296875 -0.62563324q-1.015625 -0.62527466 -1.609375 -1.7504349q-0.578125 -1.1251602 -0.578125 -2.5626602zm8.03125 0.017822266q0 -1.078125 -0.4375 -1.8751221q-0.421875 -0.79698944 -1.15625 -1.2190628q-0.734375 -0.422081 -1.625 -0.42232513q-0.890625 -2.3651123E-4 -1.625 0.4214325q-0.71875 0.40605927 -1.15625 1.2028122q-0.421875 0.79676056 -0.421875 1.8748856q0 1.09375 0.421875 1.9063644q0.4375 0.7969971 1.15625 1.2190628q0.734375 0.422081 1.625 0.4223175q0.890625 2.4414062E-4 1.625 -0.42142487q0.734375 -0.42167664 1.15625 -1.2184372q0.4375 -0.8123779 0.4375 -1.8905029zm5.838745 -3.1859055q0.421875 -0.81238556 1.1875 -1.2653046q0.78125 -0.45291138 1.890625 -0.4526062l0 1.625l-0.421875 -1.1444092E-4q-2.65625 -7.247925E-4 -2.65625 2.8899002l0 5.15625l-1.578125 -4.348755E-4l0 -9.5l1.578125 4.348755E-4l0 1.546875zm4.3070984 3.17305q0 -1.453125 0.578125 -2.5467148q0.59375 -1.1092148 1.625 -1.7183075q1.03125 -0.6090927 2.296875 -0.6087494q1.25 3.4332275E-4 2.15625 0.54746246q0.921875 0.53150177 1.375 1.3441315l0 -1.734375l1.59375 4.348755E-4l0 9.5l-1.59375 -4.348755E-4l0 -1.765625q-0.46875 0.8279953 -1.390625 1.3746185q-0.921875 0.54662323 -2.15625 0.54628754q-1.265625 -3.5095215E-4 -2.296875 -0.62563324q-1.015625 -0.62527466 -1.609375 -1.7504349q-0.578125 -1.1251602 -0.578125 -2.5626602zm8.03125 0.017822266q0 -1.078125 -0.4375 -1.8751221q-0.421875 -0.79698944 -1.15625 -1.2190628q-0.734375 -0.422081 -1.625 -0.42232513q-0.890625 -2.3651123E-4 -1.625 0.4214325q-0.71875 0.40605164 -1.15625 1.2028122q-0.421875 0.79676056 -0.421875 1.8748856q0 1.09375 0.421875 1.9063644q0.4375 0.7969971 1.15625 1.2190628q0.734375 0.422081 1.625 0.4223175q0.890625 2.4414062E-4 1.625 -0.42142487q0.734375 -0.42167664 1.15625 -1.2184372q0.4375 -0.8123779 0.4375 -1.8905029zm3.682495 0.0010070801q0 -1.46875 0.578125 -2.5623474q0.59375 -1.1092072 1.640625 -1.7182999q1.046875 -0.6090927 2.40625 -0.6087189q1.75 4.8065186E-4 2.875 0.8601608q1.140625 0.8440628 1.5 2.344162l-1.6875 -4.6539307E-4q-0.25 -0.85944366 -0.953125 -1.3596344q-0.703125 -0.50019073 -1.734375 -0.500473q-1.359375 -3.6621094E-4 -2.1875 0.9212799q-0.828125 0.9216461 -0.828125 2.624771q0 1.71875 0.828125 2.656479q0.828125 0.9377289 2.1875 0.9380951q1.03125 2.822876E-4 1.71875 -0.48390198q0.703125 -0.49980927 0.96875 -1.3903656l1.6875 4.6539307E-4q-0.375 1.4530182 -1.515625 2.327713q-1.140625 0.8746872 -2.859375 0.8742142q-1.359375 -3.6621094E-4 -2.40625 -0.6100311q-1.046875 -0.6096573 -1.640625 -1.7192001q-0.578125 -1.1095276 -0.578125 -2.5939026zm15.814972 -4.901932q1.078125 2.975464E-4 1.9375 0.46927643q0.875 0.45336914 1.359375 1.3753738q0.5 0.9220123 0.5 2.2345123l0 5.59375l-1.5625 -4.272461E-4l0 -5.375q0 -1.421875 -0.71875 -2.1720734q-0.703125 -0.75019073 -1.9375 -0.7505264q-1.234375 -3.3569336E-4 -1.984375 0.7807083q-0.734375 0.781044 -0.734375 2.265419l0 5.25l-1.578125 -4.272461E-4l0 -12.828125l1.578125 4.272461E-4l0 4.6875q0.46875 -0.7342453 1.296875 -1.1246414q0.828125 -0.40602112 1.84375 -0.40574646zm5.7930603 4.8922043q0 -1.453125 0.578125 -2.5467148q0.59375 -1.1092148 1.625 -1.7183075q1.03125 -0.6090927 2.296875 -0.60874176q1.25 3.3569336E-4 2.15625 0.54746246q0.921875 0.53150177 1.375 1.3441238l0 -1.734375l1.59375 4.348755E-4l0 9.5l-1.59375 -4.348755E-4l0 -1.765625q-0.46875 0.8279953 -1.390625 1.3746185q-0.921875 0.54662323 -2.15625 0.54628754q-1.265625 -3.4332275E-4 -2.296875 -0.6256256q-1.015625 -0.6252823 -1.609375 -1.7504425q-0.578125 -1.1251602 -0.578125 -2.5626602zm8.03125 0.017822266q0 -1.078125 -0.4375 -1.8751221q-0.421875 -0.79698944 -1.15625 -1.2190628q-0.734375 -0.42207336 -1.625 -0.4223175q-0.890625 -2.4414062E-4 -1.625 0.4214325q-0.71875 0.40605164 -1.15625 1.2028046q-0.421875 0.79676056 -0.421875 1.8748856q0 1.09375 0.421875 1.9063644q0.4375 0.7969971 1.15625 1.2190704q0.734375 0.42207336 1.625 0.4223175q0.890625 2.4414062E-4 1.625 -0.4214325q0.734375 -0.42167664 1.15625 -1.2184372q0.4375 -0.8123779 0.4375 -1.8905029zm5.088745 -6.2642365q-0.453125 -1.2207031E-4 -0.765625 -0.312706q-0.3125 -0.31258392 -0.3125 -0.7657089q0 -0.453125 0.3125 -0.7655411q0.3125 -0.31241608 0.765625 -0.312294q0.421875 1.1444092E-4 0.71875 0.31269836q0.3125 0.31258392 0.3125 0.7657089q0 0.453125 -0.3125 0.7655411q-0.296875 0.31241608 -0.71875 0.31230164zm0.75 1.531456l0 9.5l-1.578125 -4.272461E-4l0 -9.5l1.578125 4.272461E-4zm7.3095703 -0.1698761q1.734375 4.7302246E-4 2.8125 1.0476456q1.078125 1.0471649 1.078125 3.03154l0 5.59375l-1.5625 -4.272461E-4l0 -5.375q0 -1.421875 -0.71875 -2.1720657q-0.703125 -0.75019836 -1.9375 -0.75053406q-1.234375 -3.3569336E-4 -1.984375 0.7807083q-0.734375 0.78105164 -0.734375 2.2654266l0 5.25l-1.578125 -4.348755E-4l0 -9.5l1.578125 4.348755E-4l0 1.359375q0.46875 -0.7342453 1.265625 -1.1246567q0.8125 -0.40602875 1.78125 -0.40576172z" fill-rule="nonzero"/><path fill="#25cc85" d="m504.3043 72.786476l0 0c0 -6.958061 5.640625 -12.597137 12.598663 -12.595238l90.07825 0.024612427c3.3413696 9.1171265E-4 6.5458984 1.3291435 8.90863 3.692501c2.362732 2.3633537 3.6900635 5.568241 3.6900635 8.909618l0 50.393196c0 6.9580536 -5.640625 12.597137 -12.598694 12.59523l-90.07825 -0.024612427c-6.9580383 -0.0018920898 -12.598663 -5.644058 -12.598663 -12.602112z" fill-rule="evenodd"/><path fill="#ffffff" d="m527.04926 95.58241q0 1.515625 -1.03125 2.5153427q-1.03125 0.9840927 -3.140625 0.9835129l-2.328125 -6.3323975E-4l0 5.046875l-1.578125 -4.272461E-4l0 -12.078133l3.90625 0.0010681152q2.046875 5.645752E-4 3.109375 0.9852295q1.0625 0.9846649 1.0625 2.547165zm-4.171875 2.2019806q1.3125 3.5858154E-4 1.9375 -0.56196594q0.625 -0.57795715 0.625 -1.6404572q0 -2.234375 -2.5625 -2.235077l-2.328125 -6.3323975E-4l0 4.4375l2.328125 6.3323975E-4zm5.548523 1.5640182q0 -1.453125 0.578125 -2.5467148q0.59375 -1.1092148 1.625 -1.7183075q1.03125 -0.6090927 2.296875 -0.6087494q1.25 3.4332275E-4 2.15625 0.54746246q0.921875 0.53150177 1.375 1.3441315l0 -1.734375l1.59375 4.348755E-4l0 9.5l-1.59375 -4.348755E-4l0 -1.765625q-0.46875 0.8279953 -1.390625 1.3746185q-0.921875 0.54662323 -2.15625 0.54628754q-1.265625 -3.5095215E-4 -2.296875 -0.62563324q-1.015625 -0.62527466 -1.609375 -1.7504349q-0.578125 -1.1251602 -0.578125 -2.5626602zm8.03125 0.017822266q0 -1.078125 -0.4375 -1.8751221q-0.421875 -0.79698944 -1.15625 -1.2190628q-0.734375 -0.422081 -1.625 -0.42232513q-0.890625 -2.3651123E-4 -1.625 0.4214325q-0.71875 0.40605927 -1.15625 1.2028122q-0.421875 0.79676056 -0.421875 1.8748856q0 1.09375 0.421875 1.9063644q0.4375 0.7969971 1.15625 1.2190628q0.734375 0.422081 1.625 0.4223175q0.890625 2.4414062E-4 1.625 -0.42142487q0.734375 -0.42167664 1.15625 -1.2184372q0.4375 -0.8123779 0.4375 -1.8905029zm5.838745 -3.1859055q0.421875 -0.81238556 1.1875 -1.2653046q0.78125 -0.45291138 1.890625 -0.4526062l0 1.625l-0.421875 -1.1444092E-4q-2.65625 -7.247925E-4 -2.65625 2.8899002l0 5.15625l-1.578125 -4.348755E-4l0 -9.5l1.578125 4.348755E-4l0 1.546875zm4.307129 3.17305q0 -1.453125 0.578125 -2.5467148q0.59375 -1.1092148 1.625 -1.7183075q1.03125 -0.6090927 2.296875 -0.6087494q1.25 3.4332275E-4 2.15625 0.54746246q0.921875 0.53150177 1.375 1.3441315l0 -1.734375l1.59375 4.348755E-4l0 9.5l-1.59375 -4.348755E-4l0 -1.765625q-0.46875 0.8279953 -1.390625 1.3746185q-0.921875 0.54662323 -2.15625 0.54628754q-1.265625 -3.5095215E-4 -2.296875 -0.62563324q-1.015625 -0.62527466 -1.609375 -1.7504349q-0.578125 -1.1251602 -0.578125 -2.5626602zm8.03125 0.017822266q0 -1.078125 -0.4375 -1.8751221q-0.421875 -0.79698944 -1.15625 -1.2190628q-0.734375 -0.422081 -1.625 -0.42232513q-0.890625 -2.3651123E-4 -1.625 0.4214325q-0.71875 0.40605164 -1.15625 1.2028122q-0.421875 0.79676056 -0.421875 1.8748856q0 1.09375 0.421875 1.9063644q0.4375 0.7969971 1.15625 1.2190628q0.734375 0.422081 1.625 0.4223175q0.890625 2.4414062E-4 1.625 -0.42142487q0.734375 -0.42167664 1.15625 -1.2184372q0.4375 -0.8123779 0.4375 -1.8905029zm3.682495 0.0010070801q0 -1.46875 0.578125 -2.5623474q0.59375 -1.1092072 1.640625 -1.7182999q1.046875 -0.6090927 2.40625 -0.6087189q1.75 4.8065186E-4 2.875 0.8601608q1.140625 0.8440628 1.5 2.344162l-1.6875 -4.6539307E-4q-0.25 -0.85944366 -0.953125 -1.3596344q-0.703125 -0.50019073 -1.734375 -0.500473q-1.359375 -3.6621094E-4 -2.1875 0.9212799q-0.828125 0.9216461 -0.828125 2.624771q0 1.71875 0.828125 2.656479q0.828125 0.9377289 2.1875 0.9380951q1.03125 2.822876E-4 1.71875 -0.48390198q0.703125 -0.49980927 0.96875 -1.3903656l1.6875 4.6539307E-4q-0.375 1.4530182 -1.515625 2.327713q-1.140625 0.8746872 -2.859375 0.8742142q-1.359375 -3.6621094E-4 -2.40625 -0.6100311q-1.046875 -0.6096573 -1.640625 -1.7192001q-0.578125 -1.1095276 -0.578125 -2.5939026zm15.815002 -4.901932q1.078125 2.975464E-4 1.9375 0.46927643q0.875 0.45336914 1.359375 1.3753738q0.5 0.9220123 0.5 2.2345123l0 5.59375l-1.5625 -4.272461E-4l0 -5.375q0 -1.421875 -0.71875 -2.1720734q-0.703125 -0.75019073 -1.9375 -0.7505264q-1.234375 -3.3569336E-4 -1.984375 0.7807083q-0.734375 0.781044 -0.734375 2.265419l0 5.25l-1.578125 -4.272461E-4l0 -12.828125l1.578125 4.272461E-4l0 4.6875q0.46875 -0.7342453 1.296875 -1.1246414q0.828125 -0.40602112 1.84375 -0.40574646zm5.79303 4.8922043q0 -1.453125 0.578125 -2.5467148q0.59375 -1.1092148 1.625 -1.7183075q1.03125 -0.6090927 2.296875 -0.60874176q1.25 3.3569336E-4 2.15625 0.54746246q0.921875 0.53150177 1.375 1.3441238l0 -1.734375l1.59375 4.348755E-4l0 9.5l-1.59375 -4.348755E-4l0 -1.765625q-0.46875 0.8279953 -1.390625 1.3746185q-0.921875 0.54662323 -2.15625 0.54628754q-1.265625 -3.4332275E-4 -2.296875 -0.6256256q-1.015625 -0.6252823 -1.609375 -1.7504425q-0.578125 -1.1251602 -0.578125 -2.5626602zm8.03125 0.017822266q0 -1.078125 -0.4375 -1.8751221q-0.421875 -0.79698944 -1.15625 -1.2190628q-0.734375 -0.42207336 -1.625 -0.4223175q-0.890625 -2.4414062E-4 -1.625 0.4214325q-0.71875 0.40605164 -1.15625 1.2028046q-0.421875 0.79676056 -0.421875 1.8748856q0 1.09375 0.421875 1.9063644q0.4375 0.7969971 1.15625 1.2190704q0.734375 0.42207336 1.625 0.4223175q0.890625 2.4414062E-4 1.625 -0.4214325q0.734375 -0.42167664 1.15625 -1.2184372q0.4375 -0.8123779 0.4375 -1.8905029zm5.088745 -6.2642365q-0.453125 -1.2207031E-4 -0.765625 -0.312706q-0.3125 -0.31258392 -0.3125 -0.7657089q0 -0.453125 0.3125 -0.7655411q0.3125 -0.31241608 0.765625 -0.312294q0.421875 1.1444092E-4 0.71875 0.31269836q0.3125 0.31258392 0.3125 0.7657089q0 0.453125 -0.3125 0.7655411q-0.296875 0.31241608 -0.71875 0.31230164zm0.75 1.531456l0 9.5l-1.578125 -4.272461E-4l0 -9.5l1.578125 4.272461E-4zm7.3095703 -0.1698761q1.734375 4.7302246E-4 2.8125 1.0476456q1.078125 1.0471649 1.078125 3.03154l0 5.59375l-1.5625 -4.272461E-4l0 -5.375q0 -1.421875 -0.71875 -2.1720657q-0.703125 -0.75019836 -1.9375 -0.75053406q-1.234375 -3.3569336E-4 -1.984375 0.7807083q-0.734375 0.78105164 -0.734375 2.2654266l0 5.25l-1.578125 -4.348755E-4l0 -9.5l1.578125 4.348755E-4l0 1.359375q0.46875 -0.7342453 1.265625 -1.1246567q0.8125 -0.40602875 1.78125 -0.40576172z" fill-rule="nonzero"/><path fill="#8d3aed" d="m732.50134 229.57532l0 0c4.5024414 0 8.151611 3.6499634 8.150574 8.152405l-0.059326172 265.99442c-4.8828125E-4 2.16214 -0.8598633 4.2357483 -2.3890991 5.764618c-1.5291748 1.5288696 -3.6029663 2.3877869 -5.7651367 2.3877869l-32.60858 0c-4.5024414 0 -8.15155 -3.6499634 -8.150574 -8.152405l0.059387207 -265.99442c9.765625E-4 -4.5024414 3.6517334 -8.152405 8.154175 -8.152405z" fill-rule="evenodd"/><path fill="#ffffff" d="m704.18463 285.27942l10.595886 -9.578125l-10.59375 0l6.713867E-4 -3.03125l23.234375 0l-6.713867E-4 3.03125l-10.765625 0l10.763489 9.609375l-8.544922E-4 3.828125l-11.638245 -10.53125l-11.59613 10.625l8.544922E-4 -3.953125zm20.759338 28.182556l-7.765625 0l-0.0018920898 8.46875l-2.5 0l0.0018920898 -8.46875l-8.0 0l-0.0020751953 9.46875l-2.5 0l0.002746582 -12.5l23.265625 0l-0.002746582 12.5l-2.5 0l0.0020751953 -9.46875zm-20.775452 44.097595l9.501221 -5.53125l8.544922E-4 -3.671875l-9.5 0l6.713867E-4 -3.03125l23.234375 0l-0.0017089844 7.5q-5.493164E-4 2.640625 -0.90722656 4.453125q-0.89105225 1.8125 -2.4381104 2.703125q-1.5314331 0.90625 -3.500183 0.90625q-2.390625 0 -4.23407 -1.390625q-1.8278198 -1.375 -2.4209595 -4.140625l-9.735657 5.84375l7.9345703E-4 -3.640625zm11.939575 -9.203125l-0.0010375977 4.46875q-5.493164E-4 2.46875 1.2023315 3.703125q1.2184448 1.234375 3.2496948 1.234375q2.078125 0 3.2034302 -1.21875q1.1408691 -1.21875 1.1414185 -3.71875l0.0010375977 -4.46875l-8.796875 0zm-11.949402 53.295013l6.713867E-4 -3.03125l18.502686 -12.203125l-18.5 0l6.713867E-4 -3.03125l23.265625 0l-6.713867E-4 3.03125l-18.471436 12.203125l18.46875 0l-6.713867E-4 3.03125l-23.265625 0zm20.759827 25.992432l-7.765625 0l-0.0018920898 8.46875l-2.5 0l0.0018920898 -8.46875l-8.0 0l-0.0021362305 9.46875l-2.5 0l0.0028076172 -12.5l23.265625 0l-0.0028076172 12.5l-2.5 0l0.0021362305 -9.46875zm-18.304688 34.89447l-0.0018310547 8.140625l-2.46875 0l0.0025024414 -11.171875l23.234375 0l-6.713867E-4 3.03125l-20.765625 0z" fill-rule="nonzero"/><path fill="#25cc85" d="m732.51166 36.715096l0 0c4.5024414 0 8.151367 3.649952 8.1501465 8.152393l-0.027038574 98.372375c-5.493164E-4 2.1621552 -0.8600464 4.2357483 -2.3893433 5.764618c-1.5292969 1.5288696 -3.6031494 2.3877716 -5.765259 2.3877716l-32.60858 0c-4.5024414 0 -8.151428 -3.6499481 -8.1502075 -8.15239l0.027038574 -98.372375c0.0012207031 -4.5024414 3.6522217 -8.152393 8.154663 -8.152393z" fill-rule="evenodd"/><path fill="#ffffff" d="m725.1802 56.03897l-11.75 0q-2.484375 0 -3.6878662 1.203125q-1.1878052 1.21875 -1.1884155 3.390625q-5.493164E-4 2.125 1.1865845 3.328125q1.2028198 1.21875 3.6871948 1.21875l11.75 0l-6.713867E-4 2.4375l-11.734375 0q-2.3125 0 -3.9060059 -0.9375q-1.5778809 -0.9375 -2.3587036 -2.53125q-0.76519775 -1.578125 -0.76464844 -3.546875q5.493164E-4 -1.96875 0.76660156 -3.5625q0.78167725 -1.578125 2.3601074 -2.5q1.5939941 -0.921875 3.9064941 -0.921875l11.734375 0l-6.713867E-4 2.421875zm-18.773499 28.625717q4.8828125E-4 -1.828125 0.6571655 -3.28125q0.6566162 -1.453125 1.8131104 -2.28125q1.1564941 -0.828125 2.6721191 -0.859375l-7.324219E-4 2.59375q-1.296875 0.125 -2.2033691 1.0625q-0.8909302 0.953125 -0.89141846 2.765625q-4.8828125E-4 1.734375 0.8586426 2.734375q0.8746948 1.0 2.2340698 1.0q1.078125 0 1.7345581 -0.59375q0.6720581 -0.578125 1.0159912 -1.453125q0.34399414 -0.875 0.7506714 -2.375q0.48486328 -1.84375 0.95391846 -2.953125q0.48468018 -1.09375 1.5005493 -1.890625q1.0314331 -0.78125 2.765808 -0.78125q1.515625 0 2.687317 0.765625q1.1873169 0.78125 1.8118896 2.171875q0.6402588 1.40625 0.6397705 3.21875q-7.324219E-4 2.609375 -1.3136597 4.28125q-1.2973633 1.671875 -3.4536743 1.875l7.324219E-4 -2.65625q1.062561 -0.140625 1.8753052 -1.125q0.8128052 -0.984375 0.8132324 -2.609375q4.272461E-4 -1.515625 -0.7805786 -2.484375q-0.78100586 -0.953125 -2.2028809 -0.953125q-1.015625 0 -1.6563721 0.5625q-0.6251831 0.578125 -0.96917725 1.421875q-0.3283081 0.84375 -0.75061035 2.359375q-0.5161743 1.84375 -1.0164795 2.953125q-0.48468018 1.125 -1.5161133 1.921875q-1.0158691 0.796875 -2.7814941 0.796875q-1.359375 0 -2.562317 -0.71875q-1.1872559 -0.71875 -1.9368896 -2.140625q-0.7496338 -1.40625 -0.7490845 -3.328125zm16.791565 19.311218l-6.21875 0l-0.0018310547 6.765625l-2.0 0l0.0018310547 -6.765625l-6.390625 0l-0.0020751953 7.5625l-2.0 0l0.002746582 -10.0l18.609375 0l-0.002746582 10.0l-2.0 0l0.0020751953 -7.5625zm-16.617065 28.135544l7.5949097 -4.4218826l8.544922E-4 -2.921875l-7.59375 0l6.713867E-4 -2.4375l18.578125 0l-0.0016479492 6.0000076q-6.1035156E-4 2.109375 -0.71972656 3.5625q-0.71917725 1.453125 -1.9537354 2.171875q-1.2189331 0.71875 -2.797058 0.71875q-1.90625 0 -3.3746948 -1.109375q-1.4684448 -1.109375 -1.9522705 -3.3125l-7.7825317 4.65625l8.544922E-4 -2.90625zm9.548889 -7.3437576l-9.765625E-4 3.5625076q-5.493164E-4 1.96875 0.9678955 2.953125q0.96850586 1.0 2.5935059 1.0q1.65625 0 2.5627441 -0.984375q0.9065552 -0.96875 0.9071045 -2.96875l9.765625E-4 -3.5625076l-7.03125 0z" fill-rule="nonzero"/><path fill="#8d3aed" d="m546.96405 271.13785l0 0c0 -4.032776 3.269226 -7.3006287 7.302002 -7.29895l61.018066 0.025421143c1.9366455 7.9345703E-4 3.7938843 0.770874 5.16333 2.1408386c1.3693848 1.3699646 2.1386719 3.2275696 2.1386719 5.1641846l0 29.207031c0 4.032776 -3.269226 7.3006287 -7.302002 7.29895l-61.018066 -0.025421143c-4.032776 -0.0016784668 -7.302002 -3.2722473 -7.302002 -7.305023z" fill-rule="evenodd"/><path fill="#ffffff" d="m582.3144 294.4367q-0.625 -2.4414062E-4 -1.0625 -0.42230225q-0.421875 -0.4376831 -0.421875 -1.0626831q0 -0.625 0.421875 -1.0466919q0.4375 -0.4373169 1.0625 -0.43707275q0.59375 2.4414062E-4 1.015625 0.43792725q0.421875 0.4220581 0.421875 1.0470581q0 0.625 -0.421875 1.0623169q-0.421875 0.4216919 -1.015625 0.42144775zm4.515625 0.0018920898q-0.625 -2.746582E-4 -1.0625 -0.42233276q-0.421875 -0.4376526 -0.421875 -1.0626526q0 -0.625 0.421875 -1.0467224q0.4375 -0.4373169 1.0625 -0.43704224q0.59375 2.4414062E-4 1.015625 0.43792725q0.421875 0.4220276 0.421875 1.0470276q0 0.625 -0.421875 1.0623474q-0.421875 0.4216919 -1.015625 0.42144775zm-9.0 -0.003753662q-0.625 -2.746582E-4 -1.0625 -0.42233276q-0.421875 -0.4376526 -0.421875 -1.0626526q0 -0.625 0.421875 -1.0467224q0.4375 -0.4373169 1.0625 -0.43704224q0.59375 2.4414062E-4 1.015625 0.43792725q0.421875 0.4220581 0.421875 1.0470581q0 0.625 -0.421875 1.0623169q-0.421875 0.4216919 -1.015625 0.42144775zm13.94397 0.00579834q-0.625 -2.4414062E-4 -1.0625 -0.42230225q-0.421875 -0.4376831 -0.421875 -1.0626831q0 -0.625 0.421875 -1.0466919q0.4375 -0.4373169 1.0625 -0.43707275q0.59375 2.4414062E-4 1.015625 0.43792725q0.421875 0.4220581 0.421875 1.0470581q0 0.625 -0.421875 1.0623169q-0.421875 0.4216919 -1.015625 0.42144775z" fill-rule="nonzero"/><path fill="#000000" fill-opacity="0.0" d="m25.498688 642.70654l0 0c0 -14.240845 11.544468 -25.78302 25.785294 -25.780212l589.9097 0.11584473c6.838684 0.0013427734 13.397278 2.7192993 18.23291 7.555908c4.8356934 4.83667 7.552368 11.395752 7.552368 18.234436l0 103.13812c0 14.240784 -11.544495 25.78302 -25.785278 25.780212l-589.9097 -0.11584473l0 0c-14.240826 -0.0028076172 -25.785294 -11.549561 -25.785294 -25.790405z" fill-rule="evenodd"/><path stroke="#b45f06" stroke-width="3.0" stroke-linejoin="round" stroke-linecap="butt" d="m25.498688 642.70654l0 0c0 -14.240845 11.544468 -25.78302 25.785294 -25.780212l589.9097 0.11584473c6.838684 0.0013427734 13.397278 2.7192993 18.23291 7.555908c4.8356934 4.83667 7.552368 11.395752 7.552368 18.234436l0 103.13812c0 14.240784 -11.544495 25.78302 -25.785278 25.780212l-589.9097 -0.11584473l0 0c-14.240826 -0.0028076172 -25.785294 -11.549561 -25.785294 -25.790405z" fill-rule="evenodd"/><path fill="#b45f06" d="m732.4749 617.58795l0 0c4.5024414 0 8.151611 3.6499023 8.150757 8.152405l-0.028198242 138.93927c-4.272461E-4 2.1621704 -0.85980225 4.235779 -2.388977 5.7646484c-1.5291748 1.5288696 -3.6029663 2.3877563 -5.7650757 2.3877563l-32.60858 0c-4.5025024 0 -8.151672 -3.6499634 -8.150757 -8.152405l0.028198242 -138.93927c9.1552734E-4 -4.5025024 3.6516113 -8.152405 8.154053 -8.152405z" fill-rule="evenodd"/><path fill="#ffffff" d="m724.3595 644.5205l-16.734375 0l4.8828125E-4 -2.1875l7.578125 0l0.0017089844 -8.515625l-7.578125 0l4.272461E-4 -2.1875l16.734375 0l-4.272461E-4 2.1875l-7.34375 0l-0.0017089844 8.515625l7.34375 0l-4.8828125E-4 2.1875zm-13.018372 13.607971l0.0014648438 -7.296875l-3.7184448 -1.34375l4.272461E-4 -2.296875l16.62378 6.046875l-4.8828125E-4 2.515625l-16.62622 6.03125l4.8828125E-4 -2.3125l3.7189941 -1.34375zm1.7813721 -0.625l8.43811 -3.015625l-8.43689 -3.03125l-0.0012207031 6.046875zm-5.503174 15.722839l6.8445435 -3.984375l5.493164E-4 -2.640625l-6.84375 0l4.272461E-4 -2.1875l16.734375 0l-0.0010986328 5.40625q-3.6621094E-4 1.890625 -0.65686035 3.203125q-0.6409302 1.3125 -1.7504272 1.953125q-1.1094971 0.65625 -2.515747 0.65625q-1.734375 0 -3.062317 -1.0q-1.3122559 -1.0 -1.7337646 -2.984375l-7.0164795 4.1875l5.493164E-4 -2.609375zm8.595093 -6.625l-6.713867E-4 3.21875q-3.6621094E-4 1.78125 0.8744507 2.65625q0.8748169 0.890625 2.343567 0.890625q1.484375 0 2.297058 -0.875q0.8126831 -0.875 0.8130493 -2.671875l6.713867E-4 -3.21875l-6.328125 0zm8.137024 17.62323q-5.493164E-4 2.734375 -1.0321655 4.734375q-1.0160522 2.0 -2.9225464 3.0625q-1.8908081 1.078125 -4.453308 1.078125q-2.5625 0 -4.452942 -1.078125q-1.8903809 -1.0625 -2.8899536 -3.0625q-0.9840088 -2.0 -0.9834595 -4.734375l0.0010986328 -5.21875l16.734375 0l-0.0010986328 5.21875zm-14.9375 0q-6.1035156E-4 3.234375 1.7177734 4.9375q1.7183838 1.703125 4.812134 1.703125q3.125 0 4.875366 -1.71875q1.7503662 -1.71875 1.7509766 -4.921875l6.1035156E-4 -3.03125l-13.15625 0l-6.1035156E-4 3.03125zm14.930847 32.780457l-16.733398 -4.84375l5.493164E-4 -2.453125l13.469543 -3.890625l-13.467957 -4.03125l-0.030761719 -2.421875l16.766602 -4.6875l-4.8828125E-4 2.328125l-14.188232 3.65625l14.1866455 4.03125l-4.8828125E-4 2.453125l-14.141418 3.828125l14.139893 3.671875l-4.8828125E-4 2.359375zm-13.018066 12.283264l0.0014648438 -7.296875l-3.7185059 -1.34375l4.8828125E-4 -2.296875l16.62378 6.046875l-5.493164E-4 2.515625l-16.62622 6.03125l4.8828125E-4 -2.3125l3.7190552 -1.34375zm1.7813721 -0.625l8.43811 -3.015625l-8.43689 -3.03125l-0.0012207031 6.046875zm-5.503235 15.722839l6.8446045 -3.984375l4.8828125E-4 -2.640625l-6.84375 0l4.8828125E-4 -2.1875l16.734375 0l-0.0010986328 5.40625q-4.272461E-4 1.890625 -0.6569214 3.203125q-0.64086914 1.3125 -1.7503662 1.953125q-1.1095581 0.65625 -2.515808 0.65625q-1.734375 0 -3.0622559 -1.0q-1.3123169 -1.0 -1.7337646 -2.984375l-7.0164795 4.1875l4.8828125E-4 -2.609375zm8.595093 -6.625l-6.1035156E-4 3.21875q-3.6621094E-4 1.78125 0.8744507 2.65625q0.8748169 0.890625 2.343567 0.890625q1.484375 0 2.297058 -0.875q0.8126831 -0.875 0.8130493 -2.671875l6.1035156E-4 -3.21875l-6.328125 0zm6.3564453 14.59198l-5.59375 0l-0.0012207031 6.09375l-1.796875 0l0.0012207031 -6.09375l-5.765625 0l-0.0014038086 6.8125l-1.796875 0l0.0018310547 -9.0l16.75 0l-0.0018310547 9.0l-1.796875 0l0.0014038086 -6.8125z" fill-rule="nonzero"/><path fill="#b45f06" d="m56.154854 678.88995l0 0c0 -4.5024414 3.649952 -8.151733 8.152397 -8.15094l155.75821 0.028503418c2.16214 4.272461E-4 4.235733 0.8596802 5.7646027 2.388855c1.5288696 1.5291748 2.3877869 3.6029053 2.3877869 5.7650757l0 32.60858c0 4.5024414 -3.6499481 8.151733 -8.15239 8.150879l-155.75821 -0.028503418c-4.502445 -7.9345703E-4 -8.152397 -3.6514282 -8.152397 -8.15387z" fill-rule="evenodd"/><path stroke="#b45f06" stroke-width="3.0" stroke-linejoin="round" stroke-linecap="butt" d="m56.154854 678.88995l0 0c0 -4.5024414 3.649952 -8.151733 8.152397 -8.15094l155.75821 0.028503418c2.16214 4.272461E-4 4.235733 0.8596802 5.7646027 2.388855c1.5288696 1.5291748 2.3877869 3.6029053 2.3877869 5.7650757l0 32.60858c0 4.5024414 -3.6499481 8.151733 -8.15239 8.150879l-155.75821 -0.028503418c-4.502445 -7.9345703E-4 -8.152397 -3.6514282 -8.152397 -8.15387z" fill-rule="evenodd"/><path fill="#ffffff" d="m114.35769 695.3699q0 -2.453125 1.09375 -4.406067q1.109375 -1.9528809 3.015625 -3.0463257q1.921875 -1.1090088 4.25 -1.1085815q2.734375 4.8828125E-4 4.765625 1.3289795q2.0468674 1.3129272 2.9843674 3.7349243l-2.6249924 -4.272461E-4q-0.6875 -1.5158081 -2.0 -2.3284912q-1.3125 -0.82836914 -3.125 -0.82873535q-1.765625 -3.0517578E-4 -3.15625 0.8275757q-1.390625 0.81225586 -2.1875 2.3120728q-0.78125 1.4998779 -0.78125 3.515503q0 1.984375 0.78125 3.484497q0.796875 1.5001831 2.1875 2.3285522q1.390625 0.81274414 3.15625 0.8130493q1.8125 3.6621094E-4 3.125 -0.79626465q1.3125 -0.8123169 2.0 -2.3277588l2.6249924 4.272461E-4q-0.9375 2.406128 -2.9843674 3.7182007q-2.03125 1.2965088 -4.765625 1.2960205q-2.328125 -4.272461E-4 -4.25 -1.0945435q-1.90625 -1.0940552 -3.015625 -3.0317993q-1.09375 -1.9376831 -1.09375 -4.390808zm25.074806 8.598328q-1.84375 -3.0517578E-4 -3.34375 -0.84436035q-1.5 -0.84399414 -2.359375 -2.3910522q-0.84375 -1.5469971 -0.84375 -3.578247q0 -2.015625 0.875 -3.562378q0.875 -1.5623169 2.390625 -2.3901978q1.515625 -0.8278198 3.390625 -0.8274536q1.859375 3.0517578E-4 3.375 0.82873535q1.515625 0.82836914 2.390625 2.3754272q0.875 1.5314331 0.875 3.578308q0 2.03125 -0.90625 3.577942q-0.890625 1.5466919 -2.4375 2.3901978q-1.53125 0.8434448 -3.40625 0.8430786zm0 -1.921875q1.1875 2.4414062E-4 2.21875 -0.54644775q1.03125 -0.5623169 1.65625 -1.6559448q0.640625 -1.1092529 0.640625 -2.687378q0 -1.59375 -0.625 -2.687622q-0.625 -1.1094971 -1.640625 -1.6409302q-1.0 -0.5470581 -2.171875 -0.5472412q-1.203125 -2.4414062E-4 -2.203125 0.54644775q-0.984375 0.5310669 -1.59375 1.6403198q-0.59375 1.0936279 -0.59375 2.687378q0 1.609375 0.578125 2.718872q0.59375 1.0938721 1.578125 1.6409302q0.984375 0.5314331 2.15625 0.5316162zm11.81308 -9.310303q0.578125 -1.124939 1.640625 -1.7496948q1.078125 -0.6248169 2.609375 -0.62457275l0 2.25l-0.578125 -6.1035156E-5q-3.671875 -6.713867E-4 -3.671875 3.9837036l0 7.15625l-2.1875 -4.272461E-4l0 -13.15625l2.1875 4.272461E-4l0 2.140625zm18.76448 3.940918q0 0.625 -0.0625 1.3125l-10.515625 -0.001953125q0.125 1.953186 1.328125 3.0471191q1.21875 1.0939941 2.9375 1.0942993q1.421875 2.4414062E-4 2.359375 -0.65582275q0.953125 -0.6716919 1.34375 -1.7810059l2.34375 4.272461E-4q-0.515625 1.906189 -2.109375 3.0933838q-1.578125 1.1871948 -3.9375 1.1867676q-1.875 -3.6621094E-4 -3.34375 -0.84436035q-1.46875 -0.84399414 -2.3125 -2.3910522q-0.84375 -1.5469971 -0.84375 -3.578247q0 -2.046875 0.8125 -3.578003q0.8125 -1.5467529 2.28125 -2.3745728q1.484375 -0.82788086 3.40625 -0.82751465q1.875 3.6621094E-4 3.3125 0.82873535q1.4375 0.81274414 2.21875 2.2504272q0.78125 1.4219971 0.78125 3.218872zm-2.25 -0.45355225q0 -1.25 -0.5625 -2.140686q-0.546875 -0.9063721 -1.5 -1.3753052q-0.9375 -0.4689331 -2.09375 -0.4691162q-1.65625 -3.0517578E-4 -2.828125 1.0619507q-1.15625 1.0466919 -1.328125 2.9216309l8.3125 0.0015258789z" fill-rule="nonzero"/><path fill="#b45f06" d="m260.20398 678.01855l0 0c0 -4.5024414 3.6499329 -8.151733 8.152374 -8.15094l155.75821 0.028503418c2.16214 4.272461E-4 4.2357483 0.8597412 5.764618 2.388855c1.5288696 1.5291748 2.3877869 3.6029053 2.3877869 5.7650757l0 32.60858c0 4.5024414 -3.6499634 8.151733 -8.152405 8.150879l-155.75821 -0.028503418c-4.5024414 -7.9345703E-4 -8.152374 -3.6514282 -8.152374 -8.15387z" fill-rule="evenodd"/><path stroke="#b45f06" stroke-width="3.0" stroke-linejoin="round" stroke-linecap="butt" d="m260.20398 678.01855l0 0c0 -4.5024414 3.6499329 -8.151733 8.152374 -8.15094l155.75821 0.028503418c2.16214 4.272461E-4 4.2357483 0.8597412 5.764618 2.388855c1.5288696 1.5291748 2.3877869 3.6029053 2.3877869 5.7650757l0 32.60858c0 4.5024414 -3.6499634 8.151733 -8.152405 8.150879l-155.75821 -0.028503418c-4.5024414 -7.9345703E-4 -8.152374 -3.6514282 -8.152374 -8.15387z" fill-rule="evenodd"/><path fill="#ffffff" d="m318.4068 694.4985q0 -2.453125 1.09375 -4.406067q1.109375 -1.9528809 3.015625 -3.0462646q1.921875 -1.1090698 4.25 -1.1086426q2.734375 4.8828125E-4 4.765625 1.3290405q2.046875 1.3128662 2.984375 3.7349243l-2.625 -4.8828125E-4q-0.6875 -1.5157471 -2.0 -2.3284912q-1.3125 -0.82836914 -3.125 -0.82873535q-1.765625 -3.0517578E-4 -3.15625 0.8275757q-1.390625 0.81225586 -2.1875 2.3120728q-0.78125 1.4998779 -0.78125 3.515503q0 1.984375 0.78125 3.484497q0.796875 1.5001831 2.1875 2.3285522q1.390625 0.81274414 3.15625 0.8130493q1.8125 3.6621094E-4 3.125 -0.79626465q1.3125 -0.81225586 2.0 -2.3277588l2.625 4.8828125E-4q-0.9375 2.406067 -2.984375 3.7182007q-2.03125 1.2964478 -4.765625 1.2959595q-2.328125 -4.272461E-4 -4.25 -1.0944824q-1.90625 -1.0941162 -3.015625 -3.0318604q-1.09375 -1.9376831 -1.09375 -4.390808zm25.074799 8.598328q-1.84375 -3.0517578E-4 -3.34375 -0.84436035q-1.5 -0.84399414 -2.359375 -2.3910522q-0.84375 -1.5469971 -0.84375 -3.578247q0 -2.015625 0.875 -3.562378q0.875 -1.5623169 2.390625 -2.3901367q1.515625 -0.82788086 3.390625 -0.82751465q1.859375 3.0517578E-4 3.375 0.82873535q1.515625 0.82836914 2.390625 2.3754272q0.875 1.5314331 0.875 3.578308q0 2.03125 -0.90625 3.577942q-0.890625 1.5466919 -2.4375 2.3901978q-1.53125 0.8434448 -3.40625 0.8430786zm0 -1.921875q1.1875 2.4414062E-4 2.21875 -0.54644775q1.03125 -0.5623169 1.65625 -1.6559448q0.640625 -1.1092529 0.640625 -2.687378q0 -1.59375 -0.625 -2.687622q-0.625 -1.1094971 -1.640625 -1.6409302q-1.0 -0.5470581 -2.171875 -0.5472412q-1.203125 -2.4414062E-4 -2.203125 0.54644775q-0.984375 0.5310669 -1.59375 1.6403198q-0.59375 1.0936279 -0.59375 2.687378q0 1.609375 0.578125 2.718872q0.59375 1.0938721 1.578125 1.6409302q0.984375 0.5314331 2.15625 0.5316162zm11.81308 -9.310303q0.578125 -1.1248779 1.640625 -1.7496948q1.078125 -0.6248169 2.609375 -0.6245117l0 2.25l-0.578125 -1.2207031E-4q-3.671875 -6.713867E-4 -3.671875 3.9837036l0 7.15625l-2.1875 -4.272461E-4l0 -13.15625l2.1875 4.272461E-4l0 2.140625zm18.764496 3.940918q0 0.625 -0.0625 1.3125l-10.515625 -0.001953125q0.125 1.953186 1.328125 3.0471191q1.21875 1.0939941 2.9375 1.0942993q1.421875 2.4414062E-4 2.359375 -0.65582275q0.953125 -0.6716919 1.34375 -1.7810059l2.34375 4.272461E-4q-0.515625 1.906189 -2.109375 3.0933838q-1.578125 1.1871948 -3.9375 1.1867676q-1.875 -3.0517578E-4 -3.34375 -0.84436035q-1.46875 -0.84399414 -2.3125 -2.3910522q-0.84375 -1.5469971 -0.84375 -3.578247q0 -2.046875 0.8125 -3.578003q0.8125 -1.5466919 2.28125 -2.3745728q1.484375 -0.82788086 3.40625 -0.82751465q1.875 3.6621094E-4 3.3125 0.82873535q1.4375 0.81274414 2.21875 2.2504272q0.78125 1.4219971 0.78125 3.218872zm-2.25 -0.45355225q0 -1.25 -0.5625 -2.140686q-0.546875 -0.9063721 -1.5 -1.3753052q-0.9375 -0.4689331 -2.09375 -0.4691162q-1.65625 -3.0517578E-4 -2.828125 1.0619507q-1.15625 1.0466919 -1.328125 2.9216309l8.3125 0.0015258789z" fill-rule="nonzero"/><path fill="#b45f06" d="m464.25308 678.88995l0 0c0 -4.5024414 3.6499329 -8.151733 8.152374 -8.15094l155.75824 0.028503418c2.1621094 4.272461E-4 4.235718 0.8596802 5.7645874 2.388855c1.5288696 1.5291748 2.3877563 3.6029053 2.3877563 5.7650757l0 32.60858c0 4.5024414 -3.6499023 8.151733 -8.152344 8.150879l-155.75824 -0.028503418c-4.5024414 -7.9345703E-4 -8.152374 -3.6514282 -8.152374 -8.15387z" fill-rule="evenodd"/><path stroke="#b45f06" stroke-width="3.0" stroke-linejoin="round" stroke-linecap="butt" d="m464.25308 678.88995l0 0c0 -4.5024414 3.6499329 -8.151733 8.152374 -8.15094l155.75824 0.028503418c2.1621094 4.272461E-4 4.235718 0.8596802 5.7645874 2.388855c1.5288696 1.5291748 2.3877563 3.6029053 2.3877563 5.7650757l0 32.60858c0 4.5024414 -3.6499023 8.151733 -8.152344 8.150879l-155.75824 -0.028503418c-4.5024414 -7.9345703E-4 -8.152374 -3.6514282 -8.152374 -8.15387z" fill-rule="evenodd"/><path fill="#ffffff" d="m522.45593 695.3699q0 -2.453125 1.09375 -4.406067q1.109375 -1.9528809 3.015625 -3.0463257q1.921875 -1.1090088 4.25 -1.1085815q2.734375 4.8828125E-4 4.765625 1.3289795q2.046875 1.3129272 2.984375 3.7349243l-2.625 -4.272461E-4q-0.6875 -1.5158081 -2.0 -2.3284912q-1.3125 -0.82836914 -3.125 -0.82873535q-1.765625 -3.0517578E-4 -3.15625 0.8275757q-1.390625 0.81225586 -2.1875 2.3120728q-0.78125 1.4998779 -0.78125 3.515503q0 1.984375 0.78125 3.484497q0.796875 1.5001831 2.1875 2.3285522q1.390625 0.81274414 3.15625 0.8130493q1.8125 3.6621094E-4 3.125 -0.79626465q1.3125 -0.8123169 2.0 -2.3277588l2.625 4.272461E-4q-0.9375 2.406128 -2.984375 3.7182007q-2.03125 1.2965088 -4.765625 1.2960205q-2.328125 -4.272461E-4 -4.25 -1.0945435q-1.90625 -1.0940552 -3.015625 -3.0317993q-1.09375 -1.9376831 -1.09375 -4.390808zm25.074768 8.598328q-1.84375 -3.0517578E-4 -3.34375 -0.84436035q-1.5 -0.84399414 -2.359375 -2.3910522q-0.84375 -1.5469971 -0.84375 -3.578247q0 -2.015625 0.875 -3.562378q0.875 -1.5623169 2.390625 -2.3901978q1.515625 -0.8278198 3.390625 -0.8274536q1.859375 3.0517578E-4 3.375 0.82873535q1.515625 0.82836914 2.390625 2.3754272q0.875 1.5314331 0.875 3.578308q0 2.03125 -0.90625 3.577942q-0.890625 1.5466919 -2.4375 2.3901978q-1.53125 0.8434448 -3.40625 0.8430786zm0 -1.921875q1.1875 2.4414062E-4 2.21875 -0.54644775q1.03125 -0.5623169 1.65625 -1.6559448q0.640625 -1.1092529 0.640625 -2.687378q0 -1.59375 -0.625 -2.687622q-0.625 -1.1094971 -1.640625 -1.6409302q-1.0 -0.5470581 -2.171875 -0.5472412q-1.203125 -2.4414062E-4 -2.203125 0.54644775q-0.984375 0.5310669 -1.59375 1.6403198q-0.59375 1.0936279 -0.59375 2.687378q0 1.609375 0.578125 2.718872q0.59375 1.0938721 1.578125 1.6409302q0.984375 0.5314331 2.15625 0.5316162zm11.81311 -9.310303q0.578125 -1.124939 1.640625 -1.7496948q1.078125 -0.6248169 2.609375 -0.62457275l0 2.25l-0.578125 -6.1035156E-5q-3.671875 -6.713867E-4 -3.671875 3.9837036l0 7.15625l-2.1875 -4.272461E-4l0 -13.15625l2.1875 4.272461E-4l0 2.140625zm18.764465 3.940918q0 0.625 -0.0625 1.3125l-10.515625 -0.001953125q0.125 1.953186 1.328125 3.0471191q1.21875 1.0939941 2.9375 1.0942993q1.421875 2.4414062E-4 2.359375 -0.65582275q0.953125 -0.6716919 1.34375 -1.7810059l2.34375 4.272461E-4q-0.515625 1.906189 -2.109375 3.0933838q-1.578125 1.1871948 -3.9375 1.1867676q-1.875 -3.6621094E-4 -3.34375 -0.84436035q-1.46875 -0.84399414 -2.3125 -2.3910522q-0.84375 -1.5469971 -0.84375 -3.578247q0 -2.046875 0.8125 -3.578003q0.8125 -1.5467529 2.28125 -2.3745728q1.484375 -0.82788086 3.40625 -0.82751465q1.875 3.6621094E-4 3.3125 0.82873535q1.4375 0.81274414 2.21875 2.2504272q0.78125 1.4219971 0.78125 3.218872zm-2.25 -0.45355225q0 -1.25 -0.5625 -2.140686q-0.546875 -0.9063721 -1.5 -1.3753052q-0.9375 -0.4689331 -2.09375 -0.4691162q-1.65625 -3.0517578E-4 -2.828125 1.0619507q-1.15625 1.0466919 -1.328125 2.9216309l8.3125 0.0015258789z" fill-rule="nonzero"/></g></svg>
