<svg version="1.1" viewBox="0.0 0.0 768.3832020997376 792.7742782152231" fill="none" stroke="none" stroke-linecap="square" stroke-miterlimit="10" xmlns:xlink="http://www.w3.org/1999/xlink" xmlns="http://www.w3.org/2000/svg"><clipPath id="p.0"><path d="m0 0l768.3832 0l0 792.7743l-768.3832 0l0 -792.7743z" clip-rule="nonzero"/></clipPath><g clip-path="url(#p.0)"><path fill="#000000" fill-opacity="0.0" d="m0 0l768.3832 0l0 792.7743l-768.3832 0z" fill-rule="evenodd"/><path fill="#000000" fill-opacity="0.0" d="m25.498688 393.45462l0 0c0 -22.770264 18.458927 -41.22464 41.22917 -41.219055l559.022 0.13723755c10.934692 0.0026855469 21.421448 4.3490295 29.153442 12.082886c7.7319946 7.7338867 12.075745 18.22174 12.075745 29.156403l0 164.91171c0 22.770264 -18.458923 41.22467 -41.229187 41.219055l-559.022 -0.13720703l0 0c-22.770245 -0.0056152344 -41.22917 -18.469055 -41.22917 -41.23932z" fill-rule="evenodd"/><path stroke="#8d3aed" stroke-width="3.0" stroke-linejoin="round" stroke-linecap="butt" d="m25.498688 393.45462l0 0c0 -22.770264 18.458927 -41.22464 41.22917 -41.219055l559.022 0.13723755c10.934692 0.0026855469 21.421448 4.3490295 29.153442 12.082886c7.7319946 7.7338867 12.075745 18.22174 12.075745 29.156403l0 164.91171c0 22.770264 -18.458923 41.22467 -41.229187 41.219055l-559.022 -0.13720703l0 0c-22.770245 -0.0056152344 -41.22917 -18.469055 -41.22917 -41.23932z" fill-rule="evenodd"/><path fill="#000000" fill-opacity="0.0" d="m25.498688 88.89349l0 0c0 -27.403145 22.214642 -49.612335 49.61779 -49.605606l542.24475 0.13311768c13.159485 0.0032310486 25.779968 5.233902 35.085083 14.541328c9.305115 9.307423 14.532715 21.929184 14.532715 35.088646l0 198.4652c0 27.403168 -22.21466 49.612335 -49.617798 49.60562l-542.24475 -0.13311768c-27.403149 -0.0067443848 -49.61779 -22.226837 -49.61779 -49.629974z" fill-rule="evenodd"/><path stroke="#25cc85" stroke-width="3.0" stroke-linejoin="round" stroke-linecap="butt" d="m25.498688 88.89349l0 0c0 -27.403145 22.214642 -49.612335 49.61779 -49.605606l542.24475 0.13311768c13.159485 0.0032310486 25.779968 5.233902 35.085083 14.541328c9.305115 9.307423 14.532715 21.929184 14.532715 35.088646l0 198.4652c0 27.403168 -22.21466 49.612335 -49.617798 49.60562l-542.24475 -0.13311768c-27.403149 -0.0067443848 -49.61779 -22.226837 -49.61779 -49.629974z" fill-rule="evenodd"/><path fill="#8d3aed" d="m56.157482 416.0415l0 0c0 -16.824005 13.638546 -30.459595 30.462551 -30.455933l519.23236 0.11276245c8.079163 0.001739502 15.827454 3.21286 21.540283 8.926941c5.7128296 5.714081 8.922241 13.463043 8.922241 21.542206l0 121.84656c0 16.824036 -13.63855 30.459595 -30.462524 30.455933l-519.23236 -0.11273193c-16.824005 -0.0036621094 -30.462551 -13.645203 -30.462551 -30.469177z" fill-rule="evenodd"/><path fill="#ffffff" d="m114.70435 470.25687q0 4.53125 -3.09375 7.5305786q-3.09375 2.9837036 -9.4375 2.9823303l-6.96875 -0.0014953613l0 15.125l-4.734375 -0.0010375977l0 -36.25l11.703125 0.002532959q6.140625 0.0013427734 9.328125 2.9707947q3.203125 2.9694214 3.203125 7.6412964zm-12.53125 6.606659q3.953125 8.544922E-4 5.828125 -1.7174683q1.875 -1.7183533 1.875 -4.8902283q0 -6.703125 -7.703125 -6.7048035l-6.96875 -0.0014953613l0 13.3125l6.96875 0.0014953613zm16.639282 4.6755066q0 -4.359375 1.765625 -7.655884q1.765625 -3.3121033 4.859375 -5.123932q3.0937424 -1.8274536 6.8906174 -1.8266296q3.75 7.9345703E-4 6.5 1.6264038q2.765625 1.6099854 4.109375 4.04776l0 -5.203125l4.78125 0.0010375977l0 28.5l-4.78125 -0.0010375977l0 -5.296875q-1.40625 2.4840698 -4.1875 4.124115q-2.78125 1.6400146 -6.46875 1.6391907q-3.796875 -8.239746E-4 -6.8749924 -1.8764648q-3.0625 -1.8756714 -4.828125 -5.251068q-1.765625 -3.3753662 -1.765625 -7.703491zm24.124992 0.067718506q0 -3.234375 -1.296875 -5.6252747q-1.296875 -2.3908997 -3.515625 -3.657013q-2.203125 -1.2817383 -4.859375 -1.2823181q-2.640625 -5.493164E-4 -4.828125 1.2489624q-2.1874924 1.2495422 -3.4843674 3.639862q-1.296875 2.3903503 -1.296875 5.6091003q0 3.28125 1.296875 5.7033997q1.296875 2.4221802 3.4843674 3.703888q2.1875 1.2661133 4.828125 1.2666626q2.65625 5.79834E-4 4.859375 -1.2645569q2.21875 -1.2807617 3.515625 -3.702362q1.296875 -2.4216003 1.296875 -5.6403503zm17.527039 -9.57431q1.25 -2.4372253 3.5625 -3.780487q2.3125 -1.3588562 5.640625 -1.3581543l0 4.890625l-1.25 -2.4414062E-4q-7.953125 -0.001739502 -7.953125 8.6232605l0 15.5l-4.734375 -0.0010375977l0 -28.5l4.734375 0.0010375977l0 4.625zm12.896011 9.518433q0 -4.359375 1.765625 -7.655884q1.765625 -3.3121033 4.859375 -5.123932q3.09375 -1.8274536 6.890625 -1.8266296q3.75 8.239746E-4 6.5 1.6264038q2.765625 1.6099854 4.109375 4.04776l0 -5.203125l4.78125 0.0010375977l0 28.5l-4.78125 -0.0010375977l0 -5.296875q-1.40625 2.4840698 -4.1875 4.124115q-2.78125 1.6400146 -6.46875 1.6392212q-3.796875 -8.239746E-4 -6.875 -1.8764954q-3.0625 -1.8756714 -4.828125 -5.251068q-1.765625 -3.3753662 -1.765625 -7.703491zm24.125 0.067718506q0 -3.234375 -1.296875 -5.6252747q-1.296875 -2.3908997 -3.515625 -3.657013q-2.203125 -1.2817078 -4.859375 -1.2822876q-2.640625 -5.79834E-4 -4.828125 1.2489319q-2.1875 1.2495422 -3.484375 3.639862q-1.296875 2.3903503 -1.296875 5.6091003q0 3.28125 1.296875 5.7033997q1.296875 2.4221802 3.484375 3.703888q2.1875 1.2661133 4.828125 1.2666931q2.65625 5.79834E-4 4.859375 -1.2645874q2.21875 -1.2807617 3.515625 -3.702362q1.296875 -2.4216003 1.296875 -5.6403503zm11.027039 0.0024108887q0 -4.421875 1.765625 -7.718384q1.765625 -3.3121033 4.90625 -5.123932q3.15625 -1.8274231 7.21875 -1.8265381q5.25 0.0011291504 8.65625 2.5487366q3.40625 2.547638 4.5 7.0791016l-5.09375 -0.0010986328q-0.734375 -2.5939026 -2.84375 -4.0943604q-2.109375 -1.5160828 -5.21875 -1.5167542q-4.0625 -8.8500977E-4 -6.5625 2.7798157q-2.484375 2.7807007 -2.484375 7.8744507q0 5.140625 2.484375 7.9536743q2.5 2.8130493 6.5625 2.8139343q3.109375 6.713867E-4 5.1875 -1.4519958q2.09375 -1.4682922 2.875 -4.1712646l5.09375 0.0010986328q-1.15625 4.374756 -4.59375 6.9990234q-3.421875 2.624237 -8.5625 2.6231384q-4.0625 -8.8500977E-4 -7.21875 -1.8140869q-3.140625 -1.8287964 -4.90625 -5.157318q-1.765625 -3.3284912 -1.765625 -7.797241zm47.470276 -14.708435q3.2343903 7.019043E-4 5.8281403 1.3762512q2.609375 1.3755798 4.078125 4.14151q1.484375 2.7503357 1.484375 6.7034607l0 16.796875l-4.671875 -0.0010070801l0 -16.12503q0 -4.265625 -2.140625 -6.516083q-2.125 -2.2660828 -5.8125153 -2.2668762q-3.75 -8.239746E-4 -5.96875 2.3424377q-2.203125 2.3276672 -2.203125 6.812042l0 15.75l-4.734375 -0.0010375977l0 -38.484375l4.734375 0.0010375977l0 14.046875q1.40625 -2.1871948 3.875 -3.374176q2.46875 -1.2025757 5.53125 -1.2019043zm17.373795 14.660004q0 -4.359375 1.765625 -7.6558533q1.765625 -3.3121338 4.859375 -5.1239624q3.09375 -1.8274536 6.890625 -1.8266296q3.75 8.239746E-4 6.5 1.6264343q2.765625 1.6099548 4.109375 4.04776l0 -5.203125l4.78125 0.0010375977l0 28.5l-4.78125 -0.0010375977l0 -5.296875q-1.40625 2.4840698 -4.1875 4.1240845q-2.78125 1.6400146 -6.46875 1.6392212q-3.796875 -8.239746E-4 -6.875 -1.8764954q-3.0625 -1.8756714 -4.828125 -5.2510376q-1.765625 -3.3753967 -1.765625 -7.7035217zm24.125 0.06774902q0 -3.234375 -1.296875 -5.6252747q-1.296875 -2.3908997 -3.515625 -3.657013q-2.203125 -1.2817383 -4.859375 -1.2823181q-2.640625 -5.79834E-4 -4.828125 1.2489624q-2.1875 1.2495117 -3.484375 3.639862q-1.296875 2.3903503 -1.296875 5.6091003q0 3.28125 1.296875 5.7033997q1.296875 2.4221497 3.484375 3.703888q2.1875 1.2660828 4.828125 1.2666626q2.65625 5.79834E-4 4.859375 -1.2645569q2.21875 -1.2807617 3.515625 -3.702362q1.296875 -2.4216003 1.296875 -5.6403503zm15.245789 -18.82483q-1.359375 -2.746582E-4 -2.296875 -0.9379883q-0.9375 -0.9377136 -0.9375 -2.2814636q0 -1.359375 0.9375 -2.2966614q0.9375 -0.9372864 2.296875 -0.9370117q1.296875 3.0517578E-4 2.203125 0.9379883q0.90625 0.9377136 0.90625 2.2970886q0 1.34375 -0.90625 2.2810364q-0.90625 0.9373169 -2.203125 0.9370117zm2.28125 4.625519l0 28.5l-4.734375 -0.0010375977l0 -28.5l4.734375 0.0010375977zm21.948242 -0.51086426q5.203125 0.0011291504 8.421875 3.158081q3.21875 3.141327 3.21875 9.063202l0 16.796875l-4.671875 -0.0010375977l0 -16.125q0 -4.265625 -2.140625 -6.516083q-2.125 -2.2660828 -5.8125 -2.2668762q-3.75 -8.239746E-4 -5.96875 2.3424377q-2.203125 2.3276672 -2.203125 6.812042l0 15.75l-4.734375 -0.0010375977l0 -28.5l4.734375 0.0010375977l0 4.0625q1.40625 -2.1871948 3.8125 -3.374176q2.421875 -1.2026062 5.34375 -1.2019653zm29.483154 29.490784q-3.28125 -7.324219E-4 -5.890625 -1.1106567q-2.59375 -1.1255798 -4.109375 -3.125885q-1.5 -2.0003357 -1.65625 -4.609741l4.890625 0.0010681152q0.21875 2.1406555 2.0 3.5004272q1.796875 1.3441467 4.71875 1.3447571q2.703125 6.1035156E-4 4.25 -1.186554q1.5625 -1.2027893 1.5625 -3.0309143q0 -1.875 -1.671875 -2.7816162q-1.65625 -0.9066162 -5.140625 -1.7980042q-3.171875 -0.8287964 -5.171875 -1.6886292q-2.0 -0.85980225 -3.4375 -2.5476074q-1.421875 -1.6878052 -1.421875 -4.45343q0 -2.171875 1.296875 -3.9841003q1.296875 -1.8278503 3.6875 -2.8898315q2.40625 -1.0776062 5.46875 -1.0769348q4.734375 0.0010375977 7.640625 2.3923035q2.921875 2.3912354 3.125 6.5631714l-4.734375 -0.0010375977q-0.15625 -2.2344055 -1.796875 -3.5785217q-1.640625 -1.3597107 -4.390625 -1.360321q-2.546875 -5.493164E-4 -4.0625 1.092865q-1.5 1.0778198 -1.5 2.8434448q0 1.40625 0.90625 2.328308q0.90625 0.9064331 2.28125 1.4536133q1.390625 0.5471802 3.828125 1.219574q3.078125 0.8287964 5.0 1.6417236q1.921875 0.79730225 3.296875 2.422577q1.375 1.6096802 1.421875 4.2034607q0 2.34375 -1.296875 4.218445q-1.296875 1.8747253 -3.671875 2.9367065q-2.359375 1.0619812 -5.421875 1.0613403zm55.16867 -26.097412q0 4.53125 -3.09375 7.5305786q-3.09375 2.9837036 -9.4375 2.9823303l-6.96875 -0.0015258789l0 15.125l-4.734375 -0.0010070801l0 -36.25l11.703125 0.002532959q6.140625 0.0013427734 9.328125 2.9707642q3.203125 2.969452 3.203125 7.641327zm-12.53125 6.606659q3.953125 8.544922E-4 5.828125 -1.7174683q1.875 -1.7183533 1.875 -4.8902283q0 -6.703125 -7.703125 -6.7048035l-6.96875 -0.0015258789l0 13.3125l6.96875 0.0015258789zm23.139282 -4.8387146q1.25 -2.4372253 3.5625 -3.780487q2.3125 -1.3588562 5.640625 -1.3581543l0 4.890625l-1.25 -2.746582E-4q-7.953125 -0.0017089844 -7.953125 8.623291l0 15.5l-4.734375 -0.0010375977l0 -28.5l4.734375 0.0010375977l0 4.625zm27.099121 24.34964q-4.015625 -8.8500977E-4 -7.265625 -1.8140869q-3.25 -1.8288269 -5.09375 -5.1729736q-1.84375 -3.3598022 -1.84375 -7.7816772q0 -4.375 1.890625 -7.7183228q1.90625 -3.3589783 5.171875 -5.155121q3.28125 -1.7961731 7.34375 -1.7952881q4.0625 8.8500977E-4 7.328125 1.7984619q3.28125 1.7975769 5.171875 5.126129q1.90625 3.3285522 1.90625 7.7504272q0 4.421875 -1.953125 7.7808228q-1.953125 3.3433228 -5.28125 5.1707153q-3.328125 1.8117676 -7.375 1.8109131zm0 -4.15625q2.546875 5.493164E-4 4.78125 -1.1864624q2.234375 -1.2026672 3.609375 -3.592987q1.375 -2.4059448 1.375 -5.82782q0 -3.4375 -1.359375 -5.82843q-1.34375 -2.3908997 -3.53125 -3.563263q-2.171875 -1.1723328 -4.71875 -1.1728821q-2.609375 -5.79834E-4 -4.765625 1.1708374q-2.15625 1.1713867 -3.453125 3.561737q-1.296875 2.3903503 -1.296875 5.8278503q0 3.484375 1.265625 5.8752747q1.28125 2.3908997 3.40625 3.5632324q2.140625 1.1723328 4.6875 1.1729126zm26.62378 -20.900482l0 16.796875q0 2.078125 0.875 2.937683q0.890625 0.8595886 3.078125 0.8600464l3.484375 7.6293945E-4l0 4.0l-4.265625 -9.1552734E-4q-3.953125 -8.8500977E-4 -5.9375 -1.8138123q-1.96875 -1.8285522 -1.96875 -5.9848022l0 -16.796875l-3.6875 -7.9345703E-4l0 -3.90625l3.6875 7.9345703E-4l0 -7.171875l4.734375 0.0010375977l0 7.171875l7.4375 0.0016174316l0 3.90625l-7.4375 -0.0016174316zm25.58429 25.068054q-4.015625 -8.8500977E-4 -7.265625 -1.8140869q-3.25 -1.8288269 -5.09375 -5.1729736q-1.84375 -3.3597717 -1.84375 -7.7816467q0 -4.375 1.890625 -7.7183533q1.90625 -3.3589478 5.171875 -5.155121q3.28125 -1.7961426 7.34375 -1.7952881q4.0625 8.8500977E-4 7.328125 1.7984924q3.28125 1.7975769 5.171875 5.1260986q1.90625 3.3285522 1.90625 7.7504272q0 4.421875 -1.953125 7.7808228q-1.953125 3.3433228 -5.28125 5.170746q-3.328125 1.8117676 -7.375 1.8108826zm0 -4.15625q2.546875 5.493164E-4 4.78125 -1.1864624q2.234375 -1.2026367 3.609375 -3.5929565q1.375 -2.4059448 1.375 -5.82782q0 -3.4375 -1.359375 -5.82843q-1.34375 -2.3909302 -3.53125 -3.563263q-2.171875 -1.1723633 -4.71875 -1.1729126q-2.609375 -5.493164E-4 -4.765625 1.1708374q-2.15625 1.1714172 -3.453125 3.5617676q-1.296875 2.3903198 -1.296875 5.82782q0 3.484375 1.265625 5.8752747q1.28125 2.3909302 3.40625 3.563263q2.140625 1.1723328 4.6875 1.1728821zm19.076904 -10.605225q0 -4.421875 1.765625 -7.718384q1.765625 -3.3121033 4.90625 -5.123932q3.15625 -1.8274231 7.21875 -1.8265381q5.25 0.0011291504 8.65625 2.5487366q3.40625 2.5476074 4.5 7.0791016l-5.09375 -0.0010986328q-0.734375 -2.5939026 -2.84375 -4.0943604q-2.109375 -1.5160828 -5.21875 -1.5167542q-4.0625 -8.8500977E-4 -6.5625 2.7798157q-2.484375 2.7807007 -2.484375 7.8744507q0 5.140625 2.484375 7.9536743q2.5 2.8130493 6.5625 2.8139343q3.109375 6.713867E-4 5.1875 -1.4519958q2.09375 -1.4683228 2.875 -4.1712646l5.09375 0.0010986328q-1.15625 4.374756 -4.59375 6.9990234q-3.421875 2.624237 -8.5625 2.6231384q-4.0625 -8.8500977E-4 -7.21875 -1.8140869q-3.140625 -1.8287964 -4.90625 -5.157318q-1.765625 -3.3284912 -1.765625 -7.797241zm45.76715 14.775543q-4.015625 -8.544922E-4 -7.265625 -1.8140564q-3.25 -1.8288269 -5.09375 -5.1729736q-1.84375 -3.3598022 -1.84375 -7.7816772q0 -4.375 1.890625 -7.7183228q1.90625 -3.3589783 5.171875 -5.155121q3.28125 -1.7961731 7.34375 -1.7952881q4.0625 8.8500977E-4 7.328125 1.7984619q3.28125 1.7975769 5.171875 5.126129q1.90625 3.3285217 1.90625 7.7503967q0 4.421875 -1.953125 7.7808533q-1.953125 3.3433228 -5.28125 5.1707153q-3.328125 1.8117676 -7.375 1.8108826zm0 -4.15625q2.546875 5.79834E-4 4.78125 -1.1864624q2.234375 -1.2026367 3.609375 -3.5929565q1.375 -2.4059448 1.375 -5.82782q0 -3.4375 -1.359375 -5.82843q-1.34375 -2.3908997 -3.53125 -3.563263q-2.171875 -1.1723328 -4.71875 -1.1728821q-2.609375 -5.79834E-4 -4.765625 1.1708374q-2.15625 1.1713867 -3.453125 3.561737q-1.296875 2.3903503 -1.296875 5.8278503q0 3.484375 1.265625 5.8752747q1.28125 2.3908997 3.40625 3.5632324q2.140625 1.1723328 4.6875 1.1728821zm25.576904 -34.79132l0 38.484375l-4.734375 -0.0010070801l0 -38.484375l4.734375 0.0010070801z" fill-rule="nonzero"/><path fill="#25cc85" d="m56.155506 72.786476l0 0c0 -6.958061 5.6406174 -12.597137 12.598675 -12.595238l90.07823 0.024612427c3.341385 9.1171265E-4 6.5458984 1.3291435 8.908615 3.692501c2.3627167 2.3633537 3.6900635 5.568241 3.6900635 8.909618l0 50.393196c0 6.9580536 -5.6406097 12.597137 -12.598679 12.59523l-90.07823 -0.024612427c-6.9580574 -0.0018920898 -12.598675 -5.644058 -12.598675 -12.602112z" fill-rule="evenodd"/><path fill="#ffffff" d="m78.90045 95.58241q0 1.515625 -1.03125 2.5153427q-1.03125 0.9840927 -3.140625 0.9835129l-2.328125 -6.3323975E-4l0 5.046875l-1.578125 -4.272461E-4l0 -12.078133l3.90625 0.0010681152q2.046875 5.645752E-4 3.109375 0.9852295q1.0625 0.9846649 1.0625 2.547165zm-4.171875 2.2019806q1.3125 3.5858154E-4 1.9375 -0.56196594q0.625 -0.57795715 0.625 -1.6404572q0 -2.234375 -2.5625 -2.235077l-2.328125 -6.3323975E-4l0 4.4375l2.328125 6.3323975E-4zm5.5485535 1.5640182q0 -1.453125 0.578125 -2.5467148q0.59375 -1.1092148 1.625 -1.7183075q1.03125 -0.6090927 2.296875 -0.6087494q1.25 3.4332275E-4 2.15625 0.54746246q0.921875 0.53150177 1.375 1.3441315l0 -1.734375l1.59375 4.348755E-4l0 9.5l-1.59375 -4.348755E-4l0 -1.765625q-0.46875 0.8279953 -1.390625 1.3746185q-0.921875 0.54662323 -2.15625 0.54628754q-1.265625 -3.5095215E-4 -2.296875 -0.62563324q-1.015625 -0.62527466 -1.609375 -1.7504349q-0.578125 -1.1251602 -0.578125 -2.5626602zm8.03125 0.017822266q0 -1.078125 -0.4375 -1.8751221q-0.421875 -0.79698944 -1.15625 -1.2190628q-0.734375 -0.422081 -1.625 -0.42232513q-0.890625 -2.3651123E-4 -1.625 0.4214325q-0.71875 0.40605927 -1.15625 1.2028122q-0.421875 0.79676056 -0.421875 1.8748856q0 1.09375 0.421875 1.9063644q0.4375 0.7969971 1.15625 1.2190628q0.734375 0.422081 1.625 0.4223175q0.890625 2.4414062E-4 1.625 -0.42142487q0.734375 -0.42167664 1.15625 -1.2184372q0.4375 -0.8123779 0.4375 -1.8905029zm5.838745 -3.1859055q0.421875 -0.81238556 1.1875 -1.2653046q0.78125 -0.45291138 1.890625 -0.4526062l0 1.625l-0.421875 -1.1444092E-4q-2.65625 -7.247925E-4 -2.65625 2.8899002l0 5.15625l-1.578125 -4.348755E-4l0 -9.5l1.578125 4.348755E-4l0 1.546875zm4.3070984 3.17305q0 -1.453125 0.578125 -2.5467148q0.59375 -1.1092148 1.625 -1.7183075q1.03125 -0.6090927 2.296875 -0.6087494q1.25 3.4332275E-4 2.15625 0.54746246q0.921875 0.53150177 1.375 1.3441315l0 -1.734375l1.59375 4.348755E-4l0 9.5l-1.59375 -4.348755E-4l0 -1.765625q-0.46875 0.8279953 -1.390625 1.3746185q-0.921875 0.54662323 -2.15625 0.54628754q-1.265625 -3.5095215E-4 -2.296875 -0.62563324q-1.015625 -0.62527466 -1.609375 -1.7504349q-0.578125 -1.1251602 -0.578125 -2.5626602zm8.03125 0.017822266q0 -1.078125 -0.4375 -1.8751221q-0.421875 -0.79698944 -1.15625 -1.2190628q-0.734375 -0.422081 -1.625 -0.42232513q-0.890625 -2.3651123E-4 -1.625 0.4214325q-0.71875 0.40605164 -1.15625 1.2028122q-0.421875 0.79676056 -0.421875 1.8748856q0 1.09375 0.421875 1.9063644q0.4375 0.7969971 1.15625 1.2190628q0.734375 0.422081 1.625 0.4223175q0.890625 2.4414062E-4 1.625 -0.42142487q0.734375 -0.42167664 1.15625 -1.2184372q0.4375 -0.8123779 0.4375 -1.8905029zm3.682495 0.0010070801q0 -1.46875 0.578125 -2.5623474q0.59375 -1.1092072 1.640625 -1.7182999q1.046875 -0.6090927 2.40625 -0.6087189q1.75 4.8065186E-4 2.875 0.8601608q1.140625 0.8440628 1.5 2.344162l-1.6875 -4.6539307E-4q-0.25 -0.85944366 -0.953125 -1.3596344q-0.703125 -0.50019073 -1.734375 -0.500473q-1.359375 -3.6621094E-4 -2.1875 0.9212799q-0.828125 0.9216461 -0.828125 2.624771q0 1.71875 0.828125 2.656479q0.828125 0.9377289 2.1875 0.9380951q1.03125 2.822876E-4 1.71875 -0.48390198q0.703125 -0.49980927 0.96875 -1.3903656l1.6875 4.6539307E-4q-0.375 1.4530182 -1.515625 2.327713q-1.140625 0.8746872 -2.859375 0.8742142q-1.359375 -3.6621094E-4 -2.40625 -0.6100311q-1.046875 -0.6096573 -1.640625 -1.7192001q-0.578125 -1.1095276 -0.578125 -2.5939026zm15.814987 -4.901932q1.078125 2.975464E-4 1.9375 0.46927643q0.875 0.45336914 1.359375 1.3753738q0.5 0.9220123 0.5 2.2345123l0 5.59375l-1.5625 -4.272461E-4l0 -5.375q0 -1.421875 -0.71875 -2.1720734q-0.703125 -0.75019073 -1.9375 -0.7505264q-1.234375 -3.3569336E-4 -1.984375 0.7807083q-0.734375 0.781044 -0.734375 2.265419l0 5.25l-1.578125 -4.272461E-4l0 -12.828125l1.578125 4.272461E-4l0 4.6875q0.46875 -0.7342453 1.296875 -1.1246414q0.828125 -0.40602112 1.84375 -0.40574646zm5.7930603 4.8922043q0 -1.453125 0.578125 -2.5467148q0.59375 -1.1092148 1.625 -1.7183075q1.03125 -0.6090927 2.296875 -0.60874176q1.25 3.3569336E-4 2.15625 0.54746246q0.921875 0.53150177 1.375 1.3441238l0 -1.734375l1.59375 4.348755E-4l0 9.5l-1.59375 -4.348755E-4l0 -1.765625q-0.46875 0.8279953 -1.390625 1.3746185q-0.921875 0.54662323 -2.15625 0.54628754q-1.265625 -3.4332275E-4 -2.296875 -0.6256256q-1.015625 -0.6252823 -1.609375 -1.7504425q-0.578125 -1.1251602 -0.578125 -2.5626602zm8.03125 0.017822266q0 -1.078125 -0.4375 -1.8751221q-0.421875 -0.79698944 -1.15625 -1.2190628q-0.734375 -0.42207336 -1.625 -0.4223175q-0.890625 -2.4414062E-4 -1.625 0.4214325q-0.71875 0.40605164 -1.15625 1.2028046q-0.421875 0.79676056 -0.421875 1.8748856q0 1.09375 0.421875 1.9063644q0.4375 0.7969971 1.15625 1.2190704q0.734375 0.42207336 1.625 0.4223175q0.890625 2.4414062E-4 1.625 -0.4214325q0.734375 -0.42167664 1.15625 -1.2184372q0.4375 -0.8123779 0.4375 -1.8905029zm5.088745 -6.2642365q-0.453125 -1.2207031E-4 -0.765625 -0.312706q-0.3125 -0.31258392 -0.3125 -0.7657089q0 -0.453125 0.3125 -0.7655411q0.3125 -0.31241608 0.765625 -0.312294q0.421875 1.1444092E-4 0.71875 0.31269836q0.3125 0.31258392 0.3125 0.7657089q0 0.453125 -0.3125 0.7655411q-0.296875 0.31241608 -0.71875 0.31230164zm0.75 1.531456l0 9.5l-1.578125 -4.272461E-4l0 -9.5l1.578125 4.272461E-4zm7.3095703 -0.1698761q1.734375 4.7302246E-4 2.8125 1.0476456q1.078125 1.0471649 1.078125 3.03154l0 5.59375l-1.5625 -4.272461E-4l0 -5.375q0 -1.421875 -0.71875 -2.1720657q-0.703125 -0.75019836 -1.9375 -0.75053406q-1.234375 -3.3569336E-4 -1.984375 0.7807083q-0.734375 0.78105164 -0.734375 2.2654266l0 5.25l-1.578125 -4.348755E-4l0 -9.5l1.578125 4.348755E-4l0 1.359375q0.46875 -0.7342453 1.265625 -1.1246567q0.8125 -0.40602875 1.78125 -0.40576172z" fill-rule="nonzero"/><path fill="#8d3aed" d="m471.34204 206.22707l0 0c0 -4.0327606 3.2691956 -7.3006134 7.3019714 -7.298935l61.018097 0.025421143c1.9365845 7.9345703E-4 3.7938843 0.7708893 5.163269 2.1408386c1.3693848 1.3699646 2.1386719 3.2275696 2.1386719 5.1641846l0 29.207047c0 4.032776 -3.269165 7.3006287 -7.301941 7.29895l-61.018097 -0.025421143c-4.032776 -0.0016784668 -7.3019714 -3.2722473 -7.3019714 -7.305023z" fill-rule="evenodd"/><path fill="#ffffff" d="m506.69232 229.52596q-0.625 -2.593994E-4 -1.0625 -0.4223175q-0.421875 -0.4376831 -0.421875 -1.0626831q0 -0.625 0.421875 -1.0466919q0.4375 -0.4373169 1.0625 -0.4370575q0.59375 2.4414062E-4 1.015625 0.437912q0.421875 0.4220581 0.421875 1.0470581q0 0.625 -0.421875 1.0623169q-0.421875 0.42170715 -1.015625 0.421463zm4.515625 0.001876831q-0.625 -2.593994E-4 -1.0625 -0.4223175q-0.421875 -0.4376831 -0.421875 -1.0626831q0 -0.625 0.421875 -1.0466919q0.4375 -0.4373169 1.0625 -0.4370575q0.59375 2.4414062E-4 1.015625 0.43792725q0.421875 0.42204285 0.421875 1.0470428q0 0.625 -0.421875 1.0623322q-0.421875 0.4216919 -1.015625 0.42144775zm-9.0 -0.003753662q-0.625 -2.593994E-4 -1.0625 -0.4223175q-0.421875 -0.43766785 -0.421875 -1.0626678q0 -0.625 0.421875 -1.0467072q0.4375 -0.4373169 1.0625 -0.4370575q0.59375 2.4414062E-4 1.015625 0.43792725q0.421875 0.42204285 0.421875 1.0470428q0 0.625 -0.421875 1.0623322q-0.421875 0.4216919 -1.015625 0.42144775zm13.94397 0.0058135986q-0.625 -2.593994E-4 -1.0625 -0.4223175q-0.421875 -0.4376831 -0.421875 -1.0626831q0 -0.625 0.421875 -1.0466919q0.4375 -0.4373169 1.0625 -0.4370575q0.59375 2.4414062E-4 1.015625 0.43792725q0.421875 0.42204285 0.421875 1.0470428q0 0.625 -0.421875 1.0623322q-0.421875 0.4216919 -1.015625 0.42144775z" fill-rule="nonzero"/><path fill="#25cc85" d="m209.98056 72.786476l0 0c0 -6.958061 5.640625 -12.597137 12.598679 -12.595238l90.07823 0.024612427c3.3413696 9.1171265E-4 6.5458984 1.3291435 8.9086 3.692501c2.362732 2.3633537 3.6900635 5.568241 3.6900635 8.909618l0 50.393196c0 6.9580536 -5.6405945 12.597137 -12.598663 12.59523l-90.07823 -0.024612427c-6.9580536 -0.0018920898 -12.598679 -5.644058 -12.598679 -12.602112z" fill-rule="evenodd"/><path fill="#ffffff" d="m232.72551 95.58241q0 1.515625 -1.03125 2.5153427q-1.03125 0.9840927 -3.140625 0.9835129l-2.328125 -6.3323975E-4l0 5.046875l-1.578125 -4.272461E-4l0 -12.078133l3.90625 0.0010681152q2.046875 5.645752E-4 3.109375 0.9852295q1.0625 0.9846649 1.0625 2.547165zm-4.171875 2.2019806q1.3125 3.5858154E-4 1.9375 -0.56196594q0.625 -0.57795715 0.625 -1.6404572q0 -2.234375 -2.5625 -2.235077l-2.328125 -6.3323975E-4l0 4.4375l2.328125 6.3323975E-4zm5.5485535 1.5640182q0 -1.453125 0.578125 -2.5467148q0.59375 -1.1092148 1.625 -1.7183075q1.03125 -0.6090927 2.296875 -0.6087494q1.25 3.4332275E-4 2.15625 0.54746246q0.921875 0.53150177 1.375 1.3441315l0 -1.734375l1.59375 4.348755E-4l0 9.5l-1.59375 -4.348755E-4l0 -1.765625q-0.46875 0.8279953 -1.390625 1.3746185q-0.921875 0.54662323 -2.15625 0.54628754q-1.265625 -3.5095215E-4 -2.296875 -0.62563324q-1.015625 -0.62527466 -1.609375 -1.7504349q-0.578125 -1.1251602 -0.578125 -2.5626602zm8.03125 0.017822266q0 -1.078125 -0.4375 -1.8751221q-0.421875 -0.79698944 -1.15625 -1.2190628q-0.734375 -0.422081 -1.625 -0.42232513q-0.890625 -2.3651123E-4 -1.625 0.4214325q-0.71875 0.40605927 -1.15625 1.2028122q-0.421875 0.79676056 -0.421875 1.8748856q0 1.09375 0.421875 1.9063644q0.4375 0.7969971 1.15625 1.2190628q0.734375 0.422081 1.625 0.4223175q0.890625 2.4414062E-4 1.625 -0.42142487q0.734375 -0.42167664 1.15625 -1.2184372q0.4375 -0.8123779 0.4375 -1.8905029zm5.838745 -3.1859055q0.421875 -0.81238556 1.1875 -1.2653046q0.78125 -0.45291138 1.890625 -0.4526062l0 1.625l-0.421875 -1.1444092E-4q-2.65625 -7.247925E-4 -2.65625 2.8899002l0 5.15625l-1.578125 -4.348755E-4l0 -9.5l1.578125 4.348755E-4l0 1.546875zm4.3070984 3.17305q0 -1.453125 0.578125 -2.5467148q0.59375 -1.1092148 1.625 -1.7183075q1.03125 -0.6090927 2.2968597 -0.6087494q1.25 3.4332275E-4 2.15625 0.54746246q0.921875 0.53150177 1.375 1.3441315l0 -1.734375l1.59375 4.348755E-4l0 9.5l-1.59375 -4.348755E-4l0 -1.765625q-0.46875 0.8279953 -1.390625 1.3746185q-0.921875 0.54662323 -2.15625 0.54628754q-1.2656097 -3.5095215E-4 -2.2968597 -0.62563324q-1.015625 -0.62527466 -1.609375 -1.7504349q-0.578125 -1.1251602 -0.578125 -2.5626602zm8.031235 0.017822266q0 -1.078125 -0.4375 -1.8751221q-0.421875 -0.79698944 -1.15625 -1.2190628q-0.734375 -0.422081 -1.625 -0.42232513q-0.890625 -2.3651123E-4 -1.6249847 0.4214325q-0.71875 0.40605164 -1.15625 1.2028122q-0.421875 0.79676056 -0.421875 1.8748856q0 1.09375 0.421875 1.9063644q0.4375 0.7969971 1.15625 1.2190628q0.73435974 0.422081 1.6249847 0.4223175q0.890625 2.4414062E-4 1.625 -0.42142487q0.734375 -0.42167664 1.15625 -1.2184372q0.4375 -0.8123779 0.4375 -1.8905029zm3.682495 0.0010070801q0 -1.46875 0.578125 -2.5623474q0.59375 -1.1092072 1.640625 -1.7182999q1.046875 -0.6090927 2.40625 -0.6087189q1.75 4.8065186E-4 2.875 0.8601608q1.140625 0.8440628 1.5 2.344162l-1.6875 -4.6539307E-4q-0.25 -0.85944366 -0.953125 -1.3596344q-0.703125 -0.50019073 -1.734375 -0.500473q-1.359375 -3.6621094E-4 -2.1875 0.9212799q-0.828125 0.9216461 -0.828125 2.624771q0 1.71875 0.828125 2.656479q0.828125 0.9377289 2.1875 0.9380951q1.03125 2.822876E-4 1.71875 -0.48390198q0.703125 -0.49980927 0.96875 -1.3903656l1.6875 4.6539307E-4q-0.375 1.4530182 -1.515625 2.327713q-1.140625 0.8746872 -2.859375 0.8742142q-1.359375 -3.6621094E-4 -2.40625 -0.6100311q-1.046875 -0.6096573 -1.640625 -1.7192001q-0.578125 -1.1095276 -0.578125 -2.5939026zm15.815002 -4.901932q1.078125 2.975464E-4 1.9375 0.46927643q0.875 0.45336914 1.359375 1.3753738q0.5 0.9220123 0.5 2.2345123l0 5.59375l-1.5625 -4.272461E-4l0 -5.375q0 -1.421875 -0.71875 -2.1720734q-0.703125 -0.75019073 -1.9375 -0.7505264q-1.234375 -3.3569336E-4 -1.984375 0.7807083q-0.734375 0.781044 -0.734375 2.265419l0 5.25l-1.578125 -4.272461E-4l0 -12.828125l1.578125 4.272461E-4l0 4.6875q0.46875 -0.7342453 1.296875 -1.1246414q0.828125 -0.40602112 1.84375 -0.40574646zm5.7930603 4.8922043q0 -1.453125 0.578125 -2.5467148q0.59375 -1.1092148 1.625 -1.7183075q1.03125 -0.6090927 2.296875 -0.60874176q1.25 3.3569336E-4 2.15625 0.54746246q0.921875 0.53150177 1.375 1.3441238l0 -1.734375l1.59375 4.348755E-4l0 9.5l-1.59375 -4.348755E-4l0 -1.765625q-0.46875 0.8279953 -1.390625 1.3746185q-0.921875 0.54662323 -2.15625 0.54628754q-1.265625 -3.4332275E-4 -2.296875 -0.6256256q-1.015625 -0.6252823 -1.609375 -1.7504425q-0.578125 -1.1251602 -0.578125 -2.5626602zm8.03125 0.017822266q0 -1.078125 -0.4375 -1.8751221q-0.421875 -0.79698944 -1.15625 -1.2190628q-0.734375 -0.42207336 -1.625 -0.4223175q-0.890625 -2.4414062E-4 -1.625 0.4214325q-0.71875 0.40605164 -1.15625 1.2028046q-0.421875 0.79676056 -0.421875 1.8748856q0 1.09375 0.421875 1.9063644q0.4375 0.7969971 1.15625 1.2190704q0.734375 0.42207336 1.625 0.4223175q0.890625 2.4414062E-4 1.625 -0.4214325q0.734375 -0.42167664 1.15625 -1.2184372q0.4375 -0.8123779 0.4375 -1.8905029zm5.088745 -6.2642365q-0.453125 -1.2207031E-4 -0.765625 -0.312706q-0.3125 -0.31258392 -0.3125 -0.7657089q0 -0.453125 0.3125 -0.7655411q0.3125 -0.31241608 0.765625 -0.312294q0.421875 1.1444092E-4 0.71875 0.31269836q0.3125 0.31258392 0.3125 0.7657089q0 0.453125 -0.3125 0.7655411q-0.296875 0.31241608 -0.71875 0.31230164zm0.75 1.531456l0 9.5l-1.578125 -4.272461E-4l0 -9.5l1.578125 4.272461E-4zm7.3095703 -0.1698761q1.734375 4.7302246E-4 2.8125 1.0476456q1.078125 1.0471649 1.078125 3.03154l0 5.59375l-1.5625 -4.272461E-4l0 -5.375q0 -1.421875 -0.71875 -2.1720657q-0.703125 -0.75019836 -1.9375 -0.75053406q-1.234375 -3.3569336E-4 -1.984375 0.7807083q-0.734375 0.78105164 -0.734375 2.2654266l0 5.25l-1.578125 -4.348755E-4l0 -9.5l1.578125 4.348755E-4l0 1.359375q0.46875 -0.7342453 1.265625 -1.1246567q0.8125 -0.40602875 1.78125 -0.40576172z" fill-rule="nonzero"/><path fill="#25cc85" d="m363.8084 101.39468l0 0c0 -22.778938 18.465973 -41.240368 41.244904 -41.234756l173.2897 0.04267502l0 0c10.938843 0.0026931763 21.429626 4.350712 29.16455 12.0875435c7.7349243 7.736824 12.080383 18.228699 12.080383 29.167534l0 164.97473c0 22.77893 -18.466003 41.240356 -41.244934 41.23477l-173.2897 -0.04269409c-22.77893 -0.0056152344 -41.244904 -18.476135 -41.244904 -41.255066z" fill-rule="evenodd"/><path stroke="#8d3aed" stroke-width="3.0" stroke-linejoin="round" stroke-linecap="butt" d="m363.8084 101.39468l0 0c0 -22.778938 18.465973 -41.240368 41.244904 -41.234756l173.2897 0.04267502l0 0c10.938843 0.0026931763 21.429626 4.350712 29.16455 12.0875435c7.7349243 7.736824 12.080383 18.228699 12.080383 29.167534l0 164.97473c0 22.77893 -18.466003 41.240356 -41.244934 41.23477l-173.2897 -0.04269409c-22.77893 -0.0056152344 -41.244904 -18.476135 -41.244904 -41.255066z" fill-rule="evenodd"/><path fill="#ffffff" d="m458.74963 101.88962q-1.46875 -3.6621094E-4 -2.640625 -0.5162735q-1.15625 -0.5315399 -1.828125 -1.4535751q-0.65625 -0.93766785 -0.671875 -2.1564178l2.0625 5.1116943E-4q0.109375 1.0468979 0.859375 1.765831q0.765625 0.70331573 2.21875 0.7036743q1.375 3.3569336E-4 2.171875 -0.68696594q0.8125 -0.68730164 0.8125 -1.7810516q0 -0.84375 -0.46875 -1.3751144q-0.46875 -0.54698944 -1.171875 -0.8127899q-0.703125 -0.28141785 -1.90625 -0.6098404q-1.46875 -0.3753662 -2.359375 -0.75057983q-0.875 -0.39084625 -1.515625 -1.2191238q-0.625 -0.8282852 -0.625 -2.2032852q0 -1.21875 0.609375 -2.1560974q0.625 -0.9373474 1.75 -1.4526901q1.125 -0.51535034 2.578125 -0.51499176q2.078125 5.1116943E-4 3.40625 1.0477142q1.34375 1.0472031 1.515625 2.7816238l-2.140625 -5.264282E-4q-0.09375 -0.8593979 -0.890625 -1.5002213q-0.78125 -0.65644073 -2.09375 -0.6567688q-1.21875 -2.975464E-4 -1.984375 0.6245117q-0.765625 0.62480927 -0.765625 1.7654343q0 0.8125 0.453125 1.3282394q0.46875 0.50011444 1.140625 0.7659073q0.671875 0.26579285 1.890625 0.6098404q1.46875 0.40660858 2.359375 0.79745483q0.90625 0.39084625 1.53125 1.2191315q0.640625 0.8282776 0.640625 2.2345276q0 1.078125 -0.578125 2.0467377q-0.5625 0.95298004 -1.703125 1.5620804q-1.125 0.5934677 -2.65625 0.5930939zm17.863403 -11.839355l-7.03125 17.185776l-2.0 -4.9591064E-4l2.296875 -5.6244354l-4.71875 -11.56366l2.15625 5.264282E-4l3.671875 9.469658l3.625 -9.467857l2.0 4.8828125E-4zm6.085907 11.876503q-1.34375 -3.2806396E-4 -2.421875 -0.4537201q-1.0625 -0.4533844 -1.6875 -1.2816696q-0.609375 -0.82826996 -0.671875 -1.8907852l2.0 4.8828125E-4q0.09375 0.8750229 0.828125 1.437706q0.734375 0.5470581 1.9375 0.547348q1.109375 2.746582E-4 1.734375 -0.48394775q0.640625 -0.49983978 0.640625 -1.2342148q0 -0.78125 -0.6875 -1.1407928q-0.671875 -0.37516785 -2.09375 -0.7505188q-1.3125 -0.32844543 -2.140625 -0.6724014q-0.8125 -0.35957336 -1.40625 -1.0472183q-0.578125 -0.70326996 -0.578125 -1.82827q0 -0.90625 0.53125 -1.6404953q0.53125 -0.7498703 1.515625 -1.1871262q0.984375 -0.43725586 2.25 -0.43694305q1.9375 4.7302246E-4 3.125 0.98514557q1.203125 0.96904755 1.28125 2.6721878l-1.9375 -4.7302246E-4q-0.0625 -0.90626526 -0.734375 -1.4533081q-0.671875 -0.56266785 -1.8125 -0.56295013q-1.03125 -2.5177002E-4 -1.65625 0.45272064q-0.625 0.4373474 -0.625 1.1717224q0 0.5625 0.375 0.93759155q0.375 0.37509155 0.9375 0.6096039q0.578125 0.21889496 1.578125 0.5003891q1.25 0.32843018 2.03125 0.67237854q0.796875 0.32831573 1.359375 0.98470306q0.578125 0.65639496 0.59375 1.7345276q0 0.953125 -0.53125 1.7186203q-0.53125 0.7654877 -1.515625 1.2027512q-0.96875 0.43725586 -2.21875 0.43695068zm9.367706 -10.278946l0 6.890625q0 0.859375 0.359375 1.2188416q0.359375 0.34384155 1.25 0.34405518l1.4375 3.5858154E-4l0 1.640625l-1.75 -4.348755E-4q-1.625 -3.9672852E-4 -2.4375 -0.7505951q-0.8125 -0.750206 -0.8125 -2.453331l0 -6.890625l-1.515625 -3.7384033E-4l0 -1.59375l1.515625 3.7384033E-4l0 -2.9375l1.953125 4.8065186E-4l0 2.9375l3.046875 7.5531006E-4l0 1.59375l-3.046875 -7.5531006E-4zm16.060333 3.8008347q0 0.5625 -0.0625 1.1718597l-9.3437195 -0.0023040771q0.09375 1.7343979 1.171875 2.703415q1.078125 0.969017 2.625 0.9693985q1.25 3.0517578E-4 2.0937195 -0.57761383q0.84375 -0.5935364 1.1875 -1.5778275l2.09375 5.1116943E-4q-0.46875 1.6873856 -1.890625 2.7495346q-1.40625 1.0465317 -3.4843445 1.0460205q-1.671875 -4.119873E-4 -2.984375 -0.73511505q-1.3125 -0.75032043 -2.0625 -2.1255035q-0.734375 -1.3751831 -0.734375 -3.187683q0 -1.8125 0.71875 -3.1716995q0.734375 -1.3748169 2.03125 -2.1088715q1.3125 -0.73405457 3.03125 -0.7336273q1.6562195 4.043579E-4 2.9374695 0.73509216q1.28125 0.71907043 1.96875 1.9848633q0.703125 1.2658005 0.703125 2.8595505zm-2.015625 -0.4067459q0 -1.109375 -0.484375 -1.9063721q-0.484375 -0.7969971 -1.328125 -1.2034531q-0.8437195 -0.422081 -1.8749695 -0.42233276q-1.46875 -3.6621094E-4 -2.5 0.936882q-1.03125 0.93724823 -1.1875 2.59346l7.3749695 0.0018157959zm18.629791 -5.1985397q1.359375 3.3569336E-4 2.421875 0.5787201q1.078125 0.562767 1.6875 1.6879196q0.625 1.1251526 0.625 2.7501526l0 6.890625l-1.921875 -4.7302246E-4l0 -6.609375q0 -1.75 -0.875 -2.6720886q-0.859375 -0.9377136 -2.328125 -0.93807983q-1.515625 -3.6621094E-4 -2.421875 0.9681549q-0.890625 0.9685364 -0.890625 2.8122864l0 6.4375l-1.90625 -4.7302246E-4l0 -6.609375q0 -1.75 -0.875 -2.6720886q-0.859375 -0.9377136 -2.328125 -0.9380722q-1.515625 -3.7384033E-4 -2.421875 0.9681473q-0.890625 0.9685364 -0.890625 2.8122864l0 6.4375l-1.9375305 -4.8065186E-4l0 -11.6875l1.9375305 4.8065186E-4l0 1.6875q0.578125 -0.9217377 1.546875 -1.4058685q0.96875 -0.4997635 2.140625 -0.49947357q1.484375 3.6621094E-4 2.609375 0.67251587q1.125 0.65652466 1.6875 1.937912q0.484375 -1.2342529 1.609375 -1.9214783q1.140625 -0.6872177 2.53125 -0.6868744z" fill-rule="nonzero"/><path fill="#ffffff" d="m433.50104 117.211525q0 1.859375 -1.265625 3.0934372q-1.265625 1.2184372 -3.875 1.2177963l-2.859375 -7.019043E-4l0 6.203125l-1.9375 -4.8065186E-4l0 -14.859375l4.796875 0.0011825562q2.515625 6.1798096E-4 3.828125 1.219696q1.3125 1.2034454 1.3125 3.1253204zm-5.140625 2.7018585q1.625 3.9672852E-4 2.390625 -0.70253754q0.765625 -0.70293427 0.765625 -1.9998093q0 -2.75 -3.15625 -2.7507782l-2.859375 -7.019043E-4l0 5.453125l2.859375 7.019043E-4zm6.8334045 1.9235611q0 -1.78125 0.71875 -3.1404495q0.734375 -1.3591995 2.0 -2.0932617q1.265625 -0.7496872 2.828125 -0.7492981q1.53125 3.7384033E-4 2.65625 0.6568985q1.140625 0.6565323 1.6875 1.6566696l0 -2.125l1.96875 4.8065186E-4l0 11.6875l-1.96875 -4.8065186E-4l0 -2.171875q-0.578125 1.01548 -1.71875 1.6870728q-1.140625 0.67160034 -2.65625 0.6712265q-1.546875 -3.8146973E-4 -2.8125 -0.7663193q-1.25 -0.7659302 -1.984375 -2.1411133q-0.71875 -1.3908005 -0.71875 -3.1720505zm9.890625 0.033683777q0 -1.328125 -0.53125 -2.3126297q-0.53125 -0.9845047 -1.4375 -1.5003586q-0.90625 -0.51584625 -2.0 -0.5161133q-1.078125 -2.670288E-4 -1.984375 0.5151367q-0.890625 0.49977875 -1.421875 1.484024q-0.53125 0.9842453 -0.53125 2.2967453q0 1.34375 0.53125 2.3438797q0.53125 0.9845047 1.421875 1.515976q0.90625 0.51584625 1.984375 0.5161133q1.09375 2.670288E-4 2.0 -0.5151367q0.90625 -0.5310211 1.4375 -1.5152664q0.53125 -0.9998703 0.53125 -2.3123703zm7.183502 -3.93573q0.515625 -0.9998779 1.46875 -1.5465164q0.953125 -0.5622635 2.3125 -0.5619278l0 2.015625l-0.515625 -1.296997E-4q-3.265625 -8.010864E-4 -3.265625 3.530449l0 6.359375l-1.9375 -4.8065186E-4l0 -11.6875l1.9375 4.8065186E-4l0 1.890625zm5.299164 3.9075546q0 -1.78125 0.71875 -3.1404495q0.734375 -1.3591919 2.0 -2.093254q1.265625 -0.7496948 2.828125 -0.7493057q1.53125 3.7384033E-4 2.65625 0.6569061q1.140625 0.65652466 1.6875 1.656662l0 -2.125l1.96875 4.8828125E-4l0 11.6875l-1.96875 -4.8828125E-4l0 -2.171875q-0.578125 1.01548 -1.71875 1.6870804q-1.140625 0.6715927 -2.65625 0.6712189q-1.546875 -3.8146973E-4 -2.8125 -0.7663193q-1.25 -0.7659302 -1.984375 -2.1411133q-0.71875 -1.3908005 -0.71875 -3.1720505zm9.890625 0.033683777q0 -1.328125 -0.53125 -2.3126297q-0.53125 -0.9845047 -1.4375 -1.500351q-0.90625 -0.5158539 -2.0 -0.5161209q-1.078125 -2.670288E-4 -1.984375 0.5151367q-0.890625 0.49977875 -1.421875 1.484024q-0.53125 0.9842453 -0.53125 2.2967453q0 1.34375 0.53125 2.3438797q0.53125 0.9845047 1.421875 1.515976q0.90625 0.51584625 1.984375 0.5161133q1.09375 2.670288E-4 2.0 -0.5151291q0.90625 -0.53102875 1.4375 -1.515274q0.53125 -0.9998703 0.53125 -2.3123703zm4.527252 0.0011138916q0 -1.8125 0.71875 -3.1716995q0.734375 -1.3591919 2.015625 -2.093254q1.296875 -0.74967957 2.953125 -0.7492676q2.15625 5.264282E-4 3.546875 1.0477448q1.40625 1.031601 1.84375 2.8910828l-2.078125 -5.1116943E-4q-0.296875 -1.0625763 -1.171875 -1.6721649q-0.859375 -0.6252136 -2.140625 -0.6255264q-1.65625 -4.119873E-4 -2.6875 1.1399612q-1.015625 1.1403732 -1.015625 3.2341232q0 2.109375 1.015625 3.2658768q1.03125 1.1408768 2.6875 1.1412888q1.28125 3.1280518E-4 2.125 -0.5932312q0.859375 -0.5935364 1.1875 -1.7028275l2.078125 5.1116943E-4q-0.46875 1.7811356 -1.875 2.8589096q-1.40625 1.0777817 -3.515625 1.0772629q-1.65625 -4.119873E-4 -2.953125 -0.7350998q-1.28125 -0.75032043 -2.015625 -2.1098785q-0.71875 -1.3751755 -0.71875 -3.2033005zm19.461853 -6.0420837q1.328125 3.2806396E-4 2.390625 0.5787201q1.078125 0.5627594 1.671875 1.687912q0.609375 1.125145 0.609375 2.750145l0 6.890625l-1.921875 -4.7302246E-4l0 -6.609375q0 -1.75 -0.875 -2.6720886q-0.859375 -0.9377136 -2.375 -0.93808746q-1.546875 -3.8146973E-4 -2.453125 0.9681473q-0.90625 0.95290375 -0.90625 2.7810287l0 6.46875l-1.9375 -4.8065186E-4l0 -15.78125l1.9375 4.8065186E-4l0 5.75q0.578125 -0.89048004 1.59375 -1.3746109q1.015625 -0.49974823 2.265625 -0.49944305zm7.13443 6.0173874q0 -1.78125 0.71875 -3.1404495q0.734375 -1.3591919 2.0 -2.0932617q1.265625 -0.7496872 2.828125 -0.7492981q1.53125 3.7384033E-4 2.65625 0.6569061q1.140625 0.65652466 1.6875 1.656662l0 -2.125l1.96875 4.8828125E-4l0 11.6875l-1.96875 -4.8828125E-4l0 -2.171875q-0.578125 1.01548 -1.71875 1.6870804q-1.140625 0.6715927 -2.65625 0.6712189q-1.546875 -3.8146973E-4 -2.8125 -0.7663193q-1.25 -0.7659302 -1.984375 -2.1411133q-0.71875 -1.3908005 -0.71875 -3.1720505zm9.890625 0.033683777q0 -1.328125 -0.53125 -2.3126297q-0.53125 -0.9845047 -1.4375 -1.5003586q-0.90625 -0.51584625 -2.0 -0.5161133q-1.078125 -2.670288E-4 -1.984375 0.5151367q-0.890625 0.49977875 -1.421875 1.484024q-0.53125 0.9842453 -0.53125 2.2967453q0 1.34375 0.53125 2.3438797q0.53125 0.9845047 1.421875 1.515976q0.90625 0.51584625 1.984375 0.5161133q1.09375 2.670288E-4 2.0 -0.5151367q0.90625 -0.5310211 1.4375 -1.5152664q0.53125 -0.9998703 0.53125 -2.3123703zm6.246002 -7.732834q-0.546875 -1.373291E-4 -0.9375 -0.3752365q-0.375 -0.39071655 -0.375 -0.93759155q0 -0.5625 0.375 -0.93740845q0.390625 -0.39052582 0.9375 -0.3903885q0.53125 1.296997E-4 0.90625 0.39084625q0.375 0.37509155 0.375 0.93759155q0 0.546875 -0.375 0.93740845q-0.375 0.37490845 -0.90625 0.37477875zm0.9375 1.9064789l0 11.6875l-1.9375 -4.8065186E-4l0 -11.6875l1.9375 4.8065186E-4zm9.01239 -0.21652985q2.125 5.187988E-4 3.4375 1.2977219q1.328125 1.2815781 1.328125 3.719078l0 6.890625l-1.921875 -4.7302246E-4l0 -6.609375q0 -1.75 -0.875 -2.6720963q-0.859375 -0.937706 -2.375 -0.93807983q-1.546875 -3.8146973E-4 -2.453125 0.96813965q-0.90625 0.95290375 -0.90625 2.7810287l0 6.46875l-1.9375 -4.7302246E-4l0 -11.6875l1.9375 4.7302246E-4l0 1.65625q0.578125 -0.89048004 1.5625 -1.3746109q1.0 -0.49975586 2.203125 -0.4994583zm12.946899 15.878189q-2.0625 -2.0005035 -3.203125 -5.0945435q-1.140625 -3.0940247 -1.140625 -6.6877747q0 -3.6562576 1.203125 -6.84346q1.21875 -3.2028198 3.453125 -5.2647705l2.03125 4.9591064E-4l0 0.1875q-2.390625 2.2494125 -3.59375 5.38974q-1.203125 3.140335 -1.203125 6.53096q0 3.3125 1.140625 6.3283997q1.140625 3.0002823 3.328125 5.2664413l0 0.1875l-2.015625 -4.8828125E-4zm8.823669 -3.7790756q-1.34375 -3.3569336E-4 -2.421875 -0.45372772q-1.0625 -0.4533844 -1.6875 -1.281662q-0.609375 -0.8282776 -0.671875 -1.8907928l2.0 4.9591064E-4q0.09375 0.8750229 0.828125 1.437706q0.734375 0.5470505 1.9375 0.547348q1.109375 2.746582E-4 1.734375 -0.48394775q0.640625 -0.49983978 0.640625 -1.2342148q0 -0.78125 -0.6875 -1.1407928q-0.671875 -0.37516785 -2.09375 -0.7505188q-1.3125 -0.32844543 -2.140625 -0.6724014q-0.8125 -0.35957336 -1.40625 -1.047226q-0.578125 -0.7032623 -0.578125 -1.8282623q0 -0.90625 0.53125 -1.6404953q0.53125 -0.7498703 1.515625 -1.1871262q0.984375 -0.43725586 2.25 -0.43695068q1.9375 4.8065186E-4 3.125 0.98514557q1.203125 0.96904755 1.28125 2.6721954l-1.9375 -4.8065186E-4q-0.0625 -0.90626526 -0.734375 -1.4533081q-0.671875 -0.5626602 -1.8125 -0.5629425q-1.03125 -2.5177002E-4 -1.65625 0.452713q-0.625 0.4373474 -0.625 1.1717224q0 0.5625 0.375 0.93759155q0.375 0.37509918 0.9375 0.6096115q0.578125 0.21888733 1.578125 0.5003891q1.25 0.32843018 2.03125 0.6723709q0.796875 0.32832336 1.359375 0.9847107q0.578125 0.65639496 0.59375 1.73452q0 0.953125 -0.53125 1.7186203q-0.53125 0.7654953 -1.515625 1.2027512q-0.96875 0.4372635 -2.21875 0.4369583zm6.383301 3.782814l0 -0.1875q2.1875 -2.2650757 3.328125 -5.264801q1.140625 -3.0153427 1.140625 -6.3278427q0 -3.390625 -1.203125 -6.5315475q-1.203125 -3.1409225 -3.59375 -5.39151l0 -0.1875l2.03125 5.0354004E-4q2.234375 2.0630493 3.4375 5.266472q1.203125 3.18779 1.203125 6.84404q0 3.59375 -1.140625 6.6872253q-1.140625 3.0934677 -3.1875 5.092964l-2.015625 -5.0354004E-4z" fill-rule="nonzero"/><path fill="#000000" fill-opacity="0.0" d="m380.17584 169.0684l0 0c0 -4.5024414 3.6499634 -8.151138 8.152405 -8.149582l74.87631 0.025863647c2.16214 7.4768066E-4 4.2357483 0.8603821 5.764618 2.3897705c1.5288696 1.5294037 2.3877869 3.6032867 2.3877869 5.765442l0 32.608597c0 4.5024414 -3.6499634 8.151138 -8.152405 8.149582l-74.87631 -0.025863647c-4.5024414 -0.0015563965 -8.152405 -3.652771 -8.152405 -8.155212z" fill-rule="evenodd"/><path stroke="#8d3aed" stroke-width="3.0" stroke-linejoin="round" stroke-linecap="butt" d="m380.17584 169.0684l0 0c0 -4.5024414 3.6499634 -8.151138 8.152405 -8.149582l74.87631 0.025863647c2.16214 7.4768066E-4 4.2357483 0.8603821 5.764618 2.3897705c1.5288696 1.5294037 2.3877869 3.6032867 2.3877869 5.765442l0 32.608597c0 4.5024414 -3.6499634 8.151138 -8.152405 8.149582l-74.87631 -0.025863647c-4.5024414 -0.0015563965 -8.152405 -3.652771 -8.152405 -8.155212z" fill-rule="evenodd"/><path fill="#ffffff" d="m418.58728 183.0716q-0.53125 -1.1408081 -1.5625 -1.766159q-1.03125 -0.6253662 -2.390625 -0.625824q-1.359375 -4.7302246E-4 -2.453125 0.6241455q-1.09375 0.62461853 -1.71875 1.7962799q-0.625 1.1560364 -0.625 2.6872864q0 1.53125 0.625 2.6877136q0.625 1.1564636 1.71875 1.7818451q1.09375 0.62538147 2.453125 0.6258545q1.90625 6.5612793E-4 3.140625 -1.1239166q1.234375 -1.1401978 1.4375 -3.0932617l-5.1875 -0.0017852783l0 -1.375l7.0 0.0024108887l0 1.3125q-0.15625 1.5937042 -1.015625 2.937149q-0.859375 1.3278351 -2.265625 2.1085968q-1.390625 0.765152 -3.109375 0.7645569q-1.8125 -6.2561035E-4 -3.3125 -0.8448944q-1.484375 -0.8442688 -2.359375 -2.360199q-0.859375 -1.5159149 -0.859375 -3.422165q0 -1.890625 0.859375 -3.40596q0.875 -1.5309448 2.359375 -2.374176q1.5 -0.8588562 3.3125 -0.8582306q2.078125 7.171631E-4 3.671875 1.0325165q1.59375 1.0317993 2.328125 2.8914185l-2.046875 -7.019043E-4zm9.123962 9.409409q-1.4375 -5.0354004E-4 -2.609375 -0.65715027q-1.15625 -0.656662 -1.828125 -1.8600159q-0.65625 -1.2033539 -0.65625 -2.781479q0 -1.578125 0.6875 -2.7810059q0.6875 -1.2028961 1.859375 -1.8431091q1.171875 -0.6402283 2.625 -0.63972473q1.453125 5.0354004E-4 2.625 0.6415405q1.1875 0.641037 1.859375 1.8443909q0.6875 1.1877289 0.6875 2.781479q0 1.578125 -0.703125 2.781021q-0.703125 1.2028809 -1.90625 1.8587036q-1.1875 0.6558533 -2.640625 0.65534973zm0 -1.5q0.921875 3.0517578E-4 1.71875 -0.4212799q0.796875 -0.43722534 1.296875 -1.2964325q0.5 -0.85920715 0.5 -2.0779572q0 -1.234375 -0.484375 -2.0939178q-0.484375 -0.85954285 -1.28125 -1.2816925q-0.78125 -0.4221344 -1.6875 -0.42245483q-0.9375 -3.2043457E-4 -1.71875 0.4212799q-0.765625 0.4216156 -1.234375 1.2808228q-0.46875 0.8592224 -0.46875 2.0935974q0 1.25 0.453125 2.1095276q0.46875 0.8439026 1.234375 1.2660522q0.765625 0.4221344 1.671875 0.42245483zm11.299377 -0.23048401l3.15625 -8.655151l1.8125 6.2561035E-4l-4.0 10.217361l-1.984375 -6.866455E-4l-4.015625 -10.220139l1.828125 6.4086914E-4l3.203125 8.657349z" fill-rule="nonzero"/><path fill="#8d3aed" d="m732.4828 358.13394l0 0c4.5024414 0 8.151428 3.6499329 8.150269 8.152374l-0.058776855 225.30151c-5.493164E-4 2.1621704 -0.85998535 4.235779 -2.3892822 5.7646484c-1.5292358 1.5288696 -3.6030884 2.3877563 -5.7651978 2.3877563l-32.608643 0c-4.5024414 0 -8.151428 -3.6499634 -8.150269 -8.152405l0.058776855 -225.30151l0 0c0.001159668 -4.5024414 3.6520996 -8.152374 8.154541 -8.152374z" fill-rule="evenodd"/><path fill="#ffffff" d="m704.16925 393.49158l10.596252 -9.578125l-10.59375 0l7.9345703E-4 -3.03125l23.234375 0l-7.9345703E-4 3.03125l-10.765625 0l10.763123 9.609375l-9.765625E-4 3.828125l-11.637878 -10.53125l-11.596558 10.625l0.0010375977 -3.953125zm20.7583 28.182556l-7.765625 0l-0.0021972656 8.46875l-2.5 0l0.0021972656 -8.46875l-8.0 0l-0.0025024414 9.46875l-2.5 0l0.0032958984 -12.5l23.265625 0l-0.0032958984 12.5l-2.5 0l0.0025024414 -9.46875zm-20.77716 44.097595l9.501465 -5.53125l9.765625E-4 -3.671875l-9.5 0l7.9345703E-4 -3.03125l23.234375 0l-0.001953125 7.5q-7.324219E-4 2.640625 -0.90740967 4.453125q-0.8911133 1.8125 -2.4382324 2.703125q-1.5314941 0.90625 -3.5002441 0.90625q-2.390625 0 -4.234009 -1.390625q-1.8277588 -1.375 -2.4207764 -4.140625l-9.735901 5.84375l9.1552734E-4 -3.640625zm11.939941 -9.203125l-0.001159668 4.46875q-6.713867E-4 2.46875 1.2021484 3.703125q1.2184448 1.234375 3.2496948 1.234375q2.078125 0 3.2034302 -1.21875q1.1409302 -1.21875 1.1416016 -3.71875l0.001159668 -4.46875l-8.796875 0zm-11.951416 53.295013l7.9345703E-4 -3.03125l18.503174 -12.203125l-18.5 0l7.9345703E-4 -3.03125l23.265625 0l-7.9345703E-4 3.03125l-18.471924 12.203125l18.46875 0l-7.9345703E-4 3.03125l-23.265625 0zm20.75885 25.992401l-7.765625 0l-0.0021972656 8.46875l-2.5 0l0.0021972656 -8.46875l-8.0 0l-0.0024414062 9.46875l-2.5 0l0.0032348633 -12.5l23.265625 0l-0.0032348633 12.5l-2.5 0l0.0024414062 -9.46875zm-18.30597 34.89447l-0.0021362305 8.140625l-2.46875 0l0.0029296875 -11.171875l23.234375 0l-7.9345703E-4 3.03125l-20.765625 0z" fill-rule="nonzero"/><path fill="#25cc85" d="m732.51166 36.711967l0 0c4.5024414 0 8.151245 3.649952 8.149841 8.152393l-0.089416504 286.2779c-6.713867E-4 2.1621704 -0.8602295 4.2357483 -2.3895874 5.764618c-1.5292969 1.5288696 -3.6032104 2.3877869 -5.76532 2.3877869l-32.608643 0c-4.5024414 0 -8.151245 -3.6499634 -8.149841 -8.152405l0.089416504 -286.2779c0.0014038086 -4.5024414 3.6525269 -8.152393 8.154968 -8.152393z" fill-rule="evenodd"/><path fill="#ffffff" d="m725.1501 149.9886l-11.75 0q-2.484375 0 -3.6878662 1.203125q-1.1878662 1.21875 -1.1885376 3.390625q-6.713867E-4 2.125 1.1864624 3.328125q1.2027588 1.21875 3.6871338 1.21875l11.75 0l-7.9345703E-4 2.4375l-11.734375 0q-2.3125 0 -3.9059448 -0.9375q-1.5778198 -0.9375 -2.3585815 -2.53125q-0.7651367 -1.578125 -0.76452637 -3.546875q6.1035156E-4 -1.96875 0.76672363 -3.5625q0.7817383 -1.578125 2.3601685 -2.5q1.5940552 -0.921875 3.9065552 -0.921875l11.734375 0l-7.9345703E-4 2.421875zm-18.774536 28.625717q5.493164E-4 -1.828125 0.6572876 -3.28125q0.65667725 -1.453125 1.8131714 -2.28125q1.1565552 -0.828125 2.6721802 -0.859375l-8.544922E-4 2.59375q-1.296875 0.125 -2.2034302 1.0625q-0.8909302 0.953125 -0.8914795 2.765625q-5.493164E-4 1.734375 0.8585205 2.734375q0.8746948 1.0 2.2340698 1.0q1.078125 0 1.7345581 -0.59375q0.6720581 -0.578125 1.0160522 -1.453125q0.34405518 -0.875 0.7507324 -2.375q0.48498535 -1.84375 0.9540405 -2.953125q0.4847412 -1.09375 1.5006104 -1.890625q1.0314941 -0.78125 2.7658691 -0.78125q1.515625 0 2.6872559 0.765625q1.1872559 0.78125 1.8118286 2.171875q0.64019775 1.40625 0.63964844 3.21875q-8.544922E-4 2.609375 -1.3138428 4.28125q-1.2974243 1.671875 -3.4537354 1.875l8.544922E-4 -2.65625q1.0625 -0.140625 1.8753052 -1.125q0.8128662 -0.984375 0.8133545 -2.609375q4.8828125E-4 -1.515625 -0.78045654 -2.484375q-0.78100586 -0.953125 -2.2028809 -0.953125q-1.015625 0 -1.6563721 0.5625q-0.6251831 0.578125 -0.9692383 1.421875q-0.32836914 0.84375 -0.7507324 2.359375q-0.5161743 1.84375 -1.0165405 2.953125q-0.4847412 1.125 -1.5162354 1.921875q-1.0158691 0.796875 -2.7814941 0.796875q-1.359375 0 -2.5622559 -0.71875q-1.1872559 -0.71875 -1.9368286 -2.140625q-0.74957275 -1.40625 -0.7489624 -3.328125zm16.790833 19.311218l-6.21875 0l-0.0021362305 6.765625l-2.0 0l0.0021362305 -6.765625l-6.390625 0l-0.002380371 7.5625l-2.0 0l0.003112793 -10.0l18.609436 0l-0.0031738281 10.0l-2.0 0l0.002380371 -7.5625zm-16.618164 28.135544l7.595154 -4.421875l9.1552734E-4 -2.921875l-7.59375 0l7.324219E-4 -2.4375l18.578125 0l-0.0018920898 6.0q-6.1035156E-4 2.109375 -0.71984863 3.5625q-0.71917725 1.453125 -1.9537964 2.171875q-1.2189941 0.71875 -2.7971191 0.71875q-1.90625 0 -3.3746338 -1.109375q-1.4683838 -1.109375 -1.9520874 -3.3125l-7.782715 4.65625l9.1552734E-4 -2.90625zm9.549194 -7.34375l-0.001159668 3.5625q-6.1035156E-4 1.96875 0.9678345 2.953125q0.9684448 1.0 2.5934448 1.0q1.65625 0 2.5628052 -0.984375q0.9065552 -0.96875 0.9071655 -2.96875l0.001159668 -3.5625l-7.03125 0z" fill-rule="nonzero"/><path fill="#000000" fill-opacity="0.0" d="m25.498688 642.70654l0 0c0 -14.240845 11.544468 -25.78302 25.785294 -25.780212l589.9097 0.11584473c6.838684 0.0013427734 13.397278 2.7192993 18.23291 7.555908c4.8356934 4.83667 7.552368 11.395752 7.552368 18.234436l0 103.13812c0 14.240784 -11.544495 25.78302 -25.785278 25.780212l-589.9097 -0.11584473l0 0c-14.240826 -0.0028076172 -25.785294 -11.549561 -25.785294 -25.790405z" fill-rule="evenodd"/><path stroke="#b45f06" stroke-width="3.0" stroke-linejoin="round" stroke-linecap="butt" d="m25.498688 642.70654l0 0c0 -14.240845 11.544468 -25.78302 25.785294 -25.780212l589.9097 0.11584473c6.838684 0.0013427734 13.397278 2.7192993 18.23291 7.555908c4.8356934 4.83667 7.552368 11.395752 7.552368 18.234436l0 103.13812c0 14.240784 -11.544495 25.78302 -25.785278 25.780212l-589.9097 -0.11584473l0 0c-14.240826 -0.0028076172 -25.785294 -11.549561 -25.785294 -25.790405z" fill-rule="evenodd"/><path fill="#b45f06" d="m732.4749 617.58795l0 0c4.5024414 0 8.151611 3.6499023 8.150757 8.152405l-0.028198242 138.93927c-4.272461E-4 2.1621704 -0.85980225 4.235779 -2.388977 5.7646484c-1.5291748 1.5288696 -3.6029663 2.3877563 -5.7650757 2.3877563l-32.60858 0c-4.5025024 0 -8.151672 -3.6499634 -8.150757 -8.152405l0.028198242 -138.93927c9.1552734E-4 -4.5025024 3.6516113 -8.152405 8.154053 -8.152405z" fill-rule="evenodd"/><path fill="#ffffff" d="m724.3595 644.5205l-16.734375 0l4.8828125E-4 -2.1875l7.578125 0l0.0017089844 -8.515625l-7.578125 0l4.272461E-4 -2.1875l16.734375 0l-4.272461E-4 2.1875l-7.34375 0l-0.0017089844 8.515625l7.34375 0l-4.8828125E-4 2.1875zm-13.018372 13.607971l0.0014648438 -7.296875l-3.7184448 -1.34375l4.272461E-4 -2.296875l16.62378 6.046875l-4.8828125E-4 2.515625l-16.62622 6.03125l4.8828125E-4 -2.3125l3.7189941 -1.34375zm1.7813721 -0.625l8.43811 -3.015625l-8.43689 -3.03125l-0.0012207031 6.046875zm-5.503174 15.722839l6.8445435 -3.984375l5.493164E-4 -2.640625l-6.84375 0l4.272461E-4 -2.1875l16.734375 0l-0.0010986328 5.40625q-3.6621094E-4 1.890625 -0.65686035 3.203125q-0.6409302 1.3125 -1.7504272 1.953125q-1.1094971 0.65625 -2.515747 0.65625q-1.734375 0 -3.062317 -1.0q-1.3122559 -1.0 -1.7337646 -2.984375l-7.0164795 4.1875l5.493164E-4 -2.609375zm8.595093 -6.625l-6.713867E-4 3.21875q-3.6621094E-4 1.78125 0.8744507 2.65625q0.8748169 0.890625 2.343567 0.890625q1.484375 0 2.297058 -0.875q0.8126831 -0.875 0.8130493 -2.671875l6.713867E-4 -3.21875l-6.328125 0zm8.137024 17.62323q-5.493164E-4 2.734375 -1.0321655 4.734375q-1.0160522 2.0 -2.9225464 3.0625q-1.8908081 1.078125 -4.453308 1.078125q-2.5625 0 -4.452942 -1.078125q-1.8903809 -1.0625 -2.8899536 -3.0625q-0.9840088 -2.0 -0.9834595 -4.734375l0.0010986328 -5.21875l16.734375 0l-0.0010986328 5.21875zm-14.9375 0q-6.1035156E-4 3.234375 1.7177734 4.9375q1.7183838 1.703125 4.812134 1.703125q3.125 0 4.875366 -1.71875q1.7503662 -1.71875 1.7509766 -4.921875l6.1035156E-4 -3.03125l-13.15625 0l-6.1035156E-4 3.03125zm14.930847 32.780457l-16.733398 -4.84375l5.493164E-4 -2.453125l13.469543 -3.890625l-13.467957 -4.03125l-0.030761719 -2.421875l16.766602 -4.6875l-4.8828125E-4 2.328125l-14.188232 3.65625l14.1866455 4.03125l-4.8828125E-4 2.453125l-14.141418 3.828125l14.139893 3.671875l-4.8828125E-4 2.359375zm-13.018066 12.283264l0.0014648438 -7.296875l-3.7185059 -1.34375l4.8828125E-4 -2.296875l16.62378 6.046875l-5.493164E-4 2.515625l-16.62622 6.03125l4.8828125E-4 -2.3125l3.7190552 -1.34375zm1.7813721 -0.625l8.43811 -3.015625l-8.43689 -3.03125l-0.0012207031 6.046875zm-5.503235 15.722839l6.8446045 -3.984375l4.8828125E-4 -2.640625l-6.84375 0l4.8828125E-4 -2.1875l16.734375 0l-0.0010986328 5.40625q-4.272461E-4 1.890625 -0.6569214 3.203125q-0.64086914 1.3125 -1.7503662 1.953125q-1.1095581 0.65625 -2.515808 0.65625q-1.734375 0 -3.0622559 -1.0q-1.3123169 -1.0 -1.7337646 -2.984375l-7.0164795 4.1875l4.8828125E-4 -2.609375zm8.595093 -6.625l-6.1035156E-4 3.21875q-3.6621094E-4 1.78125 0.8744507 2.65625q0.8748169 0.890625 2.343567 0.890625q1.484375 0 2.297058 -0.875q0.8126831 -0.875 0.8130493 -2.671875l6.1035156E-4 -3.21875l-6.328125 0zm6.3564453 14.59198l-5.59375 0l-0.0012207031 6.09375l-1.796875 0l0.0012207031 -6.09375l-5.765625 0l-0.0014038086 6.8125l-1.796875 0l0.0018310547 -9.0l16.75 0l-0.0018310547 9.0l-1.796875 0l0.0014038086 -6.8125z" fill-rule="nonzero"/><path fill="#b45f06" d="m56.154854 678.88995l0 0c0 -4.5024414 3.649952 -8.151733 8.152397 -8.15094l155.75821 0.028503418c2.16214 4.272461E-4 4.235733 0.8596802 5.7646027 2.388855c1.5288696 1.5291748 2.3877869 3.6029053 2.3877869 5.7650757l0 32.60858c0 4.5024414 -3.6499481 8.151733 -8.15239 8.150879l-155.75821 -0.028503418c-4.502445 -7.9345703E-4 -8.152397 -3.6514282 -8.152397 -8.15387z" fill-rule="evenodd"/><path stroke="#b45f06" stroke-width="3.0" stroke-linejoin="round" stroke-linecap="butt" d="m56.154854 678.88995l0 0c0 -4.5024414 3.649952 -8.151733 8.152397 -8.15094l155.75821 0.028503418c2.16214 4.272461E-4 4.235733 0.8596802 5.7646027 2.388855c1.5288696 1.5291748 2.3877869 3.6029053 2.3877869 5.7650757l0 32.60858c0 4.5024414 -3.6499481 8.151733 -8.15239 8.150879l-155.75821 -0.028503418c-4.502445 -7.9345703E-4 -8.152397 -3.6514282 -8.152397 -8.15387z" fill-rule="evenodd"/><path fill="#ffffff" d="m114.35769 695.3699q0 -2.453125 1.09375 -4.406067q1.109375 -1.9528809 3.015625 -3.0463257q1.921875 -1.1090088 4.25 -1.1085815q2.734375 4.8828125E-4 4.765625 1.3289795q2.0468674 1.3129272 2.9843674 3.7349243l-2.6249924 -4.272461E-4q-0.6875 -1.5158081 -2.0 -2.3284912q-1.3125 -0.82836914 -3.125 -0.82873535q-1.765625 -3.0517578E-4 -3.15625 0.8275757q-1.390625 0.81225586 -2.1875 2.3120728q-0.78125 1.4998779 -0.78125 3.515503q0 1.984375 0.78125 3.484497q0.796875 1.5001831 2.1875 2.3285522q1.390625 0.81274414 3.15625 0.8130493q1.8125 3.6621094E-4 3.125 -0.79626465q1.3125 -0.8123169 2.0 -2.3277588l2.6249924 4.272461E-4q-0.9375 2.406128 -2.9843674 3.7182007q-2.03125 1.2965088 -4.765625 1.2960205q-2.328125 -4.272461E-4 -4.25 -1.0945435q-1.90625 -1.0940552 -3.015625 -3.0317993q-1.09375 -1.9376831 -1.09375 -4.390808zm25.074806 8.598328q-1.84375 -3.0517578E-4 -3.34375 -0.84436035q-1.5 -0.84399414 -2.359375 -2.3910522q-0.84375 -1.5469971 -0.84375 -3.578247q0 -2.015625 0.875 -3.562378q0.875 -1.5623169 2.390625 -2.3901978q1.515625 -0.8278198 3.390625 -0.8274536q1.859375 3.0517578E-4 3.375 0.82873535q1.515625 0.82836914 2.390625 2.3754272q0.875 1.5314331 0.875 3.578308q0 2.03125 -0.90625 3.577942q-0.890625 1.5466919 -2.4375 2.3901978q-1.53125 0.8434448 -3.40625 0.8430786zm0 -1.921875q1.1875 2.4414062E-4 2.21875 -0.54644775q1.03125 -0.5623169 1.65625 -1.6559448q0.640625 -1.1092529 0.640625 -2.687378q0 -1.59375 -0.625 -2.687622q-0.625 -1.1094971 -1.640625 -1.6409302q-1.0 -0.5470581 -2.171875 -0.5472412q-1.203125 -2.4414062E-4 -2.203125 0.54644775q-0.984375 0.5310669 -1.59375 1.6403198q-0.59375 1.0936279 -0.59375 2.687378q0 1.609375 0.578125 2.718872q0.59375 1.0938721 1.578125 1.6409302q0.984375 0.5314331 2.15625 0.5316162zm11.81308 -9.310303q0.578125 -1.124939 1.640625 -1.7496948q1.078125 -0.6248169 2.609375 -0.62457275l0 2.25l-0.578125 -6.1035156E-5q-3.671875 -6.713867E-4 -3.671875 3.9837036l0 7.15625l-2.1875 -4.272461E-4l0 -13.15625l2.1875 4.272461E-4l0 2.140625zm18.76448 3.940918q0 0.625 -0.0625 1.3125l-10.515625 -0.001953125q0.125 1.953186 1.328125 3.0471191q1.21875 1.0939941 2.9375 1.0942993q1.421875 2.4414062E-4 2.359375 -0.65582275q0.953125 -0.6716919 1.34375 -1.7810059l2.34375 4.272461E-4q-0.515625 1.906189 -2.109375 3.0933838q-1.578125 1.1871948 -3.9375 1.1867676q-1.875 -3.6621094E-4 -3.34375 -0.84436035q-1.46875 -0.84399414 -2.3125 -2.3910522q-0.84375 -1.5469971 -0.84375 -3.578247q0 -2.046875 0.8125 -3.578003q0.8125 -1.5467529 2.28125 -2.3745728q1.484375 -0.82788086 3.40625 -0.82751465q1.875 3.6621094E-4 3.3125 0.82873535q1.4375 0.81274414 2.21875 2.2504272q0.78125 1.4219971 0.78125 3.218872zm-2.25 -0.45355225q0 -1.25 -0.5625 -2.140686q-0.546875 -0.9063721 -1.5 -1.3753052q-0.9375 -0.4689331 -2.09375 -0.4691162q-1.65625 -3.0517578E-4 -2.828125 1.0619507q-1.15625 1.0466919 -1.328125 2.9216309l8.3125 0.0015258789z" fill-rule="nonzero"/><path fill="#b45f06" d="m260.20398 678.01855l0 0c0 -4.5024414 3.6499329 -8.151733 8.152374 -8.15094l155.75821 0.028503418c2.16214 4.272461E-4 4.2357483 0.8597412 5.764618 2.388855c1.5288696 1.5291748 2.3877869 3.6029053 2.3877869 5.7650757l0 32.60858c0 4.5024414 -3.6499634 8.151733 -8.152405 8.150879l-155.75821 -0.028503418c-4.5024414 -7.9345703E-4 -8.152374 -3.6514282 -8.152374 -8.15387z" fill-rule="evenodd"/><path stroke="#b45f06" stroke-width="3.0" stroke-linejoin="round" stroke-linecap="butt" d="m260.20398 678.01855l0 0c0 -4.5024414 3.6499329 -8.151733 8.152374 -8.15094l155.75821 0.028503418c2.16214 4.272461E-4 4.2357483 0.8597412 5.764618 2.388855c1.5288696 1.5291748 2.3877869 3.6029053 2.3877869 5.7650757l0 32.60858c0 4.5024414 -3.6499634 8.151733 -8.152405 8.150879l-155.75821 -0.028503418c-4.5024414 -7.9345703E-4 -8.152374 -3.6514282 -8.152374 -8.15387z" fill-rule="evenodd"/><path fill="#ffffff" d="m318.4068 694.4985q0 -2.453125 1.09375 -4.406067q1.109375 -1.9528809 3.015625 -3.0462646q1.921875 -1.1090698 4.25 -1.1086426q2.734375 4.8828125E-4 4.765625 1.3290405q2.046875 1.3128662 2.984375 3.7349243l-2.625 -4.8828125E-4q-0.6875 -1.5157471 -2.0 -2.3284912q-1.3125 -0.82836914 -3.125 -0.82873535q-1.765625 -3.0517578E-4 -3.15625 0.8275757q-1.390625 0.81225586 -2.1875 2.3120728q-0.78125 1.4998779 -0.78125 3.515503q0 1.984375 0.78125 3.484497q0.796875 1.5001831 2.1875 2.3285522q1.390625 0.81274414 3.15625 0.8130493q1.8125 3.6621094E-4 3.125 -0.79626465q1.3125 -0.81225586 2.0 -2.3277588l2.625 4.8828125E-4q-0.9375 2.406067 -2.984375 3.7182007q-2.03125 1.2964478 -4.765625 1.2959595q-2.328125 -4.272461E-4 -4.25 -1.0944824q-1.90625 -1.0941162 -3.015625 -3.0318604q-1.09375 -1.9376831 -1.09375 -4.390808zm25.074799 8.598328q-1.84375 -3.0517578E-4 -3.34375 -0.84436035q-1.5 -0.84399414 -2.359375 -2.3910522q-0.84375 -1.5469971 -0.84375 -3.578247q0 -2.015625 0.875 -3.562378q0.875 -1.5623169 2.390625 -2.3901367q1.515625 -0.82788086 3.390625 -0.82751465q1.859375 3.0517578E-4 3.375 0.82873535q1.515625 0.82836914 2.390625 2.3754272q0.875 1.5314331 0.875 3.578308q0 2.03125 -0.90625 3.577942q-0.890625 1.5466919 -2.4375 2.3901978q-1.53125 0.8434448 -3.40625 0.8430786zm0 -1.921875q1.1875 2.4414062E-4 2.21875 -0.54644775q1.03125 -0.5623169 1.65625 -1.6559448q0.640625 -1.1092529 0.640625 -2.687378q0 -1.59375 -0.625 -2.687622q-0.625 -1.1094971 -1.640625 -1.6409302q-1.0 -0.5470581 -2.171875 -0.5472412q-1.203125 -2.4414062E-4 -2.203125 0.54644775q-0.984375 0.5310669 -1.59375 1.6403198q-0.59375 1.0936279 -0.59375 2.687378q0 1.609375 0.578125 2.718872q0.59375 1.0938721 1.578125 1.6409302q0.984375 0.5314331 2.15625 0.5316162zm11.81308 -9.310303q0.578125 -1.1248779 1.640625 -1.7496948q1.078125 -0.6248169 2.609375 -0.6245117l0 2.25l-0.578125 -1.2207031E-4q-3.671875 -6.713867E-4 -3.671875 3.9837036l0 7.15625l-2.1875 -4.272461E-4l0 -13.15625l2.1875 4.272461E-4l0 2.140625zm18.764496 3.940918q0 0.625 -0.0625 1.3125l-10.515625 -0.001953125q0.125 1.953186 1.328125 3.0471191q1.21875 1.0939941 2.9375 1.0942993q1.421875 2.4414062E-4 2.359375 -0.65582275q0.953125 -0.6716919 1.34375 -1.7810059l2.34375 4.272461E-4q-0.515625 1.906189 -2.109375 3.0933838q-1.578125 1.1871948 -3.9375 1.1867676q-1.875 -3.0517578E-4 -3.34375 -0.84436035q-1.46875 -0.84399414 -2.3125 -2.3910522q-0.84375 -1.5469971 -0.84375 -3.578247q0 -2.046875 0.8125 -3.578003q0.8125 -1.5466919 2.28125 -2.3745728q1.484375 -0.82788086 3.40625 -0.82751465q1.875 3.6621094E-4 3.3125 0.82873535q1.4375 0.81274414 2.21875 2.2504272q0.78125 1.4219971 0.78125 3.218872zm-2.25 -0.45355225q0 -1.25 -0.5625 -2.140686q-0.546875 -0.9063721 -1.5 -1.3753052q-0.9375 -0.4689331 -2.09375 -0.4691162q-1.65625 -3.0517578E-4 -2.828125 1.0619507q-1.15625 1.0466919 -1.328125 2.9216309l8.3125 0.0015258789z" fill-rule="nonzero"/><path fill="#b45f06" d="m464.25308 678.88995l0 0c0 -4.5024414 3.6499329 -8.151733 8.152374 -8.15094l155.75824 0.028503418c2.1621094 4.272461E-4 4.235718 0.8596802 5.7645874 2.388855c1.5288696 1.5291748 2.3877563 3.6029053 2.3877563 5.7650757l0 32.60858c0 4.5024414 -3.6499023 8.151733 -8.152344 8.150879l-155.75824 -0.028503418c-4.5024414 -7.9345703E-4 -8.152374 -3.6514282 -8.152374 -8.15387z" fill-rule="evenodd"/><path stroke="#b45f06" stroke-width="3.0" stroke-linejoin="round" stroke-linecap="butt" d="m464.25308 678.88995l0 0c0 -4.5024414 3.6499329 -8.151733 8.152374 -8.15094l155.75824 0.028503418c2.1621094 4.272461E-4 4.235718 0.8596802 5.7645874 2.388855c1.5288696 1.5291748 2.3877563 3.6029053 2.3877563 5.7650757l0 32.60858c0 4.5024414 -3.6499023 8.151733 -8.152344 8.150879l-155.75824 -0.028503418c-4.5024414 -7.9345703E-4 -8.152374 -3.6514282 -8.152374 -8.15387z" fill-rule="evenodd"/><path fill="#ffffff" d="m522.45593 695.3699q0 -2.453125 1.09375 -4.406067q1.109375 -1.9528809 3.015625 -3.0463257q1.921875 -1.1090088 4.25 -1.1085815q2.734375 4.8828125E-4 4.765625 1.3289795q2.046875 1.3129272 2.984375 3.7349243l-2.625 -4.272461E-4q-0.6875 -1.5158081 -2.0 -2.3284912q-1.3125 -0.82836914 -3.125 -0.82873535q-1.765625 -3.0517578E-4 -3.15625 0.8275757q-1.390625 0.81225586 -2.1875 2.3120728q-0.78125 1.4998779 -0.78125 3.515503q0 1.984375 0.78125 3.484497q0.796875 1.5001831 2.1875 2.3285522q1.390625 0.81274414 3.15625 0.8130493q1.8125 3.6621094E-4 3.125 -0.79626465q1.3125 -0.8123169 2.0 -2.3277588l2.625 4.272461E-4q-0.9375 2.406128 -2.984375 3.7182007q-2.03125 1.2965088 -4.765625 1.2960205q-2.328125 -4.272461E-4 -4.25 -1.0945435q-1.90625 -1.0940552 -3.015625 -3.0317993q-1.09375 -1.9376831 -1.09375 -4.390808zm25.074768 8.598328q-1.84375 -3.0517578E-4 -3.34375 -0.84436035q-1.5 -0.84399414 -2.359375 -2.3910522q-0.84375 -1.5469971 -0.84375 -3.578247q0 -2.015625 0.875 -3.562378q0.875 -1.5623169 2.390625 -2.3901978q1.515625 -0.8278198 3.390625 -0.8274536q1.859375 3.0517578E-4 3.375 0.82873535q1.515625 0.82836914 2.390625 2.3754272q0.875 1.5314331 0.875 3.578308q0 2.03125 -0.90625 3.577942q-0.890625 1.5466919 -2.4375 2.3901978q-1.53125 0.8434448 -3.40625 0.8430786zm0 -1.921875q1.1875 2.4414062E-4 2.21875 -0.54644775q1.03125 -0.5623169 1.65625 -1.6559448q0.640625 -1.1092529 0.640625 -2.687378q0 -1.59375 -0.625 -2.687622q-0.625 -1.1094971 -1.640625 -1.6409302q-1.0 -0.5470581 -2.171875 -0.5472412q-1.203125 -2.4414062E-4 -2.203125 0.54644775q-0.984375 0.5310669 -1.59375 1.6403198q-0.59375 1.0936279 -0.59375 2.687378q0 1.609375 0.578125 2.718872q0.59375 1.0938721 1.578125 1.6409302q0.984375 0.5314331 2.15625 0.5316162zm11.81311 -9.310303q0.578125 -1.124939 1.640625 -1.7496948q1.078125 -0.6248169 2.609375 -0.62457275l0 2.25l-0.578125 -6.1035156E-5q-3.671875 -6.713867E-4 -3.671875 3.9837036l0 7.15625l-2.1875 -4.272461E-4l0 -13.15625l2.1875 4.272461E-4l0 2.140625zm18.764465 3.940918q0 0.625 -0.0625 1.3125l-10.515625 -0.001953125q0.125 1.953186 1.328125 3.0471191q1.21875 1.0939941 2.9375 1.0942993q1.421875 2.4414062E-4 2.359375 -0.65582275q0.953125 -0.6716919 1.34375 -1.7810059l2.34375 4.272461E-4q-0.515625 1.906189 -2.109375 3.0933838q-1.578125 1.1871948 -3.9375 1.1867676q-1.875 -3.6621094E-4 -3.34375 -0.84436035q-1.46875 -0.84399414 -2.3125 -2.3910522q-0.84375 -1.5469971 -0.84375 -3.578247q0 -2.046875 0.8125 -3.578003q0.8125 -1.5467529 2.28125 -2.3745728q1.484375 -0.82788086 3.40625 -0.82751465q1.875 3.6621094E-4 3.3125 0.82873535q1.4375 0.81274414 2.21875 2.2504272q0.78125 1.4219971 0.78125 3.218872zm-2.25 -0.45355225q0 -1.25 -0.5625 -2.140686q-0.546875 -0.9063721 -1.5 -1.3753052q-0.9375 -0.4689331 -2.09375 -0.4691162q-1.65625 -3.0517578E-4 -2.828125 1.0619507q-1.15625 1.0466919 -1.328125 2.9216309l8.3125 0.0015258789z" fill-rule="nonzero"/><path fill="#000000" fill-opacity="0.0" d="m380.17584 233.6852l0 0c0 -4.5024414 3.6499634 -8.151871 8.152405 -8.15123l204.76605 0.029174805c2.1621704 3.0517578E-4 4.235779 0.8595123 5.7646484 2.3886108c1.5288696 1.5290833 2.3877563 3.6027985 2.3877563 5.7649536l0 32.60858c0 4.5024414 -3.6499634 8.151886 -8.152405 8.151245l-204.76605 -0.029174805c-4.5024414 -6.4086914E-4 -8.152405 -3.651123 -8.152405 -8.153564z" fill-rule="evenodd"/><path stroke="#8d3aed" stroke-width="3.0" stroke-linejoin="round" stroke-linecap="butt" d="m380.17584 233.6852l0 0c0 -4.5024414 3.6499634 -8.151871 8.152405 -8.15123l204.76605 0.029174805c2.1621704 3.0517578E-4 4.235779 0.8595123 5.7646484 2.3886108c1.5288696 1.5290833 2.3877563 3.6027985 2.3877563 5.7649536l0 32.60858c0 4.5024414 -3.6499634 8.151886 -8.152405 8.151245l-204.76605 -0.029174805c-4.5024414 -6.4086914E-4 -8.152405 -3.651123 -8.152405 -8.153564z" fill-rule="evenodd"/><path fill="#ffffff" d="m461.7224 257.0461q-1.296875 -1.8310547E-4 -2.3125 -0.4534607q-1.015625 -0.45324707 -1.59375 -1.2658386q-0.578125 -0.8125763 -0.59375 -1.8750916l1.8125 2.593994E-4q0.09375 0.90626526 0.75 1.5313568q0.671875 0.6251068 1.9375 0.62527466q1.203125 1.8310547E-4 1.90625 -0.59347534q0.703125 -0.6092682 0.703125 -1.5623932q0 -0.75 -0.421875 -1.218811q-0.40625 -0.46881104 -1.015625 -0.7032776q-0.609375 -0.2500763 -1.65625 -0.5158539q-1.296875 -0.3439331 -2.078125 -0.6721649q-0.765625 -0.34387207 -1.3125 -1.0626984q-0.546875 -0.7188263 -0.546875 -1.9375763q0 -1.0625 0.53125 -1.8749237q0.546875 -0.8280487 1.515625 -1.2654114q0.984375 -0.45298767 2.265625 -0.45280457q1.828125 2.593994E-4 2.984375 0.92230225q1.171875 0.90641785 1.3125 2.4220734l-1.859375 -2.746582E-4q-0.09375 -0.75001526 -0.78125 -1.3126068q-0.6875 -0.5782318 -1.828125 -0.5783844q-1.0625 -1.5258789E-4 -1.734375 0.56225586q-0.671875 0.5467682 -0.671875 1.5311432q0 0.703125 0.390625 1.156311q0.40625 0.45318604 0.984375 0.6876373q0.59375 0.21884155 1.65625 0.53149414q1.296875 0.3439331 2.078125 0.6877899q0.78125 0.3438568 1.34375 1.0626984q0.5625 0.7188263 0.5625 1.9532013q0 0.953125 -0.515625 1.7967987q-0.5 0.8280487 -1.484375 1.3591614q-0.984375 0.5154724 -2.328125 0.5152893zm8.888702 -8.9518585l0 6.03125q0 0.75 0.3125 1.0625458q0.328125 0.29692078 1.109375 0.29704285l1.25 1.6784668E-4l0 1.4375l-1.53125 -2.1362305E-4q-1.40625 -2.1362305E-4 -2.125 -0.6565552q-0.703125 -0.65634155 -0.703125 -2.1407166l0 -6.03125l-1.328125 -1.9836426E-4l0 -1.390625l1.328125 1.9836426E-4l0 -2.578125l1.6875 2.2888184E-4l0 2.578125l2.671875 3.8146973E-4l0 1.390625l-2.671875 -3.8146973E-4zm4.0877686 3.67247q0 -1.5625 0.640625 -2.7342834q0.640625 -1.1874084 1.75 -1.8435059q1.109375 -0.6560974 2.46875 -0.65589905q1.34375 1.9836426E-4 2.328125 0.5784607q0.984375 0.5782623 1.46875 1.4533234l0 -1.859375l1.71875 2.4414062E-4l0 10.21875l-1.71875 -2.4414062E-4l0 -1.90625q-0.5 0.90618896 -1.5 1.4997864q-1.0 0.5780029 -2.3125 0.5777893q-1.375 -1.8310547E-4 -2.46875 -0.6722107q-1.09375 -0.6720276 -1.734375 -1.8752441q-0.640625 -1.2188416 -0.640625 -2.7813416zm8.65625 0.032470703q0 -1.15625 -0.46875 -2.015686q-0.453125 -0.85943604 -1.25 -1.3126831q-0.796875 -0.4688568 -1.75 -0.46899414q-0.953125 -1.373291E-4 -1.734375 0.45288086q-0.78125 0.4530182 -1.25 1.3123169q-0.46875 0.84368896 -0.46875 1.999939q0 1.1875 0.46875 2.062561q0.46875 0.8594513 1.25 1.3126831q0.78125 0.4532318 1.734375 0.45336914q0.953125 1.373291E-4 1.75 -0.45288086q0.796875 -0.45300293 1.25 -1.3123169q0.46875 -0.87493896 0.46875 -2.031189zm10.299133 5.126465l-4.0 -4.5161896l0 4.5156403l-1.703125 -2.4414062E-4l0 -13.812515l1.703125 2.4414062E-4l0 8.125l3.9375 -4.5306854l2.359375 3.3569336E-4l-4.8125 5.0930634l4.828125 5.1256866l-2.3125 -3.3569336E-4zm4.779846 -11.889938q-0.484375 -6.1035156E-5 -0.828125 -0.32824707q-0.328125 -0.34379578 -0.328125 -0.8281708q0 -0.484375 0.328125 -0.8124542q0.34375 -0.34368896 0.828125 -0.34362793q0.46875 7.6293945E-5 0.796875 0.34387207q0.328125 0.32817078 0.328125 0.8125458q0 0.484375 -0.328125 0.8280792q-0.328125 0.32807922 -0.796875 0.32800293zm0.828125 1.6719971l0 10.218735l-1.703125 -2.1362305E-4l0 -10.218765l1.703125 2.4414062E-4zm7.8706665 -0.18638611q1.859375 2.746582E-4 3.015625 1.1254425q1.15625 1.1251526 1.15625 3.2501526l0 6.0312653l-1.671875 -2.4414062E-4l0 -5.78125q0 -1.53125 -0.765625 -2.3438568q-0.765625 -0.8126221 -2.09375 -0.8128052q-1.34375 -1.8310547E-4 -2.140625 0.8434448q-0.78125 0.8436432 -0.78125 2.4373932l0 5.65625l-1.703125 -2.4414062E-4l0 -10.21875l1.703125 2.4414062E-4l0 1.453125q0.5 -0.78118896 1.359375 -1.2029419q0.875 -0.43736267 1.921875 -0.43722534zm11.174408 0.017227173q1.328125 1.8310547E-4 2.3125 0.57844543q1.0 0.5782776 1.484375 1.4533386l0 -1.859375l1.71875 2.4414062E-4l0 10.4375q0 1.40625 -0.59375 2.4999084q-0.59375 1.093689 -1.703125 1.7028809q-1.109375 0.6092224 -2.59375 0.6090088q-2.015625 -2.746582E-4 -3.359375 -0.95358276q-1.34375 -0.9377136 -1.578125 -2.5783691l1.671875 2.4414062E-4q0.28125 0.9219055 1.15625 1.4845276q0.890625 0.5782776 2.109375 0.5784302q1.40625 2.1362305E-4 2.28125 -0.8746643q0.890625 -0.8748779 0.890625 -2.468628l0 -2.140625q-0.5 0.89056396 -1.484375 1.4997864q-0.984375 0.5936279 -2.3125 0.5934143q-1.359375 -1.8310547E-4 -2.46875 -0.6722107q-1.109375 -0.67204285 -1.75 -1.8752594q-0.640625 -1.2188416 -0.640625 -2.7813416q0 -1.5625 0.640625 -2.7342834q0.640625 -1.1874084 1.75 -1.8434906q1.109375 -0.6560974 2.46875 -0.65589905zm3.796875 5.266159q0 -1.15625 -0.46875 -2.015686q-0.453125 -0.85943604 -1.25 -1.3126831q-0.796875 -0.4688568 -1.75 -0.46899414q-0.953125 -1.373291E-4 -1.734375 0.45288086q-0.78125 0.45300293 -1.25 1.3123169q-0.46875 0.84368896 -0.46875 1.999939q0 1.1875 0.46875 2.062561q0.46875 0.85943604 1.25 1.3126831q0.78125 0.4532318 1.734375 0.45336914q0.953125 1.373291E-4 1.75 -0.45288086q0.796875 -0.45300293 1.25 -1.3123169q0.46875 -0.87493896 0.46875 -2.031189z" fill-rule="nonzero"/><path fill="#000000" fill-opacity="0.0" d="m485.98688 169.0684l0 0c0 -4.5024414 3.6499634 -8.151398 8.152405 -8.150162l98.970764 0.027038574c2.1621704 5.950928E-4 4.235779 0.86006165 5.7646484 2.3893585c1.5288696 1.5292816 2.3877563 3.6031036 2.3877563 5.765259l0 32.608597c0 4.5024414 -3.6499634 8.151398 -8.152405 8.150162l-98.970764 -0.027038574c-4.5024414 -0.0012207031 -8.152405 -3.652176 -8.152405 -8.154617z" fill-rule="evenodd"/><path stroke="#8d3aed" stroke-width="3.0" stroke-linejoin="round" stroke-linecap="butt" d="m485.98688 169.0684l0 0c0 -4.5024414 3.6499634 -8.151398 8.152405 -8.150162l98.970764 0.027038574c2.1621704 5.950928E-4 4.235779 0.86006165 5.7646484 2.3893585c1.5288696 1.5292816 2.3877563 3.6031036 2.3877563 5.765259l0 32.608597c0 4.5024414 -3.6499634 8.151398 -8.152405 8.150162l-98.970764 -0.027038574c-4.5024414 -0.0012207031 -8.152405 -3.652176 -8.152405 -8.154617z" fill-rule="evenodd"/><path fill="#ffffff" d="m503.1717 179.43927q1.96875 5.340576E-4 3.421875 0.7353058q1.453125 0.7347717 2.21875 2.1099854q0.765625 1.3752136 0.765625 3.2189636q0 1.859375 -0.765625 3.2185364q-0.765625 1.3591614 -2.21875 2.0775146q-1.453125 0.7183533 -3.421875 0.7178192l-3.765625 -0.0010223389l0 -12.078125l3.765625 0.0010223389zm0 10.78125q2.34375 6.4086914E-4 3.5625 -1.2333984q1.234375 -1.2496643 1.234375 -3.4840393q0 -2.25 -1.234375 -3.5159607q-1.234375 -1.2659607 -3.5625 -1.2666016l-2.1875 -5.950928E-4l0 9.5l2.1875 5.950928E-4zm13.969666 1.4256897q-1.6875 -4.5776367E-4 -3.078125 -0.78208923q-1.375 -0.7972412 -2.1875 -2.20372q-0.796875 -1.4220886 -0.796875 -3.1877136q0 -1.765625 0.796875 -3.1716614q0.8125 -1.4216461 2.1875 -2.20253q1.390625 -0.79649353 3.078125 -0.79603577q1.703125 4.7302246E-4 3.078125 0.79771423q1.390625 0.78163147 2.1875 2.1881104q0.796875 1.4064636 0.796875 3.1877136q0 1.78125 -0.796875 3.1872864q-0.796875 1.4060211 -2.1875 2.2025146q-1.375 0.7808838 -3.078125 0.78041077zm0 -1.375q1.265625 3.5095215E-4 2.28125 -0.5774994q1.015625 -0.59347534 1.59375 -1.6870575q0.578125 -1.0935974 0.578125 -2.5310974q0 -1.453125 -0.578125 -2.5314026q-0.578125 -1.0939178 -1.59375 -1.6723175q-1.0 -0.59402466 -2.28125 -0.5943756q-1.28125 -3.5095215E-4 -2.296875 0.5931244q-1.0 0.57785034 -1.578125 1.6714478q-0.578125 1.0779724 -0.578125 2.5310974q0 1.4375 0.578125 2.5314026q0.578125 1.0939026 1.59375 1.6879272q1.015625 0.5784149 2.28125 0.5787506zm15.572937 -10.823868l0 1.28125l-3.296875 -9.0026855E-4l0 10.796875l-1.5625 -4.272461E-4l0 -10.796875l-3.3125 -9.0026855E-4l0 -1.28125l8.171875 0.0022277832zm14.001099 0.003829956l0 1.28125l-3.296875 -9.0026855E-4l0 10.796875l-1.5625 -4.272461E-4l0 -10.796875l-3.3125 -9.0026855E-4l0 -1.28125l8.171875 0.0022277832zm6.0775757 12.236038q-1.328125 -3.6621094E-4 -2.421875 -0.6100464q-1.078125 -0.6096649 -1.6875 -1.7192078q-0.609375 -1.1251678 -0.609375 -2.5939178q0 -1.453125 0.625 -2.5623322q0.640625 -1.1248169 1.71875 -1.718277q1.09375 -0.6090698 2.453125 -0.6087036q1.34375 3.6621094E-4 2.4375 0.6100464q1.09375 0.5940399 1.71875 1.703598q0.640625 1.1095428 0.640625 2.5782928q0 1.46875 -0.65625 2.593567q-0.640625 1.1092072 -1.75 1.718277q-1.109375 0.6090698 -2.46875 0.6087036zm0 -1.390625q0.859375 2.2888184E-4 1.59375 -0.39019775q0.75 -0.40603638 1.203125 -1.2027893q0.46875 -0.7967529 0.46875 -1.9373779q0 -1.140625 -0.453125 -1.9376221q-0.453125 -0.7969971 -1.1875 -1.1878204q-0.71875 -0.39082336 -1.5625 -0.39105225q-0.875 -2.4414062E-4 -1.59375 0.3901825q-0.71875 0.39042664 -1.15625 1.1871948q-0.421875 0.7967529 -0.421875 1.9373779q0 1.15625 0.421875 1.9532471q0.421875 0.7969818 1.125 1.1878052q0.71875 0.39082336 1.5625 0.39105225zm12.26178 1.2377167l-3.734375 -4.1885223l0 4.1875l-1.578125 -4.272461E-4l0 -12.828125l1.578125 4.272461E-4l0 7.546875l3.65625 -4.217743l2.203125 5.950928E-4l-4.46875 4.7331543l4.484375 4.766861l-2.140625 -5.950928E-4zm12.283325 -5.106018q0 0.453125 -0.046875 0.95310974l-7.59375 -0.0020751953q0.078125 1.4062805 0.953125 2.2033844q0.875 0.78149414 2.125 0.7818451q1.03125 2.746582E-4 1.703125 -0.46829224q0.6875 -0.4841919 0.96875 -1.2809906l1.703125 4.7302246E-4q-0.390625 1.3592682 -1.53125 2.2183228q-1.140625 0.8590698 -2.84375 0.85861206q-1.34375 -3.8146973E-4 -2.421875 -0.6100464q-1.0625 -0.6096649 -1.671875 -1.7192078q-0.59375 -1.1251526 -0.59375 -2.5939026q0 -1.46875 0.578125 -2.5779724q0.59375 -1.1092072 1.65625 -1.7026672q1.078125 -0.6090851 2.453125 -0.6087036q1.359375 3.6621094E-4 2.390625 0.59439087q1.046875 0.5940399 1.609375 1.6254425q0.5625 1.0314026 0.5625 2.3282776zm-1.625 -0.3285675q0 -0.90625 -0.40625 -1.5469818q-0.390625 -0.6563568 -1.078125 -0.9846649q-0.6875 -0.34394836 -1.515625 -0.34417725q-1.203125 -3.2043457E-4 -2.046875 0.7650757q-0.828125 0.7497711 -0.953125 2.1091156l6.0 0.0016326904zm8.321533 -4.2321014q1.734375 4.7302246E-4 2.8125 1.0476379q1.078125 1.0471802 1.078125 3.0315552l0 5.59375l-1.5625 -4.272461E-4l0 -5.375q0 -1.421875 -0.71875 -2.1720734q-0.703125 -0.75019836 -1.9375 -0.75053406q-1.234375 -3.3569336E-4 -1.984375 0.78071594q-0.734375 0.78105164 -0.734375 2.2654266l0 5.25l-1.578125 -4.4250488E-4l0 -9.5l1.578125 4.4250488E-4l0 1.359375q0.46875 -0.7342529 1.265625 -1.1246643q0.8125 -0.40602112 1.78125 -0.40576172z" fill-rule="nonzero"/></g></svg>
