<svg version="1.1" viewBox="0.0 0.0 760.6220472440945 791.6666666666666" fill="none" stroke="none" stroke-linecap="square" stroke-miterlimit="10" xmlns:xlink="http://www.w3.org/1999/xlink" xmlns="http://www.w3.org/2000/svg"><clipPath id="p.0"><path d="m0 0l760.6221 0l0 791.6667l-760.6221 0l0 -791.6667z" clip-rule="nonzero"/></clipPath><g clip-path="url(#p.0)"><path fill="#000000" fill-opacity="0.0" d="m0 0l760.6221 0l0 791.6667l-760.6221 0z" fill-rule="evenodd"/><path fill="#434343" d="m25.498688 540.31647l0 0c0 -6.5463867 5.306883 -11.85199 11.853256 -11.850342l617.7738 0.15161133c3.1436768 7.9345703E-4 6.1586304 1.2503662 8.381531 3.473816c2.2229004 2.2234497 3.4717407 5.2387085 3.4717407 8.382385l0 47.41162c0 6.5463257 -5.306885 11.851929 -11.8532715 11.850342l-617.7738 -0.15167236c-6.5463734 -0.0016479492 -11.853256 -5.3098145 -11.853256 -11.856201z" fill-rule="evenodd"/><path fill="#ffffff" d="m323.18152 547.78345l-0.359375 1.578064q-0.703125 0.031066895 -1.75 0.18707275q-1.03125 0.15594482 -1.78125 0.39013672q-0.9375 0.3123169 -1.328125 0.9528198q-0.390625 0.62493896 -0.609375 1.4842529l-4.578125 20.37384q-0.359375 1.609314 -1.359375 3.4059448q-1.0 1.7966309 -2.578125 3.2180786q-1.65625 1.5152588 -3.734375 2.4522095q-2.0625 0.9370117 -4.828125 0.93634033q-3.375 -8.544922E-4 -5.40625 -1.6732178q-2.015625 -1.6879883 -2.015625 -4.6879883q0 -2.375 1.203125 -4.155945q1.1875 -1.7809448 3.109375 -1.7805176q1.4375 3.6621094E-4 2.03125 0.7036743q0.609375 0.6876221 0.609375 1.6251221q0 0.84375 -0.40625 1.7342529q-0.40625 0.89056396 -1.0625 1.7341309q-0.578125 0.7498779 -1.28125 1.5621948q-0.6875 0.7966919 -1.078125 1.3591309q0.359375 0.71881104 1.34375 1.2971802q1.0 0.57836914 2.953125 0.5788574q1.75 4.272461E-4 3.03125 -0.7961426q1.296875 -0.8121948 2.140625 -2.1713257q0.84375 -1.3435669 1.453125 -3.1715088q0.625 -1.8280029 1.125 -4.093506l4.09375 -18.217712q0.03125 -0.109375 0.0625 -0.34375q0.03125 -0.25 0.03125 -0.4375q0 -0.515625 -0.21875 -0.92193604q-0.203125 -0.40631104 -0.734375 -0.7033081q-0.625 -0.37512207 -1.84375 -0.57855225q-1.203125 -0.21905518 -1.78125 -0.26605225l0.375 -1.578064l15.171875 0.0037231445zm17.484283 20.301147l-2.140625 -13.344238l-8.1875 13.341736l10.328125 0.0025024414zm-3.6875 13.8741455l0.359375 -1.593689q0.75 -0.062316895 1.75 -0.18707275q1.0 -0.14038086 1.546875 -0.3121338q0.75 -0.2498169 1.125 -0.49969482q0.375 -0.26556396 0.375 -0.82806396q0 -0.1875 -0.296875 -2.359436q-0.28125 -2.171936 -0.8125 -6.093933l-12.0 -0.0029296875q-0.796875 1.2497559 -1.6875 2.9058228q-0.890625 1.6403809 -1.375 2.5152588q-0.421875 0.76556396 -0.828125 1.7185669q-0.390625 0.9530029 -0.390625 1.2655029q0 0.796875 1.265625 1.2815552q1.28125 0.4847412 3.21875 0.59454346l-0.375 1.593689l-13.125 -0.0032348633l0.359375 -1.5936279q0.640625 -0.04675293 1.640625 -0.2652588q1.0 -0.23413086 1.671875 -0.62457275q0.84375 -0.4841919 1.625 -1.1871338q0.78125 -0.71850586 1.671875 -2.1401978q4.171875 -6.5927124 9.140625 -14.685242q4.96875 -8.092529 8.75 -14.154114l1.9375 4.8828125E-4l4.546875 29.594849q0.140625 0.89068604 0.46875 1.5157471q0.34375 0.60943604 1.015625 1.1408691q0.484375 0.32824707 1.296875 0.5628052q0.828125 0.23461914 1.453125 0.2503662l-0.359375 1.593689l-13.96875 -0.0034179688zm64.06293 -34.15619l-0.359375 1.578064q-0.6875 0.031066895 -1.78125 0.23394775q-1.078125 0.18719482 -1.609375 0.34332275q-0.9375 0.31225586 -1.359375 0.9996948q-0.40625 0.6717529 -0.59375 1.4373169l-5.75 24.873596q-0.046875 0.203125 -0.078125 0.453125q-0.03125 0.234375 -0.03125 0.375q0 0.5 0.21875 0.90631104q0.21875 0.39068604 0.734375 0.7033081q0.328125 0.21881104 1.421875 0.43780518q1.09375 0.21905518 1.71875 0.23480225l-0.375 1.593689l-15.0625 -0.0037231445l0.390625 -1.5936279q0.875 -0.046691895 2.171875 -0.17138672q1.296875 -0.14025879 1.828125 -0.40576172q0.84375 -0.4529419 1.359375 -1.0465698q0.515625 -0.6092529 0.6875 -1.4841919l5.90625 -25.45166l-0.265625 -6.1035156E-5l-18.671875 29.604797l-1.125 -3.0517578E-4l-4.296875 -30.219788l-0.234375 -6.1035156E-5l-4.84375 21.014404q-0.296875 1.265564 -0.484375 2.484253q-0.1875 1.203125 -0.1875 1.9375q0 0.796875 0.15625 1.375q0.171875 0.56256104 0.484375 0.9219971q0.4375 0.5001221 1.828125 0.9223633q1.40625 0.40655518 2.203125 0.5161133l-0.390625 1.593689l-13.796875 -0.0034179688l0.390625 -1.5936279q1.125 -0.10913086 2.25 -0.32757568q1.140625 -0.21844482 2.109375 -0.8276367q0.953125 -0.64038086 1.625 -2.1089478q0.6875 -1.4685669 1.375 -4.624634l4.09375 -17.733398q0.125 -0.54681396 0.1875 -0.98431396q0.0625 -0.453125 0.0625 -0.890625q0 -0.765625 -0.203125 -1.281311q-0.1875 -0.53131104 -0.5 -0.8907471q-0.625 -0.7032471 -1.703125 -0.98480225q-1.0625 -0.29711914 -1.953125 -0.34423828l0.359375 -1.5780029l11.515625 0.0028076172l3.734375 25.688416l13.28125 -21.496704q0.75 -1.2341919 1.375 -2.5309448q0.625 -1.2966919 0.734375 -1.6560669l11.453125 0.0028076172z" fill-rule="nonzero"/><path fill="#000000" fill-opacity="0.0" d="m25.498688 117.91758l0 0c0 -43.43277 35.209217 -78.63335 78.64199 -78.62268l484.19635 0.11886978c20.857117 0.0051193237 40.860046 8.295502 55.608276 23.04736c14.74823 14.75185 23.033691 34.756786 23.033691 55.61394l0 314.55853c0 43.43277 -35.20923 78.63333 -78.64197 78.62268l-484.19635 -0.11886597c-43.432774 -0.010681152 -78.64199 -35.228516 -78.64199 -78.661316z" fill-rule="evenodd"/><path stroke="#25cc85" stroke-width="3.0" stroke-linejoin="round" stroke-linecap="butt" d="m25.498688 117.91758l0 0c0 -43.43277 35.209217 -78.63335 78.64199 -78.62268l484.19635 0.11886978c20.857117 0.0051193237 40.860046 8.295502 55.608276 23.04736c14.74823 14.75185 23.033691 34.756786 23.033691 55.61394l0 314.55853c0 43.43277 -35.20923 78.63333 -78.64197 78.62268l-484.19635 -0.11886597c-43.432774 -0.010681152 -78.64199 -35.228516 -78.64199 -78.661316z" fill-rule="evenodd"/><path fill="#999999" d="m51.71981 164.07126l0 0c0 -6.958069 5.6406174 -12.597137 12.598679 -12.595245l90.07824 0.024612427c3.3413696 9.1552734E-4 6.5458984 1.3291473 8.9086 3.692505c2.3627167 2.3633575 3.6900787 5.5682373 3.6900787 8.909622l0 50.39319c0 6.9580536 -5.640625 12.597137 -12.598679 12.595245l-90.07824 -0.024612427c-6.958061 -0.0019073486 -12.598679 -5.6440735 -12.598679 -12.602127z" fill-rule="evenodd"/><path fill="#ffffff" d="m109.40194 195.53299q-0.453125 -1.2207031E-4 -0.765625 -0.31271362q-0.3125 -0.31259155 -0.3125 -0.76571655q0 -0.453125 0.3125 -0.76553345q0.3125 -0.31240845 0.765625 -0.31228638q0.421875 1.0681152E-4 0.71875 0.31269836q0.3125 0.3125763 0.3125 0.7657013q0 0.453125 -0.3125 0.7655487q-0.296875 0.31240845 -0.71875 0.31230164zm3.265625 8.8500977E-4q-0.453125 -1.2207031E-4 -0.765625 -0.31271362q-0.3125 -0.3125763 -0.3125 -0.7657013q0 -0.453125 0.3125 -0.7655487q0.3125 -0.31240845 0.765625 -0.31228638q0.421875 1.2207031E-4 0.71875 0.31269836q0.3125 0.31259155 0.3125 0.76571655q0 0.453125 -0.3125 0.76553345q-0.296875 0.3124237 -0.71875 0.31230164zm-6.5 -0.0017700195q-0.453125 -1.2207031E-4 -0.765625 -0.31271362q-0.3125 -0.31259155 -0.3125 -0.76571655q0 -0.453125 0.3125 -0.76553345q0.3125 -0.31240845 0.765625 -0.31228638q0.421875 1.0681152E-4 0.71875 0.31269836q0.3125 0.3125763 0.3125 0.7657013q0 0.453125 -0.3125 0.7655487q-0.296875 0.31240845 -0.71875 0.31230164z" fill-rule="nonzero"/><path fill="#8d3aed" d="m471.34204 206.22707l0 0c0 -4.0327606 3.2691956 -7.3006134 7.3019714 -7.298935l61.018097 0.025421143c1.9365845 7.9345703E-4 3.7938843 0.7708893 5.163269 2.1408386c1.3693848 1.3699646 2.1386719 3.2275696 2.1386719 5.1641846l0 29.207047c0 4.032776 -3.269165 7.3006287 -7.301941 7.29895l-61.018097 -0.025421143c-4.032776 -0.0016784668 -7.3019714 -3.2722473 -7.3019714 -7.305023z" fill-rule="evenodd"/><path fill="#ffffff" d="m506.69232 229.52596q-0.625 -2.593994E-4 -1.0625 -0.4223175q-0.421875 -0.4376831 -0.421875 -1.0626831q0 -0.625 0.421875 -1.0466919q0.4375 -0.4373169 1.0625 -0.4370575q0.59375 2.4414062E-4 1.015625 0.437912q0.421875 0.4220581 0.421875 1.0470581q0 0.625 -0.421875 1.0623169q-0.421875 0.42170715 -1.015625 0.421463zm4.515625 0.001876831q-0.625 -2.593994E-4 -1.0625 -0.4223175q-0.421875 -0.4376831 -0.421875 -1.0626831q0 -0.625 0.421875 -1.0466919q0.4375 -0.4373169 1.0625 -0.4370575q0.59375 2.4414062E-4 1.015625 0.43792725q0.421875 0.42204285 0.421875 1.0470428q0 0.625 -0.421875 1.0623322q-0.421875 0.4216919 -1.015625 0.42144775zm-9.0 -0.003753662q-0.625 -2.593994E-4 -1.0625 -0.4223175q-0.421875 -0.43766785 -0.421875 -1.0626678q0 -0.625 0.421875 -1.0467072q0.4375 -0.4373169 1.0625 -0.4370575q0.59375 2.4414062E-4 1.015625 0.43792725q0.421875 0.42204285 0.421875 1.0470428q0 0.625 -0.421875 1.0623322q-0.421875 0.4216919 -1.015625 0.42144775zm13.94397 0.0058135986q-0.625 -2.593994E-4 -1.0625 -0.4223175q-0.421875 -0.4376831 -0.421875 -1.0626831q0 -0.625 0.421875 -1.0466919q0.4375 -0.4373169 1.0625 -0.4370575q0.59375 2.4414062E-4 1.015625 0.43792725q0.421875 0.42204285 0.421875 1.0470428q0 0.625 -0.421875 1.0623322q-0.421875 0.4216919 -1.015625 0.42144775z" fill-rule="nonzero"/><path fill="#999999" d="m51.719456 273.49005l0 0c0 -15.438171 12.515125 -27.949326 27.953312 -27.944397l141.85715 0.045181274c7.413681 0.0023651123 14.523712 2.9496918 19.765976 8.193634c5.242264 5.2439423 8.187332 12.354904 8.187332 19.76857l0 111.809906c0 15.438202 -12.515121 27.94934 -27.953308 27.944427l-141.85715 -0.045196533c-15.438187 -0.00491333 -27.953312 -12.524017 -27.953312 -27.96222z" fill-rule="evenodd"/><path fill="#ffffff" d="m91.8836 341.93906q-1.765625 -5.79834E-4 -3.34375 -0.6104431q-1.578125 -0.6255188 -2.75 -1.813385q-1.1875 -1.2034912 -1.875 -2.9068298q-0.671875 -1.7189636 -0.671875 -3.8595886q0 -3.078125 1.03125 -5.749695q1.046875 -2.6715393 2.875 -4.7647095q1.765625 -2.0150452 4.21875 -3.2330322q2.46875 -1.2179565 5.15625 -1.217102q2.03125 6.4086914E-4 3.5625 0.46987915q1.546875 0.4692688 2.546875 1.172699l0.90625 -1.1091003l1.296875 4.272461E-4l-1.75 8.233826l-1.34375 -4.272461E-4l0 -0.65625q0 -1.328125 -0.21875 -2.5313416q-0.203125 -1.218811 -0.796875 -2.2033691q-0.59375 -0.9376831 -1.609375 -1.5005188q-1.015625 -0.5628052 -2.59375 -0.563324q-2.0 -6.4086914E-4 -3.71875 1.0769348q-1.71875 1.0619812 -2.96875 2.827179q-1.234375 1.7183838 -1.984375 4.2493896q-0.75 2.5153809 -0.75 5.140381q0 3.46875 1.703125 5.6255493q1.703125 2.1567993 4.5625 2.1576843q2.390625 7.6293945E-4 4.390625 -1.4048462q2.015625 -1.4212341 3.296875 -3.795807l1.171875 0.6097412q-2.0625 3.4993286 -4.59375 4.936035q-2.515625 1.4210815 -5.75 1.420044zm27.946533 -10.553589q0 1.921875 -0.65625 3.8435364q-0.640625 1.9216614 -1.890625 3.3743896q-1.25 1.4996033 -3.015625 2.4052734q-1.765625 0.8900757 -4.09375 0.88934326q-2.703125 -8.544922E-4 -4.390625 -1.7357788q-1.671875 -1.7505493 -1.671875 -4.6880493q0 -2.171875 0.703125 -4.031006q0.71875 -1.8747864 1.9375 -3.2962646q1.21875 -1.4058533 3.015625 -2.2802734q1.796875 -0.8744507 3.890625 -0.8737793q2.90625 9.1552734E-4 4.53125 1.7670593q1.640625 1.7661743 1.640625 4.6255493zm-3.328125 -0.6104431q0 -2.3125 -0.828125 -3.4690247q-0.8125 -1.1564941 -2.359375 -1.1569824q-1.34375 -4.5776367E-4 -2.546875 0.827301q-1.1875 0.8277588 -2.046875 2.7024841q-0.671875 1.4216614 -0.984375 3.1559143q-0.3125 1.7342834 -0.3125 3.1874084q0 2.328125 0.796875 3.5314941q0.8125 1.1877747 2.453125 1.1882935q1.4375 4.5776367E-4 2.5625 -0.905426q1.125 -0.9059143 1.828125 -2.3119202q0.6875 -1.3591614 1.0625 -3.1246643q0.375 -1.7655029 0.375 -3.624878zm19.947716 -3.1186523q0 0.453125 -0.140625 0.9999695q-0.125 0.54681396 -0.375 0.9061279q-0.28125 0.43740845 -0.640625 0.6716614q-0.34375 0.23425293 -1.0 0.2340393q-0.875 -2.746582E-4 -1.3125 -0.43789673q-0.4375 -0.4376526 -0.4375 -0.9845276q0 -0.5 0.234375 -1.1249084q0.25 -0.62493896 0.515625 -1.2498474q-0.203125 -6.1035156E-5 -0.65625 0.10916138q-0.4375 0.10925293 -1.078125 0.4215393q-0.625 0.31228638 -1.4375 0.93704224q-0.8125 0.60910034 -1.71875 1.6244507l-2.6249924 11.655426l-3.015625 -9.765625E-4l2.375 -10.546112q0.078125 -0.39059448 0.234375 -1.171814q0.15625 -0.78118896 0.15625 -1.156189q0 -0.90625 -0.3125 -1.2188416q-0.3125 -0.31262207 -1.234375 -0.31289673q-0.359375 -1.2207031E-4 -0.921875 0.124694824q-0.546875 0.12484741 -0.859375 0.20285034l0.25 -1.0467834q1.265625 -0.5621033 2.234375 -0.8274231q0.984375 -0.28094482 1.6875 -0.28070068q1.296875 3.9672852E-4 1.8437424 0.70370483q0.5625 0.7033081 0.5625 2.125183l0.09375 3.0517578E-5q1.9375 -1.6712646 2.9375 -2.342804q1.0 -0.6715698 2.09375 -0.67123413q0.515625 1.8310547E-4 1.0 0.1409607q0.5 0.12515259 0.84375 0.43777466q0.359375 0.32821655 0.53125 0.7814026q0.171875 0.45318604 0.171875 1.296936zm14.909714 0.73913574q0 1.71875 -1.078125 2.9527588q-1.078125 1.2340393 -3.140625 1.9677734q-1.515625 0.5620117 -3.0625 0.90527344q-1.546875 0.3276062 -3.421875 0.56140137q0 2.578125 0.953125 3.9378052q0.953125 1.3596802 2.796875 1.36026q1.625 5.187988E-4 2.859375 -0.8115845q1.25 -0.8277283 2.453125 -2.4367065l0.9375 0.68777466q-1.3125 1.9839783 -3.265625 3.1708374q-1.953125 1.1868896 -4.046875 1.1862183q-2.875 -9.1552734E-4 -4.40625 -1.6107788q-1.515625 -1.6098633 -1.515625 -4.5786133q0 -2.046875 0.640625 -3.9060364q0.640625 -1.8591614 1.875 -3.4056702q1.203125 -1.5152283 2.953125 -2.436554q1.75 -0.9369507 3.875 -0.9362488q2.34375 7.324219E-4 3.46875 0.95422363q1.125 0.9534912 1.125 2.4378662zm-2.984375 -0.40722656q0 -0.640625 -0.1875 -1.0000305q-0.171875 -0.37506104 -0.453125 -0.5470276q-0.296875 -0.20321655 -0.625 -0.25021362q-0.3125 -0.046966553 -0.65625 -0.047088623q-1.953125 -6.1035156E-4 -3.609375 2.1551208q-1.65625 2.1400757 -2.09375 5.3430786q1.140625 -0.15588379 2.578125 -0.45230103q1.4375 -0.31204224 2.375 -0.79611206q1.34375 -0.70269775 2.0 -1.7962646q0.671875 -1.0935364 0.671875 -2.6091614zm24.985825 -4.992035q0 1.96875 -0.875 3.5153503q-0.859375 1.5466003 -2.21875 2.561798q-1.4375 1.0776672 -3.21875 1.6239624q-1.765625 0.5463257 -3.703125 0.54571533l-2.8125 -9.1552734E-4l-1.671875 7.124481q-0.03125 0.15625 -0.046875 0.31246948q-0.015625 0.15625 -0.015625 0.28125q0 0.359375 0.125 0.64068604q0.140625 0.26565552 0.53125 0.4220276q0.25 0.12509155 0.984375 0.21905518q0.734375 0.09399414 1.328125 0.109802246l-0.25 1.078064l-9.90625 -0.0031738281l0.25 -1.0780334q0.40625 -0.03112793 1.140625 -0.10900879q0.75 -0.07788086 1.09375 -0.2184143q0.59375 -0.2185669 0.890625 -0.64035034q0.296875 -0.43737793 0.421875 -1.0154724l3.890625 -16.826904q0.03125 -0.14059448 0.046875 -0.31246948q0.03125 -0.1875 0.03125 -0.34375q0 -0.34375 -0.140625 -0.6250305q-0.125 -0.28128052 -0.484375 -0.4220276q-0.515625 -0.2033081 -1.109375 -0.2972412q-0.578125 -0.093933105 -1.0625 -0.1253357l0.234375 -1.0780334l10.265625 0.0032653809q2.796875 8.8500977E-4 4.53125 1.2514343q1.75 1.2349243 1.75 3.4067993zm-5.203125 4.404602q0.671875 -0.9529114 0.9375 -2.0309448q0.28125 -1.0936584 0.28125 -2.0311584q0 -0.75 -0.203125 -1.406311q-0.203125 -0.67196655 -0.6875 -1.2189941q-0.484375 -0.5157776 -1.25 -0.8128967q-0.765625 -0.31274414 -1.921875 -0.31311035l-2.109375 -6.713867E-4l-2.375 10.327362l1.84375 6.1035156E-4q1.890625 5.79834E-4 3.25 -0.6239624q1.375 -0.64019775 2.234375 -1.8899231zm13.950607 -10.917419l-4.546875 19.592285q-0.140625 0.6249695 -0.28125 1.2499084q-0.125 0.6093445 -0.125 0.9999695q0 0.921875 0.40625 1.2657471q0.421875 0.3439026 1.359375 0.34417725q0.328125 1.2207031E-4 0.96875 -0.077819824q0.640625 -0.07791138 0.96875 -0.2027893l-0.25 1.0467834q-1.46875 0.59329224 -2.265625 0.8273926q-0.78125 0.24975586 -1.765625 0.24945068q-1.3125 -4.272461E-4 -1.984375 -0.67251587q-0.671875 -0.6877136 -0.671875 -1.6720886q0 -0.375 0.0625 -0.7812195q0.078125 -0.40621948 0.21875 -1.031189l3.953125 -17.123749q0.109375 -0.5155945 0.140625 -0.70306396q0.046875 -0.203125 0.046875 -0.484375q0 -0.59375 -0.203125 -0.90631104q-0.1875 -0.32818604 -0.546875 -0.4845581q-0.328125 -0.14071655 -0.859375 -0.18777466q-0.515625 -0.06265259 -1.046875 -0.12530518l0.21875 -0.98431396l6.03125 -0.3730774l0.171875 0.23443604zm11.066223 22.81601l-0.109375 -3.0517578E-5q-0.359375 0.28112793 -0.859375 0.73410034q-0.5 0.4529724 -1.171875 0.8590088q-0.625 0.40603638 -1.375 0.70266724q-0.75 0.29666138 -1.625 0.2963562q-2.359375 -7.324219E-4 -3.703125 -1.6886597q-1.34375 -1.6879272 -1.34375 -4.6254272q0 -2.015625 0.75 -3.9216309q0.75 -1.9060364 2.0625 -3.4212341q1.25 -1.4371033 2.96875 -2.327179q1.734375 -0.8900757 3.5625 -0.88949585q1.15625 3.6621094E-4 2.203125 0.3132019q1.046875 0.3128357 1.65625 0.7036743l2.96875 -0.76467896l0.203125 0.23443604l-2.484375 10.499207q-0.125 0.49993896 -0.265625 1.2342834q-0.140625 0.71868896 -0.140625 1.062439q0 0.921875 0.390625 1.2501526q0.390625 0.32824707 1.328125 0.32852173q0.296875 1.2207031E-4 0.859375 -0.09347534q0.578125 -0.093566895 0.890625 -0.21844482l-0.234375 1.0467834q-1.46875 0.57766724 -2.1875 0.8430481q-0.71875 0.26541138 -1.734375 0.26507568q-1.171875 -3.6621094E-4 -1.859375 -0.68807983q-0.6875 -0.6877136 -0.75 -1.7346191zm2.328125 -10.296143q0 -0.53125 -0.125 -1.0156555q-0.109375 -0.5000305 -0.46875 -0.9220276q-0.328125 -0.40634155 -0.890625 -0.64089966q-0.5625 -0.2501831 -1.4375 -0.25045776q-1.1875 -3.9672852E-4 -2.3125 0.7805176q-1.109375 0.7808838 -2.015625 2.0931091q-0.84375 1.2497253 -1.390625 3.0151672q-0.53125 1.7498474 -0.53125 3.5467224q0 1.0 0.109375 1.7656555q0.125 0.7656555 0.453125 1.3907776q0.3125 0.62509155 0.890625 0.96902466q0.59375 0.3439331 1.484375 0.34420776q0.90625 3.0517578E-4 1.90625 -0.51501465q1.0 -0.5152893 2.265625 -1.7961426l2.0625 -8.764984zm17.104446 10.083588l-0.09375 -3.0517578E-5q-1.5 1.2495117 -2.859375 1.9678345q-1.34375 0.71832275 -3.078125 0.71777344q-1.5625 -4.8828125E-4 -2.46875 -0.90704346q-0.90625 -0.90652466 -0.90625 -2.3752747q0 -0.390625 0.0625 -0.921875q0.0625 -0.5312195 0.3125 -1.5936279l1.265625 -5.0777283q0.171875 -0.73431396 0.265625 -1.2811584q0.109375 -0.5468445 0.109375 -1.0468445q0 -0.90625 -0.3125 -1.2032471q-0.296875 -0.31259155 -1.21875 -0.3128662q-0.359375 -1.2207031E-4 -0.921875 0.14031982q-0.546875 0.124816895 -0.859375 0.20285034l0.25 -1.0311584q1.265625 -0.5777283 2.234375 -0.8586731q0.96875 -0.29656982 1.5625 -0.29638672q1.296875 4.272461E-4 1.921875 0.59436035q0.625 0.5783386 0.625 1.7502136q0 0.28125 -0.0625 0.7968445q-0.0625 0.5 -0.1875 0.99993896l-1.484375 5.937042q-0.171875 0.68743896 -0.28125 1.2811584q-0.109375 0.5937195 -0.109375 0.9062195q0 1.09375 0.53125 1.7345276q0.53125 0.6251831 1.546875 0.6255188q1.1875 3.6621094E-4 2.3125 -0.5773926q1.140625 -0.5933838 2.140625 -1.6243286l2.6875 -12.1710205l2.828125 -0.18658447l0.1875 0.23440552l-2.796875 12.749115q-0.625 2.796692 -1.59375 4.7807617q-0.953125 1.9840698 -2.234375 3.2023926q-1.34375 1.2964478 -2.90625 1.8584595q-1.5625 0.5620117 -3.5625 0.56137085q-1.390625 -4.5776367E-4 -2.203125 -0.2038269q-0.8125 -0.18777466 -1.28125 -0.5160217q-0.46875 -0.3282776 -0.640625 -0.7345886q-0.15625 -0.40631104 -0.15625 -0.81256104q0 -0.703125 0.421875 -1.2498474q0.421875 -0.5311279 1.21875 -0.5308838q0.59375 1.8310547E-4 1.015625 0.3440857q0.4375 0.34387207 0.6875 0.7502136q0.296875 0.43759155 0.53125 0.9845581q0.25 0.56256104 0.40625 0.8907471l0.390625 1.2207031E-4q0.921875 3.0517578E-4 1.953125 -0.46813965q1.03125 -0.4527893 1.890625 -1.4056396q0.9375 -1.0465698 1.671875 -2.6869507q0.75 -1.6404114 1.1875 -3.9371338z" fill-rule="nonzero"/><path fill="#999999" d="m273.59317 117.79442l0 0c0 -31.84761 25.817596 -57.65815 57.66519 -57.649452l230.65387 0.062992096l0 0c15.293762 0.0041770935 29.96112 6.0836067 40.77545 16.900883c10.814331 10.817276 16.88977 25.486305 16.88977 40.78006l0 250.68535c0 31.847626 -25.817627 57.658142 -57.665222 57.649445l-230.65387 -0.06298828l0 0c-31.847595 -0.00869751 -57.66519 -25.833313 -57.66519 -57.68094z" fill-rule="evenodd"/><path stroke="#8d3aed" stroke-width="3.0" stroke-linejoin="round" stroke-linecap="butt" d="m273.59317 117.79442l0 0c0 -31.84761 25.817596 -57.65815 57.66519 -57.649452l230.65387 0.062992096l0 0c15.293762 0.0041770935 29.96112 6.0836067 40.77545 16.900883c10.814331 10.817276 16.88977 25.486305 16.88977 40.78006l0 250.68535c0 31.847626 -25.817627 57.658142 -57.665222 57.649445l-230.65387 -0.06298828l0 0c-31.847595 -0.00869751 -57.66519 -25.833313 -57.66519 -57.68094z" fill-rule="evenodd"/><path fill="#ffffff" d="m370.06433 118.57638q-1.765625 -4.8065186E-4 -3.34375 -0.6102905q-1.578125 -0.62542725 -2.75 -1.8132477q-1.1875 -1.2034531 -1.875 -2.9067688q-0.671875 -1.7189331 -0.671875 -3.859558q0 -3.078125 1.03125 -5.7497177q1.046875 -2.671585 2.875 -4.764839q1.765625 -2.0151443 4.21875 -3.233223q2.46875 -1.218071 5.15625 -1.2173386q2.03125 5.493164E-4 3.5625 0.46971893q1.546875 0.46917725 2.546875 1.1725693l0.90625 -1.1091232l1.296875 3.5095215E-4l-1.75 8.233902l-1.34375 -3.6621094E-4l0 -0.65625q0 -1.328125 -0.21875 -2.531311q-0.203125 -1.218811 -0.796875 -2.2033463q-0.59375 -0.9376602 -1.609375 -1.5004349q-1.015625 -0.5627823 -2.59375 -0.56320953q-2.0 -5.493164E-4 -3.71875 1.0771103q-1.71875 1.062027 -2.96875 2.8273087q-1.234375 1.7184143 -1.984375 4.2494583q-0.75 2.5154266 -0.75 5.1404266q0 3.46875 1.703125 5.6254654q1.703125 2.1567154 4.5625 2.1574936q2.390625 6.4849854E-4 4.390625 -1.4050522q2.015625 -1.4213257 3.296875 -3.7959747l1.171875 0.60969543q-2.0625 3.4994354 -4.59375 4.936249q-2.515625 1.4211884 -5.75 1.4203033zm27.946533 -10.554871q0 1.921875 -0.65625 3.8435745q-0.640625 1.9216995 -1.890625 3.3744812q-1.25 1.4996567 -3.015625 2.405426q-1.765625 0.89014435 -4.09375 0.8895035q-2.703125 -7.324219E-4 -4.390625 -1.7355728q-1.671875 -1.7504578 -1.671875 -4.687958q0 -2.171875 0.703125 -4.0310516q0.71875 -1.8748093 1.9375 -3.2963486q1.21875 -1.4059143 3.015625 -2.280426q1.796875 -0.8745117 3.890625 -0.8739395q2.90625 7.9345703E-4 4.53125 1.766861q1.640625 1.7660751 1.640625 4.62545zm-3.328125 -0.6102829q0 -2.3125 -0.828125 -3.468979q-0.8125 -1.1564713 -2.359375 -1.1568909q-1.34375 -3.6621094E-4 -2.546875 0.8274307q-1.1875 0.82779694 -2.046875 2.7025604q-0.671875 1.4216919 -0.984375 3.155983q-0.3125 1.7342911 -0.3125 3.187416q0 2.328125 0.796875 3.5314713q0.8125 1.1877213 2.453125 1.1881638q1.4375 3.9672852E-4 2.5625 -0.9055481q1.125 -0.9059448 1.828125 -2.3119965q0.6875 -1.3591919 1.0625 -3.12471q0.375 -1.7655258 0.375 -3.6249008zm19.947723 -3.1195526q0 0.453125 -0.140625 0.99996185q-0.125 0.54683685 -0.375 0.9061508q-0.28125 0.43741608 -0.640625 0.6716995q-0.34375 0.23427582 -1.0 0.23410034q-0.875 -2.4414062E-4 -1.3125 -0.43785858q-0.4375 -0.43762207 -0.4375 -0.9844971q0 -0.5 0.234375 -1.1249313q0.25 -0.62493896 0.515625 -1.2498627q-0.203125 -5.340576E-5 -0.65625 0.109191895q-0.4375 0.10926056 -1.078125 0.42158508q-0.625 0.31233215 -1.4375 0.9371033q-0.8125 0.60915375 -1.71875 1.6245346l-2.625 11.655533l-3.015625 -8.239746E-4l2.375 -10.5462265q0.078125 -0.3906021 0.234375 -1.171814q0.15625 -0.7812042 0.15625 -1.1562042q0 -0.90625 -0.3125 -1.2188339q-0.3125 -0.31258392 -1.234375 -0.3128357q-0.359375 -9.918213E-5 -0.921875 0.12474823q-0.546875 0.12484741 -0.859375 0.20288849l0.25 -1.0468063q1.265625 -0.5621567 2.234375 -0.82751465q0.984375 -0.28098297 1.6875 -0.28079224q1.296875 3.5858154E-4 1.84375 0.70362854q0.5625 0.7032776 0.5625 2.1251526l0.09375 3.0517578E-5q1.9375 -1.6713486 2.9375 -2.342949q1.0 -0.67160034 2.09375 -0.6713028q0.515625 1.373291E-4 1.0 0.14089966q0.5 0.1251297 0.84375 0.43772888q0.359375 0.32822418 0.53125 0.78139496q0.171875 0.45317078 0.171875 1.2969208zm14.909729 0.7384491q0 1.71875 -1.078125 2.9528275q-1.078125 1.2340851 -3.140625 1.9678955q-1.515625 0.5620804 -3.0625 0.90541077q-1.546875 0.32770538 -3.421875 0.5615692q0 2.578125 0.953125 3.9377594q0.953125 1.3596344 2.796875 1.3601379q1.625 4.4250488E-4 2.859375 -0.8117218q1.25 -0.8277817 2.453125 -2.4368286l0.9375 0.6877594q-1.3125 1.9840164 -3.265625 3.1709824q-1.953125 1.186966 -4.046875 1.1863937q-2.875 -7.8582764E-4 -4.40625 -1.6105804q-1.515625 -1.609787 -1.515625 -4.578537q0 -2.046875 0.640625 -3.9060745q0.640625 -1.8591995 1.875 -3.4057388q1.203125 -1.5152969 2.953125 -2.4366913q1.75 -0.937027 3.875 -0.93644714q2.34375 6.4086914E-4 3.46875 0.95407104q1.125 0.9534378 1.125 2.4378128zm-2.984375 -0.40706635q0 -0.640625 -0.1875 -1.0000534q-0.171875 -0.37504578 -0.453125 -0.5469971q-0.296875 -0.20320892 -0.625 -0.25016785q-0.3125 -0.046966553 -0.65625 -0.047058105q-1.953125 -5.340576E-4 -3.609375 2.1552658q-1.65625 2.1401749 -2.09375 5.343178q1.140625 -0.1559372 2.578125 -0.4524231q1.4375 -0.31210327 2.375 -0.7962265q1.34375 -0.7027588 2.0 -1.7963257q0.671875 -1.0935669 0.671875 -2.609192zm13.907684 13.972549q-1.765625 -4.8065186E-4 -3.34375 -0.6102905q-1.578125 -0.62542725 -2.75 -1.8132477q-1.1875 -1.2034531 -1.875 -2.9067688q-0.671875 -1.7189331 -0.671875 -3.859558q0 -3.078125 1.03125 -5.7497177q1.046875 -2.671585 2.875 -4.764839q1.765625 -2.0151443 4.21875 -3.233223q2.46875 -1.218071 5.15625 -1.2173386q2.03125 5.493164E-4 3.5625 0.46971893q1.546875 0.46917725 2.546875 1.1725693l0.90625 -1.1091232l1.296875 3.5095215E-4l-1.75 8.233902l-1.34375 -3.6621094E-4l0 -0.65625q0 -1.328125 -0.21875 -2.531311q-0.203125 -1.218811 -0.796875 -2.2033463q-0.59375 -0.9376602 -1.609375 -1.5004349q-1.015625 -0.5627823 -2.59375 -0.56320953q-2.0 -5.493164E-4 -3.71875 1.0771103q-1.71875 1.062027 -2.96875 2.8273087q-1.234375 1.7184143 -1.984375 4.2494583q-0.75 2.5154266 -0.75 5.1404266q0 3.46875 1.703125 5.6254654q1.703125 2.1567154 4.5625 2.1574936q2.390625 6.4849854E-4 4.390625 -1.4050522q2.015625 -1.4213257 3.296875 -3.7959747l1.171875 0.60969543q-2.0625 3.4994354 -4.59375 4.936249q-2.515625 1.4211884 -5.75 1.4203033zm28.930908 -2.4139786l-0.234375 1.046814q-1.46875 0.57772064 -2.28125 0.8431244q-0.8125 0.28102875 -1.640625 0.2808075q-1.3125 -3.5858154E-4 -1.96875 -0.6724167q-0.640625 -0.6876755 -0.640625 -1.6720505q0 -0.359375 0.0625 -0.78123474q0.0625 -0.4374771 0.21875 -1.031189l1.59375 -6.062065q0.171875 -0.7030792 0.28125 -1.2655487q0.109375 -0.5780945 0.109375 -0.9218445q0 -1.09375 -0.53125 -1.718895q-0.515625 -0.6407623 -1.53125 -0.6410446q-1.046875 -2.822876E-4 -2.265625 0.671257q-1.203125 0.65592194 -2.296875 1.8743744l-2.75 11.936752l-3.03125 -8.31604E-4l4.84375 -20.93618q0.078125 -0.3749771 0.125 -0.64058685q0.0625 -0.26560974 0.0625 -0.54685974q0 -0.59375 -0.203125 -0.9063034q-0.1875 -0.3281784 -0.546875 -0.4845276q-0.3125 -0.14070892 -0.84375 -0.18772888q-0.53125 -0.06264496 -1.078125 -0.12528992l0.234375 -0.98431396l6.03125 -0.37335205l0.171875 0.23442078l-2.609375 11.264915l0.0625 1.5258789E-5q1.671875 -1.3432922 2.984375 -2.0304337q1.328125 -0.7027664 3.0 -0.70230865q1.5625 4.272461E-4 2.4375 0.90691376q0.890625 0.90649414 0.890625 2.3596191q0 0.296875 -0.09375 1.0468521q-0.078125 0.7499771 -0.28125 1.4842987l-1.359375 5.218376q-0.140625 0.53121185 -0.296875 1.2030487q-0.140625 0.6718292 -0.140625 1.0468292q0 0.9218826 0.40625 1.2657394q0.421875 0.32823944 1.34375 0.3284912q0.3125 8.392334E-5 0.890625 -0.10913086q0.578125 -0.10921478 0.875 -0.21851349zm12.27832 -0.24664307l-0.109375 -3.0517578E-5q-0.359375 0.28115082 -0.859375 0.7341385q-0.5 0.45298767 -1.171875 0.85905457q-0.625 0.40608215 -1.375 0.70275116q-0.75 0.296669 -1.625 0.2964325q-2.359375 -6.4849854E-4 -3.703125 -1.6885147q-1.34375 -1.6878662 -1.34375 -4.625366q0 -2.015625 0.75 -3.921669q0.75 -1.906044 2.0625 -3.4213104q1.25 -1.4371567 2.96875 -2.3273163q1.734375 -0.890152 3.5625 -0.88964844q1.15625 3.1280518E-4 2.203125 0.3130951q1.046875 0.31278992 1.65625 0.70358276l2.96875 -0.7648163l0.203125 0.2344284l-2.484375 10.499321q-0.125 0.49996948 -0.265625 1.2343063q-0.140625 0.71871185 -0.140625 1.0624619q0 0.921875 0.390625 1.2501068q0.390625 0.3282318 1.328125 0.32848358q0.296875 8.392334E-5 0.859375 -0.09351349q0.578125 -0.09358978 0.890625 -0.21850586l-0.234375 1.046814q-1.46875 0.57772064 -2.1875 0.8431473q-0.71875 0.26543427 -1.734375 0.26515198q-1.171875 -3.2043457E-4 -1.859375 -0.68800354q-0.6875 -0.68769073 -0.75 -1.734581zm2.328125 -10.296242q0 -0.53125 -0.125 -1.0156555q-0.109375 -0.5000305 -0.46875 -0.9220047q-0.328125 -0.40634155 -0.890625 -0.64086914q-0.5625 -0.2501526 -1.4375 -0.2503891q-1.1875 -3.2806396E-4 -2.3125 0.78061676q-1.109375 0.7809448 -2.015625 2.0932007q-0.84375 1.2497635 -1.390625 3.0152435q-0.53125 1.749855 -0.53125 3.54673q0 1.0 0.109375 1.7656555q0.125 0.7656555 0.453125 1.3907471q0.3125 0.6250839 0.890625 0.96899414q0.59375 0.34391022 1.484375 0.34415436q0.90625 2.4414062E-4 1.90625 -0.5151062q1.0 -0.51535034 2.265625 -1.796257l2.0625 -8.76506zm14.401337 10.660187l-0.25 1.0468063q-1.5 0.608963 -2.390625 0.8430939q-0.890625 0.23413086 -1.53125 0.23395538q-1.296875 -3.5095215E-4 -1.953125 -0.67240906q-0.640625 -0.68766785 -0.640625 -1.6720428q0 -0.375 0.0625 -0.78123474q0.0625 -0.40623474 0.203125 -1.0311966l1.734375 -6.905777q0.125 -0.57808685 0.25 -1.2186813q0.125 -0.6562195 0.125 -1.1093445q0 -0.921875 -0.3125 -1.2188339q-0.296875 -0.2969513 -1.21875 -0.29720306q-0.359375 -9.918213E-5 -0.953125 0.1091156q-0.59375 0.10920715 -0.90625 0.20287323l0.25 -1.0468063q1.265625 -0.5621567 2.265625 -0.843132q1.015625 -0.28097534 1.609375 -0.2808075q1.328125 3.5858154E-4 1.921875 0.6411514q0.609375 0.6251602 0.609375 1.7032852q0 0.296875 -0.0625 0.79685974q-0.0625 0.49998474 -0.203125 1.0155716l-1.734375 6.905777q-0.171875 0.6405792 -0.296875 1.2499161q-0.109375 0.6093445 -0.109375 0.9999695q0 0.921875 0.40625 1.2657394q0.421875 0.34386444 1.34375 0.3441162q0.3125 8.392334E-5 0.890625 -0.07788086q0.578125 -0.07796478 0.890625 -0.20288086zm1.15625 -20.796562q0 0.9375 -0.609375 1.6248322q-0.59375 0.6873398 -1.5 0.687088q-0.828125 -2.2125244E-4 -1.4375 -0.6566391q-0.59375 -0.6564102 -0.59375 -1.5001602q0 -0.890625 0.59375 -1.5623398q0.609375 -0.67170715 1.4375 -0.6714859q0.9375 2.593994E-4 1.515625 0.6254196q0.59375 0.6251602 0.59375 1.4532852zm18.488678 20.69255l-0.25 1.0468063q-1.46875 0.57772064 -2.28125 0.8431244q-0.8125 0.28102875 -1.640625 0.2808075q-1.296875 -3.5858154E-4 -1.953125 -0.67240906q-0.65625 -0.6876831 -0.65625 -1.6720581q0 -0.359375 0.0625 -0.78123474q0.078125 -0.4374771 0.21875 -1.031189l1.59375 -6.062065q0.1875 -0.7030716 0.28125 -1.2655487q0.109375 -0.5780945 0.109375 -0.9218445q0 -1.09375 -0.515625 -1.7188873q-0.515625 -0.64076996 -1.546875 -0.64105225q-1.0 -2.670288E-4 -2.234375 0.65563965q-1.234375 0.6402893 -2.328125 1.8899918l-2.75 11.936752l-3.015625 -8.239746E-4l2.421875 -10.546219q0.078125 -0.3906021 0.234375 -1.1249313q0.15625 -0.74996185 0.15625 -1.2030869q0 -0.90625 -0.3125 -1.2188339q-0.3125 -0.31258392 -1.234375 -0.3128357q-0.359375 -9.918213E-5 -0.921875 0.12474823q-0.546875 0.12484741 -0.859375 0.20288849l0.25 -1.0468063q1.265625 -0.5621567 2.234375 -0.82751465q0.984375 -0.28098297 1.6875 -0.2807846q1.28125 3.4332275E-4 1.828125 0.7036209q0.5625 0.6876526 0.59375 1.9220352l0.09375 3.0517578E-5q1.796875 -1.4213867 3.09375 -2.1085358q1.3125 -0.7027664 2.96875 -0.70230865q1.5625 4.272461E-4 2.4375 0.90691376q0.875 0.9064865 0.875 2.3596115q0 0.296875 -0.09375 1.0468521q-0.078125 0.7499771 -0.28125 1.4842987l-1.359375 5.218376q-0.15625 0.53121185 -0.296875 1.2030487q-0.125 0.67183685 -0.125 1.0468369q0 0.921875 0.40625 1.2657394q0.40625 0.3282318 1.328125 0.32848358q0.3125 8.392334E-5 0.890625 -0.10913086q0.578125 -0.10921478 0.890625 -0.21850586zm6.845886 2.3612442q-2.40625 -6.5612793E-4 -4.015625 -0.84484863q-1.59375 -0.8598099 -1.59375 -2.2504349q0 -0.640625 0.46875 -1.2029953q0.46875 -0.5779953 1.15625 -0.5778122q0.65625 1.8310547E-4 1.046875 0.29716492q0.40625 0.2969818 0.625 0.70329285q0.25 0.42194366 0.4375 1.0157471q0.1875 0.5781784 0.3125 0.9532089q0.25 0.28131866 0.671875 0.5158081q0.4375 0.23449707 1.25 0.23471832q1.75 4.7302246E-4 2.65625 -0.8742752q0.90625 -0.87475586 0.90625 -2.3747559q0 -1.109375 -0.84375 -1.7658539q-0.84375 -0.6564789 -2.53125 -1.2194366q-0.59375 -0.18766785 -1.40625 -0.5785141q-0.8125 -0.40647125 -1.296875 -0.85972595q-0.59375 -0.53141785 -0.953125 -1.2346344q-0.359375 -0.7188492 -0.359375 -1.7032242q0 -2.078125 1.859375 -3.5932465q1.875 -1.5307388 4.59375 -1.5299911q0.625 1.6784668E-4 1.359375 0.06286621q0.734375 0.06270599 1.609375 0.3598175q0.765625 0.265831 1.296875 0.78160095q0.546875 0.5001526 0.546875 1.3282776q0 0.65625 -0.453125 1.2030029q-0.4375 0.5467529 -1.171875 0.54655457q-0.609375 -1.6784668E-4 -1.0 -0.25027466q-0.390625 -0.2657318 -0.640625 -0.7033005q-0.265625 -0.45319366 -0.4375 -0.9532471q-0.15625 -0.50003815 -0.34375 -0.98446655q-0.3125 -0.14070892 -0.5625 -0.18765259q-0.234375 -0.046936035 -0.65625 -0.047050476q-1.59375 -4.4250488E-4 -2.421875 0.85871124q-0.8125 0.84352875 -0.8125 2.0154037q0 1.140625 0.734375 1.7189484q0.75 0.578331 2.453125 1.2037964q2.21875 0.7974777 3.21875 1.8290024q1.0 1.0158997 1.0 2.5315247q0 2.46875 -1.90625 4.030731q-1.90625 1.5463486 -4.796875 1.5455627z" fill-rule="nonzero"/><path fill="#000000" fill-opacity="0.0" d="m299.29398 169.03954l0 0c0 -4.5024414 3.6499329 -8.151398 8.152374 -8.150162l98.970825 0.027038574c2.16214 5.79834E-4 4.235718 0.86006165 5.7645874 2.3893585c1.5288696 1.5292816 2.3877869 3.6031036 2.3877869 5.765259l0 32.608597c0 4.5024414 -3.6499329 8.151398 -8.152374 8.150162l-98.970825 -0.027038574c-4.5024414 -0.0012207031 -8.152374 -3.652176 -8.152374 -8.154617z" fill-rule="evenodd"/><path stroke="#8d3aed" stroke-width="3.0" stroke-linejoin="round" stroke-linecap="butt" d="m299.29398 169.03954l0 0c0 -4.5024414 3.6499329 -8.151398 8.152374 -8.150162l98.970825 0.027038574c2.16214 5.79834E-4 4.235718 0.86006165 5.7645874 2.3893585c1.5288696 1.5292816 2.3877869 3.6031036 2.3877869 5.765259l0 32.608597c0 4.5024414 -3.6499329 8.151398 -8.152374 8.150162l-98.970825 -0.027038574c-4.5024414 -0.0012207031 -8.152374 -3.652176 -8.152374 -8.154617z" fill-rule="evenodd"/><path fill="#ffffff" d="m347.19766 182.14568q-0.734375 -1.5470886 -2.140625 -2.39122q-1.390625 -0.85975647 -3.234375 -0.86026q-1.84375 -5.0354004E-4 -3.328125 0.85847473q-1.484375 0.843338 -2.34375 2.4212341q-0.84375 1.5778961 -0.84375 3.656021q0 2.078125 0.84375 3.656479q0.859375 1.5627289 2.34375 2.4225159q1.484375 0.8441467 3.328125 0.84465027q2.578125 7.171631E-4 4.25 -1.5457001q1.671875 -1.5464325 1.953125 -4.186981l-7.03125 -0.0019073486l0 -1.859375l9.484375 0.0025787354l0 1.765625q-0.203125 2.1718292 -1.375 3.9840088q-1.15625 1.8121796 -3.0625 2.8741608q-1.890625 1.0463562 -4.21875 1.0457153q-2.453125 -6.713867E-4 -4.484375 -1.1574707q-2.03125 -1.1567993 -3.203125 -3.2039948q-1.171875 -2.0471954 -1.171875 -4.6409454q0 -2.578125 1.171875 -4.6403046q1.171875 -2.0621796 3.203125 -3.2178802q2.03125 -1.1557007 4.484375 -1.1550293q2.8125 7.7819824E-4 4.96875 1.407608q2.171875 1.3912201 3.15625 3.9227448l-2.75 -7.4768066E-4zm12.377197 12.768997q-1.953125 -5.340576E-4 -3.53125 -0.8915863q-1.578125 -0.89105225 -2.484375 -2.5162964q-0.890625 -1.6408691 -0.890625 -3.7971191q0 -2.125 0.921875 -3.7497559q0.921875 -1.6403656 2.515625 -2.5149384q1.59375 -0.8745575 3.578125 -0.87402344q1.96875 5.340576E-4 3.5625 0.87597656q1.59375 0.8754425 2.515625 2.5006866q0.9375 1.6096344 0.9375 3.7658844q0 2.15625 -0.953125 3.7966156q-0.953125 1.6247406 -2.578125 2.514923q-1.609375 0.8901825 -3.59375 0.8896332zm0 -2.03125q1.25 3.5095215E-4 2.328125 -0.57748413q1.09375 -0.5934448 1.765625 -1.7495117q0.671875 -1.1716919 0.671875 -2.843567q0 -1.671875 -0.65625 -2.828308q-0.65625 -1.1720581 -1.71875 -1.734848q-1.0625 -0.5784149 -2.3125 -0.5787506q-1.265625 -3.5095215E-4 -2.3125 0.57748413q-1.046875 0.56222534 -1.6875 1.7339172q-0.640625 1.1560822 -0.640625 2.8279572q0 1.703125 0.625 2.8751678q0.625 1.1564178 1.65625 1.7348175q1.046875 0.5627899 2.28125 0.5631256zm15.335022 -0.32392883l4.296875 -11.748825l2.453125 6.713867E-4l-5.4375 13.873505l-2.6875 -7.324219E-4l-5.453125 -13.87648l2.484375 6.713867E-4l4.34375 11.75119z" fill-rule="nonzero"/><path fill="#434343" d="m732.4618 525.5591l0 0c4.5024414 0 8.150818 3.6499634 8.148926 8.152405l-0.024597168 57.899902c-9.1552734E-4 2.1621704 -0.8607178 4.235779 -2.3901978 5.7646484c-1.529541 1.5288696 -3.6035156 2.3877563 -5.765625 2.3877563l-32.608643 0c-4.5024414 0 -8.150818 -3.6499634 -8.148926 -8.152405l0.024597168 -57.899902c0.0018920898 -4.5024414 3.6534424 -8.152405 8.155884 -8.152405z" fill-rule="evenodd"/><path fill="#ffffff" d="m711.0694 544.6521l4.65802 -4.203125l-4.65625 0l5.493164E-4 -1.34375l10.21875 0l-5.493164E-4 1.34375l-4.734375 0l4.732605 4.21875l-7.324219E-4 1.6875l-5.123047 -4.640625l-5.095703 4.671875l7.324219E-4 -1.734375zm9.123047 4.575989l-3.40625 0l-0.0015869141 3.71875l-1.109375 0l0.0015869141 -3.71875l-3.515625 0l-0.0017700195 4.15625l-1.09375 0l0.002319336 -5.5l10.234375 0l-0.002319336 5.5l-1.109375 0l0.0017700195 -4.15625zm-9.129944 11.549927l4.1729126 -2.421875l7.324219E-4 -1.609375l-4.171875 0l5.493164E-4 -1.34375l10.21875 0l-0.0014038086 3.296875q-4.8828125E-4 1.15625 -0.4071045 1.953125q-0.39093018 0.8125 -1.0629883 1.203125q-0.6720581 0.390625 -1.5470581 0.390625q-1.046875 0 -1.8590698 -0.609375q-0.79663086 -0.609375 -1.0617676 -1.8125l-4.2823486 2.5625l6.713867E-4 -1.609375zm5.25177 -4.03125l-8.544922E-4 1.953125q-4.8828125E-4 1.09375 0.5305786 1.625q0.53100586 0.546875 1.4216309 0.546875q0.921875 0 1.4064941 -0.53125q0.5001831 -0.53125 0.5006714 -1.640625l8.544922E-4 -1.953125l-3.859375 0zm-5.256653 15.598572l5.493164E-4 -1.328125l8.142944 -5.359375l-8.140625 0l5.493164E-4 -1.34375l10.234375 0l-5.493164E-4 1.34375l-8.127319 5.359375l8.125 0l-5.493164E-4 1.328125l-10.234375 0zm9.123474 3.6158447l-3.40625 0l-0.0015869141 3.71875l-1.109375 0l0.0015869141 -3.71875l-3.515625 0l-0.0017700195 4.15625l-1.09375 0l0.002319336 -5.5l10.234375 0l-0.002319336 5.5l-1.109375 0l0.0017700195 -4.15625zm-8.050049 7.5186768l-0.0015258789 3.5625l-1.078125 0l0.0020751953 -4.90625l10.21875 0l-5.493164E-4 1.34375l-9.140625 0z" fill-rule="nonzero"/><path fill="#25cc85" d="m732.51166 36.71128l0 0c4.5024414 0 8.151184 3.6499481 8.149658 8.152393l-0.15203857 453.67947c-7.324219E-4 2.16214 -0.8602905 4.235718 -2.3897095 5.7645874c-1.5293579 1.5288696 -3.6032715 2.3877869 -5.765381 2.3877869l-32.608643 0c-4.5024414 0 -8.151123 -3.6499329 -8.149658 -8.152374l0.15203857 -453.67947c0.0015258789 -4.502445 3.65271 -8.152393 8.155151 -8.152393z" fill-rule="evenodd"/><path fill="#ffffff" d="m725.11945 233.6887l-11.75 0q-2.484375 0 -3.6878662 1.203125q-1.1879272 1.21875 -1.1886597 3.390625q-6.713867E-4 2.125 1.1864014 3.328125q1.2026978 1.21875 3.6870728 1.21875l11.75 0l-7.9345703E-4 2.4375l-11.734375 0q-2.3125 0 -3.9059448 -0.9375q-1.5778198 -0.9375 -2.3585205 -2.53125q-0.7650757 -1.578125 -0.76446533 -3.546875q6.713867E-4 -1.96875 0.7668457 -3.5625q0.7817993 -1.578125 2.3602295 -2.5q1.5940552 -0.921875 3.9065552 -0.921875l11.734375 0l-8.544922E-4 2.421875zm-18.775208 28.625717q6.1035156E-4 -1.828125 0.65734863 -3.28125q0.6567383 -1.453125 1.8132935 -2.28125q1.1564941 -0.828125 2.6721802 -0.859375l-9.1552734E-4 2.59375q-1.296875 0.125 -2.2034912 1.0625q-0.8909302 0.953125 -0.8915405 2.765625q-5.493164E-4 1.734375 0.8584595 2.734375q0.8746948 1.0 2.2340698 1.0q1.078125 0 1.7345581 -0.59375q0.6720581 -0.578125 1.0161133 -1.453125q0.34405518 -0.875 0.75079346 -2.375q0.48498535 -1.84375 0.95410156 -2.953125q0.4847412 -1.09375 1.5006714 -1.890625q1.0314941 -0.78125 2.7658691 -0.78125q1.515625 0 2.6872559 0.765625q1.1871948 0.78125 1.8117676 2.171875q0.6401367 1.40625 0.63952637 3.21875q-8.544922E-4 2.609375 -1.3139038 4.28125q-1.2974854 1.671875 -3.4537964 1.875l9.1552734E-4 -2.65625q1.062561 -0.140625 1.8753662 -1.125q0.8128662 -0.984375 0.8133545 -2.609375q5.493164E-4 -1.515625 -0.7803955 -2.484375q-0.7809448 -0.953125 -2.2028198 -0.953125q-1.015625 0 -1.6564331 0.5625q-0.6251831 0.578125 -0.9692383 1.421875q-0.32836914 0.84375 -0.75079346 2.359375q-0.51623535 1.84375 -1.0166016 2.953125q-0.4847412 1.125 -1.5162354 1.921875q-1.0159302 0.796875 -2.7815552 0.796875q-1.359375 0 -2.5622559 -0.71875q-1.1872559 -0.71875 -1.9367676 -2.140625q-0.7495117 -1.40625 -0.74890137 -3.328125zm16.790405 19.311218l-6.21875 0l-0.0022583008 6.765625l-2.0 0l0.0022583008 -6.765625l-6.390625 0l-0.0025024414 7.5625l-2.0 0l0.0033569336 -10.0l18.609375 0l-0.0033569336 10.0l-2.0 0l0.0025024414 -7.5625zm-16.618774 28.13556l7.595215 -4.421875l9.765625E-4 -2.921875l-7.59375 0l8.544922E-4 -2.4375l18.578125 0l-0.0020141602 6.0q-7.324219E-4 2.109375 -0.7199707 3.5625q-0.7192383 1.453125 -1.9538574 2.171875q-1.2189941 0.71875 -2.7971191 0.71875q-1.90625 0 -3.3746338 -1.109375q-1.4683838 -1.109375 -1.9520264 -3.3125l-7.782776 4.65625l9.765625E-4 -2.90625zm9.549316 -7.34375l-0.001159668 3.5625q-6.713867E-4 1.96875 0.9677124 2.953125q0.9684448 1.0 2.5934448 1.0q1.65625 0 2.5628052 -0.984375q0.9066162 -0.96875 0.9072876 -2.96875l0.001159668 -3.5625l-7.03125 0z" fill-rule="nonzero"/><path fill="#000000" fill-opacity="0.0" d="m25.498688 642.70654l0 0c0 -14.240845 11.544468 -25.78302 25.785294 -25.780212l589.9097 0.11584473c6.838684 0.0013427734 13.397278 2.7192993 18.23291 7.555908c4.8356934 4.83667 7.552368 11.395752 7.552368 18.234436l0 103.13812c0 14.240784 -11.544495 25.78302 -25.785278 25.780212l-589.9097 -0.11584473l0 0c-14.240826 -0.0028076172 -25.785294 -11.549561 -25.785294 -25.790405z" fill-rule="evenodd"/><path stroke="#b45f06" stroke-width="3.0" stroke-linejoin="round" stroke-linecap="butt" d="m25.498688 642.70654l0 0c0 -14.240845 11.544468 -25.78302 25.785294 -25.780212l589.9097 0.11584473c6.838684 0.0013427734 13.397278 2.7192993 18.23291 7.555908c4.8356934 4.83667 7.552368 11.395752 7.552368 18.234436l0 103.13812c0 14.240784 -11.544495 25.78302 -25.785278 25.780212l-589.9097 -0.11584473l0 0c-14.240826 -0.0028076172 -25.785294 -11.549561 -25.785294 -25.790405z" fill-rule="evenodd"/><path fill="#b45f06" d="m732.4749 617.58795l0 0c4.5024414 0 8.151611 3.6499023 8.150757 8.152405l-0.028198242 138.93927c-4.272461E-4 2.1621704 -0.85980225 4.235779 -2.388977 5.7646484c-1.5291748 1.5288696 -3.6029663 2.3877563 -5.7650757 2.3877563l-32.60858 0c-4.5025024 0 -8.151672 -3.6499634 -8.150757 -8.152405l0.028198242 -138.93927c9.1552734E-4 -4.5025024 3.6516113 -8.152405 8.154053 -8.152405z" fill-rule="evenodd"/><path fill="#ffffff" d="m724.3595 644.5205l-16.734375 0l4.8828125E-4 -2.1875l7.578125 0l0.0017089844 -8.515625l-7.578125 0l4.272461E-4 -2.1875l16.734375 0l-4.272461E-4 2.1875l-7.34375 0l-0.0017089844 8.515625l7.34375 0l-4.8828125E-4 2.1875zm-13.018372 13.607971l0.0014648438 -7.296875l-3.7184448 -1.34375l4.272461E-4 -2.296875l16.62378 6.046875l-4.8828125E-4 2.515625l-16.62622 6.03125l4.8828125E-4 -2.3125l3.7189941 -1.34375zm1.7813721 -0.625l8.43811 -3.015625l-8.43689 -3.03125l-0.0012207031 6.046875zm-5.503174 15.722839l6.8445435 -3.984375l5.493164E-4 -2.640625l-6.84375 0l4.272461E-4 -2.1875l16.734375 0l-0.0010986328 5.40625q-3.6621094E-4 1.890625 -0.65686035 3.203125q-0.6409302 1.3125 -1.7504272 1.953125q-1.1094971 0.65625 -2.515747 0.65625q-1.734375 0 -3.062317 -1.0q-1.3122559 -1.0 -1.7337646 -2.984375l-7.0164795 4.1875l5.493164E-4 -2.609375zm8.595093 -6.625l-6.713867E-4 3.21875q-3.6621094E-4 1.78125 0.8744507 2.65625q0.8748169 0.890625 2.343567 0.890625q1.484375 0 2.297058 -0.875q0.8126831 -0.875 0.8130493 -2.671875l6.713867E-4 -3.21875l-6.328125 0zm8.137024 17.62323q-5.493164E-4 2.734375 -1.0321655 4.734375q-1.0160522 2.0 -2.9225464 3.0625q-1.8908081 1.078125 -4.453308 1.078125q-2.5625 0 -4.452942 -1.078125q-1.8903809 -1.0625 -2.8899536 -3.0625q-0.9840088 -2.0 -0.9834595 -4.734375l0.0010986328 -5.21875l16.734375 0l-0.0010986328 5.21875zm-14.9375 0q-6.1035156E-4 3.234375 1.7177734 4.9375q1.7183838 1.703125 4.812134 1.703125q3.125 0 4.875366 -1.71875q1.7503662 -1.71875 1.7509766 -4.921875l6.1035156E-4 -3.03125l-13.15625 0l-6.1035156E-4 3.03125zm14.930847 32.780457l-16.733398 -4.84375l5.493164E-4 -2.453125l13.469543 -3.890625l-13.467957 -4.03125l-0.030761719 -2.421875l16.766602 -4.6875l-4.8828125E-4 2.328125l-14.188232 3.65625l14.1866455 4.03125l-4.8828125E-4 2.453125l-14.141418 3.828125l14.139893 3.671875l-4.8828125E-4 2.359375zm-13.018066 12.283264l0.0014648438 -7.296875l-3.7185059 -1.34375l4.8828125E-4 -2.296875l16.62378 6.046875l-5.493164E-4 2.515625l-16.62622 6.03125l4.8828125E-4 -2.3125l3.7190552 -1.34375zm1.7813721 -0.625l8.43811 -3.015625l-8.43689 -3.03125l-0.0012207031 6.046875zm-5.503235 15.722839l6.8446045 -3.984375l4.8828125E-4 -2.640625l-6.84375 0l4.8828125E-4 -2.1875l16.734375 0l-0.0010986328 5.40625q-4.272461E-4 1.890625 -0.6569214 3.203125q-0.64086914 1.3125 -1.7503662 1.953125q-1.1095581 0.65625 -2.515808 0.65625q-1.734375 0 -3.0622559 -1.0q-1.3123169 -1.0 -1.7337646 -2.984375l-7.0164795 4.1875l4.8828125E-4 -2.609375zm8.595093 -6.625l-6.1035156E-4 3.21875q-3.6621094E-4 1.78125 0.8744507 2.65625q0.8748169 0.890625 2.343567 0.890625q1.484375 0 2.297058 -0.875q0.8126831 -0.875 0.8130493 -2.671875l6.1035156E-4 -3.21875l-6.328125 0zm6.3564453 14.59198l-5.59375 0l-0.0012207031 6.09375l-1.796875 0l0.0012207031 -6.09375l-5.765625 0l-0.0014038086 6.8125l-1.796875 0l0.0018310547 -9.0l16.75 0l-0.0018310547 9.0l-1.796875 0l0.0014038086 -6.8125z" fill-rule="nonzero"/><path fill="#b45f06" d="m56.154854 678.88995l0 0c0 -4.5024414 3.649952 -8.151733 8.152397 -8.15094l155.75821 0.028503418c2.16214 4.272461E-4 4.235733 0.8596802 5.7646027 2.388855c1.5288696 1.5291748 2.3877869 3.6029053 2.3877869 5.7650757l0 32.60858c0 4.5024414 -3.6499481 8.151733 -8.15239 8.150879l-155.75821 -0.028503418c-4.502445 -7.9345703E-4 -8.152397 -3.6514282 -8.152397 -8.15387z" fill-rule="evenodd"/><path stroke="#b45f06" stroke-width="3.0" stroke-linejoin="round" stroke-linecap="butt" d="m56.154854 678.88995l0 0c0 -4.5024414 3.649952 -8.151733 8.152397 -8.15094l155.75821 0.028503418c2.16214 4.272461E-4 4.235733 0.8596802 5.7646027 2.388855c1.5288696 1.5291748 2.3877869 3.6029053 2.3877869 5.7650757l0 32.60858c0 4.5024414 -3.6499481 8.151733 -8.15239 8.150879l-155.75821 -0.028503418c-4.502445 -7.9345703E-4 -8.152397 -3.6514282 -8.152397 -8.15387z" fill-rule="evenodd"/><path fill="#ffffff" d="m114.35769 695.3699q0 -2.453125 1.09375 -4.406067q1.109375 -1.9528809 3.015625 -3.0463257q1.921875 -1.1090088 4.25 -1.1085815q2.734375 4.8828125E-4 4.765625 1.3289795q2.0468674 1.3129272 2.9843674 3.7349243l-2.6249924 -4.272461E-4q-0.6875 -1.5158081 -2.0 -2.3284912q-1.3125 -0.82836914 -3.125 -0.82873535q-1.765625 -3.0517578E-4 -3.15625 0.8275757q-1.390625 0.81225586 -2.1875 2.3120728q-0.78125 1.4998779 -0.78125 3.515503q0 1.984375 0.78125 3.484497q0.796875 1.5001831 2.1875 2.3285522q1.390625 0.81274414 3.15625 0.8130493q1.8125 3.6621094E-4 3.125 -0.79626465q1.3125 -0.8123169 2.0 -2.3277588l2.6249924 4.272461E-4q-0.9375 2.406128 -2.9843674 3.7182007q-2.03125 1.2965088 -4.765625 1.2960205q-2.328125 -4.272461E-4 -4.25 -1.0945435q-1.90625 -1.0940552 -3.015625 -3.0317993q-1.09375 -1.9376831 -1.09375 -4.390808zm25.074806 8.598328q-1.84375 -3.0517578E-4 -3.34375 -0.84436035q-1.5 -0.84399414 -2.359375 -2.3910522q-0.84375 -1.5469971 -0.84375 -3.578247q0 -2.015625 0.875 -3.562378q0.875 -1.5623169 2.390625 -2.3901978q1.515625 -0.8278198 3.390625 -0.8274536q1.859375 3.0517578E-4 3.375 0.82873535q1.515625 0.82836914 2.390625 2.3754272q0.875 1.5314331 0.875 3.578308q0 2.03125 -0.90625 3.577942q-0.890625 1.5466919 -2.4375 2.3901978q-1.53125 0.8434448 -3.40625 0.8430786zm0 -1.921875q1.1875 2.4414062E-4 2.21875 -0.54644775q1.03125 -0.5623169 1.65625 -1.6559448q0.640625 -1.1092529 0.640625 -2.687378q0 -1.59375 -0.625 -2.687622q-0.625 -1.1094971 -1.640625 -1.6409302q-1.0 -0.5470581 -2.171875 -0.5472412q-1.203125 -2.4414062E-4 -2.203125 0.54644775q-0.984375 0.5310669 -1.59375 1.6403198q-0.59375 1.0936279 -0.59375 2.687378q0 1.609375 0.578125 2.718872q0.59375 1.0938721 1.578125 1.6409302q0.984375 0.5314331 2.15625 0.5316162zm11.81308 -9.310303q0.578125 -1.124939 1.640625 -1.7496948q1.078125 -0.6248169 2.609375 -0.62457275l0 2.25l-0.578125 -6.1035156E-5q-3.671875 -6.713867E-4 -3.671875 3.9837036l0 7.15625l-2.1875 -4.272461E-4l0 -13.15625l2.1875 4.272461E-4l0 2.140625zm18.76448 3.940918q0 0.625 -0.0625 1.3125l-10.515625 -0.001953125q0.125 1.953186 1.328125 3.0471191q1.21875 1.0939941 2.9375 1.0942993q1.421875 2.4414062E-4 2.359375 -0.65582275q0.953125 -0.6716919 1.34375 -1.7810059l2.34375 4.272461E-4q-0.515625 1.906189 -2.109375 3.0933838q-1.578125 1.1871948 -3.9375 1.1867676q-1.875 -3.6621094E-4 -3.34375 -0.84436035q-1.46875 -0.84399414 -2.3125 -2.3910522q-0.84375 -1.5469971 -0.84375 -3.578247q0 -2.046875 0.8125 -3.578003q0.8125 -1.5467529 2.28125 -2.3745728q1.484375 -0.82788086 3.40625 -0.82751465q1.875 3.6621094E-4 3.3125 0.82873535q1.4375 0.81274414 2.21875 2.2504272q0.78125 1.4219971 0.78125 3.218872zm-2.25 -0.45355225q0 -1.25 -0.5625 -2.140686q-0.546875 -0.9063721 -1.5 -1.3753052q-0.9375 -0.4689331 -2.09375 -0.4691162q-1.65625 -3.0517578E-4 -2.828125 1.0619507q-1.15625 1.0466919 -1.328125 2.9216309l8.3125 0.0015258789z" fill-rule="nonzero"/><path fill="#b45f06" d="m260.20398 678.01855l0 0c0 -4.5024414 3.6499329 -8.151733 8.152374 -8.15094l155.75821 0.028503418c2.16214 4.272461E-4 4.2357483 0.8597412 5.764618 2.388855c1.5288696 1.5291748 2.3877869 3.6029053 2.3877869 5.7650757l0 32.60858c0 4.5024414 -3.6499634 8.151733 -8.152405 8.150879l-155.75821 -0.028503418c-4.5024414 -7.9345703E-4 -8.152374 -3.6514282 -8.152374 -8.15387z" fill-rule="evenodd"/><path stroke="#b45f06" stroke-width="3.0" stroke-linejoin="round" stroke-linecap="butt" d="m260.20398 678.01855l0 0c0 -4.5024414 3.6499329 -8.151733 8.152374 -8.15094l155.75821 0.028503418c2.16214 4.272461E-4 4.2357483 0.8597412 5.764618 2.388855c1.5288696 1.5291748 2.3877869 3.6029053 2.3877869 5.7650757l0 32.60858c0 4.5024414 -3.6499634 8.151733 -8.152405 8.150879l-155.75821 -0.028503418c-4.5024414 -7.9345703E-4 -8.152374 -3.6514282 -8.152374 -8.15387z" fill-rule="evenodd"/><path fill="#ffffff" d="m318.4068 694.4985q0 -2.453125 1.09375 -4.406067q1.109375 -1.9528809 3.015625 -3.0462646q1.921875 -1.1090698 4.25 -1.1086426q2.734375 4.8828125E-4 4.765625 1.3290405q2.046875 1.3128662 2.984375 3.7349243l-2.625 -4.8828125E-4q-0.6875 -1.5157471 -2.0 -2.3284912q-1.3125 -0.82836914 -3.125 -0.82873535q-1.765625 -3.0517578E-4 -3.15625 0.8275757q-1.390625 0.81225586 -2.1875 2.3120728q-0.78125 1.4998779 -0.78125 3.515503q0 1.984375 0.78125 3.484497q0.796875 1.5001831 2.1875 2.3285522q1.390625 0.81274414 3.15625 0.8130493q1.8125 3.6621094E-4 3.125 -0.79626465q1.3125 -0.81225586 2.0 -2.3277588l2.625 4.8828125E-4q-0.9375 2.406067 -2.984375 3.7182007q-2.03125 1.2964478 -4.765625 1.2959595q-2.328125 -4.272461E-4 -4.25 -1.0944824q-1.90625 -1.0941162 -3.015625 -3.0318604q-1.09375 -1.9376831 -1.09375 -4.390808zm25.074799 8.598328q-1.84375 -3.0517578E-4 -3.34375 -0.84436035q-1.5 -0.84399414 -2.359375 -2.3910522q-0.84375 -1.5469971 -0.84375 -3.578247q0 -2.015625 0.875 -3.562378q0.875 -1.5623169 2.390625 -2.3901367q1.515625 -0.82788086 3.390625 -0.82751465q1.859375 3.0517578E-4 3.375 0.82873535q1.515625 0.82836914 2.390625 2.3754272q0.875 1.5314331 0.875 3.578308q0 2.03125 -0.90625 3.577942q-0.890625 1.5466919 -2.4375 2.3901978q-1.53125 0.8434448 -3.40625 0.8430786zm0 -1.921875q1.1875 2.4414062E-4 2.21875 -0.54644775q1.03125 -0.5623169 1.65625 -1.6559448q0.640625 -1.1092529 0.640625 -2.687378q0 -1.59375 -0.625 -2.687622q-0.625 -1.1094971 -1.640625 -1.6409302q-1.0 -0.5470581 -2.171875 -0.5472412q-1.203125 -2.4414062E-4 -2.203125 0.54644775q-0.984375 0.5310669 -1.59375 1.6403198q-0.59375 1.0936279 -0.59375 2.687378q0 1.609375 0.578125 2.718872q0.59375 1.0938721 1.578125 1.6409302q0.984375 0.5314331 2.15625 0.5316162zm11.81308 -9.310303q0.578125 -1.1248779 1.640625 -1.7496948q1.078125 -0.6248169 2.609375 -0.6245117l0 2.25l-0.578125 -1.2207031E-4q-3.671875 -6.713867E-4 -3.671875 3.9837036l0 7.15625l-2.1875 -4.272461E-4l0 -13.15625l2.1875 4.272461E-4l0 2.140625zm18.764496 3.940918q0 0.625 -0.0625 1.3125l-10.515625 -0.001953125q0.125 1.953186 1.328125 3.0471191q1.21875 1.0939941 2.9375 1.0942993q1.421875 2.4414062E-4 2.359375 -0.65582275q0.953125 -0.6716919 1.34375 -1.7810059l2.34375 4.272461E-4q-0.515625 1.906189 -2.109375 3.0933838q-1.578125 1.1871948 -3.9375 1.1867676q-1.875 -3.0517578E-4 -3.34375 -0.84436035q-1.46875 -0.84399414 -2.3125 -2.3910522q-0.84375 -1.5469971 -0.84375 -3.578247q0 -2.046875 0.8125 -3.578003q0.8125 -1.5466919 2.28125 -2.3745728q1.484375 -0.82788086 3.40625 -0.82751465q1.875 3.6621094E-4 3.3125 0.82873535q1.4375 0.81274414 2.21875 2.2504272q0.78125 1.4219971 0.78125 3.218872zm-2.25 -0.45355225q0 -1.25 -0.5625 -2.140686q-0.546875 -0.9063721 -1.5 -1.3753052q-0.9375 -0.4689331 -2.09375 -0.4691162q-1.65625 -3.0517578E-4 -2.828125 1.0619507q-1.15625 1.0466919 -1.328125 2.9216309l8.3125 0.0015258789z" fill-rule="nonzero"/><path fill="#b45f06" d="m464.25308 678.88995l0 0c0 -4.5024414 3.6499329 -8.151733 8.152374 -8.15094l155.75824 0.028503418c2.1621094 4.272461E-4 4.235718 0.8596802 5.7645874 2.388855c1.5288696 1.5291748 2.3877563 3.6029053 2.3877563 5.7650757l0 32.60858c0 4.5024414 -3.6499023 8.151733 -8.152344 8.150879l-155.75824 -0.028503418c-4.5024414 -7.9345703E-4 -8.152374 -3.6514282 -8.152374 -8.15387z" fill-rule="evenodd"/><path stroke="#b45f06" stroke-width="3.0" stroke-linejoin="round" stroke-linecap="butt" d="m464.25308 678.88995l0 0c0 -4.5024414 3.6499329 -8.151733 8.152374 -8.15094l155.75824 0.028503418c2.1621094 4.272461E-4 4.235718 0.8596802 5.7645874 2.388855c1.5288696 1.5291748 2.3877563 3.6029053 2.3877563 5.7650757l0 32.60858c0 4.5024414 -3.6499023 8.151733 -8.152344 8.150879l-155.75824 -0.028503418c-4.5024414 -7.9345703E-4 -8.152374 -3.6514282 -8.152374 -8.15387z" fill-rule="evenodd"/><path fill="#ffffff" d="m522.45593 695.3699q0 -2.453125 1.09375 -4.406067q1.109375 -1.9528809 3.015625 -3.0463257q1.921875 -1.1090088 4.25 -1.1085815q2.734375 4.8828125E-4 4.765625 1.3289795q2.046875 1.3129272 2.984375 3.7349243l-2.625 -4.272461E-4q-0.6875 -1.5158081 -2.0 -2.3284912q-1.3125 -0.82836914 -3.125 -0.82873535q-1.765625 -3.0517578E-4 -3.15625 0.8275757q-1.390625 0.81225586 -2.1875 2.3120728q-0.78125 1.4998779 -0.78125 3.515503q0 1.984375 0.78125 3.484497q0.796875 1.5001831 2.1875 2.3285522q1.390625 0.81274414 3.15625 0.8130493q1.8125 3.6621094E-4 3.125 -0.79626465q1.3125 -0.8123169 2.0 -2.3277588l2.625 4.272461E-4q-0.9375 2.406128 -2.984375 3.7182007q-2.03125 1.2965088 -4.765625 1.2960205q-2.328125 -4.272461E-4 -4.25 -1.0945435q-1.90625 -1.0940552 -3.015625 -3.0317993q-1.09375 -1.9376831 -1.09375 -4.390808zm25.074768 8.598328q-1.84375 -3.0517578E-4 -3.34375 -0.84436035q-1.5 -0.84399414 -2.359375 -2.3910522q-0.84375 -1.5469971 -0.84375 -3.578247q0 -2.015625 0.875 -3.562378q0.875 -1.5623169 2.390625 -2.3901978q1.515625 -0.8278198 3.390625 -0.8274536q1.859375 3.0517578E-4 3.375 0.82873535q1.515625 0.82836914 2.390625 2.3754272q0.875 1.5314331 0.875 3.578308q0 2.03125 -0.90625 3.577942q-0.890625 1.5466919 -2.4375 2.3901978q-1.53125 0.8434448 -3.40625 0.8430786zm0 -1.921875q1.1875 2.4414062E-4 2.21875 -0.54644775q1.03125 -0.5623169 1.65625 -1.6559448q0.640625 -1.1092529 0.640625 -2.687378q0 -1.59375 -0.625 -2.687622q-0.625 -1.1094971 -1.640625 -1.6409302q-1.0 -0.5470581 -2.171875 -0.5472412q-1.203125 -2.4414062E-4 -2.203125 0.54644775q-0.984375 0.5310669 -1.59375 1.6403198q-0.59375 1.0936279 -0.59375 2.687378q0 1.609375 0.578125 2.718872q0.59375 1.0938721 1.578125 1.6409302q0.984375 0.5314331 2.15625 0.5316162zm11.81311 -9.310303q0.578125 -1.124939 1.640625 -1.7496948q1.078125 -0.6248169 2.609375 -0.62457275l0 2.25l-0.578125 -6.1035156E-5q-3.671875 -6.713867E-4 -3.671875 3.9837036l0 7.15625l-2.1875 -4.272461E-4l0 -13.15625l2.1875 4.272461E-4l0 2.140625zm18.764465 3.940918q0 0.625 -0.0625 1.3125l-10.515625 -0.001953125q0.125 1.953186 1.328125 3.0471191q1.21875 1.0939941 2.9375 1.0942993q1.421875 2.4414062E-4 2.359375 -0.65582275q0.953125 -0.6716919 1.34375 -1.7810059l2.34375 4.272461E-4q-0.515625 1.906189 -2.109375 3.0933838q-1.578125 1.1871948 -3.9375 1.1867676q-1.875 -3.6621094E-4 -3.34375 -0.84436035q-1.46875 -0.84399414 -2.3125 -2.3910522q-0.84375 -1.5469971 -0.84375 -3.578247q0 -2.046875 0.8125 -3.578003q0.8125 -1.5467529 2.28125 -2.3745728q1.484375 -0.82788086 3.40625 -0.82751465q1.875 3.6621094E-4 3.3125 0.82873535q1.4375 0.81274414 2.21875 2.2504272q0.78125 1.4219971 0.78125 3.218872zm-2.25 -0.45355225q0 -1.25 -0.5625 -2.140686q-0.546875 -0.9063721 -1.5 -1.3753052q-0.9375 -0.4689331 -2.09375 -0.4691162q-1.65625 -3.0517578E-4 -2.828125 1.0619507q-1.15625 1.0466919 -1.328125 2.9216309l8.3125 0.0015258789z" fill-rule="nonzero"/><path fill="#000000" fill-opacity="0.0" d="m299.29398 236.69833l0 0c0 -4.5024414 3.6499329 -8.152008 8.152374 -8.15155l285.64795 0.029800415c2.1621704 2.2888184E-4 4.235779 0.85935974 5.7646484 2.388382c1.5288696 1.5290375 2.3877563 3.6027222 2.3877563 5.764862l0 32.608612c0 4.5024414 -3.6499634 8.152008 -8.152405 8.15152l-285.64795 -0.029785156c-4.5024414 -4.5776367E-4 -8.152374 -3.6507874 -8.152374 -8.153229z" fill-rule="evenodd"/><path stroke="#8d3aed" stroke-width="3.0" stroke-linejoin="round" stroke-linecap="butt" d="m299.29398 236.69833l0 0c0 -4.5024414 3.6499329 -8.152008 8.152374 -8.15155l285.64795 0.029800415c2.1621704 2.2888184E-4 4.235779 0.85935974 5.7646484 2.388382c1.5288696 1.5290375 2.3877563 3.6027222 2.3877563 5.764862l0 32.608612c0 4.5024414 -3.6499634 8.152008 -8.152405 8.15152l-285.64795 -0.029785156c-4.5024414 -4.5776367E-4 -8.152374 -3.6507874 -8.152374 -8.153229z" fill-rule="evenodd"/><path fill="#ffffff" d="m410.90945 262.50616q-1.75 -1.8310547E-4 -3.125 -0.6097107q-1.375 -0.6251526 -2.171875 -1.7189941q-0.78125 -1.109436 -0.8125 -2.562561l2.46875 2.4414062E-4q0.125 1.2500305 1.015625 2.109497q0.90625 0.84384155 2.625 0.84402466q1.640625 1.5258789E-4 2.59375 -0.82788086q0.953125 -0.8280029 0.953125 -2.124878q0 -1.0 -0.5625 -1.625061q-0.546875 -0.64068604 -1.390625 -0.9689026q-0.828125 -0.34384155 -2.25 -0.7189789q-1.75 -0.4533081 -2.796875 -0.9065399q-1.046875 -0.45324707 -1.796875 -1.4220734q-0.75 -0.9844513 -0.75 -2.6407013q0 -1.4375 0.734375 -2.5467987q0.734375 -1.1249237 2.0625 -1.7185364q1.328125 -0.6092377 3.046875 -0.60905457q2.484375 2.593994E-4 4.0625 1.2348022q1.59375 1.2345428 1.796875 3.297058l-2.53125 -2.593994E-4q-0.125 -1.0156403 -1.0625 -1.7813568q-0.9375 -0.7813568 -2.484375 -0.7815094q-1.453125 -1.5258789E-4 -2.359375 0.7497406q-0.90625 0.74990845 -0.90625 2.0936584q0 0.953125 0.53125 1.562561q0.546875 0.60943604 1.34375 0.9220123q0.796875 0.31259155 2.25 0.7189789q1.75 0.4845581 2.8125 0.9534302q1.0625 0.4688568 1.8125 1.4533081q0.765625 0.9688263 0.765625 2.6407166q0 1.296875 -0.6875 2.4374084q-0.671875 1.140564 -2.015625 1.8435364q-1.34375 0.7030029 -3.171875 0.7028198zm12.086395 -12.154999l0 8.1875q0 1.015625 0.421875 1.4375305q0.4375 0.40631104 1.5 0.4064026l1.703125 1.8310547E-4l0 1.953125l-2.078125 -2.1362305E-4q-1.9375 -1.8310547E-4 -2.90625 -0.8753052q-0.953125 -0.89071655 -0.953125 -2.9219666l0 -8.1875l-1.796875 -1.8310547E-4l0 -1.890625l1.796875 1.8310547E-4l0 -3.5l2.3125 2.4414062E-4l0 3.5l3.625 3.8146973E-4l0 1.890625l-3.625 -3.8146973E-4zm5.547577 5.00058q0 -2.140625 0.859375 -3.7342834q0.859375 -1.6092987 2.359375 -2.4997559q1.515625 -0.8904724 3.359375 -0.89027405q1.828125 1.8310547E-4 3.171875 0.79719543q1.34375 0.7814026 2.0 1.9689636l0 -2.53125l2.328125 2.4414062E-4l0 13.875l-2.328125 -2.4414062E-4l0 -2.578125q-0.6875 1.203064 -2.046875 2.0154114q-1.34375 0.7967224 -3.140625 0.7965393q-1.859375 -1.8310547E-4 -3.359375 -0.9065857q-1.484375 -0.9220276 -2.34375 -2.5627441q-0.859375 -1.6563416 -0.859375 -3.7500916zm11.75 0.016845703q0 -1.5625 -0.640625 -2.718811q-0.625 -1.1719513 -1.703125 -1.7970581q-1.078125 -0.6251068 -2.375 -0.62524414q-1.28125 -1.373291E-4 -2.34375 0.60913086q-1.0625 0.6092529 -1.703125 1.7810669q-0.640625 1.156189 -0.640625 2.734314q0 1.59375 0.640625 2.765686q0.640625 1.171936 1.703125 1.7970581q1.0625 0.62509155 2.34375 0.62524414q1.296875 1.2207031E-4 2.375 -0.62475586q1.078125 -0.6248779 1.703125 -1.7966919q0.640625 -1.171814 0.640625 -2.749939zm13.981201 6.970215l-5.453125 -6.12558l0 6.125l-2.296875 -2.4414062E-4l0 -18.749985l2.296875 2.2888184E-4l0 11.03125l5.34375 -6.1556854l3.21875 3.3569336E-4l-6.53125 6.9055634l6.5625 6.969452l-3.140625 -3.3569336E-4zm6.4815063 -16.139954q-0.65625 -7.6293945E-5 -1.109375 -0.45324707q-0.453125 -0.45317078 -0.453125 -1.1094208q0 -0.65625 0.453125 -1.1093292q0.453125 -0.46870422 1.109375 -0.46862793q0.640625 6.1035156E-5 1.078125 0.4688568q0.4375 0.45317078 0.4375 1.1094208q0 0.65625 -0.4375 1.1093292q-0.4375 0.45307922 -1.078125 0.4530182zm1.109375 2.2657318l0 13.875015l-2.296875 -2.4414062E-4l0 -13.875l2.296875 2.2888184E-4zm10.699493 -0.26449585q2.53125 2.593994E-4 4.09375 1.5473022q1.578125 1.5314026 1.578125 4.4064026l0 8.187515l-2.28125 -2.4414062E-4l0 -7.859375q0 -2.0625 -1.046875 -3.1563568q-1.03125 -1.1094818 -2.828125 -1.1096802q-1.828125 -1.8310547E-4 -2.90625 1.1403198q-1.078125 1.1248932 -1.078125 3.3123932l0 7.671875l-2.296875 -2.4414062E-4l0 -13.875l2.296875 2.4414062E-4l0 1.96875q0.6875 -1.0624237 1.859375 -1.6404266q1.1875 -0.5936279 2.609375 -0.59347534zm15.163116 0.032821655q1.796875 1.9836426E-4 3.15625 0.7972107q1.359375 0.7813873 2.015625 1.9689636l0 -2.53125l2.328125 2.4414062E-4l0 14.171875q0 1.90625 -0.8125 3.3905334q-0.8125 1.4842834 -2.328125 2.3122559q-1.5 0.8435974 -3.5 0.8433838q-2.7343445 -2.746582E-4 -4.5624695 -1.2973633q-1.8125 -1.2970581 -2.140625 -3.5158386l2.28125 2.4414062E-4q0.375 1.2656555 1.5625 2.0314026q1.1874695 0.7813721 2.8593445 0.7815552q1.90625 2.1362305E-4 3.109375 -1.2027893q1.203125 -1.1873779 1.203125 -3.343628l0 -2.90625q-0.6875 1.2186584 -2.03125 2.0310364q-1.34375 0.8123474 -3.140625 0.8121643q-1.8437195 -1.8310547E-4 -3.3593445 -0.9065857q-1.5 -0.9220276 -2.359375 -2.5627441q-0.859375 -1.6563416 -0.859375 -3.7501068q0 -2.140625 0.859375 -3.7342834q0.859375 -1.6092834 2.359375 -2.4997559q1.515625 -0.89045715 3.3593445 -0.89027405zm5.171875 7.1411743q0 -1.5625 -0.640625 -2.7188263q-0.625 -1.171936 -1.703125 -1.7970428q-1.078125 -0.6251221 -2.375 -0.6252594q-1.28125 -1.2207031E-4 -2.3437195 0.60913086q-1.0625 0.6092682 -1.703125 1.7810822q-0.640625 1.1561737 -0.640625 2.7342987q0 1.5937653 0.640625 2.7657013q0.640625 1.171936 1.703125 1.7970581q1.0624695 0.62509155 2.3437195 0.62524414q1.296875 1.2207031E-4 2.375 -0.62475586q1.078125 -0.62490845 1.703125 -1.7966919q0.640625 -1.171814 0.640625 -2.749939z" fill-rule="nonzero"/><path fill="#000000" fill-opacity="0.0" d="m429.19946 169.05266l0 0c0 -4.5024414 3.6499634 -8.151718 8.152405 -8.150894l155.75818 0.028518677c2.1621704 3.8146973E-4 4.235779 0.8596802 5.7646484 2.3888245c1.5288696 1.5291595 2.3877563 3.6029053 2.3877563 5.7650604l0 32.608597c0 4.5024414 -3.6499634 8.151718 -8.152405 8.150894l-155.75818 -0.028503418c-4.5024414 -8.239746E-4 -8.152405 -3.6514435 -8.152405 -8.153885z" fill-rule="evenodd"/><path stroke="#8d3aed" stroke-width="3.0" stroke-linejoin="round" stroke-linecap="butt" d="m429.19946 169.05266l0 0c0 -4.5024414 3.6499634 -8.151718 8.152405 -8.150894l155.75818 0.028518677c2.1621704 3.8146973E-4 4.235779 0.8596802 5.7646484 2.3888245c1.5288696 1.5291595 2.3877563 3.6029053 2.3877563 5.7650604l0 32.608597c0 4.5024414 -3.6499634 8.151718 -8.152405 8.150894l-155.75818 -0.028503418c-4.5024414 -8.239746E-4 -8.152405 -3.6514435 -8.152405 -8.153885z" fill-rule="evenodd"/><path fill="#ffffff" d="m459.20966 177.16808q2.734375 5.0354004E-4 4.734375 1.0321198q2.0 1.0159912 3.0625 2.9224396q1.078125 1.8908234 1.078125 4.4533234q0 2.5625 -1.078125 4.4529266q-1.0625 1.8904266 -3.0625 2.8900604q-2.0 0.9840088 -4.734375 0.98350525l-5.21875 -9.460449E-4l0 -16.734375l5.21875 9.460449E-4zm0 14.9375q3.234375 5.950928E-4 4.9375 -1.7178345q1.703125 -1.7184448 1.703125 -4.812195q0 -3.125 -1.71875 -4.8753204q-1.71875 -1.7503052 -4.921875 -1.7509003l-3.03125 -5.493164E-4l0 13.15625l3.03125 5.493164E-4zm19.342957 1.97229q-2.328125 -4.119873E-4 -4.25 -1.0945282q-1.921875 -1.094101 -3.046875 -3.0474243q-1.109375 -1.9533234 -1.109375 -4.4064484q0 -2.453125 1.109375 -4.4060516q1.125 -1.9529266 3.046875 -3.0463257q1.921875 -1.093399 4.25 -1.0929718q2.34375 4.4250488E-4 4.265625 1.0945435q1.921875 1.094101 3.015625 3.0474243q1.109375 1.9376984 1.109375 4.4064484q0 2.46875 -1.109375 4.4216766q-1.09375 1.9373016 -3.015625 3.0307007q-1.921875 1.093399 -4.265625 1.0929565zm0 -1.90625q1.75 3.2043457E-4 3.140625 -0.81192017q1.40625 -0.8122406 2.203125 -2.327713q0.8125 -1.5154877 0.8125 -3.4998627q0 -2.015625 -0.8125 -3.5157623q-0.796875 -1.5001526 -2.1875 -2.312912q-1.390625 -0.82836914 -3.15625 -0.82870483q-1.78125 -3.2043457E-4 -3.171875 0.82754517q-1.390625 0.81225586 -2.203125 2.3121033q-0.796875 1.4998474 -0.796875 3.5154724q0 1.984375 0.796875 3.5001526q0.8125 1.5157776 2.21875 2.328537q1.40625 0.81274414 3.15625 0.8130646zm21.567078 -14.996048l0 1.78125l-4.5625 -8.392334E-4l0 14.953125l-2.171875 -3.9672852E-4l0 -14.953125l-4.59375 -8.392334E-4l0 -1.78125l11.328125 0.0020751953zm19.391907 0.0035552979l0 1.78125l-4.5625 -8.392334E-4l0 14.953125l-2.171875 -3.9672852E-4l0 -14.953125l-4.5937195 -8.392334E-4l0 -1.78125l11.3280945 0.0020751953zm8.421509 16.954666q-1.84375 -3.3569336E-4 -3.34375 -0.84436035q-1.5 -0.84402466 -2.359375 -2.3910675q-0.84375 -1.5470276 -0.84375 -3.5782776q0 -2.015625 0.875 -3.5623322q0.875 -1.5623474 2.390625 -2.3901978q1.515625 -0.8278351 3.390625 -0.8274994q1.859375 3.3569336E-4 3.375 0.8287506q1.515625 0.82839966 2.390625 2.3754272q0.875 1.5314178 0.875 3.5782928q0 2.03125 -0.90625 3.5779572q-0.890625 1.5467072 -2.4375 2.3901825q-1.53125 0.8434601 -3.40625 0.8431244zm0 -1.921875q1.1875 2.1362305E-4 2.21875 -0.5464783q1.03125 -0.56230164 1.65625 -1.6559448q0.640625 -1.1092529 0.640625 -2.687378q0 -1.59375 -0.625 -2.687622q-0.625 -1.1094818 -1.640625 -1.6409149q-1.0 -0.5470581 -2.171875 -0.5472717q-1.203125 -2.2888184E-4 -2.203125 0.546463q-0.984375 0.53108215 -1.59375 1.6403351q-0.59375 1.0936432 -0.59375 2.6873932q0 1.609375 0.578125 2.7188568q0.59375 1.0938568 1.578125 1.6409149q0.984375 0.5314331 2.15625 0.5316467zm16.9693 1.7062225l-5.15625 -5.813431l0 5.8125l-2.1875 -4.119873E-4l0 -17.765625l2.1875 4.119873E-4l0 10.453125l5.0625 -5.8428345l3.046875 5.645752E-4l-6.1875 6.561371l6.21875 6.594879l-2.984375 -5.493164E-4zm17.016235 -7.074997q0 0.625 -0.0625 1.3124847l-10.515625 -0.0019226074q0.125 1.9531403 1.328125 3.0471191q1.21875 1.0939636 2.9375 1.094284q1.421875 2.593994E-4 2.359375 -0.65582275q0.953125 -0.6716919 1.34375 -1.7810059l2.34375 4.272461E-4q-0.515625 1.9061584 -2.109375 3.0933685q-1.578125 1.1872101 -3.9375 1.1867828q-1.875 -3.5095215E-4 -3.34375 -0.84436035q-1.46875 -0.84402466 -2.3125 -2.3910522q-0.84375 -1.5470276 -0.84375 -3.5782776q0 -2.046875 0.8125 -3.5779724q0.8125 -1.5467377 2.28125 -2.374588q1.484375 -0.82785034 3.40625 -0.8274994q1.875 3.3569336E-4 3.3125 0.82873535q1.4375 0.8127594 2.21875 2.2503967q0.78125 1.4220276 0.78125 3.2189026zm-2.25 -0.453537q0 -1.25 -0.5625 -2.1407318q-0.546875 -0.9063568 -1.5 -1.3752747q-0.9375 -0.46891785 -2.09375 -0.46913147q-1.65625 -3.0517578E-4 -2.828125 1.0619812q-1.15625 1.0466614 -1.328125 2.9216309l8.3125 0.0015258789zm11.536194 -5.8572693q2.40625 4.4250488E-4 3.890625 1.4538422q1.484375 1.4533844 1.484375 4.1877594l0 7.75l-2.15625 -3.8146973E-4l0 -7.4375q0 -1.96875 -0.984375 -3.015808q-0.984375 -1.0470581 -2.6875 -1.0473785q-1.71875 -3.0517578E-4 -2.75 1.0776215q-1.015625 1.0779419 -1.015625 3.156067l0 7.265625l-2.1875 -3.9672852E-4l0 -13.15625l2.1875 3.9672852E-4l0 1.875q0.65625 -0.9998779 1.765625 -1.5465546q1.109375 -0.5622864 2.453125 -0.56204224z" fill-rule="nonzero"/><path fill="#999999" d="m326.8844 450.3125l0 0c0 -4.5053406 3.6523132 -8.157654 8.157654 -8.157654l181.44849 0c2.1635742 0 4.2384644 0.85946655 5.7683105 2.3893127c1.5298462 1.5298767 2.3893433 3.6047974 2.3893433 5.768341l0 32.62961c0 4.5053406 -3.6522827 8.157623 -8.157654 8.157623l-181.44849 0c-4.5053406 0 -8.157654 -3.6522827 -8.157654 -8.157623z" fill-rule="evenodd"/><path fill="#ffffff" d="m425.81064 472.87668q-0.453125 0 -0.765625 -0.3125q-0.3125 -0.3125 -0.3125 -0.765625q0 -0.453125 0.3125 -0.765625q0.3125 -0.3125 0.765625 -0.3125q0.421875 0 0.71875 0.3125q0.3125 0.3125 0.3125 0.765625q0 0.453125 -0.3125 0.765625q-0.296875 0.3125 -0.71875 0.3125zm3.265625 0q-0.453125 0 -0.765625 -0.3125q-0.3125 -0.3125 -0.3125 -0.765625q0 -0.453125 0.3125 -0.765625q0.3125 -0.3125 0.765625 -0.3125q0.421875 0 0.71875 0.3125q0.3125 0.3125 0.3125 0.765625q0 0.453125 -0.3125 0.765625q-0.296875 0.3125 -0.71875 0.3125zm-6.5 0q-0.453125 0 -0.765625 -0.3125q-0.3125 -0.3125 -0.3125 -0.765625q0 -0.453125 0.3125 -0.765625q0.3125 -0.3125 0.765625 -0.3125q0.421875 0 0.71875 0.3125q0.3125 0.3125 0.3125 0.765625q0 0.453125 -0.3125 0.765625q-0.296875 0.3125 -0.71875 0.3125z" fill-rule="nonzero"/><path fill="#999999" d="m93.22289 72.74828l0 0c0 -6.9580536 5.6406174 -12.597507 12.598671 -12.596062l126.51918 0.02626419c3.341385 6.942749E-4 6.5458984 1.3287163 8.908615 3.6919174c2.3627014 2.3632011 3.6900635 5.567997 3.6900635 8.909374l0 50.393196c0 6.9580536 -5.640625 12.597504 -12.598679 12.596069l-126.51918 -0.026275635c-6.9580536 -0.0014343262 -12.598671 -5.6432343 -12.598671 -12.601288z" fill-rule="evenodd"/><path fill="#ffffff" d="m145.0525 104.34564q-1.046875 -2.2125244E-4 -1.828125 -0.25038147q-0.78125 -0.26578522 -1.265625 -0.6096344l-0.484375 0.6248932l-0.671875 -1.373291E-4l0.828125 -4.1248245l0.6875 1.373291E-4q0.046875 0.73439026 0.203125 1.3906708q0.15625 0.6406555 0.515625 1.1563568q0.34375 0.53131866 0.90625 0.82831573q0.578125 0.28136444 1.40625 0.28153992q1.265625 2.593994E-4 2.03125 -0.6870804q0.765625 -0.7029648 0.765625 -1.9060898q0 -0.65625 -0.328125 -1.1563187q-0.328125 -0.51569366 -0.96875 -0.79707336q-0.609375 -0.2657547 -1.203125 -0.46900177q-0.59375 -0.20324707 -1.171875 -0.48461914q-0.765625 -0.37516022 -1.234375 -1.0471344q-0.453125 -0.68759155 -0.453125 -1.5313416q0 -0.8125 0.359375 -1.4999237q0.359375 -0.6874237 0.953125 -1.1873016q0.578125 -0.48425293 1.390625 -0.7653351q0.8125 -0.29670715 1.625 -0.2965393q0.75 1.5258789E-4 1.421875 0.18779755q0.671875 0.17201233 1.34375 0.65652466l0.46875 -0.5624008l0.671875 1.373291E-4l-0.84375 3.9841995l-0.6875 -1.449585E-4q-0.03125 -0.65625 -0.140625 -1.3437729q-0.09375 -0.7031479 -0.359375 -1.1563263q-0.28125 -0.50006104 -0.78125 -0.7814102q-0.484375 -0.2813568 -1.328125 -0.2815323q-0.984375 -1.9836426E-4 -1.671875 0.6871567q-0.671875 0.6873627 -0.671875 1.6404877q0 0.625 0.25 1.0625534q0.25 0.42192078 0.765625 0.7032776q0.5625 0.28137207 1.171875 0.50024414q0.625 0.2032547 1.109375 0.42210388q0.96875 0.468956 1.515625 1.1096954q0.546875 0.64073944 0.546875 1.5626144q0 0.90625 -0.390625 1.6874161q-0.390625 0.7655411 -1.046875 1.2966537q-0.6875 0.5623627 -1.546875 0.85905457q-0.84375 0.29669952 -1.859375 0.29649353zm13.377945 -7.028473q0 0.90625 -0.5625 1.5467529q-0.5625 0.64051056 -1.625 1.0152893q-0.796875 0.29671478 -1.609375 0.4684143q-0.796875 0.17171478 -1.765625 0.2965088q0 1.34375 0.484375 2.0469818q0.5 0.7032242 1.46875 0.7034302q0.84375 1.7547607E-4 1.484375 -0.42156982q0.65625 -0.42173767 1.28125 -1.265358l0.484375 0.35947418q-0.6875 1.031105 -1.703125 1.655899q-1.015625 0.6091614 -2.109375 0.6089325q-1.484375 -3.0517578E-4 -2.28125 -0.828598q-0.796875 -0.8439102 -0.796875 -2.3907852q0 -1.0625 0.328125 -2.031189q0.34375 -0.9686737 0.984375 -1.765419q0.625 -0.7967453 1.53125 -1.2653046q0.921875 -0.48418427 2.015625 -0.48395538q1.21875 2.5177002E-4 1.796875 0.50037384q0.59375 0.48449707 0.59375 1.2501221zm-1.546875 -0.20344543q0 -0.328125 -0.09375 -0.5156479q-0.09375 -0.20314026 -0.234375 -0.29692078q-0.15625 -0.09378815 -0.328125 -0.109443665q-0.171875 -0.031288147 -0.34375 -0.031326294q-1.015625 -2.0599365E-4 -1.875 1.1089859q-0.859375 1.1091995 -1.09375 2.7810287q0.59375 -0.07800293 1.34375 -0.23410034q0.75 -0.15608978 1.234375 -0.4216156q0.703125 -0.35923004 1.046875 -0.9216614q0.34375 -0.5780487 0.34375 -1.3592987zm9.9702 -0.16980743q0 0.234375 -0.078125 0.51560974q-0.0625 0.28123474 -0.1875 0.46871185q-0.15625 0.23433685 -0.34375 0.3592987q-0.171875 0.12496948 -0.515625 0.12489319q-0.453125 -9.1552734E-5 -0.6875 -0.23451233q-0.21875 -0.23442078 -0.21875 -0.5156708q0 -0.25 0.125 -0.5781021q0.125 -0.32809448 0.265625 -0.6561966q-0.109375 -2.2888184E-5 -0.34375 0.062431335q-0.234375 0.046829224 -0.5625 0.21863556q-0.328125 0.15618134 -0.75 0.48421478q-0.421875 0.31241608 -0.890625 0.8435669l-1.359375 6.0622177l-1.578125 -3.2806396E-4l1.234375 -5.4841156q0.046875 -0.20311737 0.125 -0.6093521q0.078125 -0.40623474 0.078125 -0.59373474q0 -0.484375 -0.15625 -0.6406555q-0.15625 -0.15628052 -0.640625 -0.1563797q-0.1875 -4.5776367E-5 -0.484375 0.06239319q-0.28125 0.062446594 -0.4375 0.10928345l0.125 -0.5468445q0.65625 -0.29673767 1.15625 -0.4372635q0.515625 -0.14051819 0.875 -0.1404419q0.6875 1.449585E-4 0.96875 0.37519836q0.296875 0.35944366 0.296875 1.0938187l0.046875 7.6293945E-6q1.0 -0.874794 1.515625 -1.2184372q0.53125 -0.34363556 1.09375 -0.34352112q0.265625 5.340576E-5 0.515625 0.06260681q0.265625 0.062553406 0.4375 0.23446655q0.1875 0.17191315 0.28125 0.4063034q0.09375 0.23439789 0.09375 0.6718979zm8.714401 0.18930817q0 1.28125 -0.390625 2.609291q-0.390625 1.3280487 -1.078125 2.3122787q-0.671875 1.0154877 -1.625 1.6559143q-0.953125 0.64042664 -2.078125 0.6401901q-1.109375 -2.2888184E-4 -1.78125 -0.6097412q-0.65625 -0.6095123 -0.65625 -1.6407623q0 -0.203125 0.046875 -0.43749237q0.046875 -0.24998474 0.0625 -0.34373474l0.75 -2.7029724q0.078125 -0.3281021 0.140625 -0.6405945q0.0625 -0.32810974 0.0625 -0.56248474q0 -0.46875 -0.171875 -0.62503815q-0.15625 -0.17190552 -0.640625 -0.1720047q-0.171875 -3.8146973E-5 -0.484375 0.07802582q-0.296875 0.078063965 -0.453125 0.12490082l0.125 -0.5468445q0.65625 -0.29673767 1.171875 -0.45288086q0.515625 -0.15614319 0.8125 -0.15608215q0.6875 1.373291E-4 1.0 0.312706q0.328125 0.31256866 0.328125 0.90631866q0 0.15625 -0.03125 0.40624237q-0.015625 0.234375 -0.09375 0.5312271l-0.8125 3.1560822q-0.09375 0.31248474 -0.140625 0.6093521q-0.03125 0.29686737 -0.03125 0.39061737q0 0.4375 0.140625 0.7187805q0.140625 0.2656479 0.34375 0.42194366q0.203125 0.14066315 0.4375 0.20321655q0.25 0.046928406 0.5 0.046974182q0.578125 1.2207031E-4 1.1875 -0.35912323q0.625 -0.3592453 1.078125 -0.95290375q0.5 -0.6248932 0.796875 -1.4060822q0.3125 -0.78118896 0.3125 -1.734314q0 -0.5 -0.140625 -0.7812805q-0.140625 -0.2812729 -0.3125 -0.48443604q-0.171875 -0.20316315 -0.3125 -0.43756866q-0.140625 -0.23439789 -0.140625 -0.6562729q0 -0.484375 0.328125 -0.73431396q0.328125 -0.24993134 0.671875 -0.24985504q0.5 9.918213E-5 0.78125 0.40641022q0.296875 0.39068604 0.296875 1.156311zm5.1833954 6.0479507l-0.125 0.5468521q-0.78125 0.31233215 -1.25 0.4216156q-0.453125 0.12490082 -0.78125 0.12483215q-0.6875 -1.373291E-4 -1.03125 -0.34396362q-0.328125 -0.35944366 -0.328125 -0.87506866q0 -0.1875 0.03125 -0.39061737q0.03125 -0.21874237 0.109375 -0.5468521l0.90625 -3.5935593q0.0625 -0.29685974 0.125 -0.6249771q0.0625 -0.34373474 0.0625 -0.57810974q0 -0.484375 -0.15625 -0.6406555q-0.15625 -0.15628052 -0.640625 -0.15638733q-0.1875 -3.8146973E-5 -0.5 0.062400818q-0.296875 0.062438965 -0.453125 0.10927582l0.125 -0.5468445q0.65625 -0.29673767 1.171875 -0.43725586q0.53125 -0.14051819 0.84375 -0.14044952q0.6875 1.373291E-4 1.0 0.328331q0.3125 0.32818604 0.3125 0.89068604q0 0.140625 -0.03125 0.40625q-0.03125 0.26561737 -0.109375 0.5312271l-0.90625 3.5935593q-0.078125 0.32810974 -0.140625 0.6562195q-0.0625 0.31248474 -0.0625 0.51560974q0 0.46875 0.203125 0.6562958q0.21875 0.17192078 0.703125 0.17201996q0.171875 3.8146973E-5 0.46875 -0.031150818q0.296875 -0.046813965 0.453125 -0.10928345zm0.609375 -10.81237q0 0.484375 -0.3125 0.84368134q-0.3125 0.35931396 -0.78125 0.35921478q-0.4375 -9.1552734E-5 -0.75 -0.3439026q-0.3125 -0.34381866 -0.3125 -0.78131866q0 -0.46875 0.3125 -0.81243134q0.3125 -0.34368896 0.75 -0.3435974q0.484375 9.918213E-5 0.78125 0.32828522q0.3125 0.31256866 0.3125 0.75006866zm3.6527557 11.969505q-1.484375 -3.0517578E-4 -2.34375 -0.8598633q-0.859375 -0.8595505 -0.859375 -2.4533005q0 -1.0625 0.328125 -2.0311813q0.328125 -0.96868134 0.90625 -1.7185593q0.59375 -0.7498779 1.484375 -1.2184448q0.890625 -0.4841919 1.984375 -0.483963q1.203125 2.5177002E-4 1.828125 0.51600647q0.640625 0.5001297 0.640625 1.2813797q0 0.578125 -0.28125 1.031189q-0.265625 0.4374466 -0.8125 0.43733215q-0.46875 -9.1552734E-5 -0.703125 -0.23451996q-0.21875 -0.23442078 -0.21875 -0.5000458q0 -0.28125 0.1875 -0.74996185q0.1875 -0.46871185 0.296875 -0.74993896q-0.09375 -0.23439026 -0.421875 -0.32820892q-0.3125 -0.109443665 -0.65625 -0.10951233q-1.15625 -2.3651123E-4 -2.0 1.343338q-0.828125 1.3279495 -0.828125 3.2810745q0 1.203125 0.53125 1.9063644q0.546875 0.7032318 1.46875 0.7034302q0.8125 1.6784668E-4 1.453125 -0.43720245q0.640625 -0.43736267 1.21875 -1.2497482l0.484375 0.35947418q-0.578125 0.92176056 -1.59375 1.5934219q-1.0 0.671669 -2.09375 0.6714401zm11.922775 -7.0131454q0 0.90625 -0.5625 1.5467529q-0.5625 0.64051056 -1.625 1.0152893q-0.796875 0.29670715 -1.609375 0.4684143q-0.796875 0.17171478 -1.765625 0.2965088q0 1.34375 0.484375 2.0469742q0.5 0.7032318 1.46875 0.7034302q0.84375 1.7547607E-4 1.484375 -0.4215622q0.65625 -0.42173767 1.28125 -1.265358l0.484375 0.35947418q-0.6875 1.031105 -1.703125 1.6558914q-1.015625 0.609169 -2.109375 0.6089401q-1.484375 -3.0517578E-4 -2.28125 -0.828598q-0.796875 -0.84391785 -0.796875 -2.3907928q0 -1.0625 0.328125 -2.0311813q0.34375 -0.9686737 0.984375 -1.765419q0.625 -0.7967453 1.53125 -1.2653046q0.921875 -0.48418427 2.015625 -0.483963q1.21875 2.593994E-4 1.796875 0.50037384q0.59375 0.4845047 0.59375 1.2501297zm-1.546875 -0.20345306q0 -0.328125 -0.09375 -0.51564026q-0.09375 -0.20314789 -0.234375 -0.29692078q-0.15625 -0.09378815 -0.328125 -0.109443665q-0.171875 -0.031288147 -0.34375 -0.031326294q-1.015625 -2.0599365E-4 -1.875 1.1089859q-0.859375 1.1091995 -1.09375 2.781021q0.59375 -0.0779953 1.34375 -0.23409271q0.75 -0.15609741 1.234375 -0.4216156q0.703125 -0.35923004 1.046875 -0.9216614q0.34375 -0.57805634 0.34375 -1.3593063z" fill-rule="nonzero"/><path fill="#999999" d="m192.22299 161.38603l0 0c0 -5.4736786 4.4372864 -9.910965 9.91095 -9.910965l39.642654 0l0 0c2.6285553 0 5.1494446 1.0441895 7.0081024 2.9028473c1.8586731 1.8586731 2.9028625 4.3795624 2.9028625 7.0081177l0 55.76863c0 5.4736633 -4.4372864 9.91095 -9.910965 9.91095l-39.642654 0c-5.4736633 0 -9.91095 -4.4372864 -9.91095 -9.91095z" fill-rule="evenodd"/><path fill="#ffffff" d="m221.9996 195.51971q-0.453125 0 -0.765625 -0.3125q-0.3125 -0.3125 -0.3125 -0.765625q0 -0.453125 0.3125 -0.765625q0.3125 -0.3125 0.765625 -0.3125q0.421875 0 0.71875 0.3125q0.3125 0.3125 0.3125 0.765625q0 0.453125 -0.3125 0.765625q-0.296875 0.3125 -0.71875 0.3125zm3.265625 0q-0.453125 0 -0.765625 -0.3125q-0.3125 -0.3125 -0.3125 -0.765625q0 -0.453125 0.3125 -0.765625q0.3125 -0.3125 0.765625 -0.3125q0.421875 0 0.71875 0.3125q0.3125 0.3125 0.3125 0.765625q0 0.453125 -0.3125 0.765625q-0.296875 0.3125 -0.71875 0.3125zm-6.5 0q-0.453125 0 -0.765625 -0.3125q-0.3125 -0.3125 -0.3125 -0.765625q0 -0.453125 0.3125 -0.765625q0.3125 -0.3125 0.765625 -0.3125q0.421875 0 0.71875 0.3125q0.3125 0.3125 0.3125 0.765625q0 0.453125 -0.3125 0.765625q-0.296875 0.3125 -0.71875 0.3125z" fill-rule="nonzero"/><path fill="#999999" d="m66.32789 439.06052l0 0c0 -4.032776 3.2692108 -7.3013 7.3019867 -7.300476l137.11258 0.0284729c1.9365997 3.9672852E-4 3.7938843 0.7701111 5.1632843 2.1397705c1.3693848 1.3696594 2.1386871 3.2271118 2.1386871 5.163727l0 29.207062c0 4.032776 -3.2691956 7.3013 -7.3019714 7.300476l-137.11258 -0.0284729c-4.032776 -8.544922E-4 -7.3019867 -3.2707214 -7.3019867 -7.3034973z" fill-rule="evenodd"/><path fill="#ffffff" d="m142.23048 459.92917q-0.453125 -9.1552734E-5 -0.765625 -0.3126526q-0.3125 -0.31256104 -0.3125 -0.76568604q0 -0.453125 0.3125 -0.76556396q0.3125 -0.31243896 0.765625 -0.3123474q0.421875 9.1552734E-5 0.71875 0.3126526q0.3125 0.31256104 0.3125 0.76568604q0 0.453125 -0.3125 0.76556396q-0.296875 0.31243896 -0.71875 0.3123474zm3.265625 6.713867E-4q-0.453125 -9.1552734E-5 -0.765625 -0.3126526q-0.3125 -0.31256104 -0.3125 -0.76568604q0 -0.453125 0.3125 -0.76556396q0.3125 -0.31243896 0.765625 -0.3123474q0.421875 9.1552734E-5 0.71875 0.3126526q0.3125 0.31256104 0.3125 0.76568604q0 0.453125 -0.3125 0.76556396q-0.296875 0.31243896 -0.71875 0.3123474zm-6.5 -0.0013427734q-0.453125 -9.1552734E-5 -0.765625 -0.3126526q-0.3125 -0.31256104 -0.3125 -0.76568604q0 -0.453125 0.3125 -0.76556396q0.3125 -0.31243896 0.765625 -0.3123474q0.421875 9.1552734E-5 0.71875 0.3126526q0.3125 0.31256104 0.3125 0.76568604q0 0.453125 -0.3125 0.76556396q-0.296875 0.31243896 -0.71875 0.3123474z" fill-rule="nonzero"/><path fill="#25cc85" d="m299.29398 308.7798l0 0c0 -6.958069 5.640625 -12.597443 12.598663 -12.595917l118.45621 0.025970459c3.3413696 7.324219E-4 6.5458984 1.3287964 8.9086 3.6920166c2.3627014 2.3632202 3.6900635 5.568054 3.6900635 8.909424l0 50.39319c0 6.958069 -5.640625 12.597443 -12.598663 12.595917l-118.45621 -0.025970459c-6.9580383 -0.0015258789 -12.598663 -5.6433716 -12.598663 -12.60144z" fill-rule="evenodd"/><path fill="#ffffff" d="m336.2279 331.5776q0 1.515625 -1.03125 2.5153809q-1.03125 0.9841614 -3.140625 0.9837036l-2.328125 -5.187988E-4l0 5.046875l-1.578125 -3.3569336E-4l0 -12.078125l3.90625 8.544922E-4q2.046875 4.5776367E-4 3.109375 0.9850464q1.0625 0.98461914 1.0625 2.5471191zm-4.171875 2.2022095q1.3125 2.746582E-4 1.9375 -0.56207275q0.625 -0.5780029 0.625 -1.6405029q0 -2.234375 -2.5625 -2.2349243l-2.328125 -5.187988E-4l0 4.4375l2.328125 5.187988E-4zm5.5485535 1.5637207q0 -1.453125 0.578125 -2.546753q0.59375 -1.1092529 1.625 -1.7184143q1.03125 -0.60913086 2.296875 -0.6088562q1.25 2.746582E-4 2.15625 0.54733276q0.921875 0.5314636 1.375 1.3440552l0 -1.734375l1.59375 3.6621094E-4l0 9.5l-1.59375 -3.6621094E-4l0 -1.765625q-0.46875 0.82803345 -1.390625 1.3746948q-0.921875 0.5466919 -2.15625 0.54641724q-1.265625 -2.746582E-4 -2.296875 -0.6255188q-1.015625 -0.6252136 -1.609375 -1.7503357q-0.578125 -1.1251221 -0.578125 -2.562622zm8.03125 0.017364502q0 -1.078125 -0.4375 -1.8750916q-0.421875 -0.79696655 -1.15625 -1.2189941q-0.734375 -0.4220276 -1.625 -0.4222412q-0.890625 -1.8310547E-4 -1.625 0.4215393q-0.71875 0.4060669 -1.15625 1.2028503q-0.421875 0.79678345 -0.421875 1.8749084q0 1.09375 0.421875 1.9063416q0.4375 0.79696655 1.15625 1.2190247q0.734375 0.4220276 1.625 0.4222107q0.890625 2.1362305E-4 1.625 -0.4215088q0.734375 -0.4217224 1.15625 -1.2185059q0.4375 -0.81240845 0.4375 -1.8905334zm5.838745 -3.1862183q0.421875 -0.81240845 1.1875 -1.2653503q0.78125 -0.4529724 1.890625 -0.45272827l0 1.625l-0.421875 -9.1552734E-5q-2.65625 -5.79834E-4 -2.65625 2.8900452l0 5.15625l-1.578125 -3.3569336E-4l0 -9.5l1.578125 3.3569336E-4l0 1.546875zm4.3070984 3.172821q0 -1.453125 0.578125 -2.546753q0.59375 -1.1092224 1.625 -1.7183838q1.03125 -0.6091614 2.296875 -0.6088562q1.25 2.746582E-4 2.15625 0.54733276q0.921875 0.5314636 1.375 1.3440552l0 -1.734375l1.59375 3.3569336E-4l0 9.5l-1.59375 -3.3569336E-4l0 -1.765625q-0.46875 0.82803345 -1.390625 1.3746948q-0.921875 0.5466614 -2.15625 0.5463867q-1.265625 -2.746582E-4 -2.296875 -0.6254883q-1.015625 -0.6252136 -1.609375 -1.7503662q-0.578125 -1.1251221 -0.578125 -2.562622zm8.03125 0.01739502q0 -1.078125 -0.4375 -1.8750916q-0.421875 -0.79696655 -1.15625 -1.2189941q-0.734375 -0.4220581 -1.625 -0.4222412q-0.890625 -2.1362305E-4 -1.625 0.4215088q-0.71875 0.4060974 -1.15625 1.2028809q-0.421875 0.79678345 -0.421875 1.8749084q0 1.09375 0.421875 1.9063416q0.4375 0.79696655 1.15625 1.2189941q0.734375 0.4220276 1.625 0.4222412q0.890625 1.8310547E-4 1.625 -0.4215088q0.734375 -0.4217224 1.15625 -1.2185059q0.4375 -0.81240845 0.4375 -1.8905334zm3.682495 7.9345703E-4q0 -1.46875 0.578125 -2.5623474q0.59375 -1.1092529 1.640625 -1.7184143q1.046875 -0.60913086 2.40625 -0.6088257q1.75 3.6621094E-4 2.875 0.85998535q1.140625 0.84399414 1.5 2.3440857l-1.6875 -3.6621094E-4q-0.25 -0.85943604 -0.953125 -1.3595886q-0.703125 -0.5001526 -1.734375 -0.5003662q-1.359375 -3.0517578E-4 -2.1875 0.9213867q-0.828125 0.9216919 -0.828125 2.624817q0 1.71875 0.828125 2.656433q0.828125 0.9376831 2.1875 0.9379883q1.03125 2.1362305E-4 1.71875 -0.4840088q0.703125 -0.4998474 0.96875 -1.3904114l1.6875 3.6621094E-4q-0.375 1.4530334 -1.515625 2.3277893q-1.140625 0.87475586 -2.859375 0.87438965q-1.359375 -3.0517578E-4 -2.40625 -0.6099243q-1.046875 -0.6095886 -1.640625 -1.7190857q-0.578125 -1.1095276 -0.578125 -2.5939026zm15.814972 -4.902771q1.078125 2.4414062E-4 1.9375 0.46917725q0.875 0.4533081 1.359375 1.3753052q0.5 0.92196655 0.5 2.2344666l0 5.59375l-1.5625 -3.3569336E-4l0 -5.375q0 -1.421875 -0.71875 -2.1720276q-0.703125 -0.7501526 -1.9375 -0.75042725q-1.234375 -2.746582E-4 -1.984375 0.78082275q-0.734375 0.7810669 -0.734375 2.265442l0 5.25l-1.578125 -3.3569336E-4l0 -12.828125l1.578125 3.3569336E-4l0 4.6875q0.46875 -0.7342529 1.296875 -1.1246948q0.828125 -0.4060669 1.84375 -0.40585327zm5.7930603 4.8919067q0 -1.453125 0.578125 -2.546753q0.59375 -1.1092529 1.625 -1.7184143q1.03125 -0.60913086 2.296875 -0.6088562q1.25 2.746582E-4 2.15625 0.54733276q0.921875 0.5314636 1.375 1.3440552l0 -1.734375l1.59375 3.6621094E-4l0 9.5l-1.59375 -3.6621094E-4l0 -1.765625q-0.46875 0.82803345 -1.390625 1.3746948q-0.921875 0.5466919 -2.15625 0.54641724q-1.265625 -2.746582E-4 -2.296875 -0.6255188q-1.015625 -0.6252136 -1.609375 -1.7503357q-0.578125 -1.1251221 -0.578125 -2.562622zm8.03125 0.017364502q0 -1.078125 -0.4375 -1.8750916q-0.421875 -0.79696655 -1.15625 -1.2189941q-0.734375 -0.4220276 -1.625 -0.4222412q-0.890625 -1.8310547E-4 -1.625 0.4215393q-0.71875 0.4060669 -1.15625 1.2028503q-0.421875 0.79678345 -0.421875 1.8749084q0 1.09375 0.421875 1.9063416q0.4375 0.79696655 1.15625 1.2190247q0.734375 0.4220276 1.625 0.4222107q0.890625 2.1362305E-4 1.625 -0.4215088q0.734375 -0.4217224 1.15625 -1.2185059q0.4375 -0.81240845 0.4375 -1.8905334zm5.088745 -6.264496q-0.453125 -9.1552734E-5 -0.765625 -0.3126831q-0.3125 -0.31256104 -0.3125 -0.76568604q0 -0.453125 0.3125 -0.76556396q0.3125 -0.31240845 0.765625 -0.3123169q0.421875 9.1552734E-5 0.71875 0.3126526q0.3125 0.31256104 0.3125 0.76568604q0 0.453125 -0.3125 0.76556396q-0.296875 0.31243896 -0.71875 0.3123474zm0.75 1.5314026l0 9.5l-1.578125 -3.3569336E-4l0 -9.5l1.578125 3.3569336E-4zm7.3095703 -0.17025757q1.734375 3.6621094E-4 2.8125 1.0474854q1.078125 1.0471191 1.078125 3.0314941l0 5.59375l-1.5625 -3.3569336E-4l0 -5.375q0 -1.421875 -0.71875 -2.172058q-0.703125 -0.7501526 -1.9375 -0.75042725q-1.234375 -2.4414062E-4 -1.984375 0.78082275q-0.734375 0.7810974 -0.734375 2.2654724l0 5.25l-1.578125 -3.3569336E-4l0 -9.5l1.578125 3.3569336E-4l0 1.359375q0.46875 -0.73428345 1.265625 -1.1247253q0.8125 -0.4060669 1.78125 -0.40585327z" fill-rule="nonzero"/><path fill="#25cc85" d="m457.59302 308.78766l0 0c0 -6.958069 5.6405945 -12.597443 12.598663 -12.595917l118.45621 0.025970459c3.3413696 7.324219E-4 6.5458984 1.3287964 8.908569 3.6920166c2.362732 2.3632202 3.6900635 5.568054 3.6900635 8.909424l0 50.39319c0 6.958069 -5.640564 12.597443 -12.598633 12.595917l-118.45621 -0.025970459c-6.958069 -0.0015258789 -12.598663 -5.6433716 -12.598663 -12.60144z" fill-rule="evenodd"/><path fill="#ffffff" d="m494.52692 331.58548q0 1.515625 -1.03125 2.5153809q-1.03125 0.9841614 -3.140625 0.9837036l-2.328125 -5.187988E-4l0 5.046875l-1.578125 -3.3569336E-4l0 -12.078125l3.90625 8.544922E-4q2.046875 4.5776367E-4 3.109375 0.9850464q1.0625 0.98461914 1.0625 2.5471191zm-4.171875 2.2022095q1.3125 2.746582E-4 1.9375 -0.56207275q0.625 -0.5780029 0.625 -1.6405029q0 -2.234375 -2.5625 -2.2349243l-2.328125 -5.187988E-4l0 4.4375l2.328125 5.187988E-4zm5.5485535 1.5637207q0 -1.453125 0.578125 -2.546753q0.59375 -1.1092529 1.625 -1.7183838q1.03125 -0.6091614 2.296875 -0.6088867q1.25 2.746582E-4 2.15625 0.5473633q0.921875 0.5314331 1.375 1.3440247l0 -1.734375l1.59375 3.6621094E-4l0 9.5l-1.59375 -3.6621094E-4l0 -1.765625q-0.46875 0.82803345 -1.390625 1.3746948q-0.921875 0.5466919 -2.15625 0.54641724q-1.265625 -2.746582E-4 -2.296875 -0.6255188q-1.015625 -0.6252136 -1.609375 -1.7503357q-0.578125 -1.1251221 -0.578125 -2.562622zm8.03125 0.017364502q0 -1.078125 -0.4375 -1.8750916q-0.421875 -0.79696655 -1.15625 -1.2189941q-0.734375 -0.4220276 -1.625 -0.4222412q-0.890625 -1.8310547E-4 -1.625 0.4215393q-0.71875 0.4060669 -1.15625 1.2028503q-0.421875 0.79678345 -0.421875 1.8749084q0 1.09375 0.421875 1.9063416q0.4375 0.79696655 1.15625 1.2190247q0.734375 0.4220276 1.625 0.4222107q0.890625 2.1362305E-4 1.625 -0.4215088q0.734375 -0.4217224 1.15625 -1.2185059q0.4375 -0.81240845 0.4375 -1.8905334zm5.838745 -3.1862183q0.421875 -0.81240845 1.1875 -1.2653503q0.78125 -0.4529724 1.8906555 -0.45272827l0 1.625l-0.421875 -9.1552734E-5q-2.6562805 -5.79834E-4 -2.6562805 2.8900452l0 5.15625l-1.578125 -3.3569336E-4l0 -9.5l1.578125 3.3569336E-4l0 1.546875zm4.3070984 3.172821q0 -1.453125 0.578125 -2.546753q0.59375 -1.1092224 1.625 -1.7183838q1.03125 -0.60913086 2.296875 -0.6088562q1.25 2.746582E-4 2.15625 0.54733276q0.921875 0.5314636 1.375 1.3440552l0 -1.734375l1.59375 3.3569336E-4l0 9.5l-1.59375 -3.3569336E-4l0 -1.765625q-0.46875 0.82803345 -1.390625 1.3746948q-0.921875 0.5466614 -2.15625 0.5463867q-1.265625 -2.746582E-4 -2.296875 -0.6254883q-1.015625 -0.6252136 -1.609375 -1.7503662q-0.578125 -1.1251221 -0.578125 -2.562622zm8.03125 0.01739502q0 -1.078125 -0.4375 -1.8750916q-0.421875 -0.79696655 -1.15625 -1.2189941q-0.734375 -0.4220581 -1.625 -0.4222412q-0.890625 -2.1362305E-4 -1.625 0.4215088q-0.71875 0.4060974 -1.15625 1.2028809q-0.421875 0.79678345 -0.421875 1.8749084q0 1.09375 0.421875 1.9063416q0.4375 0.79696655 1.15625 1.2189941q0.734375 0.4220276 1.625 0.4222412q0.890625 1.8310547E-4 1.625 -0.4215088q0.734375 -0.4217224 1.15625 -1.2185059q0.4375 -0.81240845 0.4375 -1.8905334zm3.682495 7.9345703E-4q0 -1.46875 0.578125 -2.5623474q0.59375 -1.1092529 1.640625 -1.7184143q1.046875 -0.60913086 2.40625 -0.6088257q1.75 3.6621094E-4 2.875 0.85998535q1.140625 0.84402466 1.5 2.3440857l-1.6875 -3.6621094E-4q-0.25 -0.85943604 -0.953125 -1.3595886q-0.703125 -0.5001526 -1.734375 -0.5003662q-1.359375 -3.0517578E-4 -2.1875 0.9213867q-0.828125 0.9216919 -0.828125 2.624817q0 1.71875 0.828125 2.656433q0.828125 0.9376831 2.1875 0.9379883q1.03125 2.1362305E-4 1.71875 -0.4840088q0.703125 -0.4998474 0.96875 -1.3904114l1.6875 3.6621094E-4q-0.375 1.4530334 -1.515625 2.3277893q-1.140625 0.87475586 -2.859375 0.87438965q-1.359375 -3.0517578E-4 -2.40625 -0.6099243q-1.046875 -0.6095886 -1.640625 -1.7190857q-0.578125 -1.1095276 -0.578125 -2.5939026zm15.815002 -4.902771q1.078125 2.4414062E-4 1.9375 0.46917725q0.875 0.4533081 1.359375 1.3753052q0.5 0.92196655 0.5 2.2344666l0 5.59375l-1.5625 -3.3569336E-4l0 -5.375q0 -1.421875 -0.71875 -2.1720276q-0.703125 -0.7501526 -1.9375 -0.75042725q-1.234375 -2.746582E-4 -1.984375 0.78082275q-0.734375 0.7810669 -0.734375 2.265442l0 5.25l-1.578125 -3.3569336E-4l0 -12.828125l1.578125 3.3569336E-4l0 4.6875q0.46875 -0.7342529 1.296875 -1.1246948q0.828125 -0.4060669 1.84375 -0.40585327zm5.79303 4.8919067q0 -1.453125 0.578125 -2.546753q0.59375 -1.1092529 1.625 -1.7184143q1.03125 -0.60913086 2.296875 -0.6088562q1.25 2.746582E-4 2.15625 0.54733276q0.921875 0.5314636 1.375 1.3440552l0 -1.734375l1.59375 3.6621094E-4l0 9.5l-1.59375 -3.6621094E-4l0 -1.765625q-0.46875 0.82803345 -1.390625 1.3746948q-0.921875 0.5466919 -2.15625 0.54641724q-1.265625 -2.746582E-4 -2.296875 -0.6255188q-1.015625 -0.6252136 -1.609375 -1.7503357q-0.578125 -1.1251221 -0.578125 -2.562622zm8.03125 0.017364502q0 -1.078125 -0.4375 -1.8750916q-0.421875 -0.79696655 -1.15625 -1.2189941q-0.734375 -0.4220276 -1.625 -0.4222412q-0.890625 -1.8310547E-4 -1.625 0.4215393q-0.71875 0.4060669 -1.15625 1.2028503q-0.421875 0.79678345 -0.421875 1.8749084q0 1.09375 0.421875 1.9063416q0.4375 0.79696655 1.15625 1.2190247q0.734375 0.4220276 1.625 0.4222107q0.890625 2.1362305E-4 1.625 -0.4215088q0.734375 -0.4217224 1.15625 -1.2185059q0.4375 -0.81240845 0.4375 -1.8905334zm5.088745 -6.264496q-0.453125 -9.1552734E-5 -0.765625 -0.3126831q-0.3125 -0.31256104 -0.3125 -0.76568604q0 -0.453125 0.3125 -0.76556396q0.3125 -0.31240845 0.765625 -0.3123169q0.421875 9.1552734E-5 0.71875 0.3126526q0.3125 0.31256104 0.3125 0.76568604q0 0.453125 -0.3125 0.76556396q-0.296875 0.31243896 -0.71875 0.3123474zm0.75 1.5314026l0 9.5l-1.578125 -3.3569336E-4l0 -9.5l1.578125 3.3569336E-4zm7.3095703 -0.17025757q1.734375 3.6621094E-4 2.8125 1.0474854q1.078125 1.0471191 1.078125 3.0314941l0 5.59375l-1.5625 -3.3569336E-4l0 -5.375q0 -1.421875 -0.71875 -2.172058q-0.703125 -0.7501526 -1.9375 -0.75042725q-1.234375 -2.4414062E-4 -1.984375 0.78082275q-0.734375 0.7810974 -0.734375 2.2654724l0 5.25l-1.578125 -3.3569336E-4l0 -9.5l1.578125 3.3569336E-4l0 1.359375q0.46875 -0.73428345 1.265625 -1.1247253q0.8125 -0.4060669 1.78125 -0.40585327z" fill-rule="nonzero"/></g></svg>
